<svg xmlns="http://www.w3.org/2000/svg" xmlns:xlink="http://www.w3.org/1999/xlink" width="1244" height="614" viewBox="0 0 1244 614">
  <defs>
    <clipPath id="clip-path">
      <rect id="Rectángulo_46332" data-name="Rectángulo 46332" width="976" height="564" rx="16" fill="#f6f6f6"/>
    </clipPath>
    <clipPath id="clip-path-2">
      <ellipse id="Elipse_4979" data-name="Elipse 4979" cx="60.606" cy="60.606" rx="60.606" ry="60.606" fill="none"/>
    </clipPath>
  </defs>
  <g id="Grupo_155209" data-name="Grupo 155209" transform="translate(2487 9018)">
    <g id="Grupo_154709" data-name="Grupo 154709" transform="translate(-3192 -17544.164)">
      <g id="Grupo_154673" data-name="Grupo 154673" transform="translate(705 8526.164)">
        <rect id="Rectángulo_46422" data-name="Rectángulo 46422" width="1244" height="614" rx="30" fill="#f6f6f6"/>
        <g id="Enmascarar_grupo_141249" data-name="Enmascarar grupo 141249" opacity="0.603" clip-path="url(#clip-path)">
          <g id="Grupo_154672" data-name="Grupo 154672" transform="translate(-147.522 -67.815)">
            <path id="Trazado_174289" data-name="Trazado 174289" d="M239.454,383.022A155.376,155.376,0,1,0,394.83,538.4,155.376,155.376,0,0,0,239.454,383.022Zm0,279.695A124.319,124.319,0,1,1,363.773,538.4,124.319,124.319,0,0,1,239.454,662.717Z" transform="translate(75.723 -106.004)" fill="#e8e8e8" opacity="0.428"/>
            <path id="Trazado_174290" data-name="Trazado 174290" d="M131.275,324.633-102,557.9a20.38,20.38,0,0,1-28.824,0h0a20.382,20.382,0,0,1,0-28.824L102.451,295.81a20.381,20.381,0,0,1,28.824,0h0A20.381,20.381,0,0,1,131.275,324.633Z" transform="translate(136.79 -289.84)" fill="none" stroke="#8f9294" stroke-miterlimit="10" stroke-width="2" opacity="0.232"/>
            <path id="Trazado_174291" data-name="Trazado 174291" d="M112.6,414.72-65.456,592.773a15.557,15.557,0,0,1-22,0h0a15.556,15.556,0,0,1,0-22L90.6,392.718a15.558,15.558,0,0,1,22,0h0A15.558,15.558,0,0,1,112.6,414.72Z" transform="translate(131.794 -295.51)" fill="none" stroke="#8f9294" stroke-miterlimit="10" stroke-width="2" opacity="0.339"/>
            <g id="Grupo_124668" data-name="Grupo 124668" transform="translate(1027.016 262.859)">
              <line id="Línea_1655" data-name="Línea 1655" x1="14.937" y2="14.937" fill="none" stroke="#d8d9da" stroke-miterlimit="10" stroke-width="0.78"/>
              <line id="Línea_1656" data-name="Línea 1656" x1="14.937" y2="14.937" transform="translate(7.277)" fill="none" stroke="#d8d9da" stroke-miterlimit="10" stroke-width="0.78"/>
              <line id="Línea_1657" data-name="Línea 1657" x1="14.937" y2="14.937" transform="translate(14.554)" fill="none" stroke="#d8d9da" stroke-miterlimit="10" stroke-width="0.78"/>
              <line id="Línea_1658" data-name="Línea 1658" x1="14.937" y2="14.937" transform="translate(21.831)" fill="none" stroke="#d8d9da" stroke-miterlimit="10" stroke-width="0.78"/>
              <line id="Línea_1659" data-name="Línea 1659" x1="14.937" y2="14.937" transform="translate(29.108)" fill="none" stroke="#d8d9da" stroke-miterlimit="10" stroke-width="0.78"/>
              <line id="Línea_1660" data-name="Línea 1660" x1="14.937" y2="14.937" transform="translate(36.385)" fill="none" stroke="#d8d9da" stroke-miterlimit="10" stroke-width="0.78"/>
              <line id="Línea_1661" data-name="Línea 1661" x1="14.937" y2="14.937" transform="translate(43.662)" fill="none" stroke="#d8d9da" stroke-miterlimit="10" stroke-width="0.78"/>
              <line id="Línea_1662" data-name="Línea 1662" x1="14.937" y2="14.937" transform="translate(50.939)" fill="none" stroke="#d8d9da" stroke-miterlimit="10" stroke-width="0.78"/>
              <line id="Línea_1663" data-name="Línea 1663" x1="14.937" y2="14.937" transform="translate(58.216)" fill="none" stroke="#d8d9da" stroke-miterlimit="10" stroke-width="0.78"/>
              <line id="Línea_1664" data-name="Línea 1664" x1="14.937" y2="14.937" transform="translate(65.493)" fill="none" stroke="#d8d9da" stroke-miterlimit="10" stroke-width="0.78"/>
              <line id="Línea_1665" data-name="Línea 1665" x1="14.937" y2="14.937" transform="translate(72.77)" fill="none" stroke="#d8d9da" stroke-miterlimit="10" stroke-width="0.78"/>
              <line id="Línea_1666" data-name="Línea 1666" x1="14.937" y2="14.937" transform="translate(80.047)" fill="none" stroke="#d8d9da" stroke-miterlimit="10" stroke-width="0.78"/>
              <line id="Línea_1667" data-name="Línea 1667" x1="14.937" y2="14.937" transform="translate(87.324)" fill="none" stroke="#d8d9da" stroke-miterlimit="10" stroke-width="0.78"/>
            </g>
            <g id="Grupo_124677" data-name="Grupo 124677" transform="translate(290.36 165.223)">
              <g id="Grupo_124673" data-name="Grupo 124673">
                <line id="Línea_1668" data-name="Línea 1668" y2="12.052" transform="translate(6.026)" fill="none" stroke="#8f9294" stroke-miterlimit="10" stroke-width="0.388"/>
                <line id="Línea_1669" data-name="Línea 1669" x2="12.052" transform="translate(0 6.026)" fill="none" stroke="#8f9294" stroke-miterlimit="10" stroke-width="0.388"/>
              </g>
              <g id="Grupo_124674" data-name="Grupo 124674" transform="translate(32.842)">
                <line id="Línea_1670" data-name="Línea 1670" y2="12.052" transform="translate(6.026)" fill="none" stroke="#8f9294" stroke-miterlimit="10" stroke-width="0.388"/>
                <line id="Línea_1671" data-name="Línea 1671" x2="12.052" transform="translate(0 6.026)" fill="none" stroke="#8f9294" stroke-miterlimit="10" stroke-width="0.388"/>
              </g>
              <g id="Grupo_124675" data-name="Grupo 124675" transform="translate(65.685)">
                <line id="Línea_1672" data-name="Línea 1672" y2="12.052" transform="translate(6.026)" fill="none" stroke="#8f9294" stroke-miterlimit="10" stroke-width="0.388"/>
                <line id="Línea_1673" data-name="Línea 1673" x2="12.052" transform="translate(0 6.026)" fill="none" stroke="#8f9294" stroke-miterlimit="10" stroke-width="0.388"/>
              </g>
              <g id="Grupo_124676" data-name="Grupo 124676" transform="translate(98.527)">
                <line id="Línea_1674" data-name="Línea 1674" y2="12.052" transform="translate(6.026)" fill="none" stroke="#8f9294" stroke-miterlimit="10" stroke-width="0.388"/>
                <line id="Línea_1675" data-name="Línea 1675" x2="12.052" transform="translate(0 6.026)" fill="none" stroke="#8f9294" stroke-miterlimit="10" stroke-width="0.388"/>
              </g>
            </g>
            <g id="Grupo_124682" data-name="Grupo 124682" transform="translate(290.36 185.183)">
              <g id="Grupo_124678" data-name="Grupo 124678">
                <line id="Línea_1676" data-name="Línea 1676" y2="12.052" transform="translate(6.026)" fill="none" stroke="#8f9294" stroke-miterlimit="10" stroke-width="0.388"/>
                <line id="Línea_1677" data-name="Línea 1677" x2="12.052" transform="translate(0 6.026)" fill="none" stroke="#8f9294" stroke-miterlimit="10" stroke-width="0.388"/>
              </g>
              <g id="Grupo_124679" data-name="Grupo 124679" transform="translate(32.842)">
                <line id="Línea_1678" data-name="Línea 1678" y2="12.052" transform="translate(6.026)" fill="none" stroke="#8f9294" stroke-miterlimit="10" stroke-width="0.388"/>
                <line id="Línea_1679" data-name="Línea 1679" x2="12.052" transform="translate(0 6.026)" fill="none" stroke="#8f9294" stroke-miterlimit="10" stroke-width="0.388"/>
              </g>
              <g id="Grupo_124680" data-name="Grupo 124680" transform="translate(65.685)">
                <line id="Línea_1680" data-name="Línea 1680" y2="12.052" transform="translate(6.026)" fill="none" stroke="#8f9294" stroke-miterlimit="10" stroke-width="0.388"/>
                <line id="Línea_1681" data-name="Línea 1681" x2="12.052" transform="translate(0 6.026)" fill="none" stroke="#8f9294" stroke-miterlimit="10" stroke-width="0.388"/>
              </g>
              <g id="Grupo_124681" data-name="Grupo 124681" transform="translate(98.527)">
                <line id="Línea_1682" data-name="Línea 1682" y2="12.052" transform="translate(6.026)" fill="none" stroke="#8f9294" stroke-miterlimit="10" stroke-width="0.388"/>
                <line id="Línea_1683" data-name="Línea 1683" x2="12.052" transform="translate(0 6.026)" fill="none" stroke="#8f9294" stroke-miterlimit="10" stroke-width="0.388"/>
              </g>
            </g>
            <g id="Grupo_124687" data-name="Grupo 124687" transform="translate(290.36 205.143)">
              <g id="Grupo_124683" data-name="Grupo 124683">
                <line id="Línea_1684" data-name="Línea 1684" y2="12.052" transform="translate(6.026)" fill="none" stroke="#8f9294" stroke-miterlimit="10" stroke-width="0.388"/>
                <line id="Línea_1685" data-name="Línea 1685" x2="12.052" transform="translate(0 6.026)" fill="none" stroke="#8f9294" stroke-miterlimit="10" stroke-width="0.388"/>
              </g>
              <g id="Grupo_124684" data-name="Grupo 124684" transform="translate(32.842)">
                <line id="Línea_1686" data-name="Línea 1686" y2="12.052" transform="translate(6.026)" fill="none" stroke="#8f9294" stroke-miterlimit="10" stroke-width="0.388"/>
                <line id="Línea_1687" data-name="Línea 1687" x2="12.052" transform="translate(0 6.026)" fill="none" stroke="#8f9294" stroke-miterlimit="10" stroke-width="0.388"/>
              </g>
              <g id="Grupo_124685" data-name="Grupo 124685" transform="translate(65.685)">
                <line id="Línea_1688" data-name="Línea 1688" y2="12.052" transform="translate(6.026)" fill="none" stroke="#8f9294" stroke-miterlimit="10" stroke-width="0.388"/>
                <line id="Línea_1689" data-name="Línea 1689" x2="12.052" transform="translate(0 6.026)" fill="none" stroke="#8f9294" stroke-miterlimit="10" stroke-width="0.388"/>
              </g>
              <g id="Grupo_124686" data-name="Grupo 124686" transform="translate(98.527)">
                <line id="Línea_1690" data-name="Línea 1690" y2="12.052" transform="translate(6.026)" fill="none" stroke="#8f9294" stroke-miterlimit="10" stroke-width="0.388"/>
                <line id="Línea_1691" data-name="Línea 1691" x2="12.052" transform="translate(0 6.026)" fill="none" stroke="#8f9294" stroke-miterlimit="10" stroke-width="0.388"/>
              </g>
            </g>
            <g id="Grupo_124692" data-name="Grupo 124692" transform="translate(290.36 225.104)">
              <g id="Grupo_124688" data-name="Grupo 124688">
                <line id="Línea_1692" data-name="Línea 1692" y2="12.052" transform="translate(6.026)" fill="none" stroke="#8f9294" stroke-miterlimit="10" stroke-width="0.388"/>
                <line id="Línea_1693" data-name="Línea 1693" x2="12.052" transform="translate(0 6.026)" fill="none" stroke="#8f9294" stroke-miterlimit="10" stroke-width="0.388"/>
              </g>
              <g id="Grupo_124689" data-name="Grupo 124689" transform="translate(32.842)">
                <line id="Línea_1694" data-name="Línea 1694" y2="12.052" transform="translate(6.026)" fill="none" stroke="#8f9294" stroke-miterlimit="10" stroke-width="0.388"/>
                <line id="Línea_1695" data-name="Línea 1695" x2="12.052" transform="translate(0 6.026)" fill="none" stroke="#8f9294" stroke-miterlimit="10" stroke-width="0.388"/>
              </g>
              <g id="Grupo_124690" data-name="Grupo 124690" transform="translate(65.685)">
                <line id="Línea_1696" data-name="Línea 1696" y2="12.052" transform="translate(6.026)" fill="none" stroke="#8f9294" stroke-miterlimit="10" stroke-width="0.388"/>
                <line id="Línea_1697" data-name="Línea 1697" x2="12.052" transform="translate(0 6.026)" fill="none" stroke="#8f9294" stroke-miterlimit="10" stroke-width="0.388"/>
              </g>
              <g id="Grupo_124691" data-name="Grupo 124691" transform="translate(98.527)">
                <line id="Línea_1698" data-name="Línea 1698" y2="12.052" transform="translate(6.026)" fill="none" stroke="#8f9294" stroke-miterlimit="10" stroke-width="0.388"/>
                <line id="Línea_1699" data-name="Línea 1699" x2="12.052" transform="translate(0 6.026)" fill="none" stroke="#8f9294" stroke-miterlimit="10" stroke-width="0.388"/>
              </g>
            </g>
            <rect id="Rectángulo_35685" data-name="Rectángulo 35685" width="133.63" height="11.205" transform="translate(771.563 112.231)" fill="none" stroke="#8f9294" stroke-linecap="round" stroke-linejoin="round" stroke-width="1"/>
            <path id="Trazado_174309" data-name="Trazado 174309" d="M753.083,275.471a28.439,28.439,0,1,0,28.44,28.439A28.438,28.438,0,0,0,753.083,275.471Zm0,41.737a13.3,13.3,0,1,1,13.3-13.3A13.3,13.3,0,0,1,753.083,317.208Z" transform="translate(217.368 -118.854)" fill="#fff"/>
            <g id="Grupo_124745" data-name="Grupo 124745" transform="translate(894.024 347.703)" clip-path="url(#clip-path-2)">
              <path id="Trazado_174310" data-name="Trazado 174310" d="M515.338,136.445c-16.762,17.793-34.762,34.353-51.528,52.216" transform="translate(-470.327 -139.288)" fill="none" stroke="#606060" stroke-miterlimit="10" stroke-width="0.655"/>
              <path id="Trazado_174311" data-name="Trazado 174311" d="M523.01,136.393c-18.671,20.01-39.55,39.449-59.238,59.21" transform="translate(-470.331 -139.293)" fill="none" stroke="#606060" stroke-miterlimit="10" stroke-width="0.655"/>
              <path id="Trazado_174312" data-name="Trazado 174312" d="M530.115,136.4c-22.163,22.158-44.483,44.477-66.471,66.482" transform="translate(-470.343 -139.292)" fill="none" stroke="#606060" stroke-miterlimit="10" stroke-width="0.655"/>
              <path id="Trazado_174313" data-name="Trazado 174313" d="M537.139,136.55q-36.228,36.236-73.444,73.432" transform="translate(-470.338 -139.277)" fill="none" stroke="#606060" stroke-miterlimit="10" stroke-width="0.655"/>
              <path id="Trazado_174314" data-name="Trazado 174314" d="M545.747,136.489c-27.009,26.385-54.368,53.024-81.979,80.452" transform="translate(-470.331 -139.283)" fill="none" stroke="#606060" stroke-miterlimit="10" stroke-width="0.655"/>
              <path id="Trazado_174315" data-name="Trazado 174315" d="M551.406,136.579c-28.334,29.166-56.414,56.525-85.214,86.044-.719.72-2.159.72-2.541,1.708" transform="translate(-470.343 -139.274)" fill="none" stroke="#606060" stroke-miterlimit="10" stroke-width="0.655"/>
              <path id="Trazado_174316" data-name="Trazado 174316" d="M559.212,136.461c-17.442,18.495-36.162,35.055-54.882,53.774-13.679,14.4-27.36,26.64-40.468,41.012" transform="translate(-470.322 -139.286)" fill="none" stroke="#606060" stroke-miterlimit="10" stroke-width="0.655"/>
              <path id="Trazado_174317" data-name="Trazado 174317" d="M564.08,137.765c-33.1,33.621-67.66,66.02-100.31,100.545" transform="translate(-470.331 -139.156)" fill="none" stroke="#606060" stroke-miterlimit="10" stroke-width="0.655"/>
              <path id="Trazado_174318" data-name="Trazado 174318" d="M564,144.249c-33.031,32.968-66.87,66.808-100.119,100.246" transform="translate(-470.32 -138.507)" fill="none" stroke="#606060" stroke-miterlimit="10" stroke-width="0.655"/>
              <path id="Trazado_174319" data-name="Trazado 174319" d="M567.625,147.767c-34.5,34.858-69.779,68.7-103.727,103.618" transform="translate(-470.318 -138.156)" fill="none" stroke="#606060" stroke-miterlimit="10" stroke-width="0.655"/>
              <path id="Trazado_174320" data-name="Trazado 174320" d="M574.825,147.736c-37.351,37.053-73.35,75.212-111.209,111.109" transform="translate(-470.346 -138.159)" fill="none" stroke="#606060" stroke-miterlimit="10" stroke-width="0.655"/>
              <path id="Trazado_174321" data-name="Trazado 174321" d="M581.11,147.97,467.2,261.875" transform="translate(-469.987 -138.136)" fill="none" stroke="#606060" stroke-miterlimit="10" stroke-width="0.655"/>
              <path id="Trazado_174322" data-name="Trazado 174322" d="M587.464,147.974C549.435,185.485,512,223.644,473.615,261.94" transform="translate(-469.347 -138.135)" fill="none" stroke="#606060" stroke-miterlimit="10" stroke-width="0.655"/>
              <path id="Trazado_174323" data-name="Trazado 174323" d="M590.585,150.913c-36.755,36.438-72.754,73.877-110.528,110.761" transform="translate(-468.703 -137.841)" fill="none" stroke="#606060" stroke-miterlimit="10" stroke-width="0.655"/>
              <path id="Trazado_174324" data-name="Trazado 174324" d="M590.156,157.09c-34.813,34.683-67.932,70.683-103.627,103.964" transform="translate(-468.056 -137.224)" fill="none" stroke="#606060" stroke-miterlimit="10" stroke-width="0.655"/>
              <path id="Trazado_174325" data-name="Trazado 174325" d="M589.242,164.17c-32.389,31.935-64.069,64.335-96.213,96.142" transform="translate(-467.406 -136.516)" fill="none" stroke="#606060" stroke-miterlimit="10" stroke-width="0.655"/>
              <path id="Trazado_174326" data-name="Trazado 174326" d="M588.8,170.164c-29.718,29.662-59.238,59.9-89.246,89.486" transform="translate(-466.754 -135.917)" fill="none" stroke="#606060" stroke-miterlimit="10" stroke-width="0.655"/>
              <path id="Trazado_174327" data-name="Trazado 174327" d="M588.081,176.763q-41.219,41.165-82.139,82.315" transform="translate(-466.115 -135.257)" fill="none" stroke="#606060" stroke-miterlimit="10" stroke-width="0.655"/>
              <path id="Trazado_174328" data-name="Trazado 174328" d="M587.508,183.234c-24.682,25.365-49.883,50.564-75,75.091" transform="translate(-465.458 -134.61)" fill="none" stroke="#606060" stroke-miterlimit="10" stroke-width="0.655"/>
              <path id="Trazado_174329" data-name="Trazado 174329" d="M586.777,189.833c-22.434,22.426-45.473,45.466-67.845,67.881" transform="translate(-464.816 -133.95)" fill="none" stroke="#606060" stroke-miterlimit="10" stroke-width="0.655"/>
              <path id="Trazado_174330" data-name="Trazado 174330" d="M585.944,196.537q-30.126,30.138-60.575,60.541" transform="translate(-464.173 -133.28)" fill="none" stroke="#606060" stroke-miterlimit="10" stroke-width="0.655"/>
              <path id="Trazado_174331" data-name="Trazado 174331" d="M585.52,202.6q-20.962,20.874-41.814,41.858-5.953,6.008-11.888,12.035" transform="translate(-463.528 -132.674)" fill="none" stroke="#606060" stroke-miterlimit="10" stroke-width="0.655"/>
              <path id="Trazado_174332" data-name="Trazado 174332" d="M584.822,209.851c-15.213,15.527-31.052,31.367-46.547,45.929" transform="translate(-462.883 -131.949)" fill="none" stroke="#606060" stroke-miterlimit="10" stroke-width="0.655"/>
            </g>
            <ellipse id="Elipse_4980" data-name="Elipse 4980" cx="5.899" cy="5.899" rx="5.899" ry="5.899" transform="translate(998.891 88.282)" fill="none" stroke="#606060" stroke-miterlimit="10" stroke-width="0.655"/>
            <g id="Grupo_124668-2" data-name="Grupo 124668" transform="translate(1048.824 137.018)">
              <line id="Línea_1655-2" data-name="Línea 1655" x1="11.752" y2="11.751" fill="none" stroke="#d8d9da" stroke-miterlimit="10" stroke-width="0.78"/>
              <line id="Línea_1656-2" data-name="Línea 1656" x1="11.752" y2="11.751" transform="translate(5.725)" fill="none" stroke="#d8d9da" stroke-miterlimit="10" stroke-width="0.78"/>
              <line id="Línea_1657-2" data-name="Línea 1657" x1="11.752" y2="11.751" transform="translate(11.45)" fill="none" stroke="#d8d9da" stroke-miterlimit="10" stroke-width="0.78"/>
              <line id="Línea_1658-2" data-name="Línea 1658" x1="11.752" y2="11.751" transform="translate(17.175)" fill="none" stroke="#d8d9da" stroke-miterlimit="10" stroke-width="0.78"/>
              <line id="Línea_1659-2" data-name="Línea 1659" x1="11.752" y2="11.751" transform="translate(22.9)" fill="none" stroke="#d8d9da" stroke-miterlimit="10" stroke-width="0.78"/>
              <line id="Línea_1660-2" data-name="Línea 1660" x1="11.752" y2="11.751" transform="translate(28.625)" fill="none" stroke="#d8d9da" stroke-miterlimit="10" stroke-width="0.78"/>
              <line id="Línea_1661-2" data-name="Línea 1661" x1="11.752" y2="11.751" transform="translate(34.351)" fill="none" stroke="#d8d9da" stroke-miterlimit="10" stroke-width="0.78"/>
              <line id="Línea_1662-2" data-name="Línea 1662" x1="11.752" y2="11.751" transform="translate(40.076)" fill="none" stroke="#d8d9da" stroke-miterlimit="10" stroke-width="0.78"/>
              <line id="Línea_1663-2" data-name="Línea 1663" x1="11.752" y2="11.751" transform="translate(45.801)" fill="none" stroke="#d8d9da" stroke-miterlimit="10" stroke-width="0.78"/>
              <line id="Línea_1664-2" data-name="Línea 1664" x1="11.752" y2="11.751" transform="translate(51.526)" fill="none" stroke="#d8d9da" stroke-miterlimit="10" stroke-width="0.78"/>
              <line id="Línea_1665-2" data-name="Línea 1665" x1="11.752" y2="11.751" transform="translate(57.251)" fill="none" stroke="#d8d9da" stroke-miterlimit="10" stroke-width="0.78"/>
              <line id="Línea_1666-2" data-name="Línea 1666" x1="11.752" y2="11.751" transform="translate(62.976)" fill="none" stroke="#d8d9da" stroke-miterlimit="10" stroke-width="0.78"/>
              <line id="Línea_1667-2" data-name="Línea 1667" x1="11.752" y2="11.751" transform="translate(68.701)" fill="none" stroke="#d8d9da" stroke-miterlimit="10" stroke-width="0.78"/>
            </g>
          </g>
        </g>
      </g>
    </g>
  </g>
</svg>
