<svg xmlns="http://www.w3.org/2000/svg" width="43" height="43" viewBox="0 0 43 43">
  <g id="Grupo_157851" data-name="Grupo 157851" transform="translate(-180 -1270)">
    <rect id="Rectángulo_46423" data-name="Rectángulo 46423" width="43" height="43" transform="translate(180 1270)" fill="#e7f65a"/>
    <path id="Trazado_198329" data-name="Trazado 198329" d="M4.727,0H1.309V-14.219H4.727ZM8.994-3.193a1.874,1.874,0,0,1,1.3.464,1.522,1.522,0,0,1,.518,1.187,1.522,1.522,0,0,1-.518,1.187,1.874,1.874,0,0,1-1.3.464,1.858,1.858,0,0,1-1.3-.469,1.533,1.533,0,0,1-.513-1.182A1.533,1.533,0,0,1,7.69-2.725,1.858,1.858,0,0,1,8.994-3.193Z" transform="translate(196 1299)" fill="#12263f"/>
  </g>
</svg>
