<svg xmlns="http://www.w3.org/2000/svg" width="43" height="43" viewBox="0 0 43 43">
  <g id="Grupo_157853" data-name="Grupo 157853" transform="translate(-180 -2404)">
    <rect id="Rectángulo_46465" data-name="Rectángulo 46465" width="43" height="43" transform="translate(180 2404)" fill="#e7f65a"/>
    <path id="Trazado_198331" data-name="Trazado 198331" d="M-7.349,0h-3.418V-14.219h3.418Zm6.035,0H-4.731V-14.219h3.418ZM4.722,0H1.3V-14.219H4.722ZM8.989-3.193a1.874,1.874,0,0,1,1.3.464,1.522,1.522,0,0,1,.518,1.187,1.522,1.522,0,0,1-.518,1.187,1.874,1.874,0,0,1-1.3.464,1.858,1.858,0,0,1-1.3-.469,1.533,1.533,0,0,1-.513-1.182,1.533,1.533,0,0,1,.513-1.182A1.858,1.858,0,0,1,8.989-3.193Z" transform="translate(202 2433)" fill="#12263f"/>
  </g>
</svg>
