<svg xmlns="http://www.w3.org/2000/svg" width="84.412" height="180.281" viewBox="0 0 84.412 180.281">
  <g id="Grupo_154507" data-name="Grupo 154507" transform="translate(-180 -2069)">
    <rect id="Rectángulo_45220" data-name="Rectángulo 45220" width="126.699" height="48.731" transform="translate(228.731 2069) rotate(90)" fill="#e4e4e4"/>
    <rect id="Rectángulo_45221" data-name="Rectángulo 45221" width="4.203" height="4.203" transform="translate(260.21 2088.535) rotate(-90)" fill="#7f4fc7"/>
    <rect id="Rectángulo_45222" data-name="Rectángulo 45222" width="4.203" height="4.203" transform="translate(260.21 2097.465) rotate(-90)" fill="#7f4fc7"/>
    <rect id="Rectángulo_45223" data-name="Rectángulo 45223" width="4.203" height="4.203" transform="translate(260.21 2106.396) rotate(-90)" fill="#7f4fc7"/>
    <rect id="Rectángulo_45224" data-name="Rectángulo 45224" width="4.202" height="4.203" transform="translate(260.21 2115.326) rotate(-90)" fill="#7f4fc7"/>
    <rect id="Rectángulo_45225" data-name="Rectángulo 45225" width="4.203" height="4.203" transform="translate(260.21 2124.257) rotate(-90)" fill="#7f4fc7"/>
    <rect id="Rectángulo_45226" data-name="Rectángulo 45226" width="4.202" height="4.203" transform="translate(260.21 2133.187) rotate(-90)" fill="#7f4fc7"/>
    <rect id="Rectángulo_45227" data-name="Rectángulo 45227" width="4.203" height="4.203" transform="translate(260.21 2142.117) rotate(-90)" fill="#7f4fc7"/>
    <rect id="Rectángulo_45228" data-name="Rectángulo 45228" width="4.202" height="4.203" transform="translate(260.21 2151.048) rotate(-90)" fill="#7f4fc7"/>
    <rect id="Rectángulo_45229" data-name="Rectángulo 45229" width="4.203" height="4.203" transform="translate(260.21 2159.979) rotate(-90)" fill="#7f4fc7"/>
    <rect id="Rectángulo_46135" data-name="Rectángulo 46135" width="4.203" height="4.203" transform="translate(260.21 2186.77) rotate(-90)" fill="#7f4fc7"/>
    <rect id="Rectángulo_46159" data-name="Rectángulo 46159" width="4.203" height="4.203" transform="translate(260.21 2213.561) rotate(-90)" fill="#7f4fc7"/>
    <rect id="Rectángulo_45230" data-name="Rectángulo 45230" width="4.203" height="4.203" transform="translate(260.21 2168.908) rotate(-90)" fill="#7f4fc7"/>
    <rect id="Rectángulo_46125" data-name="Rectángulo 46125" width="4.203" height="4.203" transform="translate(260.21 2195.699) rotate(-90)" fill="#7f4fc7"/>
    <rect id="Rectángulo_46160" data-name="Rectángulo 46160" width="4.203" height="4.203" transform="translate(260.21 2222.49) rotate(-90)" fill="#7f4fc7"/>
    <rect id="Rectángulo_46168" data-name="Rectángulo 46168" width="4.203" height="4.203" transform="translate(260.21 2240.351) rotate(-90)" fill="#7f4fc7"/>
    <rect id="Rectángulo_45231" data-name="Rectángulo 45231" width="4.203" height="4.203" transform="translate(260.21 2177.839) rotate(-90)" fill="#7f4fc7"/>
    <rect id="Rectángulo_46123" data-name="Rectángulo 46123" width="4.203" height="4.203" transform="translate(260.21 2204.63) rotate(-90)" fill="#7f4fc7"/>
    <rect id="Rectángulo_46161" data-name="Rectángulo 46161" width="4.203" height="4.203" transform="translate(260.21 2231.421) rotate(-90)" fill="#7f4fc7"/>
    <rect id="Rectángulo_46162" data-name="Rectángulo 46162" width="4.203" height="4.203" transform="translate(260.21 2249.281) rotate(-90)" fill="#7f4fc7"/>
    <rect id="Rectángulo_45232" data-name="Rectángulo 45232" width="4.203" height="4.203" transform="translate(251.279 2088.535) rotate(-90)" fill="#7f4fc7"/>
    <rect id="Rectángulo_45233" data-name="Rectángulo 45233" width="4.203" height="4.203" transform="translate(251.279 2097.465) rotate(-90)" fill="#7f4fc7"/>
    <rect id="Rectángulo_45234" data-name="Rectángulo 45234" width="4.203" height="4.203" transform="translate(251.279 2106.396) rotate(-90)" fill="#7f4fc7"/>
    <rect id="Rectángulo_45235" data-name="Rectángulo 45235" width="4.202" height="4.203" transform="translate(251.279 2115.326) rotate(-90)" fill="#7f4fc7"/>
    <rect id="Rectángulo_45236" data-name="Rectángulo 45236" width="4.203" height="4.203" transform="translate(251.279 2124.257) rotate(-90)" fill="#7f4fc7"/>
    <rect id="Rectángulo_45237" data-name="Rectángulo 45237" width="4.202" height="4.203" transform="translate(251.279 2133.187) rotate(-90)" fill="#7f4fc7"/>
    <rect id="Rectángulo_45238" data-name="Rectángulo 45238" width="4.203" height="4.203" transform="translate(251.279 2142.117) rotate(-90)" fill="#7f4fc7"/>
    <rect id="Rectángulo_45239" data-name="Rectángulo 45239" width="4.202" height="4.203" transform="translate(251.279 2151.048) rotate(-90)" fill="#7f4fc7"/>
    <rect id="Rectángulo_45240" data-name="Rectángulo 45240" width="4.203" height="4.203" transform="translate(251.279 2159.979) rotate(-90)" fill="#7f4fc7"/>
    <rect id="Rectángulo_46136" data-name="Rectángulo 46136" width="4.203" height="4.203" transform="translate(251.279 2186.77) rotate(-90)" fill="#7f4fc7"/>
    <rect id="Rectángulo_46156" data-name="Rectángulo 46156" width="4.203" height="4.203" transform="translate(251.279 2213.561) rotate(-90)" fill="#7f4fc7"/>
    <rect id="Rectángulo_45241" data-name="Rectángulo 45241" width="4.203" height="4.203" transform="translate(251.279 2168.908) rotate(-90)" fill="#7f4fc7"/>
    <rect id="Rectángulo_46126" data-name="Rectángulo 46126" width="4.203" height="4.203" transform="translate(251.279 2195.699) rotate(-90)" fill="#7f4fc7"/>
    <rect id="Rectángulo_46157" data-name="Rectángulo 46157" width="4.203" height="4.203" transform="translate(251.279 2222.49) rotate(-90)" fill="#7f4fc7"/>
    <rect id="Rectángulo_46169" data-name="Rectángulo 46169" width="4.203" height="4.203" transform="translate(251.279 2240.351) rotate(-90)" fill="#7f4fc7"/>
    <rect id="Rectángulo_45242" data-name="Rectángulo 45242" width="4.203" height="4.203" transform="translate(251.279 2177.839) rotate(-90)" fill="#7f4fc7"/>
    <rect id="Rectángulo_46124" data-name="Rectángulo 46124" width="4.203" height="4.203" transform="translate(251.279 2204.63) rotate(-90)" fill="#7f4fc7"/>
    <rect id="Rectángulo_46158" data-name="Rectángulo 46158" width="4.203" height="4.203" transform="translate(251.279 2231.421) rotate(-90)" fill="#7f4fc7"/>
    <rect id="Rectángulo_46163" data-name="Rectángulo 46163" width="4.203" height="4.203" transform="translate(251.279 2249.281) rotate(-90)" fill="#7f4fc7"/>
    <rect id="Rectángulo_45243" data-name="Rectángulo 45243" width="4.203" height="4.203" transform="translate(242.349 2088.535) rotate(-90)" fill="#7f4fc7"/>
    <rect id="Rectángulo_45244" data-name="Rectángulo 45244" width="4.203" height="4.203" transform="translate(242.349 2097.465) rotate(-90)" fill="#7f4fc7"/>
    <rect id="Rectángulo_45245" data-name="Rectángulo 45245" width="4.203" height="4.203" transform="translate(242.349 2106.396) rotate(-90)" fill="#7f4fc7"/>
    <rect id="Rectángulo_45246" data-name="Rectángulo 45246" width="4.202" height="4.203" transform="translate(242.349 2115.326) rotate(-90)" fill="#7f4fc7"/>
    <rect id="Rectángulo_45247" data-name="Rectángulo 45247" width="4.203" height="4.203" transform="translate(242.349 2124.257) rotate(-90)" fill="#7f4fc7"/>
    <rect id="Rectángulo_45248" data-name="Rectángulo 45248" width="4.202" height="4.203" transform="translate(242.349 2133.187) rotate(-90)" fill="#7f4fc7"/>
    <rect id="Rectángulo_45249" data-name="Rectángulo 45249" width="4.203" height="4.203" transform="translate(242.349 2142.117) rotate(-90)" fill="#7f4fc7"/>
    <rect id="Rectángulo_45250" data-name="Rectángulo 45250" width="4.202" height="4.203" transform="translate(242.349 2151.048) rotate(-90)" fill="#7f4fc7"/>
    <rect id="Rectángulo_45251" data-name="Rectángulo 45251" width="4.203" height="4.203" transform="translate(242.349 2159.979) rotate(-90)" fill="#7f4fc7"/>
    <rect id="Rectángulo_46137" data-name="Rectángulo 46137" width="4.203" height="4.203" transform="translate(242.349 2186.77) rotate(-90)" fill="#7f4fc7"/>
    <rect id="Rectángulo_46146" data-name="Rectángulo 46146" width="4.203" height="4.203" transform="translate(242.349 2213.561) rotate(-90)" fill="#7f4fc7"/>
    <rect id="Rectángulo_45252" data-name="Rectángulo 45252" width="4.203" height="4.203" transform="translate(242.349 2168.908) rotate(-90)" fill="#7f4fc7"/>
    <rect id="Rectángulo_46127" data-name="Rectángulo 46127" width="4.203" height="4.203" transform="translate(242.349 2195.699) rotate(-90)" fill="#7f4fc7"/>
    <rect id="Rectángulo_46147" data-name="Rectángulo 46147" width="4.203" height="4.203" transform="translate(242.349 2222.49) rotate(-90)" fill="#7f4fc7"/>
    <rect id="Rectángulo_46170" data-name="Rectángulo 46170" width="4.203" height="4.203" transform="translate(242.349 2240.351) rotate(-90)" fill="#7f4fc7"/>
    <rect id="Rectángulo_45253" data-name="Rectángulo 45253" width="4.203" height="4.203" transform="translate(242.349 2177.839) rotate(-90)" fill="#7f4fc7"/>
    <rect id="Rectángulo_46128" data-name="Rectángulo 46128" width="4.203" height="4.203" transform="translate(242.349 2204.63) rotate(-90)" fill="#7f4fc7"/>
    <rect id="Rectángulo_46148" data-name="Rectángulo 46148" width="4.203" height="4.203" transform="translate(242.349 2231.421) rotate(-90)" fill="#7f4fc7"/>
    <rect id="Rectángulo_46164" data-name="Rectángulo 46164" width="4.203" height="4.203" transform="translate(242.349 2249.281) rotate(-90)" fill="#7f4fc7"/>
    <rect id="Rectángulo_45221-2" data-name="Rectángulo 45221" width="4.203" height="4.203" transform="translate(234.165 2088.535) rotate(-90)" fill="#7f4fc7"/>
    <rect id="Rectángulo_45222-2" data-name="Rectángulo 45222" width="4.203" height="4.203" transform="translate(234.165 2097.465) rotate(-90)" fill="#7f4fc7"/>
    <rect id="Rectángulo_45223-2" data-name="Rectángulo 45223" width="4.203" height="4.203" transform="translate(234.165 2106.396) rotate(-90)" fill="#7f4fc7"/>
    <rect id="Rectángulo_45224-2" data-name="Rectángulo 45224" width="4.202" height="4.203" transform="translate(234.165 2115.326) rotate(-90)" fill="#7f4fc7"/>
    <rect id="Rectángulo_45225-2" data-name="Rectángulo 45225" width="4.203" height="4.203" transform="translate(234.165 2124.257) rotate(-90)" fill="#7f4fc7"/>
    <rect id="Rectángulo_45226-2" data-name="Rectángulo 45226" width="4.202" height="4.203" transform="translate(234.165 2133.187) rotate(-90)" fill="#7f4fc7"/>
    <rect id="Rectángulo_45227-2" data-name="Rectángulo 45227" width="4.203" height="4.203" transform="translate(234.165 2142.117) rotate(-90)" fill="#7f4fc7"/>
    <rect id="Rectángulo_45228-2" data-name="Rectángulo 45228" width="4.202" height="4.203" transform="translate(234.165 2151.048) rotate(-90)" fill="#7f4fc7"/>
    <rect id="Rectángulo_45229-2" data-name="Rectángulo 45229" width="4.203" height="4.203" transform="translate(234.165 2159.979) rotate(-90)" fill="#7f4fc7"/>
    <rect id="Rectángulo_46138" data-name="Rectángulo 46138" width="4.203" height="4.203" transform="translate(234.165 2186.77) rotate(-90)" fill="#7f4fc7"/>
    <rect id="Rectángulo_46149" data-name="Rectángulo 46149" width="4.203" height="4.203" transform="translate(234.165 2213.561) rotate(-90)" fill="#7f4fc7"/>
    <rect id="Rectángulo_45230-2" data-name="Rectángulo 45230" width="4.203" height="4.203" transform="translate(234.165 2168.908) rotate(-90)" fill="#7f4fc7"/>
    <rect id="Rectángulo_46129" data-name="Rectángulo 46129" width="4.203" height="4.203" transform="translate(234.165 2195.699) rotate(-90)" fill="#7f4fc7"/>
    <rect id="Rectángulo_46150" data-name="Rectángulo 46150" width="4.203" height="4.203" transform="translate(234.165 2222.49) rotate(-90)" fill="#7f4fc7"/>
    <rect id="Rectángulo_46171" data-name="Rectángulo 46171" width="4.203" height="4.203" transform="translate(234.165 2240.351) rotate(-90)" fill="#7f4fc7"/>
    <rect id="Rectángulo_45231-2" data-name="Rectángulo 45231" width="4.203" height="4.203" transform="translate(234.165 2177.839) rotate(-90)" fill="#7f4fc7"/>
    <rect id="Rectángulo_46130" data-name="Rectángulo 46130" width="4.203" height="4.203" transform="translate(234.165 2204.63) rotate(-90)" fill="#7f4fc7"/>
    <rect id="Rectángulo_46151" data-name="Rectángulo 46151" width="4.203" height="4.203" transform="translate(234.165 2231.421) rotate(-90)" fill="#7f4fc7"/>
    <rect id="Rectángulo_46165" data-name="Rectángulo 46165" width="4.203" height="4.203" transform="translate(234.165 2249.281) rotate(-90)" fill="#7f4fc7"/>
    <rect id="Rectángulo_45232-2" data-name="Rectángulo 45232" width="4.203" height="4.203" transform="translate(225.235 2088.535) rotate(-90)" fill="#7f4fc7"/>
    <rect id="Rectángulo_45233-2" data-name="Rectángulo 45233" width="4.203" height="4.203" transform="translate(225.235 2097.465) rotate(-90)" fill="#7f4fc7"/>
    <rect id="Rectángulo_45234-2" data-name="Rectángulo 45234" width="4.203" height="4.203" transform="translate(225.235 2106.396) rotate(-90)" fill="#7f4fc7"/>
    <rect id="Rectángulo_45235-2" data-name="Rectángulo 45235" width="4.202" height="4.203" transform="translate(225.235 2115.326) rotate(-90)" fill="#7f4fc7"/>
    <rect id="Rectángulo_45236-2" data-name="Rectángulo 45236" width="4.203" height="4.203" transform="translate(225.235 2124.257) rotate(-90)" fill="#7f4fc7"/>
    <rect id="Rectángulo_45237-2" data-name="Rectángulo 45237" width="4.202" height="4.203" transform="translate(225.235 2133.187) rotate(-90)" fill="#7f4fc7"/>
    <rect id="Rectángulo_45238-2" data-name="Rectángulo 45238" width="4.203" height="4.203" transform="translate(225.235 2142.117) rotate(-90)" fill="#7f4fc7"/>
    <rect id="Rectángulo_45239-2" data-name="Rectángulo 45239" width="4.202" height="4.203" transform="translate(225.235 2151.048) rotate(-90)" fill="#7f4fc7"/>
    <rect id="Rectángulo_45240-2" data-name="Rectángulo 45240" width="4.203" height="4.203" transform="translate(225.235 2159.979) rotate(-90)" fill="#7f4fc7"/>
    <rect id="Rectángulo_46139" data-name="Rectángulo 46139" width="4.203" height="4.203" transform="translate(225.235 2186.77) rotate(-90)" fill="#7f4fc7"/>
    <rect id="Rectángulo_46152" data-name="Rectángulo 46152" width="4.203" height="4.203" transform="translate(225.235 2213.561) rotate(-90)" fill="#7f4fc7"/>
    <rect id="Rectángulo_45241-2" data-name="Rectángulo 45241" width="4.203" height="4.203" transform="translate(225.235 2168.908) rotate(-90)" fill="#7f4fc7"/>
    <rect id="Rectángulo_46131" data-name="Rectángulo 46131" width="4.203" height="4.203" transform="translate(225.235 2195.699) rotate(-90)" fill="#7f4fc7"/>
    <rect id="Rectángulo_46153" data-name="Rectángulo 46153" width="4.203" height="4.203" transform="translate(225.235 2222.49) rotate(-90)" fill="#7f4fc7"/>
    <rect id="Rectángulo_46172" data-name="Rectángulo 46172" width="4.203" height="4.203" transform="translate(225.235 2240.351) rotate(-90)" fill="#7f4fc7"/>
    <rect id="Rectángulo_45242-2" data-name="Rectángulo 45242" width="4.203" height="4.203" transform="translate(225.235 2177.839) rotate(-90)" fill="#7f4fc7"/>
    <rect id="Rectángulo_46132" data-name="Rectángulo 46132" width="4.203" height="4.203" transform="translate(225.235 2204.63) rotate(-90)" fill="#7f4fc7"/>
    <rect id="Rectángulo_46154" data-name="Rectángulo 46154" width="4.203" height="4.203" transform="translate(225.235 2231.421) rotate(-90)" fill="#7f4fc7"/>
    <rect id="Rectángulo_46166" data-name="Rectángulo 46166" width="4.203" height="4.203" transform="translate(225.235 2249.281) rotate(-90)" fill="#7f4fc7"/>
    <rect id="Rectángulo_45243-2" data-name="Rectángulo 45243" width="4.203" height="4.203" transform="translate(216.304 2088.535) rotate(-90)" fill="#7f4fc7"/>
    <rect id="Rectángulo_45244-2" data-name="Rectángulo 45244" width="4.203" height="4.203" transform="translate(216.304 2097.465) rotate(-90)" fill="#7f4fc7"/>
    <rect id="Rectángulo_45245-2" data-name="Rectángulo 45245" width="4.203" height="4.203" transform="translate(216.304 2106.396) rotate(-90)" fill="#7f4fc7"/>
    <rect id="Rectángulo_45246-2" data-name="Rectángulo 45246" width="4.202" height="4.203" transform="translate(216.304 2115.326) rotate(-90)" fill="#7f4fc7"/>
    <rect id="Rectángulo_45247-2" data-name="Rectángulo 45247" width="4.203" height="4.203" transform="translate(216.304 2124.257) rotate(-90)" fill="#7f4fc7"/>
    <rect id="Rectángulo_45248-2" data-name="Rectángulo 45248" width="4.202" height="4.203" transform="translate(216.304 2133.187) rotate(-90)" fill="#7f4fc7"/>
    <rect id="Rectángulo_45249-2" data-name="Rectángulo 45249" width="4.203" height="4.203" transform="translate(216.304 2142.117) rotate(-90)" fill="#7f4fc7"/>
    <rect id="Rectángulo_45250-2" data-name="Rectángulo 45250" width="4.202" height="4.203" transform="translate(216.304 2151.048) rotate(-90)" fill="#7f4fc7"/>
    <rect id="Rectángulo_45251-2" data-name="Rectángulo 45251" width="4.203" height="4.203" transform="translate(216.304 2159.979) rotate(-90)" fill="#7f4fc7"/>
    <rect id="Rectángulo_46140" data-name="Rectángulo 46140" width="4.203" height="4.203" transform="translate(216.304 2186.77) rotate(-90)" fill="#7f4fc7"/>
    <rect id="Rectángulo_46144" data-name="Rectángulo 46144" width="4.203" height="4.203" transform="translate(216.304 2213.561) rotate(-90)" fill="#7f4fc7"/>
    <rect id="Rectángulo_45252-2" data-name="Rectángulo 45252" width="4.203" height="4.203" transform="translate(216.304 2168.908) rotate(-90)" fill="#7f4fc7"/>
    <rect id="Rectángulo_46133" data-name="Rectángulo 46133" width="4.203" height="4.203" transform="translate(216.304 2195.699) rotate(-90)" fill="#7f4fc7"/>
    <rect id="Rectángulo_46145" data-name="Rectángulo 46145" width="4.203" height="4.203" transform="translate(216.304 2222.49) rotate(-90)" fill="#7f4fc7"/>
    <rect id="Rectángulo_46173" data-name="Rectángulo 46173" width="4.203" height="4.203" transform="translate(216.304 2240.351) rotate(-90)" fill="#7f4fc7"/>
    <rect id="Rectángulo_45253-2" data-name="Rectángulo 45253" width="4.203" height="4.203" transform="translate(216.304 2177.839) rotate(-90)" fill="#7f4fc7"/>
    <rect id="Rectángulo_46134" data-name="Rectángulo 46134" width="4.203" height="4.203" transform="translate(216.304 2204.63) rotate(-90)" fill="#7f4fc7"/>
    <rect id="Rectángulo_46155" data-name="Rectángulo 46155" width="4.203" height="4.203" transform="translate(216.304 2231.421) rotate(-90)" fill="#7f4fc7"/>
    <rect id="Rectángulo_46167" data-name="Rectángulo 46167" width="4.203" height="4.203" transform="translate(216.304 2249.281) rotate(-90)" fill="#7f4fc7"/>
  </g>
</svg>
