<svg xmlns="http://www.w3.org/2000/svg" width="400" height="579" viewBox="0 0 400 579">
  <g id="Grupo_157867" data-name="Grupo 157867" transform="translate(2028 9799)">
    <rect id="Rectángulo_46557" data-name="Rectángulo 46557" width="400" height="579" rx="20" transform="translate(-2028 -9799)" fill="#2194e5"/>
    <path id="Trazado_198363" data-name="Trazado 198363" d="M-110.073-4.824V0H-113.5V-14.219h5.674a6.608,6.608,0,0,1,2.886.6A4.526,4.526,0,0,1-103-11.909a4.667,4.667,0,0,1,.688,2.515A4.114,4.114,0,0,1-103.8-6.069a6.179,6.179,0,0,1-4.087,1.245Zm0-2.646h2.246a2.118,2.118,0,0,0,1.519-.5,1.85,1.85,0,0,0,.522-1.406,2.287,2.287,0,0,0-.537-1.592,1.9,1.9,0,0,0-1.465-.605h-2.285Zm15.83-.117-1.084-.078a1.947,1.947,0,0,0-1.992.977V0h-3.291V-10.566h3.086l.107,1.357A2.548,2.548,0,0,1-95.1-10.762a3.209,3.209,0,0,1,.918.117ZM-88.13.2a5.432,5.432,0,0,1-3.936-1.45,5.008,5.008,0,0,1-1.5-3.774V-5.3a6.489,6.489,0,0,1,.6-2.861,4.395,4.395,0,0,1,1.753-1.919,5.292,5.292,0,0,1,2.734-.679A4.574,4.574,0,0,1-84.966-9.38a5.43,5.43,0,0,1,1.289,3.853v1.279H-90.22a2.372,2.372,0,0,0,.771,1.4,2.3,2.3,0,0,0,1.543.508,2.958,2.958,0,0,0,2.441-1.094l1.5,1.777A4.2,4.2,0,0,1-85.7-.308,5.891,5.891,0,0,1-88.13.2ZM-88.5-8.223q-1.445,0-1.719,1.914h3.32v-.254a1.63,1.63,0,0,0-.4-1.226A1.593,1.593,0,0,0-88.5-8.223Zm5.762,2.861a7.134,7.134,0,0,1,.527-2.832,4.245,4.245,0,0,1,1.514-1.9,3.99,3.99,0,0,1,2.295-.669,3.173,3.173,0,0,1,2.578,1.113l.117-.918h2.988V-.4a4.455,4.455,0,0,1-.649,2.427,4.167,4.167,0,0,1-1.88,1.582A6.91,6.91,0,0,1-78.1,4.16a5.961,5.961,0,0,1-2.251-.439,4.063,4.063,0,0,1-1.665-1.143L-80.64.645a3.018,3.018,0,0,0,2.422,1.084A1.96,1.96,0,0,0-76.03-.518V-.85A3.09,3.09,0,0,1-78.423.2a3.819,3.819,0,0,1-3.125-1.479,6.13,6.13,0,0,1-1.191-3.96Zm3.3.205A3.759,3.759,0,0,0-78.95-3.1a1.541,1.541,0,0,0,1.367.757,1.748,1.748,0,0,0,1.553-.713V-7.5a1.7,1.7,0,0,0-1.533-.723,1.551,1.551,0,0,0-1.377.786A4.287,4.287,0,0,0-79.438-5.156Zm14.883,4.014A3.393,3.393,0,0,1-67.378.2,3.328,3.328,0,0,1-70.01-.815,4.251,4.251,0,0,1-70.9-3.721v-6.846h3.291V-3.7a1.183,1.183,0,0,0,1.318,1.357,1.72,1.72,0,0,0,1.611-.811v-7.412h3.311V0h-3.086Zm8.008-9.424.107,1.24a3.583,3.583,0,0,1,3.018-1.436,3.015,3.015,0,0,1,2.466.986,4.7,4.7,0,0,1,.845,2.969V0h-3.3V-6.67a1.783,1.783,0,0,0-.322-1.177,1.491,1.491,0,0,0-1.172-.376,1.569,1.569,0,0,0-1.436.762V0h-3.291V-10.566Zm12.09-2.627v2.627h1.738v2.285h-1.738v4.834a1.234,1.234,0,0,0,.215.83,1.152,1.152,0,0,0,.85.234,4.828,4.828,0,0,0,.82-.059V-.088A6.074,6.074,0,0,1-44.429.2a3.448,3.448,0,0,1-2.51-.8,3.282,3.282,0,0,1-.811-2.432V-8.281H-49.1v-2.285h1.348v-2.627ZM-35.474,0a3.716,3.716,0,0,1-.312-.947A3.06,3.06,0,0,1-38.325.2a3.749,3.749,0,0,1-2.539-.9,2.875,2.875,0,0,1-1.045-2.271,2.955,2.955,0,0,1,1.27-2.6,6.468,6.468,0,0,1,3.691-.879h1.016v-.559q0-1.462-1.26-1.462a1.03,1.03,0,0,0-1.172,1.158h-3.291a2.95,2.95,0,0,1,1.3-2.487,5.479,5.479,0,0,1,3.325-.956,4.8,4.8,0,0,1,3.193.986,3.429,3.429,0,0,1,1.2,2.705v4.678a4.79,4.79,0,0,0,.449,2.227V0Zm-2.061-2.148a1.836,1.836,0,0,0,1.021-.264,1.653,1.653,0,0,0,.581-.6V-4.7h-.957q-1.719,0-1.719,1.543a.942.942,0,0,0,.3.728A1.1,1.1,0,0,0-37.534-2.148Zm12.256-.82a.76.76,0,0,0-.439-.674,6.685,6.685,0,0,0-1.67-.527,7.615,7.615,0,0,1-2.031-.718A3.4,3.4,0,0,1-30.64-5.967a2.577,2.577,0,0,1-.42-1.455,2.92,2.92,0,0,1,1.2-2.4,4.948,4.948,0,0,1,3.145-.942,5.482,5.482,0,0,1,3.359.947,2.962,2.962,0,0,1,1.27,2.49h-3.3q0-1.27-1.338-1.27a1.326,1.326,0,0,0-.869.288.892.892,0,0,0-.352.718.819.819,0,0,0,.43.713,4.06,4.06,0,0,0,1.372.449,11.857,11.857,0,0,1,1.655.42A3.007,3.007,0,0,1-22.1-3.066,2.767,2.767,0,0,1-23.389-.713,5.631,5.631,0,0,1-26.714.2a5.747,5.747,0,0,1-2.422-.488A4.05,4.05,0,0,1-30.8-1.621a3.007,3.007,0,0,1-.6-1.768h3.076a1.272,1.272,0,0,0,.488,1.069,2.009,2.009,0,0,0,1.2.337,1.58,1.58,0,0,0,1.011-.273A.875.875,0,0,0-25.278-2.969ZM-16-5.361a6.455,6.455,0,0,1,1.084-3.955,3.568,3.568,0,0,1,3.027-1.445A3.035,3.035,0,0,1-9.507-9.648V-15h3.3V0H-9.165l-.166-1.133A3.116,3.116,0,0,1-11.909.2,3.562,3.562,0,0,1-14.9-1.25,6.659,6.659,0,0,1-16-5.361Zm3.291.205q0,2.813,1.641,2.813a1.62,1.62,0,0,0,1.563-.918V-7.285a1.576,1.576,0,0,0-1.543-.937q-1.523,0-1.65,2.461ZM.776.2a5.432,5.432,0,0,1-3.936-1.45,5.008,5.008,0,0,1-1.5-3.774V-5.3a6.489,6.489,0,0,1,.6-2.861A4.395,4.395,0,0,1-2.31-10.083a5.292,5.292,0,0,1,2.734-.679A4.574,4.574,0,0,1,3.94-9.38,5.43,5.43,0,0,1,5.229-5.527v1.279H-1.313a2.372,2.372,0,0,0,.771,1.4A2.3,2.3,0,0,0,1-2.344,2.958,2.958,0,0,0,3.442-3.437l1.5,1.777A4.2,4.2,0,0,1,3.2-.308,5.891,5.891,0,0,1,.776.2ZM.405-8.223q-1.445,0-1.719,1.914h3.32v-.254a1.63,1.63,0,0,0-.4-1.226A1.593,1.593,0,0,0,.405-8.223Zm14.961-4.971v2.627H17.1v2.285H15.366v4.834a1.234,1.234,0,0,0,.215.83,1.152,1.152,0,0,0,.85.234,4.828,4.828,0,0,0,.82-.059V-.088A6.074,6.074,0,0,1,15.4.2a3.448,3.448,0,0,1-2.51-.8,3.282,3.282,0,0,1-.811-2.432V-8.281H10.728v-2.285h1.348v-2.627ZM21.87,0h-3.3V-10.566h3.3Zm-3.5-13.3a1.482,1.482,0,0,1,.508-1.159,1.909,1.909,0,0,1,1.318-.452,1.909,1.909,0,0,1,1.318.452,1.482,1.482,0,0,1,.508,1.159,1.482,1.482,0,0,1-.508,1.159,1.909,1.909,0,0,1-1.318.452,1.909,1.909,0,0,1-1.318-.452A1.482,1.482,0,0,1,18.374-13.3Zm15.332,8.1A6.372,6.372,0,0,1,32.6-1.274,3.554,3.554,0,0,1,29.6.2,3.046,3.046,0,0,1,27.212-.869V4.063H23.921V-10.566H27l.1.977a3.046,3.046,0,0,1,2.49-1.172,3.582,3.582,0,0,1,3.037,1.44,6.45,6.45,0,0,1,1.084,3.96ZM30.415-5.41q0-2.812-1.641-2.812a1.549,1.549,0,0,0-1.562.84v4.16a1.6,1.6,0,0,0,1.582.879q1.572,0,1.621-2.715Zm4.326.029A6.236,6.236,0,0,1,35.356-8.2a4.4,4.4,0,0,1,1.768-1.9,5.323,5.323,0,0,1,2.705-.664,4.858,4.858,0,0,1,3.74,1.47,5.64,5.64,0,0,1,1.367,4v.117a5.472,5.472,0,0,1-1.372,3.921A4.871,4.871,0,0,1,39.849.2a4.927,4.927,0,0,1-3.623-1.353,5.29,5.29,0,0,1-1.475-3.667Zm3.291.205a3.932,3.932,0,0,0,.459,2.148,1.529,1.529,0,0,0,1.357.684q1.758,0,1.8-2.705v-.332q0-2.842-1.816-2.842-1.65,0-1.787,2.451ZM57.319,0a3.716,3.716,0,0,1-.312-.947A3.06,3.06,0,0,1,54.468.2a3.749,3.749,0,0,1-2.539-.9,2.875,2.875,0,0,1-1.045-2.271,2.955,2.955,0,0,1,1.27-2.6,6.468,6.468,0,0,1,3.691-.879H56.86v-.559q0-1.462-1.26-1.462a1.03,1.03,0,0,0-1.172,1.158H51.138a2.95,2.95,0,0,1,1.3-2.487,5.479,5.479,0,0,1,3.325-.956,4.8,4.8,0,0,1,3.193.986,3.429,3.429,0,0,1,1.2,2.705v4.678A4.79,4.79,0,0,0,60.61-.166V0ZM55.259-2.148a1.836,1.836,0,0,0,1.021-.264,1.653,1.653,0,0,0,.581-.6V-4.7H55.9q-1.719,0-1.719,1.543a.942.942,0,0,0,.3.728A1.1,1.1,0,0,0,55.259-2.148ZM71.792-5.2A6.44,6.44,0,0,1,70.718-1.2,3.6,3.6,0,0,1,67.69.2a3.122,3.122,0,0,1-2.6-1.279L64.956,0H62.007V-15H65.3v5.283a3.013,3.013,0,0,1,2.373-1.045,3.6,3.6,0,0,1,3.047,1.416,6.473,6.473,0,0,1,1.074,3.984Zm-3.3-.21a4.3,4.3,0,0,0-.405-2.169,1.366,1.366,0,0,0-1.245-.648,1.576,1.576,0,0,0-1.543.848v4.192a1.585,1.585,0,0,0,1.563.838,1.4,1.4,0,0,0,1.475-1.131A8.121,8.121,0,0,0,68.491-5.405ZM76.714,0h-3.3V-10.566h3.3Zm-3.5-13.3a1.482,1.482,0,0,1,.508-1.159,1.909,1.909,0,0,1,1.318-.452,1.909,1.909,0,0,1,1.318.452A1.482,1.482,0,0,1,76.87-13.3a1.482,1.482,0,0,1-.508,1.159,1.909,1.909,0,0,1-1.318.452,1.909,1.909,0,0,1-1.318-.452A1.482,1.482,0,0,1,73.218-13.3ZM83.853.2a5.432,5.432,0,0,1-3.936-1.45,5.008,5.008,0,0,1-1.5-3.774V-5.3a6.489,6.489,0,0,1,.6-2.861,4.395,4.395,0,0,1,1.753-1.919,5.292,5.292,0,0,1,2.734-.679A4.574,4.574,0,0,1,87.017-9.38a5.43,5.43,0,0,1,1.289,3.853v1.279H81.763a2.372,2.372,0,0,0,.771,1.4,2.3,2.3,0,0,0,1.543.508,2.958,2.958,0,0,0,2.441-1.094l1.5,1.777A4.2,4.2,0,0,1,86.279-.308,5.891,5.891,0,0,1,83.853.2Zm-.371-8.418q-1.445,0-1.719,1.914h3.32v-.254a1.63,1.63,0,0,0-.4-1.226A1.593,1.593,0,0,0,83.481-8.223Zm12.539.635-1.084-.078a1.947,1.947,0,0,0-1.992.977V0H89.653V-10.566h3.086l.107,1.357a2.548,2.548,0,0,1,2.314-1.553,3.209,3.209,0,0,1,.918.117Zm5.508-5.605v2.627h1.738v2.285h-1.738v4.834a1.234,1.234,0,0,0,.215.83,1.152,1.152,0,0,0,.85.234,4.828,4.828,0,0,0,.82-.059V-.088A6.074,6.074,0,0,1,101.558.2a3.448,3.448,0,0,1-2.51-.8,3.282,3.282,0,0,1-.811-2.432V-8.281H96.89v-2.285h1.348v-2.627Zm2.324,7.813a6.236,6.236,0,0,1,.615-2.817,4.4,4.4,0,0,1,1.768-1.9,5.323,5.323,0,0,1,2.705-.664,4.858,4.858,0,0,1,3.74,1.47,5.64,5.64,0,0,1,1.367,4v.117a5.472,5.472,0,0,1-1.372,3.921A4.871,4.871,0,0,1,108.96.2a4.927,4.927,0,0,1-3.623-1.353,5.29,5.29,0,0,1-1.475-3.667Zm3.291.205a3.932,3.932,0,0,0,.459,2.148,1.529,1.529,0,0,0,1.357.684q1.758,0,1.8-2.705v-.332q0-2.842-1.816-2.842-1.65,0-1.787,2.451Z" transform="translate(-1827 -9699)" fill="#fff"/>
    <g id="Grupo_155506" data-name="Grupo 155506" transform="translate(-2031.356 -9618.315)">
      <g id="BACKGROUND" transform="translate(22.21 31.252)">
        <g id="Grupo_155467" data-name="Grupo 155467">
          <g id="Grupo_155466" data-name="Grupo 155466" opacity="0.3">
            <g id="Grupo_155465" data-name="Grupo 155465">
              <path id="Trazado_197478" data-name="Trazado 197478" d="M293.691,365.577c-1.13-.018-2.291-.057-3.449-.115l.042-.832c1.149.059,2.3.1,3.42.115Zm3.451-.007-.017-.832c1.155-.023,2.3-.068,3.417-.134l.048.83C299.468,365.5,298.307,365.547,297.142,365.57Zm-10.344-.344q-1.718-.147-3.429-.345l.095-.827q1.7.2,3.406.344Zm17.232-.055-.08-.829c1.142-.109,2.284-.241,3.4-.392l.111.824C306.336,364.927,305.183,365.061,304.03,365.171Zm-24.079-.735q-1.706-.246-3.4-.533l.138-.822q1.688.288,3.384.53Zm30.917-.192-.144-.819c1.128-.2,2.256-.42,3.354-.66l.177.813C313.148,363.82,312.008,364.045,310.868,364.245Zm-37.714-.954q-1.69-.325-3.375-.681l.173-.815q1.678.356,3.36.679Zm44.459-.513-.21-.8c1.109-.288,2.218-.6,3.3-.929l.243.8C319.853,362.173,318.732,362.488,317.613,362.778Zm-51.2-.909q-1.678-.383-3.35-.789l.2-.809q1.668.4,3.339.786Zm57.81-1.1-.274-.785c1.068-.373,2.146-.774,3.207-1.193l.306.774C326.395,359.988,325.3,360.393,324.227,360.768Zm-210.1-.345-.009-.831.233,0c1.13-.013,2.279-.05,3.416-.111l.045.83c-1.149.062-2.309.1-3.452.112Zm-3.455-.051c-1.153-.044-2.313-.115-3.449-.212l.071-.829c1.122.1,2.27.166,3.409.209Zm149.055-.119q-1.666-.423-3.33-.858l.209-.8q1.662.433,3.326.856Zm-138.473-.19-.076-.829c1.1-.1,2.244-.223,3.4-.366l.1.826C123.514,359.838,122.361,359.962,121.252,360.062Zm-17.463-.272c-1.142-.152-2.29-.33-3.413-.533l.148-.82c1.109.2,2.244.377,3.373.526Zm24.308-.572-.126-.822q1.692-.259,3.379-.562l.146.819Q129.8,358.957,128.1,359.218Zm-31.1-.654c-1.117-.257-2.243-.543-3.347-.851l.224-.8c1.091.3,2.205.588,3.309.841Zm156.077-.046-3.321-.888.217-.8,3.32.888Zm77.581-.284-.336-.763c1.048-.463,2.09-.949,3.1-1.444l.367.747C332.762,357.274,331.71,357.765,330.651,358.234Zm-195.77-.22-.162-.816q1.68-.334,3.358-.7l.176.813Q136.568,357.678,134.882,358.013Zm111.547-1.272q-1.657-.443-3.32-.88l.212-.806q1.662.438,3.323.882Zm-156.087-.036c-1.091-.361-2.186-.752-3.253-1.161l.3-.778c1.056.405,2.138.791,3.217,1.148Zm51.27-.133-.184-.812q1.674-.379,3.346-.771l.189.81Q143.288,356.192,141.612,356.572Zm195.234-1.378-.395-.732c.988-.534,1.989-1.1,2.974-1.682l.423.716C338.855,354.085,337.844,354.655,336.846,355.194Zm-188.537-.18-.191-.81,3.347-.786.189.81ZM239.785,355q-1.661-.425-3.328-.836l.2-.808q1.671.411,3.336.838Zm-155.891-.765c-1.041-.455-2.093-.943-3.125-1.453l.368-.747c1.021.5,2.06.987,3.09,1.437ZM155,353.456l-.184-.812q1.678-.38,3.359-.745l.176.814Q156.674,353.075,155,353.456Zm78.12-.093q-1.671-.388-3.346-.752l.176-.813q1.683.363,3.359.755Zm-71.411-1.349-.164-.816q1.341-.269,2.685-.517l.7-.127.146.819-.695.127Q163.045,351.745,161.71,352.013Zm64.708-.1q-.82-.164-1.64-.317-.865-.162-1.73-.316l.146-.819c.579.1,1.159.209,1.737.317q.826.155,1.649.319Zm116.365-.228-.449-.7c.943-.607,1.9-1.246,2.837-1.9l.476.683C344.7,350.429,343.736,351.074,342.783,351.686Zm-265.071-.5c-1.009-.556-2.012-1.139-2.983-1.731l.434-.71c.959.586,1.953,1.162,2.951,1.712Zm90.745-.387-.131-.823q1.7-.269,3.408-.5l.113.824Q170.149,350.531,168.457,350.8Zm51.21-.08q-1.693-.264-3.393-.491l.111-.825q1.709.229,3.41.494Zm-44.419-.851-.1-.827q1.711-.2,3.426-.361l.078.829Q176.951,349.672,175.248,349.87Zm37.626-.059q-1.7-.192-3.41-.349l.076-.829q1.716.158,3.428.35Zm-30.8-.589-.061-.83q1.718-.127,3.438-.218l.044.831Q183.782,349.1,182.072,349.222Zm23.975-.037q-1.711-.121-3.422-.206l.042-.832q1.719.087,3.439.208Zm-17.129-.327-.027-.832q1.722-.056,3.445-.076l.009.831Q190.631,348.8,188.918,348.857Zm10.282-.015q-1.712-.051-3.428-.066l.008-.832q1.723.014,3.445.066Zm149.239-1.092-.5-.665c.907-.682,1.813-1.388,2.694-2.1l.522.646C350.267,346.349,349.353,347.062,348.439,347.75Zm-276.614-.157c-.949-.637-1.9-1.306-2.821-1.987l.494-.67c.914.674,1.853,1.336,2.792,1.967ZM66.27,343.5c-.886-.715-1.775-1.462-2.641-2.223l.549-.625c.857.753,1.737,1.493,2.614,2.2Zm287.53-.079-.544-.63c.855-.74,1.712-1.508,2.549-2.282l.566.611C355.528,341.9,354.663,342.674,353.8,343.42ZM61.083,338.944c-.826-.788-1.649-1.608-2.447-2.437l.6-.577c.79.82,1.6,1.632,2.422,2.412Zm297.783-.207-.584-.592c.81-.8,1.617-1.621,2.4-2.441l.6.573C360.5,337.1,359.682,337.933,358.866,338.737ZM56.293,333.971c-.757-.852-1.51-1.736-2.24-2.629l.645-.527c.722.884,1.468,1.759,2.218,2.6Zm307.332-.224-.619-.556q1.138-1.271,2.25-2.582l.634.538Q364.771,332.468,363.625,333.746Zm-311.7-5.12c-.69-.918-1.37-1.86-2.02-2.8l.684-.474c.645.931,1.317,1.865,2,2.773Zm316.161-.142-.65-.519q1.065-1.333,2.1-2.7l.664.5Q369.154,327.145,368.082,328.484Zm4.159-5.5-.676-.485q.333-.466.663-.934.656-.931,1.287-1.879l.692.462q-.635.954-1.3,1.9Q372.577,322.521,372.241,322.988Zm-324.248-.042c-.614-.966-1.216-1.961-1.791-2.953l.72-.416c.569.982,1.165,1.965,1.774,2.923Zm328.077-5.7-.709-.435c.587-.957,1.173-1.948,1.738-2.947l.724.409C377.253,315.28,376.663,316.28,376.07,317.245Zm-331.541-.271c-.533-1.007-1.055-2.045-1.552-3.084l.751-.359c.491,1.029,1.009,2.056,1.536,3.054Zm334.935-5.738-.738-.382c.524-1.012,1.033-2.043,1.517-3.067l.752.357C380.509,309.175,379.993,310.216,379.465,311.235Zm-337.913-.49c-.453-1.054-.891-2.13-1.3-3.2l.778-.3c.405,1.059.838,2.125,1.287,3.167ZM382.415,305l-.765-.329c.447-1.036.882-2.1,1.294-3.168l.776.3C383.3,302.875,382.865,303.951,382.415,305Zm-343.334-.7c-.368-1.092-.717-2.2-1.037-3.293l.8-.233c.318,1.083.663,2.18,1.028,3.261Zm345.83-5.736-.786-.273c.376-1.079.735-2.173,1.068-3.251l.794.245C385.652,296.373,385.289,297.475,384.911,298.564Zm-347.769-.89c-.278-1.116-.534-2.25-.763-3.367l.815-.166c.227,1.106.481,2.228.756,3.333Zm349.808-5.7-.8-.217c.295-1.085.578-2.2.84-3.317l.81.189C387.531,289.751,387.247,290.876,386.95,291.971ZM35.757,290.908c-.183-1.134-.344-2.285-.478-3.42l.826-.1c.133,1.123.291,2.262.473,3.386Zm352.768-5.655-.816-.162c.222-1.12.427-2.252.607-3.367l.822.134C388.955,282.982,388.748,284.124,388.525,285.253Zm-353.575-1.2c-.085-1.149-.146-2.31-.18-3.451l.832-.025c.034,1.129.094,2.277.178,3.415Zm354.685-5.608-.826-.106c.143-1.125.271-2.269.376-3.4l.829.077C389.907,276.154,389.779,277.308,389.634,278.443Zm-354.06-1.286-.832-.013c.017-1.149.06-2.31.128-3.453l.831.05C35.634,274.871,35.591,276.02,35.574,277.157Zm354.7-5.584-.829-.049c.066-1.126.114-2.277.142-3.418l.832.02C390.39,269.277,390.341,270.437,390.274,271.573ZM35.983,270.336l-.828-.087c.121-1.142.27-2.3.443-3.428l.822.127C36.249,268.066,36.1,269.207,35.983,270.336Zm353.628-5.654c-.011-1.136-.042-2.286-.093-3.421l.832-.037c.051,1.145.082,2.3.093,3.45ZM37,263.574l-.819-.152q.315-1.692.66-3.38l.815.166Q37.315,261.889,37,263.574Zm352.308-5.728c-.088-1.118-.2-2.264-.328-3.406l.827-.093c.131,1.151.241,2.307.331,3.434Zm-350.95-1-.814-.174.72-3.36.814.174Zm350.174-5.8c-.168-1.122-.359-2.258-.567-3.374l.818-.153c.21,1.126.4,2.271.572,3.4Zm-348.745-.927-.815-.168q.346-1.681.669-3.365l.818.156Q40.138,248.434,39.787,250.121Zm347.493-5.8c-.25-1.118-.521-2.235-.8-3.325l.806-.21c.287,1.1.56,2.227.81,3.353Zm-346.216-.971-.822-.135c.193-1.168.363-2.306.505-3.385l.825.109C41.429,241.027,41.258,242.175,41.064,243.352Zm344.488-5.65c-.326-1.087-.677-2.183-1.043-3.257l.789-.269c.369,1.084.723,2.191,1.052,3.287Zm-343.6-1.193-.829-.074c.105-1.161.181-2.308.224-3.41l.832.034C42.139,234.175,42.062,235.336,41.956,236.509Zm341.392-5.281c-.407-1.067-.837-2.134-1.279-3.171l.766-.326c.446,1.048.88,2.125,1.291,3.2ZM41.394,229.615c-.019-1.112-.071-2.258-.155-3.408l.83-.061c.085,1.165.138,2.328.157,3.455Zm339.277-4.681q-.54-1.149-1.112-2.282-.2-.393-.4-.785l.738-.383c.137.264.272.528.406.793q.578,1.144,1.122,2.3ZM40.9,222.808c-.139-1.1-.308-2.242-.5-3.378l.821-.142c.2,1.15.368,2.3.508,3.417Zm336.64-3.96q-.829-1.5-1.694-2.977l.719-.42q.867,1.489,1.7,2.995ZM39.749,216.074c-.232-1.082-.492-2.2-.775-3.333l.808-.2c.284,1.139.547,2.27.78,3.362ZM374.1,212.918q-.884-1.472-1.779-2.937l.71-.434q.9,1.469,1.783,2.941Zm-336-3.486q-.462-1.647-.966-3.288l.8-.244q.505,1.651.972,3.306Zm332.437-2.387q-.892-1.471-1.774-2.949l.716-.425q.875,1.475,1.77,2.941ZM36.093,202.874q-.53-1.629-1.086-3.255l.788-.267q.555,1.631,1.089,3.265Zm330.927-1.749q-.859-1.5-1.679-3.011l.732-.4q.814,1.506,1.668,2.993ZM33.888,196.374q-.541-1.556-1.088-3.112l-.046-.131.786-.275.045.131q.547,1.558,1.09,3.114Zm329.861-1.319c-.528-1.058-1.027-2.107-1.481-3.118l.759-.342c.451,1,.944,2.039,1.468,3.088Zm-332.13-5.17q-.565-1.625-1.118-3.253l.788-.267q.55,1.624,1.116,3.246Zm329.326-1.148c-.4-1.066-.772-2.169-1.108-3.28l.8-.24c.331,1.092.7,2.179,1.091,3.228Zm-331.53-5.371q-.531-1.641-1.034-3.285l.8-.243q.5,1.638,1.029,3.271Zm329.513-1.244c-.264-1.086-.509-2.222-.729-3.378l.818-.155c.217,1.142.459,2.265.719,3.337ZM27.416,176.773q-.462-1.659-.877-3.335l.807-.2q.413,1.663.872,3.312Zm330.218-1.434c-.161-1.118-.3-2.27-.423-3.425l.827-.086c.119,1.144.26,2.285.42,3.392ZM25.753,170.082q-.369-1.684-.692-3.378l.818-.155q.321,1.682.688,3.355Zm331.16-1.6q-.118-1.708-.187-3.441l.832-.033q.068,1.721.185,3.417ZM24.463,163.307q-.273-1.7-.5-3.411l.825-.109q.224,1.7.5,3.388Zm332.169-1.715q-.017-1.133-.017-2.275l0-1.165.832,0,0,1.161q0,1.136.017,2.263ZM23.557,156.471q-.177-1.715-.306-3.434l.83-.062q.127,1.706.3,3.41Zm333.95-1.743-.832-.021q.044-1.714.113-3.441l.832.033Q357.551,153.022,357.507,154.729ZM23.045,149.594q-.078-1.723-.1-3.447l.831-.013q.026,1.711.1,3.422Zm334.734-1.72-.831-.044q.09-1.712.2-3.434l.83.051Q357.869,146.164,357.779,147.874ZM23.773,142.712l-.832-.013c.018-1.145.053-2.3.105-3.447l.831.038C23.825,140.424,23.79,141.575,23.773,142.712ZM358.2,141.021l-.83-.057q.116-1.712.24-3.429l.83.06Q358.315,139.31,358.2,141.021ZM24.088,135.873l-.829-.064c.09-1.154.2-2.31.323-3.434l.827.092C24.286,133.581,24.178,134.727,24.088,135.873Zm334.6-1.706-.83-.061.252-3.427.83.061Zm-333.85-5.1-.824-.119c.166-1.143.35-2.289.549-3.406l.819.146C25.187,126.8,25,127.936,24.84,129.07Zm334.349-1.76-.83-.059q.119-1.716.231-3.426l.83.053Q359.31,125.591,359.189,127.31ZM26.044,122.334l-.814-.175c.242-1.128.505-2.258.783-3.36l.807.2C26.545,120.095,26.284,121.216,26.044,122.334Zm333.583-1.891-.83-.047q.1-1.719.174-3.429l.832.037Q359.726,118.719,359.627,120.444ZM27.714,115.7l-.8-.232c.321-1.1.666-2.212,1.025-3.3l.79.262C28.373,113.507,28.033,114.607,27.714,115.7Zm332.218-2.136-.832-.025q.054-1.723.078-3.43l.832.012Q359.987,111.835,359.933,113.565ZM29.865,109.207l-.779-.291c.405-1.083.833-2.163,1.271-3.21l.767.322C30.691,107.065,30.267,108.135,29.865,109.207Zm329.328-2.529q-.012-1.723-.064-3.426l.832-.025q.053,1.712.063,3.446ZM32.506,102.9l-.754-.351c.485-1.042,1-2.085,1.52-3.1l.739.382C33.493,100.836,32.986,101.868,32.506,102.9Zm326.472-3.069c-.068-1.15-.154-2.3-.256-3.413l.829-.076c.1,1.123.189,2.281.258,3.44ZM35.64,96.823l-.724-.411c.567-1,1.161-2,1.767-2.967l.706.441C36.789,94.848,36.2,95.836,35.64,96.823Zm322.7-3.8c-.151-1.162-.324-2.3-.513-3.379l.819-.143c.192,1.091.367,2.241.52,3.415ZM39.259,91.024l-.686-.471.231-.335c.575-.833,1.176-1.664,1.786-2.471l.664.5c-.6.8-1.2,1.62-1.765,2.442Zm317.9-4.734c-.254-1.123-.537-2.237-.843-3.31l.8-.228c.31,1.088.6,2.216.853,3.354Zm-313.783-.72-.639-.533c.73-.876,1.495-1.753,2.273-2.6l.614.561C44.856,83.837,44.1,84.7,43.378,85.571Zm4.609-5.048-.588-.588c.807-.807,1.647-1.611,2.5-2.39l.562.614C49.617,78.929,48.786,79.724,47.987,80.523Zm307.3-.794c-.383-1.087-.8-2.154-1.242-3.173l.763-.33c.448,1.036.873,2.122,1.264,3.226Zm-186.969-1.99-.008-.832c1.1-.01,2.239-.067,3.4-.17l.072.829C170.6,77.671,169.433,77.729,168.315,77.739Zm-3.471-.121a33.174,33.174,0,0,1-3.448-.463l.155-.818a32.335,32.335,0,0,0,3.361.451Zm10.371-.474-.127-.822c1.082-.168,2.211-.377,3.355-.622l.174.814C177.458,76.761,176.313,76.973,175.216,77.144Zm-17.2-.764c-1.083-.287-2.2-.62-3.316-.988l.26-.79c1.1.363,2.2.69,3.269.974ZM53.029,75.9l-.534-.637c.878-.737,1.784-1.465,2.694-2.164l.507.66C54.8,74.455,53.9,75.176,53.029,75.9Zm128.949-.2-.213-.8c1.068-.281,2.174-.6,3.29-.939l.244.8C184.173,75.106,183.055,75.425,181.978,75.709Zm-30.529-1.481c-1.023-.392-2.1-.83-3.2-1.3l.328-.765c1.088.467,2.153.9,3.167,1.29Zm37.132-.533-.27-.787q1.612-.552,3.226-1.156l.291.78Q190.2,73.139,188.581,73.7Zm164-.213c-.528-1.009-1.1-2-1.693-2.949l.7-.443c.607.966,1.188,1.977,1.726,3.005ZM58.452,71.738l-.478-.681c.939-.658,1.9-1.306,2.867-1.925l.45.7C60.335,70.445,59.38,71.086,58.452,71.738Zm86.654-.218c-1.04-.481-2.077-.976-3.11-1.477l.364-.748q1.543.749,3.1,1.471Zm49.941-.232-.308-.773q1.589-.634,3.175-1.3l.322.767Q196.644,70.649,195.046,71.289Zm6.356-2.665-.334-.763q1.575-.688,3.139-1.392l.341.759Q202.981,67.932,201.4,68.623Zm-62.494-.1L135.83,67l.369-.747,3.079,1.527Zm-74.7-.478-.419-.72c.992-.579,2.008-1.142,3.019-1.676l.388.736C66.194,66.917,65.189,67.475,64.206,68.048Zm284.754-.314c-.143-.19-.286-.379-.433-.568-.549-.708-1.123-1.411-1.7-2.09l.633-.541c.59.689,1.171,1.4,1.729,2.121.15.192.3.384.441.578ZM207.68,65.809l-.345-.757q1.57-.718,3.123-1.434l.348.755Q209.252,65.089,207.68,65.809Zm-74.934-.315q-1.545-.743-3.1-1.454l.345-.758q1.568.713,3.12,1.461Zm-62.494-.637-.357-.751c1.036-.492,2.1-.967,3.151-1.414l.325.767C72.326,63.9,71.277,64.371,70.251,64.857Zm143.677-1.921-.347-.756q1.58-.725,3.13-1.427l.344.758Q215.506,62.212,213.929,62.936ZM126.5,62.67c-1.091-.456-2.161-.878-3.179-1.255l.289-.78c1.028.381,2.109.807,3.212,1.267Zm218.029-.122c-.784-.815-1.6-1.62-2.433-2.393l.568-.609c.841.783,1.67,1.6,2.465,2.426ZM76.546,62.2l-.291-.78c1.077-.4,2.175-.783,3.262-1.134l.256.792C78.7,61.421,77.611,61.8,76.546,62.2Zm43.548-1.889c-1.078-.338-2.183-.65-3.284-.927l.2-.806c1.117.28,2.237.6,3.331.939Zm100.1-.2-.334-.762q1.6-.7,3.165-1.361l.322.767Q221.787,59.408,220.19,60.112ZM83.046,60.1l-.22-.8c1.107-.3,2.235-.585,3.351-.837l.183.811C85.257,59.518,84.142,59.8,83.046,60.1Zm30.431-1.453c-1.1-.211-2.238-.4-3.368-.548l.111-.825c1.146.154,2.3.341,3.414.556ZM89.71,58.6l-.145-.82c1.137-.2,2.286-.375,3.416-.518l.105.826C91.969,58.226,90.834,58.4,89.71,58.6Zm249.83-.7c-.866-.722-1.766-1.434-2.677-2.117l.5-.666c.922.691,1.834,1.411,2.711,2.143ZM96.482,57.737l-.064-.829c1.151-.089,2.313-.149,3.452-.18l.021.832C98.767,57.589,97.62,57.649,96.482,57.737Zm10.233,0c-1.125-.088-2.272-.148-3.41-.178l.021-.831c1.152.029,2.314.09,3.453.18Zm119.8-.268-.3-.775q.718-.281,1.423-.545.894-.336,1.794-.677l.3.778q-.9.343-1.8.679Q227.23,57.189,226.518,57.467Zm6.423-2.454-.3-.776q1.6-.619,3.2-1.249l.3.775Q234.539,54.392,232.941,55.012Zm101.137-1.206c-.936-.63-1.9-1.248-2.879-1.838l.431-.712c.986.6,1.965,1.222,2.913,1.859Zm-94.732-1.3-.3-.775q1.6-.626,3.2-1.251l.3.776Q240.942,51.882,239.346,52.508Zm88.891-2.238c-.988-.537-2.011-1.062-3.039-1.562l.364-.749c1.04.506,2.073,1.037,3.071,1.579Zm-82.482-.247-.3-.777q1.608-.614,3.221-1.213l.29.781Q247.358,49.411,245.755,50.024Zm6.436-2.386-.279-.783q1.62-.58,3.25-1.137l.269.788Q253.806,47.06,252.191,47.638Zm69.9-.356c-1.035-.449-2.1-.884-3.164-1.294l.3-.777c1.076.414,2.152.853,3.2,1.307Zm-63.408-1.855-.256-.792q1.643-.528,3.291-1.02l.238.8Q260.318,44.9,258.685,45.427Zm57.03-.6c-1.068-.362-2.164-.709-3.258-1.032l.236-.8c1.1.326,2.211.677,3.29,1.043Zm-50.461-1.35-.218-.8q1.667-.453,3.339-.857l.194.81Q266.908,43.025,265.254,43.475Zm43.9-.588c-1.1-.278-2.215-.54-3.331-.779l.174-.814c1.125.241,2.256.506,3.362.787Zm-37.25-1.013-.17-.814c1.141-.237,2.281-.453,3.39-.642l.14.82C274.169,41.425,273.038,41.639,271.908,41.874Zm30.561-.42c-1.114-.2-2.25-.374-3.379-.53l.113-.824c1.139.158,2.286.338,3.41.535Zm-23.82-.725-.107-.826c1.15-.15,2.306-.275,3.433-.373l.071.829C280.93,40.456,279.787,40.58,278.648,40.729Zm17.042-.21c-1.138-.115-2.285-.209-3.41-.282l.053-.83c1.136.072,2.293.168,3.441.284Zm-10.236-.372-.033-.832c1.151-.044,2.3-.061,3.457-.045l-.01.832Q287.161,40.082,285.454,40.147Z" transform="translate(-22.941 -39.264)" fill="#2c54ac"/>
            </g>
          </g>
          <path id="Trazado_197479" data-name="Trazado 197479" d="M95.9,348.176c16.849,1.919,33.787-1.665,50.722-2.647a165.713,165.713,0,0,1,60.036,7.606c20.433,6.56,39.527,17.106,60.6,21.391,35.2,7.159,65.848-13.274,89.728-39.282s31.987-64.66,20.474-97.611c-3.919-11.216-9.9-21.719-13.226-33.114-10.9-37.375,20.564-76.155,4.306-111.855-8.847-19.425-27.15-32.126-48.649-36.1s-50.933-1.111-72.189,3.941c-20.5,4.873-47.943,19.181-67.879,12.47-13.878-4.672-24.7-15.346-37.935-21.517-28.175-13.134-64.259-2.722-84.827,20.065S30.1,126.806,34.554,156.744c2.68,17.995,8.952,35.9,6.593,53.938-1.548,11.839-6.736,22.9-10.267,34.334C17.195,289.346,46.347,342.534,95.9,348.176Z" transform="translate(-23.871 -40.576)" fill="#9ddcf9"/>
        </g>
      </g>
      <g id="OBJECTS" transform="translate(19.356 -0.022)">
        <g id="Grupo_155475" data-name="Grupo 155475" transform="translate(5.538 15.085)" opacity="0.4" style="mix-blend-mode: multiply;isolation: isolate">
          <g id="Grupo_155468" data-name="Grupo 155468" transform="translate(327.078 115.673)">
            <path id="Trazado_197480" data-name="Trazado 197480" d="M450.182,200.067l-.665-3.3a15.259,15.259,0,0,1-.269-5.349,12.856,12.856,0,0,1,1.269-3.977,28.862,28.862,0,0,1,1.918-3.169A38.067,38.067,0,0,0,454.8,180.6a6.076,6.076,0,0,0,.5-4.275,3.868,3.868,0,0,0-1.148-2.163,5.144,5.144,0,0,0-1.942-1.129,4.02,4.02,0,0,0-2-.146,5.277,5.277,0,0,0-2.847,1.447,6.937,6.937,0,0,0-1.557,2.547,18.8,18.8,0,0,0-.786,3.006l-7.828-1.917a19.818,19.818,0,0,1,.73-3.124,15.785,15.785,0,0,1,1.941-4.015,14.544,14.544,0,0,1,3.7-3.787,15.07,15.07,0,0,1,5.949-2.429,16.344,16.344,0,0,1,6.618-.072,10.263,10.263,0,0,1,5.26,2.823,11.978,11.978,0,0,1,3.015,6.284,14.147,14.147,0,0,1,.182,5.723,12.9,12.9,0,0,1-1.58,4.039q-1.073,1.737-2.153,3.443a22.958,22.958,0,0,0-1.551,2.739,10.387,10.387,0,0,0-.928,3.261,13.093,13.093,0,0,0,.255,4.155l.263,1.306Zm7,12.244a5.587,5.587,0,0,1-3.913-.473,4.07,4.07,0,0,1-2.075-2.914A4.244,4.244,0,0,1,452,205.4a5.362,5.362,0,0,1,3.375-2.039,5.136,5.136,0,0,1,3.839.585,4.334,4.334,0,0,1,2.051,2.952,4.154,4.154,0,0,1-.722,3.479A5.345,5.345,0,0,1,457.18,212.311Z" transform="translate(-437.185 -164.236)" fill="#55a3f3"/>
          </g>
          <g id="Grupo_155469" data-name="Grupo 155469" transform="translate(0 166.65)">
            <path id="Trazado_197481" data-name="Trazado 197481" d="M42.505,261.023l-1.276-2.785a13.911,13.911,0,0,1-1.354-4.688,11.729,11.729,0,0,1,.3-3.792,26.291,26.291,0,0,1,1.04-3.211,34.452,34.452,0,0,0,1.33-3.757,5.527,5.527,0,0,0-.45-3.894,3.519,3.519,0,0,0-1.469-1.679,4.687,4.687,0,0,0-1.958-.6,3.656,3.656,0,0,0-1.807.287,4.808,4.808,0,0,0-2.223,1.877,6.329,6.329,0,0,0-.85,2.583,17.2,17.2,0,0,0-.07,2.829l-7.342-.068a18.07,18.07,0,0,1,0-2.922,14.386,14.386,0,0,1,.885-3.965,13.236,13.236,0,0,1,2.493-4.131,13.74,13.74,0,0,1,4.77-3.394,14.91,14.91,0,0,1,5.855-1.443,9.352,9.352,0,0,1,5.254,1.407,10.923,10.923,0,0,1,3.983,4.945,12.878,12.878,0,0,1,1.355,5.037,11.754,11.754,0,0,1-.56,3.912q-.59,1.765-1.192,3.5a20.8,20.8,0,0,0-.8,2.753,9.464,9.464,0,0,0-.143,3.086,11.94,11.94,0,0,0,1.092,3.632l.505,1.1Zm8.758,9.4a5.09,5.09,0,0,1-3.569.4,3.706,3.706,0,0,1-2.449-2.152,3.869,3.869,0,0,1-.018-3.3,4.886,4.886,0,0,1,2.567-2.512,4.682,4.682,0,0,1,3.527-.281,3.949,3.949,0,0,1,2.434,2.191A3.786,3.786,0,0,1,53.841,268,4.866,4.866,0,0,1,51.264,270.423Z" transform="translate(-26.312 -228.272)" fill="#55a3f3"/>
          </g>
          <g id="Grupo_155470" data-name="Grupo 155470" transform="translate(181.22)">
            <path id="Trazado_197482" data-name="Trazado 197482" d="M257.536,44.8l.384-2.547a11.693,11.693,0,0,1,1.205-3.922,9.847,9.847,0,0,1,1.954-2.531,22.089,22.089,0,0,1,2.209-1.78,29.017,29.017,0,0,0,2.665-2.032,4.647,4.647,0,0,0,1.477-2.947,2.96,2.96,0,0,0-.261-1.858,3.947,3.947,0,0,0-1.1-1.321,3.079,3.079,0,0,0-1.4-.629,4.043,4.043,0,0,0-2.429.3,5.329,5.329,0,0,0-1.788,1.427,14.483,14.483,0,0,0-1.352,1.959l-5.135-3.429a15.094,15.094,0,0,1,1.342-2.058,12.063,12.063,0,0,1,2.448-2.383,11.157,11.157,0,0,1,3.656-1.759,11.567,11.567,0,0,1,4.919-.193,12.534,12.534,0,0,1,4.784,1.68,7.868,7.868,0,0,1,3.05,3.409,9.18,9.18,0,0,1,.526,5.313,10.833,10.833,0,0,1-1.366,4.169,9.89,9.89,0,0,1-2.194,2.495q-1.228.971-2.451,1.916a17.325,17.325,0,0,0-1.833,1.567,7.938,7.938,0,0,0-1.521,2.1,10.016,10.016,0,0,0-.9,3.058l-.152,1.009Zm1.836,10.646a4.275,4.275,0,0,1-2.694-1.364,3.114,3.114,0,0,1-.732-2.642,3.254,3.254,0,0,1,1.505-2.328,4.11,4.11,0,0,1,2.964-.586,3.938,3.938,0,0,1,2.611,1.426,3.319,3.319,0,0,1,.7,2.662,3.183,3.183,0,0,1-1.431,2.316A4.091,4.091,0,0,1,259.371,55.451Z" transform="translate(-253.959 -18.928)" fill="#55a3f3"/>
          </g>
          <g id="Grupo_155471" data-name="Grupo 155471" transform="translate(154.417 32.794)">
            <path id="Trazado_197483" data-name="Trazado 197483" d="M228.193,82.373l-.387-2.053a9.472,9.472,0,0,1-.125-3.328,7.979,7.979,0,0,1,.82-2.461,18.047,18.047,0,0,1,1.217-1.955,23.621,23.621,0,0,0,1.5-2.268,3.775,3.775,0,0,0,.343-2.653,2.406,2.406,0,0,0-.7-1.353,3.191,3.191,0,0,0-1.2-.717,2.489,2.489,0,0,0-1.244-.107,3.276,3.276,0,0,0-1.781.876,4.322,4.322,0,0,0-.989,1.571,11.769,11.769,0,0,0-.512,1.862l-4.85-1.253a12.313,12.313,0,0,1,.478-1.936,9.81,9.81,0,0,1,1.239-2.481,9.029,9.029,0,0,1,2.331-2.324,9.376,9.376,0,0,1,3.717-1.463,10.184,10.184,0,0,1,4.115.008,6.383,6.383,0,0,1,3.247,1.8,7.448,7.448,0,0,1,1.824,3.93,8.79,8.79,0,0,1,.068,3.558,8.016,8.016,0,0,1-1.014,2.5q-.682,1.071-1.366,2.123a14.169,14.169,0,0,0-.986,1.69,6.466,6.466,0,0,0-.6,2.02,8.136,8.136,0,0,0,.125,2.585l.154.814Zm4.253,7.666a3.474,3.474,0,0,1-2.429-.325,2.528,2.528,0,0,1-1.267-1.828,2.643,2.643,0,0,1,.531-2.187,3.334,3.334,0,0,1,2.114-1.241,3.191,3.191,0,0,1,2.382.395,2.69,2.69,0,0,1,1.251,1.851,2.579,2.579,0,0,1-.477,2.156A3.318,3.318,0,0,1,232.446,90.039Z" transform="translate(-220.29 -60.124)" fill="#55a3f3"/>
          </g>
          <g id="Grupo_155472" data-name="Grupo 155472" transform="translate(204.904 39.791)">
            <path id="Trazado_197484" data-name="Trazado 197484" d="M285.106,84l.374-1.5a7.022,7.022,0,0,1,.943-2.271,5.884,5.884,0,0,1,1.31-1.4,13.094,13.094,0,0,1,1.419-.936,17.5,17.5,0,0,0,1.705-1.06,2.781,2.781,0,0,0,1.048-1.674,1.775,1.775,0,0,0-.049-1.122,2.365,2.365,0,0,0-.583-.851,1.837,1.837,0,0,0-.8-.455,2.42,2.42,0,0,0-1.466.039,3.183,3.183,0,0,0-1.148.749,8.693,8.693,0,0,0-.918,1.091l-2.868-2.337a9.075,9.075,0,0,1,.918-1.152,7.241,7.241,0,0,1,1.6-1.282A6.677,6.677,0,0,1,288.869,69a6.93,6.93,0,0,1,2.945.165,7.519,7.519,0,0,1,2.759,1.274,4.716,4.716,0,0,1,1.625,2.207,5.5,5.5,0,0,1,.011,3.2,6.492,6.492,0,0,1-1.052,2.409,5.89,5.89,0,0,1-1.45,1.363q-.788.51-1.571,1a10.363,10.363,0,0,0-1.183.83,4.769,4.769,0,0,0-1.028,1.169,6.049,6.049,0,0,0-.713,1.774l-.148.593Zm.489,6.455a2.568,2.568,0,0,1-1.529-.967,1.87,1.87,0,0,1-.287-1.618,1.952,1.952,0,0,1,1.031-1.3,2.463,2.463,0,0,1,1.8-.181,2.359,2.359,0,0,1,1.477,1,1.99,1.99,0,0,1,.268,1.628,1.906,1.906,0,0,1-.985,1.3A2.45,2.45,0,0,1,285.6,90.459Z" transform="translate(-283.71 -68.914)" fill="#55a3f3"/>
          </g>
          <g id="Grupo_155473" data-name="Grupo 155473" transform="translate(318.851 172.961)">
            <path id="Trazado_197485" data-name="Trazado 197485" d="M429.583,257.109l.333-2.06a9.5,9.5,0,0,1,1.01-3.167,8,8,0,0,1,1.6-2.034,17.831,17.831,0,0,1,1.805-1.423,23.382,23.382,0,0,0,2.176-1.623,3.762,3.762,0,0,0,1.221-2.375,2.4,2.4,0,0,0-.2-1.507,3.2,3.2,0,0,0-.883-1.08,2.5,2.5,0,0,0-1.132-.521,3.272,3.272,0,0,0-1.97.221,4.3,4.3,0,0,0-1.46,1.14,11.739,11.739,0,0,0-1.112,1.575l-4.132-2.821a12.375,12.375,0,0,1,1.1-1.656,9.83,9.83,0,0,1,2-1.911,9.04,9.04,0,0,1,2.977-1.394,9.362,9.362,0,0,1,3.987-.114,10.159,10.159,0,0,1,3.862,1.4,6.374,6.374,0,0,1,2.442,2.787,7.44,7.44,0,0,1,.381,4.31,8.781,8.781,0,0,1-1.142,3.365,8.007,8.007,0,0,1-1.8,2q-1,.776-2,1.532a14.1,14.1,0,0,0-1.5,1.254,6.447,6.447,0,0,0-1.251,1.692,8.139,8.139,0,0,0-.758,2.47l-.131.816Zm1.4,8.641a3.462,3.462,0,0,1-2.171-1.128,2.523,2.523,0,0,1-.571-2.146,2.632,2.632,0,0,1,1.239-1.874,3.329,3.329,0,0,1,2.406-.449,3.186,3.186,0,0,1,2.1,1.177,2.688,2.688,0,0,1,.549,2.162,2.579,2.579,0,0,1-1.178,1.864A3.314,3.314,0,0,1,430.98,265.75Z" transform="translate(-426.85 -236.2)" fill="#55a3f3"/>
          </g>
          <g id="Grupo_155474" data-name="Grupo 155474" transform="translate(20 131.59)">
            <path id="Trazado_197486" data-name="Trazado 197486" d="M56.96,205.717l-.055-2.06a9.352,9.352,0,0,1,.4-3.259,7.9,7.9,0,0,1,1.185-2.268,17.654,17.654,0,0,1,1.491-1.712,23.139,23.139,0,0,0,1.815-1.973,3.717,3.717,0,0,0,.75-2.529,2.365,2.365,0,0,0-.466-1.427,3.157,3.157,0,0,0-1.054-.887,2.459,2.459,0,0,0-1.194-.3,3.234,3.234,0,0,0-1.872.574,4.26,4.26,0,0,0-1.208,1.374,11.514,11.514,0,0,0-.79,1.733L51.436,191a12.2,12.2,0,0,1,.769-1.809,9.648,9.648,0,0,1,1.595-2.22,8.9,8.9,0,0,1,2.633-1.9,9.242,9.242,0,0,1,3.848-.841,10.033,10.033,0,0,1,4,.653,6.3,6.3,0,0,1,2.88,2.258,7.346,7.346,0,0,1,1.159,4.112,8.655,8.655,0,0,1-.492,3.475,7.885,7.885,0,0,1-1.379,2.273q-.831.937-1.662,1.853a14.025,14.025,0,0,0-1.225,1.491,6.384,6.384,0,0,0-.9,1.872,8.031,8.031,0,0,0-.283,2.536l.021.816Zm2.938,8.129a3.427,3.427,0,0,1-2.314-.7,2.493,2.493,0,0,1-.947-1.978,2.6,2.6,0,0,1,.86-2.046,3.285,3.285,0,0,1,2.252-.876,3.148,3.148,0,0,1,2.257.757,2.655,2.655,0,0,1,.928,2,2.545,2.545,0,0,1-.8,2.024A3.272,3.272,0,0,1,59.9,213.847Z" transform="translate(-51.436 -184.23)" fill="#55a3f3"/>
          </g>
        </g>
        <g id="Grupo_155481" data-name="Grupo 155481" transform="translate(0 11.722)">
          <g id="Grupo_155477" data-name="Grupo 155477">
            <circle id="Elipse_5888" data-name="Elipse 5888" cx="56.067" cy="56.067" r="56.067" transform="translate(0 107.939) rotate(-74.276)" fill="#55a3f3"/>
            <g id="Grupo_155476" data-name="Grupo 155476" transform="translate(10.108 10.025)">
              <path id="Trazado_197487" data-name="Trazado 197487" d="M86.1,145.279c-14.664,0-28.876-5.418-39.336-16.329-21.553-22.485-19.131-59.908,5.4-83.424A64.168,64.168,0,0,1,95.048,27.313c15.794-.357,30.243,5.446,40.689,16.342,21.553,22.485,19.131,59.908-5.4,83.424A64.238,64.238,0,0,1,86.1,145.279ZM96.425,28.134c-.452,0-.9.006-1.358.016A63.326,63.326,0,0,0,52.739,46.13c-24.2,23.2-26.61,60.09-5.375,82.241s58.2,21.3,82.4-1.9,26.609-60.09,5.374-82.241C125.153,33.822,111.449,28.134,96.425,28.134Z" transform="translate(-32.054 -27.297)" fill="#55a3f3"/>
            </g>
            <path id="Trazado_197488" data-name="Trazado 197488" d="M100.184,166.73l23.042,19.912-10.545-27.5Z" transform="translate(-35.84 -44.162)" fill="#55a3f3"/>
          </g>
          <g id="Grupo_155480" data-name="Grupo 155480" transform="translate(43.065 30.926)">
            <g id="Grupo_155478" data-name="Grupo 155478" transform="translate(2.663)">
              <path id="Trazado_197489" data-name="Trazado 197489" d="M99.638,110.913l-1.379-5.18a24.338,24.338,0,0,1-.95-8.488,20.517,20.517,0,0,1,1.632-6.454,46.129,46.129,0,0,1,2.742-5.231,60.215,60.215,0,0,0,3.4-6.087,9.677,9.677,0,0,0,.375-6.852,6.164,6.164,0,0,0-2.038-3.33,8.2,8.2,0,0,0-3.2-1.608,6.394,6.394,0,0,0-3.2-.037,8.41,8.41,0,0,0-4.389,2.581,11.069,11.069,0,0,0-2.231,4.2,30.225,30.225,0,0,0-.958,4.861L86.781,80l-9.983-3a31.6,31.6,0,0,1,.857-5.043,25.164,25.164,0,0,1,2.7-6.579,23.179,23.179,0,0,1,5.522-6.389,24.046,24.046,0,0,1,9.232-4.446,26.088,26.088,0,0,1,10.526-.76,16.366,16.366,0,0,1,8.648,3.979q3.692,3.256,5.409,9.708a22.538,22.538,0,0,1,.849,9.09,20.578,20.578,0,0,1-2.121,6.583q-1.539,2.871-3.091,5.69a36.439,36.439,0,0,0-2.2,4.511,16.577,16.577,0,0,0-1.16,5.28,20.946,20.946,0,0,0,.811,6.588l.546,2.052Zm12.331,18.8a8.9,8.9,0,0,1-6.275-.371,6.489,6.489,0,0,1-3.588-4.436,6.774,6.774,0,0,1,.944-5.695,8.553,8.553,0,0,1,5.172-3.574,8.188,8.188,0,0,1,6.167.557,6.9,6.9,0,0,1,3.552,4.5,6.627,6.627,0,0,1-.81,5.607A8.517,8.517,0,0,1,111.969,129.717Z" transform="translate(-76.798 -53.552)" fill="#2c54ac"/>
            </g>
            <g id="Grupo_155479" data-name="Grupo 155479" transform="translate(0 0.708)">
              <path id="Trazado_197490" data-name="Trazado 197490" d="M96.293,111.8l-1.379-5.18a24.357,24.357,0,0,1-.951-8.488A20.5,20.5,0,0,1,95.6,91.682a46,46,0,0,1,2.742-5.231,60.359,60.359,0,0,0,3.4-6.087,9.673,9.673,0,0,0,.375-6.852,6.159,6.159,0,0,0-2.038-3.33,8.2,8.2,0,0,0-3.2-1.608,6.4,6.4,0,0,0-3.2-.037,8.411,8.411,0,0,0-4.389,2.581,11.069,11.069,0,0,0-2.231,4.2,30.153,30.153,0,0,0-.957,4.861L73.453,77.9a31.615,31.615,0,0,1,.857-5.043,25.151,25.151,0,0,1,2.7-6.579,23.189,23.189,0,0,1,5.521-6.389,24.057,24.057,0,0,1,9.232-4.446,26.09,26.09,0,0,1,10.527-.76,16.361,16.361,0,0,1,8.648,3.979q3.693,3.256,5.41,9.708a22.536,22.536,0,0,1,.849,9.09,20.557,20.557,0,0,1-2.121,6.583q-1.54,2.871-3.092,5.69a36.438,36.438,0,0,0-2.2,4.511,16.577,16.577,0,0,0-1.159,5.28,20.9,20.9,0,0,0,.811,6.588l.546,2.053Zm12.332,18.8a8.9,8.9,0,0,1-6.275-.371,6.485,6.485,0,0,1-3.588-4.436,6.774,6.774,0,0,1,.944-5.695,8.553,8.553,0,0,1,5.172-3.574,8.188,8.188,0,0,1,6.167.557,6.907,6.907,0,0,1,3.552,4.5,6.627,6.627,0,0,1-.811,5.607A8.515,8.515,0,0,1,108.625,130.607Z" transform="translate(-73.453 -54.442)" fill="#fff"/>
            </g>
          </g>
        </g>
        <g id="Grupo_155487" data-name="Grupo 155487" transform="translate(222.229)">
          <g id="Grupo_155483" data-name="Grupo 155483">
            <circle id="Elipse_5889" data-name="Elipse 5889" cx="58.293" cy="58.293" r="58.293" transform="matrix(0.963, -0.269, 0.269, 0.963, 0, 31.412)" fill="#2c54ac"/>
            <g id="Grupo_155482" data-name="Grupo 155482" transform="translate(8.037 13.183)">
              <path id="Trazado_197491" data-name="Trazado 197491" d="M372.622,133.859c-35.294,0-64.007-26.314-64.007-58.66s28.713-58.661,64.007-58.661S436.628,42.854,436.628,75.2,407.915,133.859,372.622,133.859Zm0-116.587c-34.889,0-63.273,25.986-63.273,57.927s28.384,57.926,63.273,57.926S435.895,107.14,435.895,75.2,407.511,17.273,372.622,17.273Z" transform="translate(-308.615 -16.539)" fill="#2c54ac"/>
            </g>
            <path id="Trazado_197492" data-name="Trazado 197492" d="M413.35,152.171l-14.588,28.1-.4-30.615Z" transform="translate(-318.881 -30.504)" fill="#2c54ac"/>
          </g>
          <g id="Grupo_155486" data-name="Grupo 155486" transform="translate(52.909 33.921)">
            <g id="Grupo_155484" data-name="Grupo 155484" transform="translate(2.752 0.136)">
              <path id="Trazado_197493" data-name="Trazado 197493" d="M379.864,97.868l.264-5.354a24.342,24.342,0,0,1,1.681-8.374,20.489,20.489,0,0,1,3.52-5.649,45.83,45.83,0,0,1,4.206-4.147,60.527,60.527,0,0,0,5.1-4.76,9.672,9.672,0,0,0,2.444-6.412,6.162,6.162,0,0,0-.926-3.792,8.215,8.215,0,0,0-2.559-2.507,6.406,6.406,0,0,0-3.039-1.012,8.412,8.412,0,0,0-4.967,1.122,11.079,11.079,0,0,0-3.406,3.325,30.185,30.185,0,0,0-2.392,4.338l-2.752-.136-8.6-5.895a31.647,31.647,0,0,1,2.352-4.542,25.19,25.19,0,0,1,4.574-5.445,23.2,23.2,0,0,1,7.206-4.4A24.052,24.052,0,0,1,392.718,42.8a26.1,26.1,0,0,1,10.258,2.483A16.369,16.369,0,0,1,410,51.71q2.525,4.226,2.195,10.894a22.523,22.523,0,0,1-1.961,8.917,20.582,20.582,0,0,1-4.026,5.624q-2.342,2.265-4.678,4.478a36.355,36.355,0,0,0-3.472,3.626,16.572,16.572,0,0,0-2.712,4.676,20.9,20.9,0,0,0-1.235,6.522l-.105,2.121Zm6.016,21.667a8.9,8.9,0,0,1-5.863-2.265,6.488,6.488,0,0,1-2.066-5.318,6.772,6.772,0,0,1,2.634-5.135,8.547,8.547,0,0,1,6.015-1.829,8.189,8.189,0,0,1,5.7,2.41,6.908,6.908,0,0,1,2.012,5.366,6.626,6.626,0,0,1-2.48,5.092A8.518,8.518,0,0,1,385.88,119.535Z" transform="translate(-368.439 -42.76)" fill="#55a3f3"/>
            </g>
            <g id="Grupo_155485" data-name="Grupo 155485">
              <path id="Trazado_197494" data-name="Trazado 197494" d="M376.407,97.7l.265-5.354a24.324,24.324,0,0,1,1.68-8.374,20.491,20.491,0,0,1,3.521-5.649,45.726,45.726,0,0,1,4.206-4.147,60.389,60.389,0,0,0,5.1-4.761A9.674,9.674,0,0,0,393.62,63a6.161,6.161,0,0,0-.927-3.792,8.2,8.2,0,0,0-2.559-2.507,6.4,6.4,0,0,0-3.039-1.012,8.414,8.414,0,0,0-4.967,1.122,11.07,11.07,0,0,0-3.406,3.325,30.145,30.145,0,0,0-2.392,4.338l-11.348-6.031a31.64,31.64,0,0,1,2.352-4.542,25.214,25.214,0,0,1,4.574-5.445,23.189,23.189,0,0,1,7.206-4.4,24.053,24.053,0,0,1,10.147-1.422,26.076,26.076,0,0,1,10.258,2.483,16.359,16.359,0,0,1,7.024,6.425q2.525,4.226,2.2,10.894a22.539,22.539,0,0,1-1.962,8.917,20.547,20.547,0,0,1-4.026,5.624q-2.34,2.265-4.678,4.478a36.35,36.35,0,0,0-3.471,3.626,16.556,16.556,0,0,0-2.713,4.676,20.9,20.9,0,0,0-1.235,6.522l-.105,2.121Zm6.017,21.667a8.911,8.911,0,0,1-5.864-2.265,6.489,6.489,0,0,1-2.066-5.318,6.775,6.775,0,0,1,2.634-5.136,8.551,8.551,0,0,1,6.016-1.829,8.185,8.185,0,0,1,5.7,2.409,6.914,6.914,0,0,1,2.013,5.366,6.63,6.63,0,0,1-2.48,5.093A8.517,8.517,0,0,1,382.424,119.364Z" transform="translate(-364.982 -42.589)" fill="#fff"/>
            </g>
          </g>
        </g>
        <g id="Grupo_155493" data-name="Grupo 155493" transform="translate(131.913 83.26)">
          <g id="Grupo_155489" data-name="Grupo 155489">
            <circle id="Elipse_5890" data-name="Elipse 5890" cx="45.576" cy="45.576" r="45.576" transform="translate(0 13.173) rotate(-8.309)" fill="#0a2a6b"/>
            <g id="Grupo_155488" data-name="Grupo 155488" transform="translate(2.284 5.545)">
              <path id="Trazado_197495" data-name="Trazado 197495" d="M235.368,204.362c-20.769,0-39.552-12.251-45.537-31.62-7.495-24.256,7.883-50.625,34.281-58.782s53.971,4.94,61.466,29.2a43.943,43.943,0,0,1-4.42,35.455A52.1,52.1,0,0,1,251.3,201.937,53.932,53.932,0,0,1,235.368,204.362Zm4.676-91.9a53.005,53.005,0,0,0-15.657,2.383c-25.908,8.006-41.012,33.854-33.668,57.619,5.861,18.968,24.279,30.964,44.647,30.966a52.984,52.984,0,0,0,15.658-2.383,51.17,51.17,0,0,0,29.333-22.907,43.026,43.026,0,0,0,4.335-34.712C278.83,124.463,260.411,112.464,240.044,112.464Z" transform="translate(-187.933 -111.535)" fill="#0a2a6b"/>
            </g>
            <path id="Trazado_197496" data-name="Trazado 197496" d="M251.671,223.134l12.937,16.076-1.584-19.584Z" transform="translate(-198.648 -128.034)" fill="#0a2a6b"/>
          </g>
          <g id="Grupo_155492" data-name="Grupo 155492" transform="translate(32.517 20.968)">
            <g id="Grupo_155490" data-name="Grupo 155490" transform="translate(2.218)">
              <path id="Trazado_197497" data-name="Trazado 197497" d="M243.356,176.923l-.542-4.316a19.748,19.748,0,0,1,.164-6.928,16.625,16.625,0,0,1,2.018-5.01,37.231,37.231,0,0,1,2.777-3.905,49.093,49.093,0,0,0,3.4-4.522,7.849,7.849,0,0,0,1.05-5.468,5,5,0,0,0-1.274-2.9,6.663,6.663,0,0,0-2.4-1.643,5.2,5.2,0,0,0-2.571-.381,6.826,6.826,0,0,0-3.812,1.6,8.983,8.983,0,0,0-2.253,3.136,24.455,24.455,0,0,0-1.3,3.8l-2.219.279-7.7-3.5a25.669,25.669,0,0,1,1.239-3.961,20.433,20.433,0,0,1,2.889-5,18.81,18.81,0,0,1,5.138-4.534,19.519,19.519,0,0,1,7.909-2.566,21.171,21.171,0,0,1,8.547.54,13.28,13.28,0,0,1,6.518,4.145,15.507,15.507,0,0,1,3.289,8.4,18.287,18.287,0,0,1-.311,7.4,16.691,16.691,0,0,1-2.425,5.061q-1.552,2.14-3.108,4.237a29.476,29.476,0,0,0-2.263,3.386,13.424,13.424,0,0,0-1.509,4.119,16.948,16.948,0,0,0-.068,5.385l.215,1.71Zm7.859,16.467a7.229,7.229,0,0,1-5-.985,5.264,5.264,0,0,1-2.4-3.959,5.5,5.5,0,0,1,1.382-4.475,6.938,6.938,0,0,1,4.549-2.309,6.64,6.64,0,0,1,4.9,1.122,5.606,5.606,0,0,1,2.364,4,5.379,5.379,0,0,1-1.265,4.42A6.915,6.915,0,0,1,251.215,193.39Z" transform="translate(-228.698 -130.909)" fill="#55a3f3"/>
            </g>
            <g id="Grupo_155491" data-name="Grupo 155491" transform="translate(0 0.279)">
              <path id="Trazado_197498" data-name="Trazado 197498" d="M240.57,177.273l-.542-4.316a19.748,19.748,0,0,1,.164-6.928,16.624,16.624,0,0,1,2.017-5.01,37.352,37.352,0,0,1,2.777-3.905,49.1,49.1,0,0,0,3.4-4.522,7.853,7.853,0,0,0,1.05-5.468,5,5,0,0,0-1.274-2.9,6.65,6.65,0,0,0-2.4-1.643,5.185,5.185,0,0,0-2.57-.38,6.82,6.82,0,0,0-3.812,1.6,8.975,8.975,0,0,0-2.254,3.136,24.538,24.538,0,0,0-1.3,3.8l-9.917-3.221a25.644,25.644,0,0,1,1.239-3.961,20.428,20.428,0,0,1,2.888-5,18.825,18.825,0,0,1,5.139-4.534,19.51,19.51,0,0,1,7.909-2.566,21.166,21.166,0,0,1,8.546.54,13.273,13.273,0,0,1,6.518,4.145,15.5,15.5,0,0,1,3.288,8.4,18.275,18.275,0,0,1-.311,7.4A16.672,16.672,0,0,1,258.7,157q-1.551,2.14-3.107,4.237a29.478,29.478,0,0,0-2.263,3.386,13.423,13.423,0,0,0-1.509,4.119,16.967,16.967,0,0,0-.068,5.385l.215,1.71Zm7.859,16.467a7.228,7.228,0,0,1-5-.984,5.265,5.265,0,0,1-2.4-3.96,5.492,5.492,0,0,1,1.382-4.475,6.934,6.934,0,0,1,4.549-2.309,6.644,6.644,0,0,1,4.9,1.122,5.606,5.606,0,0,1,2.365,4,5.379,5.379,0,0,1-1.265,4.42A6.913,6.913,0,0,1,248.429,193.74Z" transform="translate(-225.912 -131.259)" fill="#fff"/>
            </g>
          </g>
        </g>
        <g id="Grupo_155499" data-name="Grupo 155499" transform="translate(1.986 155.363)">
          <path id="Trazado_197499" data-name="Trazado 197499" d="M85.4,467.153,52.321,446.186l9.717-19.839-23.6-8.882L21.85,454.6S45.3,465.284,61.541,471.431s27.937,6.489,27.937,6.489Z" transform="translate(-21.85 -240.485)" fill="#ff8775"/>
          <path id="Trazado_197500" data-name="Trazado 197500" d="M203.142,455.341l5.28,35.551H101.472l8.055-28.874Z" transform="translate(-38.088 -248.209)" fill="#0a2a6b"/>
          <path id="Trazado_197501" data-name="Trazado 197501" d="M120.906,267.927v38.321l-9.315,4.6s16.829,29.7,31.393,20.261,14.333-25.787,14.333-25.787l-11.281-.46-.921-13.354-18.188-26.477Z" transform="translate(-40.152 -209.398)" fill="#ff8775"/>
          <path id="Trazado_197502" data-name="Trazado 197502" d="M123.686,221.4c-1.892,5.719-2.24,11.932-2.062,18.024.353,12.075,4.364,24.233,9.77,34.7a30.966,30.966,0,0,0,5.125,7.506c5.889,6.032,16.768,7.41,23.687,2.939a28.175,28.175,0,0,0,6.509-6.193c5.249-6.564,6.644-15.411,8.126-24.692,1.485-9.3,3.053-19.033,1.691-27.712-.774-4.931-3.132-7.031-5.765-11.084a23.474,23.474,0,0,0-16.431-10.2c-6.567-.928-13.162.831-19.411,2.961C129.5,209.5,125.563,215.725,123.686,221.4Z" transform="translate(-42.19 -197.039)" fill="#ff8775"/>
          <path id="Trazado_197503" data-name="Trazado 197503" d="M124.1,219.522a49.285,49.285,0,0,1-3.1,34.086,25.9,25.9,0,0,1-11.337-10.55,41.514,41.514,0,0,1-4.327-14.787c-.439-3.7-.513-7.59,1.012-10.988s5.028-6.144,8.73-5.74c.477-4.412,3.707-8.616,7.308-11.208a28.6,28.6,0,0,1,12.348-4.635,47.844,47.844,0,0,1,36.338,9.359,19.509,19.509,0,0,1,6.341,7.442c1.284,3.035,1.176,6.834-.973,9.332-2.548,2.963-6.945,3.276-10.851,3.368C150.8,225.552,137.461,225.85,124.1,219.522Z" transform="translate(-38.82 -195.144)" fill="#0a2a6b"/>
          <g id="Grupo_155494" data-name="Grupo 155494" transform="translate(69.82 43.669)">
            <path id="Trazado_197504" data-name="Trazado 197504" d="M109.629,258.424a11.949,11.949,0,0,0,5.209,8.193,6.206,6.206,0,0,0,2.893,1.11c2.348.169,4.471-1.755,5.187-4a11.56,11.56,0,0,0-.41-6.938c-.919-2.9-2.685-5.947-5.648-6.64C112.081,249.034,109.046,254.334,109.629,258.424Z" transform="translate(-109.557 -250)" fill="#ff8775"/>
            <path id="Trazado_197505" data-name="Trazado 197505" d="M120.907,265.431a5.8,5.8,0,0,1-2.667-1.727,1.175,1.175,0,0,1-.314-.556c-.067-.406.249-.766.541-1.056l1.774-1.763a.735.735,0,0,0,.23-.942c-.669-2.235-1.462-4.643-3.386-5.96a3.275,3.275,0,0,0-1.753-.631,3.188,3.188,0,0,0-2.41,1.243,8.661,8.661,0,0,0-1.3,2.469s-.5,4.784,2.826,7.666A5.931,5.931,0,0,0,120.907,265.431Z" transform="translate(-109.972 -250.57)" fill="#ff8775" style="mix-blend-mode: multiply;isolation: isolate"/>
            <path id="Trazado_197506" data-name="Trazado 197506" d="M111.624,256.416a7.824,7.824,0,0,1,1.191-2.684,3.3,3.3,0,0,1,2.734-1.377A4.448,4.448,0,0,1,118.3,253.8a8.623,8.623,0,0,1,1.641,2.551,23.542,23.542,0,0,1,.947,2.789,2.306,2.306,0,0,1,.089.441,1,1,0,0,1-.14.6,3.733,3.733,0,0,1-.567.6l-1.057.989a5.8,5.8,0,0,0-.931.953.451.451,0,0,0-.034.441,2.6,2.6,0,0,0,.381.525,6.017,6.017,0,0,0,2.282,1.647,5.582,5.582,0,0,1-2.608-1.329,2.792,2.792,0,0,1-.527-.6,1.037,1.037,0,0,1-.045-.948,2.377,2.377,0,0,1,.476-.677l.5-.531.993-1.052a3.846,3.846,0,0,0,.412-.456c.026-.036.02-.109-.062-.357a24.984,24.984,0,0,0-.956-2.671,8.026,8.026,0,0,0-1.426-2.318,3.9,3.9,0,0,0-2.184-1.332,2.861,2.861,0,0,0-2.326.956A9,9,0,0,0,111.624,256.416Z" transform="translate(-109.979 -250.48)" fill="#0a2a6b"/>
          </g>
          <path id="Trazado_197507" data-name="Trazado 197507" d="M98.6,318.814s-33.77,15.662-39.3,20.958-34.3,51.8-34.3,51.8,9.039,10.361,19.6,14.5a72.757,72.757,0,0,0,22.072,4.374l12.433-26.477,14.826,49.5s23.854,17.5,54.705,13.353,38.91-20.03,38.91-20.03l-5.986-42.505s11.512-2.851,19.109-8.836,16.577-17.267,16.577-17.267-36.607-34.765-40.522-39.141-40.754-3.6-40.754-3.6,1.384,13.734-9.667,16.037S98.6,318.814,98.6,318.814Z" transform="translate(-22.493 -219.668)" fill="#55a3f3"/>
          <path id="Trazado_197508" data-name="Trazado 197508" d="M149.645,304.471A25.286,25.286,0,0,1,138.61,298.9a50.565,50.565,0,0,1-7.433-8.408,35.212,35.212,0,0,0,2.481,5,32.363,32.363,0,0,0,6.608,7.837,18.285,18.285,0,0,0,9.591,4.231" transform="translate(-44.146 -214.59)" fill="#0a2a6b"/>
          <path id="Trazado_197509" data-name="Trazado 197509" d="M156.368,253.993c0,1.617-.9,2.928-2,2.928s-2-1.311-2-2.928.9-2.929,2-2.929S156.368,252.375,156.368,253.993Z" transform="translate(-48.467 -206.548)" fill="#0a2a6b"/>
          <path id="Trazado_197510" data-name="Trazado 197510" d="M181.781,253.993c0,1.617-.9,2.928-2,2.928s-2-1.311-2-2.928.9-2.929,2-2.929S181.781,252.375,181.781,253.993Z" transform="translate(-53.649 -206.548)" fill="#0a2a6b"/>
          <path id="Trazado_197511" data-name="Trazado 197511" d="M169.008,250a30.555,30.555,0,0,1,2.153,4.811,38.876,38.876,0,0,1,2.1,10.355,31.233,31.233,0,0,1-.113,5.31l-.045.4-.383-.009c-1.477-.034-2.953-.08-4.431-.15s-2.953-.155-4.43-.28c1.477-.125,2.953-.206,4.43-.28s2.954-.115,4.431-.15l-.427.391a45.19,45.19,0,0,0-.612-10.323q-.435-2.561-1.1-5.085C170.135,253.309,169.624,251.643,169.008,250Z" transform="translate(-50.811 -206.331)" fill="#0a2a6b"/>
          <ellipse id="Elipse_5891" data-name="Elipse 5891" cx="3.732" cy="1.592" rx="3.732" ry="1.592" transform="translate(113.446 73.764)" fill="#0a2a6b"/>
          <path id="Trazado_197512" data-name="Trazado 197512" d="M143.662,246.406a12.441,12.441,0,0,1,2.646-4.039,14.534,14.534,0,0,1,4.034-2.9c.751-.369,1.515-.74,2.309-1.044a7.049,7.049,0,0,1,2.476-.453,8.376,8.376,0,0,1,4.833,1.4l-.031.317a26.146,26.146,0,0,1-4.44,1.446,13.647,13.647,0,0,1-2.1.353,11.053,11.053,0,0,0-2.118.35,14.079,14.079,0,0,0-2.023.74,13.689,13.689,0,0,0-1.937,1.021,13.244,13.244,0,0,0-3.378,2.966Z" transform="translate(-46.693 -203.878)" fill="#0a2a6b"/>
          <path id="Trazado_197513" data-name="Trazado 197513" d="M184.644,246.581a13.07,13.07,0,0,0-2.953-2.9,13.693,13.693,0,0,0-3.516-1.822,9.2,9.2,0,0,0-1.907-.395,12.8,12.8,0,0,1-1.885-.373c-.626-.176-1.267-.357-1.934-.581a16.713,16.713,0,0,1-2.108-.8l-.033-.3a6.161,6.161,0,0,1,2.154-1.02,7.951,7.951,0,0,1,2.323-.286,6.24,6.24,0,0,1,2.293.49,21.934,21.934,0,0,1,2.1,1.072,12.868,12.868,0,0,1,3.544,2.916,12.109,12.109,0,0,1,2.19,3.864Z" transform="translate(-52.127 -203.904)" fill="#0a2a6b"/>
          <g id="Grupo_155495" data-name="Grupo 155495" transform="translate(71.16 95.637)">
            <path id="Trazado_197514" data-name="Trazado 197514" d="M141.123,335.868c-15.013,0-29.721-14.324-29.883-14.485l.559-.566c.177.173,17.836,17.37,33.906,13.76,4.854-1.088,8.4-3.359,10.526-6.748,3.491-5.552,1.983-12.3,1.967-12.367l.775-.18c.067.288,1.6,7.125-2.064,12.964-2.247,3.579-5.958,5.97-11.03,7.108A21.653,21.653,0,0,1,141.123,335.868Z" transform="translate(-111.24 -315.282)" fill="#0a2a6b"/>
          </g>
          <path id="Trazado_197515" data-name="Trazado 197515" d="M220.17,391.425c-.424-4.119-.857-8.231-1.37-12.333s-1.054-8.2-1.726-12.275c-.607-4.087-1.344-8.154-2.108-12.215q-.571-3.047-1.2-6.084L212.5,342.44c.591,1.985,1.112,3.987,1.641,5.99q.743,3.016,1.421,6.048c.89,4.046,1.622,8.126,2.293,12.215.608,4.1,1.161,8.207,1.546,12.332S220.074,387.284,220.17,391.425Z" transform="translate(-60.733 -225.184)" fill="#0a2a6b"/>
          <g id="Grupo_155496" data-name="Grupo 155496" transform="translate(158.788 134.366)">
            <path id="Trazado_197516" data-name="Trazado 197516" d="M221.61,389.52l-.292-.74c.112-.045,11.274-4.481,18.258-9.428,6.953-4.925,13.146-15.314,13.207-15.419l.686.406c-.063.106-6.341,10.638-13.433,15.662C232.973,385,221.723,389.475,221.61,389.52Z" transform="translate(-221.318 -363.933)" fill="#0a2a6b"/>
          </g>
          <path id="Trazado_197517" data-name="Trazado 197517" d="M90.926,393.08a68.5,68.5,0,0,0,2.643-10.233,46.27,46.27,0,0,0,.669-10.478,37.6,37.6,0,0,0-1.914-10.294,32.514,32.514,0,0,0-2.044-4.845,31.743,31.743,0,0,0-2.785-4.488,27.439,27.439,0,0,1,3.127,4.3,32.424,32.424,0,0,1,2.28,4.829,35.995,35.995,0,0,1,2.131,10.457,43.516,43.516,0,0,1-.865,10.631A50.406,50.406,0,0,1,90.926,393.08Z" transform="translate(-35.238 -227.285)" fill="#0a2a6b"/>
          <g id="Grupo_155497" data-name="Grupo 155497" transform="translate(4.655 167.705)">
            <path id="Trazado_197518" data-name="Trazado 197518" d="M67.3,424.523a52.483,52.483,0,0,1-22.157-4.86c-11.8-5.749-17.4-13.305-17.451-13.38l.643-.47c.053.074,5.552,7.477,17.157,13.135a51.79,51.79,0,0,0,23.962,4.717l.065.793C69.494,424.461,68.684,424.523,67.3,424.523Z" transform="translate(-27.697 -405.813)" fill="#0a2a6b"/>
          </g>
          <g id="Grupo_155498" data-name="Grupo 155498" transform="translate(65.898 3.159)" opacity="0.31">
            <path id="Trazado_197519" data-name="Trazado 197519" d="M118.491,211.316a29.151,29.151,0,0,0,3.819,1.827,29.766,29.766,0,0,0,4.046,1.208,40.55,40.55,0,0,0,8.371.959c5.635.122,11.247-.642,16.884-1.226,2.823-.263,5.66-.478,8.509-.491,1.423,0,2.849.028,4.271.147a27.092,27.092,0,0,1,4.244.609,14.223,14.223,0,0,1,7.516,3.984,9.919,9.919,0,0,1,2.11,3.721,7.281,7.281,0,0,1,.058,4.216,8.475,8.475,0,0,0-2.455-7.671,13.757,13.757,0,0,0-7.359-3.651c-5.517-1.019-11.215-.641-16.818-.073-5.62.515-11.279,1.3-16.981,1.044a40.585,40.585,0,0,1-8.445-1.192A26.3,26.3,0,0,1,118.491,211.316Z" transform="translate(-107.458 -201.601)" fill="#fff"/>
            <path id="Trazado_197520" data-name="Trazado 197520" d="M125.722,201.9a23.573,23.573,0,0,0,2.809.731,24.073,24.073,0,0,0,2.872.332,31.369,31.369,0,0,0,5.765-.229,114.794,114.794,0,0,0,11.37-2.325,41.934,41.934,0,0,1,11.637-1.234,22.623,22.623,0,0,1,5.759,1.149,15.517,15.517,0,0,1,5.036,2.934,18.1,18.1,0,0,0-2.47-1.519,18.437,18.437,0,0,0-2.687-1.044,22.312,22.312,0,0,0-5.67-.908,43.869,43.869,0,0,0-11.434,1.4,99.109,99.109,0,0,1-11.475,2.154,31.282,31.282,0,0,1-5.862.01A19.727,19.727,0,0,1,125.722,201.9Z" transform="translate(-108.932 -199.112)" fill="#fff"/>
            <path id="Trazado_197521" data-name="Trazado 197521" d="M120.615,224.963a7.168,7.168,0,0,1,.05,2.929,12.775,12.775,0,0,1-.922,2.812,19.134,19.134,0,0,1-3.276,4.9,19.555,19.555,0,0,1-4.6,3.68,17.769,17.769,0,0,1-5.458,2.09,25.9,25.9,0,0,0,2.651-1.169,20.311,20.311,0,0,0,2.484-1.44,24.1,24.1,0,0,0,4.338-3.7,23.377,23.377,0,0,0,3.315-4.632,12.64,12.64,0,0,0,1.09-2.629A7.905,7.905,0,0,0,120.615,224.963Z" transform="translate(-104.994 -204.384)" fill="#fff"/>
            <path id="Trazado_197522" data-name="Trazado 197522" d="M113.05,219.685a12.063,12.063,0,0,1-2.795,5.892,12.36,12.36,0,0,1-5.366,3.734l-.258.087.121-.22c.133-.244.276-.483.424-.721-.072.271-.15.538-.236.8l-.137-.134a20.73,20.73,0,0,0,4.857-4.061A21.544,21.544,0,0,0,113.05,219.685Z" transform="translate(-104.631 -203.308)" fill="#fff"/>
          </g>
          <path id="Trazado_197523" data-name="Trazado 197523" d="M103.672,485.556s4.2-.887,5.976-2.217a8.76,8.76,0,0,0,3.662-5.588c2.28.282,3.971,2.209,6.055,3.176a.915.915,0,0,0,.759.095c.388-.187.348-.747.226-1.16a12.433,12.433,0,0,0-9.813-8.64,21.157,21.157,0,0,1,6.474,1.614c1.4.689,2.684,1.7,4.217,2.007a.632.632,0,0,0,.459-.032.548.548,0,0,0,.21-.429,2.786,2.786,0,0,0-1.218-2.15,23.365,23.365,0,0,0-12.2-5.677,20.045,20.045,0,0,1,13.367,2.229,3.015,3.015,0,0,0,1.3.5.941.941,0,0,0,1.016-.759,1.217,1.217,0,0,0-.147-.567,9.678,9.678,0,0,0-4.115-4.05,21.264,21.264,0,0,0-14.293-2.691,21.016,21.016,0,0,1,13.816-.41,23.793,23.793,0,0,0,3.708,1.087.546.546,0,0,0,.431-.061c.207-.169.081-.5-.066-.724a13.143,13.143,0,0,0-8.741-5.493c-3.488-.6-7.473-.638-10.226,1.585a27.754,27.754,0,0,0-2,6.663c-.591,3.679-1.739,11-1.739,11l-3.493.174,5.674,10.461Z" transform="translate(-37.237 -248.194)" fill="#ff8775"/>
          <path id="Trazado_197524" data-name="Trazado 197524" d="M246.3,381.19a54.453,54.453,0,0,1-8.482,7.488,92.073,92.073,0,0,1-9.12,5.632L248.413,420.7l-15.167,25.952s-2.561-6.823-3.862-10.25a27.3,27.3,0,0,0-3.251-6.023c-3.1-1.6-6.927-.765-10.169.5a12.938,12.938,0,0,0-7.331,7.03c-.1.244-.152.589.08.711a.316.316,0,0,0,.119.034,2.832,2.832,0,0,0,1.813-.663,20.577,20.577,0,0,1,15.246-3.534,21.164,21.164,0,0,0-15.2,7.445,4.683,4.683,0,0,0-1.246,3.113.727.727,0,0,0,.024.17.924.924,0,0,0,1.13.53,2.96,2.96,0,0,0,1.153-.742,19.724,19.724,0,0,1,12.438-4.8,23,23,0,0,0-10.627,7.9,2.748,2.748,0,0,0-.746,2.315.543.543,0,0,0,.288.371.622.622,0,0,0,.449-.061c1.415-.6,2.449-1.829,3.663-2.772a20.825,20.825,0,0,1,5.919-2.843,12.233,12.233,0,0,0-7.738,10.276c-.036.422.037.97.448,1.072a.9.9,0,0,0,.712-.242c1.817-1.346,3.062-3.539,5.2-4.264a8.618,8.618,0,0,0,4.639,4.658,10.312,10.312,0,0,0,3.956.919l.031,0a15.868,15.868,0,0,0,10.186-4.242l33.754-37.291Z" transform="translate(-59.926 -233.087)" fill="#ff8775"/>
          <path id="Trazado_197525" data-name="Trazado 197525" d="M254.445,433.319a52.566,52.566,0,0,1,3.351-6.128,40.2,40.2,0,0,1,4.216-5.609,16.957,16.957,0,0,1,2.658-2.355,25.539,25.539,0,0,1,9.627-4.1,27.508,27.508,0,0,0-3.239,1.252,29.97,29.97,0,0,0-3.078,1.567,21.711,21.711,0,0,0-5.4,4.171,47.127,47.127,0,0,0-4.288,5.408c-.675.939-1.319,1.9-1.953,2.872C255.688,431.355,255.074,432.34,254.445,433.319Z" transform="translate(-69.286 -240.007)" fill="#0a2a6b"/>
          <path id="Trazado_197526" data-name="Trazado 197526" d="M62.133,456.476l-2.345-1.335q-1.164-.676-2.343-1.323a23.89,23.89,0,0,0-2.359-1.212,17.656,17.656,0,0,0-2.492-.853,30.692,30.692,0,0,0-5.226-.927,28.146,28.146,0,0,0-5.351,0,17.452,17.452,0,0,1,2.664-.517,25.849,25.849,0,0,1,2.722-.1,22.393,22.393,0,0,1,5.4.772,15.2,15.2,0,0,1,4.955,2.309A43.692,43.692,0,0,1,62.133,456.476Z" transform="translate(-25.963 -247.163)" fill="#0a2a6b"/>
        </g>
        <g id="Grupo_155505" data-name="Grupo 155505" transform="translate(194.743 151.472)">
          <g id="Grupo_155501" data-name="Grupo 155501" transform="translate(0 110.075)">
            <g id="Grupo_155500" data-name="Grupo 155500">
              <path id="Trazado_197527" data-name="Trazado 197527" d="M307.271,353.648s-4.832-9.952-8.109-12.348-11.241-5.155-12.762-5.1-.7,3.141-.045,3.741,5.3,3.775,5.3,3.775-7.761-2.755-9.529-4.145-11.959-11.4-13.087-11.033-.12,4.485,1.445,6.253,10.838,10.092,10.838,10.092-15.371-12.428-16.434-11.985-2.016,8.265,2.289,13.031,11.3,8.73,14.017,9.6,11.631,2.29,11.631,2.29l3.288,3.456Z" transform="translate(-263.99 -328.532)" fill="#ff8775"/>
              <path id="Trazado_197528" data-name="Trazado 197528" d="M298.7,347.547a18.076,18.076,0,0,0,3.648,8.777,9.4,9.4,0,0,1-3.648-8.777Z" transform="translate(-271.046 -332.41)" fill="#0a2a6b"/>
              <path id="Trazado_197529" data-name="Trazado 197529" d="M265.413,345.411a.786.786,0,0,1,.869-.675,1.956,1.956,0,0,1,1.085.534c.582.511,1.157,1.013,1.75,1.5,1.185.974,2.375,1.937,3.6,2.85s2.477,1.8,3.745,2.662,2.573,1.673,3.878,2.5a33.974,33.974,0,0,1-4.146-2.074,38.979,38.979,0,0,1-3.87-2.566,40.193,40.193,0,0,1-3.545-3c-.556-.537-1.1-1.088-1.636-1.642a1.735,1.735,0,0,0-.884-.595A.727.727,0,0,0,265.413,345.411Z" transform="translate(-264.28 -331.836)" fill="#0a2a6b"/>
              <path id="Trazado_197530" data-name="Trazado 197530" d="M264.106,339.747a2.631,2.631,0,0,1,.524-1.158,1.012,1.012,0,0,1,.591-.346,1.068,1.068,0,0,1,.693.14,8.41,8.41,0,0,1,.991.822l.944.819c1.265,1.083,2.544,2.15,3.871,3.159,1.294,1.05,2.637,2.041,3.964,3.056s2.663,2.024,3.958,3.09c-1.45-.844-2.859-1.748-4.252-2.681s-2.738-1.934-4.074-2.952c-1.3-1.059-2.6-2.128-3.8-3.3l-.891-.892a9.432,9.432,0,0,0-.876-.849.739.739,0,0,0-1,.057A2.958,2.958,0,0,0,264.106,339.747Z" transform="translate(-264.014 -330.51)" fill="#0a2a6b"/>
            </g>
            <path id="Trazado_197531" data-name="Trazado 197531" d="M300.216,364.257,324.628,444.3,338.4,416.144l-23.737-56.061Z" transform="translate(-271.378 -334.966)" fill="#ff8775"/>
          </g>
          <path id="Trazado_197532" data-name="Trazado 197532" d="M374.325,261.3s14.967-17,13.805-28.239a43.36,43.36,0,0,0-3.894-13.984,21.913,21.913,0,0,0-5.895-8.041c-3.351-2.651-7.657-3.691-11.79-4.781-6.083-1.6-12.325-3.48-18.554-2.6a41.422,41.422,0,0,0-13.139,4.739c-5.214,2.718-7.247,7.992-9.167,13.55a53.723,53.723,0,0,0-3.117,17.294,24.97,24.97,0,0,1-.6,6.837c-1.006,3.505-7.676,8.961-7.676,8.961a40.063,40.063,0,0,0,6.81,2.874c.868,2.98,1.557,5.537,2.317,8.049.091-.006.179-.018.272-.018,1.429,0,3.454.761,3.454,1.676,0,.744-1.637,1.348-2.691,1.558.574,1.682,1.217,3.409,2.021,5.3.6,1.425,2.7,5.163,3.972,6.044a7.559,7.559,0,0,0,4.532.966,32.792,32.792,0,0,0,13.249-3.148c.33,1.962.3,3.518.481,5.5a19.048,19.048,0,0,1-.008,4.591c-.523,3.381-2.592,6.292-4.6,9.062,4.652,2.011,9.815,1.551,14.824.783,5.529-.848,11.451-2.179,15.127-6.395,1.4.031.965-.246,1.391-1.584a16.91,16.91,0,0,0,.308-4.182Z" transform="translate(-274.25 -192.942)" fill="#ff8775"/>
          <path id="Trazado_197533" data-name="Trazado 197533" d="M378.437,307.288a46.7,46.7,0,0,1-16,8.438c-8.995,2.453-14.2.89-14.2.89a110.951,110.951,0,0,0-15.459,48.474c-2.133,28.36-5.33,95.607-5.33,95.607h92.387L400.5,363.6l17.91-8.172s-7.5-18.34-14.814-30.042A41.54,41.54,0,0,0,378.437,307.288Z" transform="translate(-276.932 -214.124)" fill="#0a2a6b"/>
          <path id="Trazado_197534" data-name="Trazado 197534" d="M421.422,373.207l-24.71,11.051,12.355,37.823-20.31,52.06h16.333L430.7,420.416Z" transform="translate(-289.435 -227.568)" fill="#ff8775"/>
          <path id="Trazado_197535" data-name="Trazado 197535" d="M393.2,374.414l-5.223,2.645q-2.611,1.323-5.24,2.609l-.227.111-.1-.24c-1.747-4.354-3.4-8.744-4.913-13.183s-2.992-8.9-4.137-13.461a58.8,58.8,0,0,1-1.407-6.923,51.23,51.23,0,0,1-.426-7.051,67.831,67.831,0,0,1,1.5-13.984,80.847,80.847,0,0,0-.964,13.979,59.452,59.452,0,0,0,.57,6.962,58.045,58.045,0,0,0,1.45,6.83c1.2,4.511,2.624,8.973,4.1,13.414.74,2.22,1.518,4.428,2.3,6.636s1.558,4.417,2.372,6.61l-.322-.128q2.654-1.232,5.325-2.431Z" transform="translate(-285.921 -217.724)" fill="#fff"/>
          <path id="Trazado_197536" data-name="Trazado 197536" d="M356.444,295.541a30.8,30.8,0,0,0,8.576-8.32,35.744,35.744,0,0,1-7.8,12.553Z" transform="translate(-282.845 -210.031)" fill="#0a2a6b"/>
          <path id="Trazado_197537" data-name="Trazado 197537" d="M334.347,254.728c0,1.435-.775,2.6-1.733,2.6s-1.732-1.163-1.732-2.6.775-2.6,1.732-2.6S334.347,253.293,334.347,254.728Z" transform="translate(-277.632 -202.875)" fill="#0a2a6b"/>
          <path id="Trazado_197538" data-name="Trazado 197538" d="M338.947,250.462a12.036,12.036,0,0,0-5.388-5.01,32.837,32.837,0,0,0-3.4-.963c-1.134-.355-2.292-.639-3.667-1.075l-.041-.236a6.231,6.231,0,0,1,4.12-1.041,8.085,8.085,0,0,1,3.931,1.653,11.29,11.29,0,0,1,2.99,2.91,11.076,11.076,0,0,1,1.679,3.675Z" transform="translate(-276.728 -200.833)" fill="#0a2a6b"/>
          <g id="Grupo_155503" data-name="Grupo 155503" transform="translate(36.464)">
            <path id="Trazado_197539" data-name="Trazado 197539" d="M379.222,266.592a7.673,7.673,0,0,0,.884,2.4,2.007,2.007,0,0,1-.327,2.362,2.236,2.236,0,0,1-1.628.22,14.452,14.452,0,0,1-11.95-12q.085,1.453.17,2.906a1.7,1.7,0,0,1-.215,1.165,1.342,1.342,0,0,1-1.265.358c-1.671-.248-2.81-1.78-3.694-3.219a56.938,56.938,0,0,0-12.553-14.027s-4.813-10.55,3.822-22.817a26.431,26.431,0,0,1-12.235,5.129,3.482,3.482,0,0,1-1.633-.006,1.3,1.3,0,0,1-.96-1.2,1.853,1.853,0,0,1,.452-.97,21.794,21.794,0,0,1,4.128-4.2c-5.631,2.787-12.434,3.635-18.712,3.87-.849.032-1.969-.165-2.078-1.006a1.634,1.634,0,0,1,.383-1.084,11.013,11.013,0,0,1,2.619-2.7c-3.934,1.809-7.921,3.4-12.01,1.978a4.21,4.21,0,0,1-2.285-1.622,2.092,2.092,0,0,1,.249-2.615,3.747,3.747,0,0,1,1.17-.57c5.463-2.028,8.512-7.668,12.445-11.966a31.527,31.527,0,0,1,20.051-10,11.757,11.757,0,0,1-3.463-2.137,2.1,2.1,0,0,1-.909-1.522c.027-.919,1.063-1.422,1.944-1.682A34.269,34.269,0,0,1,380.8,207.019c-.1-1.84-.209-3.362-.306-5.2-.052-.984.076-2.243,1.016-2.539a1.911,1.911,0,0,1,1.77.631c2.161,2.017,2.387,5.307,2.47,8.262a14.027,14.027,0,0,1,4.882,2.127,7.156,7.156,0,0,1,3.058,4.415c.049.264.054.589-.169.739a.737.737,0,0,1-.537.049,43.009,43.009,0,0,1-5.67-1.33c4.667,4.175,6.478,11.177,5.971,17.417s-3.057,12.13-5.966,17.673S378.937,260.338,379.222,266.592Z" transform="translate(-309.795 -190.256)" fill="#0a2a6b"/>
            <g id="Grupo_155502" data-name="Grupo 155502" transform="translate(13.853 10.3)" opacity="0.29">
              <path id="Trazado_197540" data-name="Trazado 197540" d="M327.2,224.188a8.2,8.2,0,0,0,4.353-2.278,44.237,44.237,0,0,0,3.547-3.525,69.719,69.719,0,0,1,7.049-7.2,20.142,20.142,0,0,1,19.313-3.269l-.428.594a8.585,8.585,0,0,1-1.06-1.75,8.374,8.374,0,0,1-.366-.957,3.665,3.665,0,0,1-.212-1.068,1.383,1.383,0,0,1,.563-1.136,2.262,2.262,0,0,1,1.091-.381,8.225,8.225,0,0,1,2.051.142,25.385,25.385,0,0,1,7.317,3.016,125.472,125.472,0,0,1,13.135,8.6c-4.4-2.829-8.773-5.707-13.4-8.11a26.929,26.929,0,0,0-7.172-2.821,7.617,7.617,0,0,0-1.852-.12,1.572,1.572,0,0,0-.741.252.643.643,0,0,0-.264.556,3.062,3.062,0,0,0,.185.844,7.426,7.426,0,0,0,.341.871,7.826,7.826,0,0,0,.979,1.588l.818,1.029-1.246-.435a20.074,20.074,0,0,0-9.71-.847,19.355,19.355,0,0,0-8.935,3.921,69.157,69.157,0,0,0-7.156,6.969,40.23,40.23,0,0,1-3.7,3.416A8.033,8.033,0,0,1,327.2,224.188Z" transform="translate(-327.198 -203.195)" fill="#fff"/>
              <path id="Trazado_197541" data-name="Trazado 197541" d="M385.613,221.378a17.951,17.951,0,0,0-9.444-2.747,19.952,19.952,0,0,0-4.883.658,31.622,31.622,0,0,0-4.67,1.688c-3.059,1.3-6.013,2.929-9.092,4.279q-2.3,1.025-4.633,1.983c-1.564.612-3.126,1.228-4.714,1.774,1.52-.714,3.05-1.4,4.557-2.132q2.278-1.063,4.529-2.18l4.491-2.25c1.495-.76,3-1.521,4.545-2.2a23.156,23.156,0,0,1,9.881-2.227,17.44,17.44,0,0,1,5,.951A16.56,16.56,0,0,1,385.613,221.378Z" transform="translate(-331.477 -206.216)" fill="#fff"/>
              <path id="Trazado_197542" data-name="Trazado 197542" d="M397.733,225.594a18.4,18.4,0,0,1,3.45,12.77,18.793,18.793,0,0,1-6.083,11.9l-.3-.67a1.669,1.669,0,0,1,1.211.364,2.666,2.666,0,0,1,.7.927,4.3,4.3,0,0,1,.358,2.122,11.369,11.369,0,0,1-.971,3.974c-1.049,2.5-2.648,4.66-3.506,7.108a12.52,12.52,0,0,0-.142,7.662,12.911,12.911,0,0,0,4.241,6.507,12.644,12.644,0,0,1-4.635-6.386,13.044,13.044,0,0,1-.08-7.991c.857-2.6,2.468-4.776,3.435-7.184a10.64,10.64,0,0,0,.876-3.716,3.708,3.708,0,0,0-.291-1.759c-.241-.533-.657-.918-1.116-.86l-1.235.155.938-.826a18.692,18.692,0,0,0,6.029-11.39A19.1,19.1,0,0,0,397.733,225.594Z" transform="translate(-340.29 -207.763)" fill="#fff"/>
              <path id="Trazado_197543" data-name="Trazado 197543" d="M380.97,269.258a42.928,42.928,0,0,1-2.15-10.841,39.956,39.956,0,0,1,.807-11.069,35.252,35.252,0,0,1,4.126-10.306,33.045,33.045,0,0,1,3.277-4.486,28.561,28.561,0,0,1,4.044-3.775,34.574,34.574,0,0,0-6.791,8.57,36.55,36.55,0,0,0-3.879,10.17,41.858,41.858,0,0,0-.974,10.865A54,54,0,0,0,380.97,269.258Z" transform="translate(-337.708 -208.413)" fill="#fff"/>
            </g>
          </g>
          <g id="Grupo_155504" data-name="Grupo 155504" transform="translate(75.308 45.591)">
            <path id="Trazado_197544" data-name="Trazado 197544" d="M372.253,255.951a11.946,11.946,0,0,1-5.209,8.193,6.2,6.2,0,0,1-2.892,1.11c-2.348.169-4.471-1.754-5.188-4a11.561,11.561,0,0,1,.41-6.938c.919-2.9,2.685-5.946,5.649-6.64C369.8,246.561,372.837,251.861,372.253,255.951Z" transform="translate(-358.591 -247.527)" fill="#ff8775"/>
            <path id="Trazado_197545" data-name="Trazado 197545" d="M362.107,262.959a5.787,5.787,0,0,0,2.667-1.727,1.17,1.17,0,0,0,.314-.556c.067-.407-.249-.766-.541-1.056l-1.773-1.763a.735.735,0,0,1-.23-.942c.669-2.235,1.461-4.643,3.386-5.961a3.28,3.28,0,0,1,1.753-.63,3.185,3.185,0,0,1,2.41,1.243,8.688,8.688,0,0,1,1.3,2.469s.5,4.784-2.827,7.666A5.933,5.933,0,0,1,362.107,262.959Z" transform="translate(-359.308 -248.098)" fill="#ff8775" style="mix-blend-mode: multiply;isolation: isolate"/>
            <path id="Trazado_197546" data-name="Trazado 197546" d="M371.379,253.944a9.03,9.03,0,0,0-1.532-2.386,2.859,2.859,0,0,0-2.326-.956,3.9,3.9,0,0,0-2.184,1.332,8,8,0,0,0-1.427,2.318,25.03,25.03,0,0,0-.955,2.67c-.082.249-.088.322-.063.358a3.919,3.919,0,0,0,.412.456l.994,1.052.494.53a2.394,2.394,0,0,1,.477.677,1.037,1.037,0,0,1-.045.948,2.812,2.812,0,0,1-.527.6,5.6,5.6,0,0,1-2.609,1.329,6.012,6.012,0,0,0,2.282-1.647,2.539,2.539,0,0,0,.38-.525.452.452,0,0,0-.033-.44,5.839,5.839,0,0,0-.932-.954l-1.056-.988a3.748,3.748,0,0,1-.568-.6.993.993,0,0,1-.14-.6,2.214,2.214,0,0,1,.09-.441,23.346,23.346,0,0,1,.947-2.789,8.6,8.6,0,0,1,1.641-2.551,4.449,4.449,0,0,1,2.754-1.446,3.3,3.3,0,0,1,2.734,1.377A7.855,7.855,0,0,1,371.379,253.944Z" transform="translate(-359.29 -248.007)" fill="#0a2a6b"/>
          </g>
        </g>
      </g>
    </g>
  </g>
</svg>
