<svg xmlns="http://www.w3.org/2000/svg" xmlns:xlink="http://www.w3.org/1999/xlink" width="400" height="579" viewBox="0 0 400 579">
  <defs>
    <clipPath id="clip-path">
      <path id="Trazado_197562" data-name="Trazado 197562" d="M138.444,472.678H55.7s-10.957-61.748,1.921-88.1,21.544-38.643,21.544-38.643,26.635-.98,44.9,13.253a83.4,83.4,0,0,1,25.227,33.1Z" transform="translate(-51.352 -345.918)" fill="none"/>
    </clipPath>
  </defs>
  <g id="Grupo_157868" data-name="Grupo 157868" transform="translate(1608 9799)">
    <rect id="Rectángulo_46558" data-name="Rectángulo 46558" width="400" height="579" rx="20" transform="translate(-1608 -9799)" fill="#2194e5"/>
    <path id="Trazado_198364" data-name="Trazado 198364" d="M-103.418-4.824V0h-3.428V-14.219h5.674a6.608,6.608,0,0,1,2.886.6,4.526,4.526,0,0,1,1.943,1.709,4.667,4.667,0,0,1,.688,2.515,4.114,4.114,0,0,1-1.489,3.325,6.179,6.179,0,0,1-4.087,1.245Zm0-2.646h2.246a2.118,2.118,0,0,0,1.519-.5,1.85,1.85,0,0,0,.522-1.406,2.287,2.287,0,0,0-.537-1.592,1.9,1.9,0,0,0-1.465-.605h-2.285Zm15.83-.117-1.084-.078a1.947,1.947,0,0,0-1.992.977V0h-3.291V-10.566h3.086l.107,1.357a2.548,2.548,0,0,1,2.314-1.553,3.209,3.209,0,0,1,.918.117ZM-81.475.2a5.432,5.432,0,0,1-3.936-1.45,5.008,5.008,0,0,1-1.5-3.774V-5.3a6.489,6.489,0,0,1,.6-2.861,4.395,4.395,0,0,1,1.753-1.919,5.292,5.292,0,0,1,2.734-.679A4.574,4.574,0,0,1-78.311-9.38a5.43,5.43,0,0,1,1.289,3.853v1.279h-6.543a2.372,2.372,0,0,0,.771,1.4,2.3,2.3,0,0,0,1.543.508,2.958,2.958,0,0,0,2.441-1.094l1.5,1.777A4.2,4.2,0,0,1-79.048-.308,5.891,5.891,0,0,1-81.475.2Zm-.371-8.418q-1.445,0-1.719,1.914h3.32v-.254a1.63,1.63,0,0,0-.4-1.226A1.593,1.593,0,0,0-81.846-8.223Zm5.762,2.861a7.134,7.134,0,0,1,.527-2.832,4.245,4.245,0,0,1,1.514-1.9,3.99,3.99,0,0,1,2.295-.669A3.173,3.173,0,0,1-69.17-9.648l.117-.918h2.988V-.4a4.455,4.455,0,0,1-.649,2.427,4.167,4.167,0,0,1-1.88,1.582,6.91,6.91,0,0,1-2.852.552A5.961,5.961,0,0,1-73.7,3.721a4.063,4.063,0,0,1-1.665-1.143L-73.984.645a3.018,3.018,0,0,0,2.422,1.084A1.96,1.96,0,0,0-69.375-.518V-.85A3.09,3.09,0,0,1-71.768.2a3.819,3.819,0,0,1-3.125-1.479,6.13,6.13,0,0,1-1.191-3.96Zm3.3.205A3.759,3.759,0,0,0-72.295-3.1a1.541,1.541,0,0,0,1.367.757,1.748,1.748,0,0,0,1.553-.713V-7.5a1.7,1.7,0,0,0-1.533-.723,1.551,1.551,0,0,0-1.377.786A4.287,4.287,0,0,0-72.783-5.156ZM-57.9-1.143A3.393,3.393,0,0,1-60.723.2,3.328,3.328,0,0,1-63.354-.815a4.251,4.251,0,0,1-.894-2.905v-6.846h3.291V-3.7a1.183,1.183,0,0,0,1.318,1.357,1.72,1.72,0,0,0,1.611-.811v-7.412h3.311V0H-57.8Zm8.008-9.424.107,1.24a3.583,3.583,0,0,1,3.018-1.436,3.015,3.015,0,0,1,2.466.986,4.7,4.7,0,0,1,.845,2.969V0h-3.3V-6.67a1.783,1.783,0,0,0-.322-1.177,1.491,1.491,0,0,0-1.172-.376,1.569,1.569,0,0,0-1.436.762V0h-3.291V-10.566Zm12.09-2.627v2.627h1.738v2.285H-37.8v4.834a1.234,1.234,0,0,0,.215.83,1.152,1.152,0,0,0,.85.234,4.828,4.828,0,0,0,.82-.059V-.088A6.074,6.074,0,0,1-37.773.2a3.448,3.448,0,0,1-2.51-.8,3.282,3.282,0,0,1-.811-2.432V-8.281h-1.348v-2.285h1.348v-2.627ZM-28.818,0a3.716,3.716,0,0,1-.312-.947A3.06,3.06,0,0,1-31.67.2a3.749,3.749,0,0,1-2.539-.9,2.875,2.875,0,0,1-1.045-2.271,2.955,2.955,0,0,1,1.27-2.6,6.468,6.468,0,0,1,3.691-.879h1.016v-.559q0-1.462-1.26-1.462a1.03,1.03,0,0,0-1.172,1.158H-35a2.95,2.95,0,0,1,1.3-2.487,5.479,5.479,0,0,1,3.325-.956,4.8,4.8,0,0,1,3.193.986,3.429,3.429,0,0,1,1.2,2.705v4.678a4.79,4.79,0,0,0,.449,2.227V0Zm-2.061-2.148a1.836,1.836,0,0,0,1.021-.264,1.653,1.653,0,0,0,.581-.6V-4.7h-.957q-1.719,0-1.719,1.543a.942.942,0,0,0,.3.728A1.1,1.1,0,0,0-30.879-2.148Zm12.256-.82a.76.76,0,0,0-.439-.674,6.685,6.685,0,0,0-1.67-.527,7.615,7.615,0,0,1-2.031-.718,3.4,3.4,0,0,1-1.221-1.079,2.577,2.577,0,0,1-.42-1.455,2.92,2.92,0,0,1,1.2-2.4,4.948,4.948,0,0,1,3.145-.942,5.482,5.482,0,0,1,3.359.947,2.962,2.962,0,0,1,1.27,2.49h-3.3q0-1.27-1.338-1.27a1.326,1.326,0,0,0-.869.288.892.892,0,0,0-.352.718.819.819,0,0,0,.43.713,4.06,4.06,0,0,0,1.372.449,11.857,11.857,0,0,1,1.655.42,3.007,3.007,0,0,1,2.383,2.939A2.767,2.767,0,0,1-16.733-.713,5.631,5.631,0,0,1-20.059.2,5.747,5.747,0,0,1-22.48-.293a4.05,4.05,0,0,1-1.66-1.328,3.007,3.007,0,0,1-.6-1.768h3.076a1.272,1.272,0,0,0,.488,1.069,2.009,2.009,0,0,0,1.2.337,1.58,1.58,0,0,0,1.011-.273A.875.875,0,0,0-18.623-2.969Zm9.277-2.393A6.455,6.455,0,0,1-8.262-9.316a3.568,3.568,0,0,1,3.027-1.445A3.035,3.035,0,0,1-2.852-9.648V-15h3.3V0H-2.51l-.166-1.133A3.116,3.116,0,0,1-5.254.2,3.562,3.562,0,0,1-8.242-1.25,6.659,6.659,0,0,1-9.346-5.361Zm3.291.205q0,2.813,1.641,2.813a1.62,1.62,0,0,0,1.563-.918V-7.285a1.576,1.576,0,0,0-1.543-.937q-1.523,0-1.65,2.461ZM7.432.2A5.432,5.432,0,0,1,3.5-1.255a5.008,5.008,0,0,1-1.5-3.774V-5.3a6.489,6.489,0,0,1,.6-2.861,4.395,4.395,0,0,1,1.753-1.919,5.292,5.292,0,0,1,2.734-.679A4.574,4.574,0,0,1,10.6-9.38a5.43,5.43,0,0,1,1.289,3.853v1.279H5.342a2.372,2.372,0,0,0,.771,1.4,2.3,2.3,0,0,0,1.543.508A2.958,2.958,0,0,0,10.1-3.437L11.6-1.66A4.2,4.2,0,0,1,9.858-.308,5.891,5.891,0,0,1,7.432.2ZM7.061-8.223q-1.445,0-1.719,1.914h3.32v-.254a1.63,1.63,0,0,0-.4-1.226A1.593,1.593,0,0,0,7.061-8.223Zm14.961-4.971v2.627H23.76v2.285H22.021v4.834a1.234,1.234,0,0,0,.215.83,1.152,1.152,0,0,0,.85.234,4.828,4.828,0,0,0,.82-.059V-.088A6.074,6.074,0,0,1,22.051.2a3.448,3.448,0,0,1-2.51-.8,3.282,3.282,0,0,1-.811-2.432V-8.281H17.383v-2.285H18.73v-2.627ZM28.525,0h-3.3V-10.566h3.3Zm-3.5-13.3a1.482,1.482,0,0,1,.508-1.159,1.909,1.909,0,0,1,1.318-.452,1.909,1.909,0,0,1,1.318.452,1.482,1.482,0,0,1,.508,1.159,1.482,1.482,0,0,1-.508,1.159,1.909,1.909,0,0,1-1.318.452,1.909,1.909,0,0,1-1.318-.452A1.482,1.482,0,0,1,25.029-13.3Zm15.332,8.1a6.372,6.372,0,0,1-1.108,3.931A3.554,3.554,0,0,1,36.26.2,3.046,3.046,0,0,1,33.867-.869V4.063H30.576V-10.566h3.076l.1.977a3.046,3.046,0,0,1,2.49-1.172,3.582,3.582,0,0,1,3.037,1.44,6.45,6.45,0,0,1,1.084,3.96ZM37.07-5.41q0-2.812-1.641-2.812a1.549,1.549,0,0,0-1.562.84v4.16a1.6,1.6,0,0,0,1.582.879q1.572,0,1.621-2.715Zm4.326.029A6.236,6.236,0,0,1,42.012-8.2a4.4,4.4,0,0,1,1.768-1.9,5.323,5.323,0,0,1,2.705-.664,4.858,4.858,0,0,1,3.74,1.47,5.64,5.64,0,0,1,1.367,4v.117A5.472,5.472,0,0,1,50.22-1.255,4.871,4.871,0,0,1,46.5.2a4.927,4.927,0,0,1-3.623-1.353,5.29,5.29,0,0,1-1.475-3.667Zm3.291.205a3.932,3.932,0,0,0,.459,2.148,1.529,1.529,0,0,0,1.357.684q1.758,0,1.8-2.705v-.332q0-2.842-1.816-2.842-1.65,0-1.787,2.451Zm16.445-5.391.107,1.24a3.633,3.633,0,0,1,3.018-1.436A2.675,2.675,0,0,1,66.963-9.17a3.517,3.517,0,0,1,3.105-1.592q3.213,0,3.3,3.887V0h-3.3V-6.67a2.014,2.014,0,0,0-.273-1.182,1.164,1.164,0,0,0-1-.371,1.559,1.559,0,0,0-1.455.869l.01.137V0h-3.3V-6.65a2.117,2.117,0,0,0-.264-1.2,1.161,1.161,0,0,0-1.006-.371,1.578,1.578,0,0,0-1.445.869V0H58.047V-10.566ZM78.721,0h-3.3V-10.566h3.3Zm-3.5-13.3a1.482,1.482,0,0,1,.508-1.159,1.909,1.909,0,0,1,1.318-.452,1.909,1.909,0,0,1,1.318.452,1.482,1.482,0,0,1,.508,1.159,1.482,1.482,0,0,1-.508,1.159,1.909,1.909,0,0,1-1.318.452,1.909,1.909,0,0,1-1.318-.452A1.482,1.482,0,0,1,75.225-13.3Zm9.8,5.645,1.533-2.91H89.98L87.2-5.42,90.117,0H86.68L85.02-3.125,83.389,0H79.932l2.93-5.42-2.773-5.146h3.457Zm9.844-5.537v2.627h1.738v2.285H94.873v4.834a1.234,1.234,0,0,0,.215.83,1.152,1.152,0,0,0,.85.234,4.828,4.828,0,0,0,.82-.059V-.088A6.074,6.074,0,0,1,94.9.2a3.448,3.448,0,0,1-2.51-.8,3.282,3.282,0,0,1-.811-2.432V-8.281H90.234v-2.285h1.348v-2.627ZM97.2-5.381A6.236,6.236,0,0,1,97.813-8.2a4.4,4.4,0,0,1,1.768-1.9,5.323,5.323,0,0,1,2.705-.664,4.858,4.858,0,0,1,3.74,1.47,5.64,5.64,0,0,1,1.367,4v.117a5.472,5.472,0,0,1-1.372,3.921A4.871,4.871,0,0,1,102.3.2a4.927,4.927,0,0,1-3.623-1.353,5.29,5.29,0,0,1-1.475-3.667Zm3.291.205a3.932,3.932,0,0,0,.459,2.148,1.529,1.529,0,0,0,1.357.684q1.758,0,1.8-2.705v-.332q0-2.842-1.816-2.842-1.65,0-1.787,2.451Z" transform="translate(-1408 -9699)" fill="#fff"/>
    <g id="Grupo_155563" data-name="Grupo 155563" transform="translate(-1619.295 -9638.604)">
      <g id="BACKGROUND" transform="translate(22.295 29.314)">
        <g id="Grupo_155509" data-name="Grupo 155509" transform="translate(0)">
          <g id="Grupo_155508" data-name="Grupo 155508" opacity="0.3">
            <g id="Grupo_155507" data-name="Grupo 155507">
              <path id="Trazado_197547" data-name="Trazado 197547" d="M302.744,368.489c-1.167-.018-2.367-.058-3.564-.119l.044-.86c1.187.061,2.377.1,3.533.119Zm3.567-.007-.017-.86c1.194-.024,2.381-.071,3.532-.138l.049.858C308.715,368.41,307.516,368.458,306.311,368.482Zm-10.689-.357q-1.777-.151-3.544-.356l.1-.855q1.756.2,3.519.355Zm17.808-.055-.082-.856c1.18-.113,2.36-.249,3.51-.406l.115.851C315.813,367.817,314.621,367.955,313.43,368.07Zm-24.884-.759q-1.763-.254-3.519-.551l.143-.849q1.745.3,3.5.548Zm31.951-.2-.149-.847c1.166-.2,2.331-.434,3.466-.682l.183.84C322.852,366.674,321.674,366.906,320.5,367.112Zm-38.975-.986q-1.746-.336-3.488-.7l.178-.842q1.734.368,3.473.7Zm45.946-.53-.217-.832c1.146-.3,2.292-.62,3.406-.96l.251.823C329.782,364.971,328.623,365.3,327.467,365.6Zm-52.909-.94q-1.734-.4-3.462-.815l.2-.836q1.724.417,3.45.812ZM334.3,363.52l-.283-.811c1.1-.385,2.218-.8,3.314-1.232l.317.8C336.542,362.713,335.416,363.131,334.3,363.52Zm-217.128-.357-.009-.859.241,0c1.167-.013,2.355-.052,3.53-.114l.046.858c-1.187.064-2.387.1-3.567.116Zm-3.57-.052c-1.191-.045-2.39-.119-3.564-.219l.073-.856c1.16.1,2.345.171,3.523.216Zm154.039-.125q-1.721-.437-3.441-.886l.216-.833q1.718.448,3.437.884Zm-143.1-.2-.078-.856c1.136-.1,2.319-.23,3.517-.378l.105.853C126.877,362.558,125.685,362.686,124.54,362.79Zm-18.048-.281c-1.18-.157-2.367-.341-3.527-.55l.153-.847c1.147.206,2.319.39,3.487.544Zm25.122-.591-.13-.85q1.749-.268,3.492-.581l.151.847Q133.372,361.647,131.614,361.918Zm-32.144-.676c-1.154-.266-2.318-.561-3.459-.88l.231-.828c1.128.316,2.279.609,3.42.87Zm161.3-.048-3.432-.917.224-.831,3.431.917Zm80.175-.294-.347-.788c1.083-.479,2.16-.981,3.2-1.492l.379.772C343.122,359.908,342.035,360.416,340.94,360.9Zm-202.315-.228-.168-.843q1.736-.346,3.47-.72l.182.84Q140.368,360.326,138.625,360.672ZM253.9,359.358q-1.713-.458-3.431-.909l.219-.833q1.718.453,3.434.911ZM92.6,359.321c-1.128-.374-2.259-.777-3.362-1.2l.308-.8c1.091.419,2.21.818,3.324,1.186Zm52.985-.137-.19-.839q1.73-.391,3.458-.8l.2.837Q147.313,358.79,145.581,359.183Zm201.762-1.424-.408-.757c1.021-.552,2.055-1.137,3.074-1.738l.438.74C349.419,356.612,348.375,357.2,347.343,357.759ZM152.5,357.573l-.2-.837,3.459-.812.2.837Zm94.535-.017q-1.716-.439-3.44-.864l.206-.835q1.726.425,3.448.866Zm-161.1-.791c-1.076-.47-2.163-.974-3.229-1.5l.38-.772c1.055.52,2.129,1.02,3.193,1.485Zm73.484-.8-.19-.839q1.734-.392,3.472-.77l.182.841Q161.146,355.569,159.417,355.962Zm80.733-.1q-1.726-.4-3.458-.777l.182-.84q1.739.375,3.471.781Zm-73.8-1.394-.169-.843q1.386-.278,2.775-.535l.723-.132.151.847-.718.131Q167.73,354.195,166.35,354.472Zm66.872-.1q-.848-.169-1.695-.327-.893-.168-1.788-.327l.151-.847c.6.106,1.2.216,1.8.327q.854.16,1.7.33Zm120.257-.234-.464-.723c.974-.627,1.961-1.287,2.932-1.965l.492.706C355.459,352.835,354.464,353.5,353.48,354.134Zm-273.936-.517c-1.042-.575-2.08-1.177-3.083-1.789l.448-.734c.991.605,2.018,1.2,3.05,1.77Zm93.779-.4-.135-.851q1.758-.278,3.522-.519l.117.851Q175.072,352.94,173.323,353.218Zm52.923-.082q-1.75-.273-3.506-.508l.114-.852q1.766.237,3.524.51Zm-45.9-.879-.1-.855q1.768-.2,3.541-.374l.081.857Q182.1,352.051,180.341,352.256Zm38.884-.061q-1.761-.2-3.524-.36l.078-.856q1.773.163,3.542.362Zm-31.832-.609-.063-.858q1.776-.131,3.553-.225l.045.858Q189.16,351.456,187.393,351.587Zm24.777-.039q-1.768-.125-3.537-.213l.044-.86q1.777.09,3.554.215Zm-17.7-.338-.028-.86q1.779-.058,3.56-.078l.009.859Q196.238,351.152,194.468,351.21Zm10.626-.016q-1.77-.053-3.542-.068l.008-.86q1.781.015,3.56.068Zm154.23-1.128-.517-.688c.937-.705,1.873-1.435,2.784-2.169l.54.668C361.213,348.619,360.268,349.356,359.324,350.066ZM73.46,349.9c-.981-.658-1.961-1.349-2.916-2.053l.51-.693c.944.7,1.915,1.38,2.885,2.033Zm-5.741-4.232c-.916-.739-1.835-1.511-2.73-2.3l.568-.646c.886.778,1.8,1.543,2.7,2.273Zm297.145-.081-.562-.651c.884-.765,1.77-1.558,2.634-2.359l.585.631C366.649,344.02,365.755,344.82,364.864,345.591ZM62.359,340.964c-.853-.814-1.7-1.662-2.529-2.518l.619-.6c.817.847,1.659,1.686,2.5,2.493Zm307.74-.213-.6-.612c.838-.826,1.671-1.675,2.48-2.523l.624.592C371.783,339.065,370.942,339.92,370.1,340.751ZM57.408,335.826c-.782-.88-1.561-1.794-2.315-2.716l.666-.545c.747.913,1.518,1.818,2.292,2.691Zm317.609-.233-.639-.573q1.176-1.313,2.326-2.669l.656.556Q376.2,334.273,375.017,335.593ZM52.89,330.3c-.713-.949-1.416-1.923-2.088-2.893l.707-.49c.666.962,1.362,1.927,2.068,2.865Zm326.733-.146-.672-.536q1.1-1.377,2.174-2.794l.686.518Q380.73,328.773,379.623,330.157Zm4.3-5.681-.7-.5q.344-.481.685-.965.677-.963,1.329-1.942l.717.476q-.658.987-1.343,1.96Q384.269,323.993,383.922,324.476Zm-335.091-.044c-.634-1-1.257-2.026-1.851-3.051l.745-.43c.588,1.014,1.2,2.032,1.833,3.021Zm339.048-5.892-.733-.45c.607-.989,1.212-2.013,1.8-3.046l.749.424C389.1,316.51,388.492,317.543,387.879,318.54Zm-342.628-.281c-.55-1.041-1.09-2.113-1.6-3.187l.777-.371c.508,1.064,1.042,2.125,1.587,3.157Zm346.136-5.929-.763-.395c.541-1.046,1.068-2.111,1.568-3.17l.777.369C392.466,310.2,391.933,311.276,391.387,312.33Zm-349.213-.506c-.468-1.089-.921-2.2-1.344-3.3l.8-.309c.419,1.094.866,2.2,1.33,3.273Zm352.261-5.941-.791-.34c.462-1.071.912-2.173,1.338-3.273l.8.312C395.355,303.69,394.9,304.8,394.436,305.883Zm-354.815-.721c-.38-1.129-.741-2.273-1.072-3.4l.825-.241c.328,1.119.685,2.252,1.062,3.37Zm357.395-5.927-.813-.282c.388-1.116.759-2.246,1.1-3.36l.821.253C397.781,296.971,397.406,298.11,397.016,299.235Zm-359.4-.921c-.287-1.153-.552-2.325-.789-3.48l.842-.172c.234,1.143.5,2.3.782,3.445Zm361.505-5.893-.831-.225c.3-1.121.6-2.276.868-3.428l.837.2C399.722,290.128,399.429,291.29,399.122,292.421Zm-362.937-1.1c-.189-1.172-.355-2.362-.494-3.534l.854-.1c.137,1.161.3,2.338.489,3.5Zm364.565-5.844-.843-.167c.23-1.158.441-2.327.628-3.48l.849.138C401.195,283.132,400.981,284.312,400.75,285.479Zm-365.4-1.242c-.088-1.187-.151-2.387-.186-3.566l.86-.026c.035,1.167.1,2.354.183,3.529Zm366.546-5.8-.853-.109c.148-1.162.28-2.345.388-3.514l.856.08C402.179,276.076,402.046,277.268,401.9,278.441ZM36,277.111l-.86-.013c.017-1.186.062-2.387.132-3.568l.859.052C36.059,274.749,36.014,275.937,36,277.111Zm366.56-5.77-.857-.051c.068-1.163.118-2.353.146-3.533l.86.021C402.677,268.968,402.627,270.167,402.557,271.341ZM36.419,270.063l-.856-.09c.125-1.181.279-2.373.457-3.542l.851.131C36.695,267.716,36.542,268.9,36.419,270.063Zm365.454-5.842c-.012-1.174-.044-2.363-.1-3.535l.86-.039c.053,1.183.085,2.382.1,3.565Zm-364.4-1.147-.847-.157q.326-1.749.682-3.493l.842.172Q37.8,261.333,37.47,263.074Zm364.089-5.918c-.091-1.155-.2-2.34-.339-3.52l.855-.1c.135,1.19.249,2.384.342,3.549ZM38.874,256.122l-.841-.18.744-3.473.841.18Zm361.883-5.992c-.174-1.16-.371-2.333-.586-3.487l.845-.158c.217,1.163.415,2.347.591,3.518Zm-360.407-.958L39.508,249q.358-1.738.692-3.477l.845.161Q40.713,247.429,40.351,249.172Zm359.114-5.992c-.258-1.155-.538-2.31-.832-3.436l.833-.217c.3,1.136.578,2.3.837,3.465Zm-357.794-1-.849-.14c.2-1.207.375-2.383.522-3.5l.852.113C42.048,239.774,41.871,240.96,41.67,242.176Zm356.008-5.838c-.337-1.123-.7-2.256-1.078-3.366l.815-.277c.381,1.12.747,2.264,1.087,3.4ZM42.591,235.105l-.856-.077c.109-1.2.187-2.385.232-3.524l.86.035C42.781,232.693,42.7,233.893,42.591,235.105ZM395.4,229.648c-.42-1.1-.865-2.206-1.322-3.278l.791-.337c.461,1.083.909,2.2,1.334,3.307ZM42.011,227.98c-.02-1.148-.073-2.334-.16-3.522l.858-.063c.088,1.2.142,2.406.162,3.57Zm350.623-4.837q-.558-1.187-1.149-2.359-.2-.406-.415-.811l.763-.4c.142.273.281.545.42.819q.6,1.182,1.159,2.38ZM41.5,220.947c-.143-1.142-.318-2.317-.52-3.491l.847-.146c.2,1.188.381,2.376.526,3.532Zm347.9-4.094q-.856-1.547-1.751-3.077l.743-.434q.9,1.539,1.76,3.095ZM40.31,213.987c-.239-1.118-.508-2.277-.8-3.445l.834-.209c.295,1.178.566,2.347.807,3.475Zm345.53-3.262q-.913-1.522-1.839-3.036l.734-.448q.926,1.518,1.843,3.04Zm-347.24-3.6q-.478-1.7-1-3.4l.822-.252q.523,1.705,1.005,3.417Zm343.553-2.465q-.922-1.52-1.833-3.047l.74-.439q.9,1.524,1.829,3.04ZM36.532,200.346q-.548-1.683-1.121-3.364l.814-.276q.573,1.686,1.125,3.375Zm341.994-1.807q-.887-1.547-1.735-3.112l.757-.409q.842,1.556,1.724,3.093ZM34.254,193.627q-.559-1.608-1.125-3.216l-.048-.135.812-.285.047.135q.565,1.609,1.126,3.218Zm340.891-1.362c-.545-1.093-1.061-2.178-1.531-3.222l.784-.353c.466,1.034.976,2.108,1.517,3.191ZM31.909,186.922q-.584-1.68-1.156-3.361l.814-.276q.569,1.679,1.153,3.356Zm340.339-1.186c-.413-1.1-.8-2.242-1.145-3.389l.823-.249c.342,1.13.721,2.252,1.127,3.337ZM29.632,180.184q-.549-1.7-1.069-3.394l.823-.251q.516,1.692,1.064,3.38ZM370.164,178.9c-.273-1.122-.526-2.3-.754-3.491l.846-.16c.224,1.18.474,2.34.743,3.448Zm-342.6-5.528q-.478-1.714-.907-3.446l.834-.207q.427,1.719.9,3.423Zm341.26-1.482c-.166-1.155-.313-2.345-.437-3.539l.855-.089c.123,1.182.269,2.362.434,3.505ZM25.847,166.456q-.381-1.74-.715-3.491l.845-.16q.332,1.739.711,3.467ZM368.081,164.8q-.122-1.765-.193-3.556l.86-.035q.07,1.778.192,3.531ZM24.514,159.454Q24.231,157.7,24,155.93l.852-.114q.232,1.755.514,3.5Zm343.277-1.77q-.017-1.172-.017-2.352l0-1.2.86,0,0,1.2q0,1.174.017,2.34ZM23.578,152.391q-.183-1.772-.316-3.549l.858-.064q.131,1.763.313,3.524Zm345.117-1.8-.86-.021q.046-1.771.117-3.556l.86.035Q368.74,148.826,368.7,150.59ZM23.049,145.284q-.08-1.781-.107-3.562l.859-.013q.027,1.768.107,3.537Zm345.928-1.778-.859-.045q.093-1.77.2-3.549l.858.053Q369.069,141.739,368.976,143.506ZM23.8,138.17l-.86-.012c.018-1.184.054-2.382.109-3.562l.859.039C23.855,135.807,23.818,137,23.8,138.17Zm345.608-1.747-.858-.059q.12-1.77.248-3.544l.858.062Q369.53,134.655,369.408,136.424ZM24.126,131.1l-.857-.067c.093-1.193.206-2.387.334-3.549l.855.095C24.331,128.735,24.219,129.919,24.126,131.1Zm345.791-1.763-.858-.063.261-3.542.858.063ZM24.9,124.074l-.851-.123c.17-1.181.361-2.366.567-3.52l.847.151C25.262,121.726,25.073,122.9,24.9,124.074Zm345.529-1.819-.858-.061q.123-1.773.239-3.541l.858.054Q370.558,120.478,370.433,122.255ZM26.147,117.112l-.841-.181c.25-1.166.522-2.334.809-3.473l.834.21C26.665,114.8,26.395,115.956,26.147,117.112Zm344.739-1.954-.858-.049q.1-1.776.179-3.542l.86.039Q370.988,113.375,370.886,115.158Zm-343.012-4.9-.826-.24c.332-1.14.688-2.286,1.059-3.407l.816.271C28.555,107.99,28.2,109.126,27.874,110.257ZM371.2,108.049l-.86-.026q.056-1.781.081-3.545l.86.012Q371.258,106.261,371.2,108.049ZM30.1,103.546l-.805-.3c.419-1.119.861-2.235,1.314-3.317l.793.332C30.95,101.332,30.512,102.438,30.1,103.546Zm340.341-2.613q-.012-1.782-.066-3.541l.86-.026q.054,1.77.065,3.561ZM32.826,97.028l-.78-.363c.5-1.077,1.03-2.155,1.571-3.2l.764.395C33.846,94.895,33.322,95.962,32.826,97.028Zm337.388-3.171c-.071-1.188-.16-2.375-.265-3.528l.856-.077c.106,1.161.2,2.356.267,3.554ZM36.065,90.748l-.748-.425c.585-1.03,1.2-2.062,1.826-3.065l.729.455C37.253,88.706,36.644,89.727,36.065,90.748ZM369.56,86.816c-.156-1.2-.335-2.376-.531-3.492l.847-.148c.2,1.128.379,2.316.537,3.529ZM39.805,84.755l-.709-.487.239-.346c.588-.852,1.209-1.712,1.845-2.554l.686.518c-.629.832-1.242,1.682-1.824,2.524Zm328.533-4.892c-.262-1.161-.555-2.312-.871-3.421l.828-.235c.32,1.125.617,2.29.882,3.466ZM44.062,79.119l-.661-.55c.754-.906,1.545-1.812,2.349-2.692l.634.58C45.589,77.327,44.808,78.223,44.062,79.119ZM48.826,73.9l-.608-.609c.833-.834,1.7-1.665,2.58-2.469l.581.633C50.51,72.255,49.651,73.077,48.826,73.9ZM366.4,73.083c-.4-1.123-.828-2.227-1.283-3.279l.789-.341c.463,1.07.9,2.192,1.306,3.333ZM173.178,71.026l-.008-.86c1.132-.011,2.313-.069,3.511-.175l.076.856C175.536,70.955,174.333,71.015,173.178,71.026ZM169.59,70.9a34.284,34.284,0,0,1-3.563-.479l.16-.845a33.419,33.419,0,0,0,3.473.466Zm10.718-.49-.132-.85c1.118-.174,2.285-.389,3.467-.643l.18.841C182.625,70.015,181.442,70.234,180.308,70.41Zm-17.771-.79c-1.119-.3-2.272-.641-3.426-1.021l.269-.817c1.139.375,2.275.713,3.378,1.006Zm-108.5-.491-.552-.658c.907-.762,1.844-1.514,2.784-2.236l.524.682C55.86,67.632,54.933,68.377,54.035,69.129Zm133.261-.2-.219-.832c1.1-.29,2.247-.617,3.4-.97l.251.823C189.565,68.305,188.41,68.634,187.3,68.928ZM155.747,67.4c-1.057-.406-2.169-.858-3.3-1.345l.339-.791c1.124.483,2.225.931,3.273,1.334Zm38.373-.55-.279-.814q1.666-.57,3.334-1.195l.3.806Q195.8,66.272,194.12,66.847Zm169.481-.22c-.545-1.042-1.134-2.067-1.75-3.047l.728-.457c.628,1,1.227,2.044,1.784,3.106Zm-303.962-1.8-.494-.7c.97-.68,1.967-1.35,2.963-1.989l.465.723C61.585,63.487,60.6,64.151,59.639,64.824Zm89.552-.225c-1.075-.5-2.146-1.009-3.214-1.527l.376-.773q1.6.774,3.2,1.519Zm51.611-.239-.318-.8q1.642-.655,3.282-1.346l.333.793Q202.453,63.7,200.8,64.359Zm6.569-2.754-.345-.788q1.628-.711,3.244-1.438l.351.785Q209,60.891,207.37,61.605Zm-64.584-.1L139.6,59.926l.381-.771,3.182,1.578Zm-77.2-.494-.433-.743c1.025-.6,2.075-1.181,3.12-1.733l.4.761C67.64,59.841,66.6,60.417,65.586,61.01Zm294.277-.323c-.147-.2-.3-.392-.448-.587-.568-.731-1.161-1.459-1.761-2.16l.654-.559c.61.712,1.21,1.45,1.787,2.192.155.2.305.4.456.6ZM213.857,58.7l-.356-.782q1.623-.742,3.227-1.482l.36.781Q215.483,57.953,213.857,58.7Zm-77.44-.325q-1.6-.768-3.208-1.5l.356-.783q1.62.737,3.224,1.51Zm-64.583-.658-.369-.777c1.071-.508,2.167-1,3.257-1.461l.335.792C73.978,56.724,72.894,57.21,71.834,57.713Zm148.481-1.985-.359-.782q1.633-.749,3.235-1.475l.355.783Q221.945,54.979,220.315,55.728Zm-90.349-.276c-1.128-.471-2.234-.908-3.286-1.3l.3-.807c1.063.394,2.179.835,3.319,1.311Zm225.32-.126c-.81-.842-1.655-1.675-2.514-2.473l.587-.63c.869.81,1.726,1.653,2.547,2.507ZM78.338,54.963l-.3-.806c1.113-.415,2.248-.809,3.371-1.172l.265.819C80.561,54.162,79.439,54.553,78.338,54.963Zm45-1.951c-1.114-.35-2.256-.671-3.394-.958l.209-.834c1.154.29,2.312.616,3.442.971Zm103.444-.2-.346-.787q1.656-.728,3.271-1.407l.332.793Q228.438,52.082,226.786,52.809ZM85.057,52.793l-.227-.829c1.144-.314,2.309-.6,3.463-.865l.188.838C87.341,52.2,86.188,52.483,85.057,52.793Zm31.448-1.5c-1.148-.22-2.319-.411-3.481-.567l.114-.852c1.177.158,2.364.351,3.528.574Zm-24.562-.049-.15-.847c1.175-.207,2.363-.387,3.53-.536l.109.853C94.278,50.86,93.1,51.039,91.943,51.244Zm258.184-.721c-.9-.746-1.826-1.482-2.767-2.187l.516-.688c.953.714,1.9,1.459,2.8,2.215ZM98.942,50.354l-.066-.857c1.19-.092,2.39-.154,3.567-.186l.022.86C101.3,50.2,100.117,50.264,98.942,50.354Zm10.575,0c-1.162-.091-2.348-.153-3.524-.184l.023-.859c1.19.03,2.391.093,3.568.186Zm123.81-.277-.313-.8q.742-.29,1.471-.564.924-.347,1.854-.7l.305.8q-.929.354-1.857.7Q234.062,49.788,233.326,50.075Zm6.637-2.536-.312-.8q1.65-.639,3.31-1.291l.313.8Q241.615,46.9,239.963,47.539Zm104.52-1.246c-.967-.652-1.969-1.29-2.976-1.9l.446-.735c1.018.616,2.03,1.263,3.01,1.921Zm-97.9-1.342-.313-.8q1.652-.647,3.311-1.292l.312.8Q248.233,44.3,246.583,44.951Zm91.863-2.313c-1.021-.554-2.078-1.1-3.14-1.614l.376-.774c1.074.523,2.142,1.072,3.174,1.632Zm-85.241-.255-.308-.8q1.662-.634,3.329-1.254l.3.807Q254.863,41.751,253.206,42.383Zm6.651-2.466-.289-.81q1.675-.6,3.358-1.174l.278.814Q261.526,39.32,259.857,39.918Zm72.24-.368c-1.069-.464-2.169-.914-3.269-1.337l.309-.8c1.112.428,2.224.882,3.3,1.351Zm-65.529-1.917-.264-.819q1.7-.545,3.4-1.054l.246.824Q268.256,37.09,266.569,37.633Zm58.937-.621c-1.1-.374-2.236-.734-3.367-1.068l.244-.824c1.142.337,2.285.7,3.4,1.078Zm-52.149-1.4-.225-.83q1.723-.468,3.451-.885l.2.837Q275.067,35.151,273.357,35.616Zm45.372-.608c-1.132-.287-2.29-.558-3.442-.805l.18-.841c1.162.249,2.331.523,3.474.813Zm-38.5-1.046-.175-.842c1.179-.245,2.357-.468,3.5-.664l.145.847C282.571,33.5,281.4,33.719,280.233,33.962Zm31.583-.434c-1.152-.2-2.326-.387-3.492-.548l.117-.851c1.177.163,2.363.349,3.524.553Zm-24.617-.75-.111-.852c1.189-.155,2.383-.285,3.548-.385l.073.857C289.557,32.5,288.376,32.624,287.2,32.777Zm17.612-.216c-1.176-.118-2.361-.216-3.524-.291l.054-.858c1.174.075,2.37.174,3.556.294Zm-10.578-.384-.034-.86c.927-.035,1.827-.044,2.782-.053.262,0,.527,0,.79.006l-.011.86c-.286,0-.581,0-.856,0Q295.567,32.125,294.233,32.176Z" transform="translate(-22.941 -31.264)" fill="#2c54ac"/>
            </g>
          </g>
          <path id="Trazado_197548" data-name="Trazado 197548" d="M98.19,350.291c17.413,1.983,34.917-1.72,52.418-2.735a171.255,171.255,0,0,1,62.044,7.861c21.116,6.779,40.848,17.678,62.621,22.106,36.372,7.4,68.05-13.718,92.729-40.6S401.059,270.1,389.16,236.051c-4.05-11.592-10.232-22.445-13.668-34.221-11.268-38.625,21.251-78.7,4.45-115.6-9.142-20.075-28.057-33.2-50.275-37.307S277.03,47.78,255.064,53c-21.184,5.036-49.546,19.822-70.149,12.887-14.343-4.828-25.524-15.86-39.2-22.237C116.594,30.079,79.3,40.839,58.047,64.387s-27.865,57.131-23.258,88.07c2.769,18.6,9.251,37.1,6.813,55.742-1.6,12.235-6.961,23.665-10.61,35.482C16.85,289.493,46.977,344.461,98.19,350.291Z" transform="translate(-23.75 -32.404)" fill="#9ddcf9"/>
        </g>
      </g>
      <g id="OBJECTS" transform="translate(19.295 20.266)">
        <g id="Grupo_155532" data-name="Grupo 155532" transform="translate(23.446 160.932)">
          <path id="Trazado_197549" data-name="Trazado 197549" d="M155.175,276.764a7.422,7.422,0,0,0-2.909-3.868,17.3,17.3,0,0,1-3.405-3.347q-.349-6.081-.986-12.141a69.6,69.6,0,0,0-3.283-16.509c-1.915-5.29-5.053-10.269-9.613-13.563a181.552,181.552,0,0,1-15.329,14.547c-3.625,3.006-8.651,4.558-12.167,7.691-4.652,4.147-9.165,8.6-12.211,14.041-4.354,7.776-5.376,16.918-6.312,25.781-1.261,11.936-2.54,23.573-3.8,35.509A124.227,124.227,0,0,0,121.8,338.157c-1.8-9.439-.39-19.491,2.81-28.55a43.928,43.928,0,0,0,9.027,1.75,14.749,14.749,0,0,0,8.826-2.05c3.347-2.187,5.146-5.922,6.072-9.9-1.479-.119-2.627-.916-2.627-1.892,0-1.058,1.344-1.915,3-1.915.089,0,.173.012.26.016.022-.2.046-.406.065-.607a58.661,58.661,0,0,0,.38-9.742,2.249,2.249,0,0,0,1.1-.6,17.317,17.317,0,0,0,3.385-3.372A5.837,5.837,0,0,0,155.175,276.764Z" transform="translate(-54.42 -217.917)" fill="#ff8775"/>
          <path id="Trazado_197550" data-name="Trazado 197550" d="M77.383,314.778a18.345,18.345,0,0,1-6.478-11.419A35.292,35.292,0,0,0,88.5,315.91a34.364,34.364,0,0,0,21.318-.084c-3.375-6.8-5.783-14.185-6.068-21.77s1.682-15.392,6.318-21.4c4.518-5.857,11.239-9.694,15.837-15.489,5.379-6.778,7.364-15.561,9.2-24.017a28.319,28.319,0,0,1,4.59,11.914,18.217,18.217,0,0,0,7.085-15.815c-.615-6.111-5.208-11.813-11.221-13.06-4.266-.885-8.64.383-12.911,1.241a69.078,69.078,0,0,1-17.407,1.247c-5.853-.324-11.673-1.394-17.531-1.2a41.609,41.609,0,0,0-35.429,23.23c-5.812,12.241-5.168,26.572-2.591,39.876a59.16,59.16,0,0,0,5.084,16.1C59.252,305.328,68.08,311.921,77.383,314.778Z" transform="translate(-47.794 -215.887)" fill="#0a2a6b"/>
          <g id="Grupo_155510" data-name="Grupo 155510" transform="translate(1.09 5.286)" opacity="0.46">
            <path id="Trazado_197551" data-name="Trazado 197551" d="M129.194,229.3a103.148,103.148,0,0,1-4.975,12.242,107.622,107.622,0,0,1-6.541,11.5c-4.8,7.425-11.021,13.836-15.03,21.632a31.44,31.44,0,0,0-3.77,12.393,41.9,41.9,0,0,0,1.351,12.965,26.955,26.955,0,0,0,5.949,11.508,18.286,18.286,0,0,0,11.328,6.072,18.218,18.218,0,0,1-11.622-5.8A27.4,27.4,0,0,1,99.619,300.2a42.166,42.166,0,0,1-1.277-6.525,35.929,35.929,0,0,1-.211-6.659,32.174,32.174,0,0,1,3.788-12.719,76.629,76.629,0,0,1,7.356-11.032c2.7-3.49,5.412-6.939,7.88-10.571A111.392,111.392,0,0,0,129.194,229.3Z" transform="translate(-57.798 -223.551)" fill="#55a3f3"/>
            <path id="Trazado_197552" data-name="Trazado 197552" d="M75.789,308.387a22.576,22.576,0,0,1-5.062-9.156,28.976,28.976,0,0,1-.865-10.511,33.609,33.609,0,0,1,2.773-10.2,49.357,49.357,0,0,1,5.309-9.144,81.979,81.979,0,0,1,6.836-8.037,73.426,73.426,0,0,0,6.778-7.955,58.7,58.7,0,0,0,5.163-9.086c1.511-3.154,2.816-6.408,4.164-9.642-2.364,6.577-4.834,13.221-8.806,19.088a66.037,66.037,0,0,1-6.751,8.106,81.727,81.727,0,0,0-6.72,8.01c-4.117,5.578-7.284,12.019-8.121,18.932a28.606,28.606,0,0,0,.626,10.339A23.063,23.063,0,0,0,75.789,308.387Z" transform="translate(-52.772 -224.5)" fill="#55a3f3"/>
            <path id="Trazado_197553" data-name="Trazado 197553" d="M79.632,228.3a60.821,60.821,0,0,1-7.985,13.083,60.151,60.151,0,0,1-5.159,5.713c-1.836,1.8-3.765,3.476-5.616,5.22a43.618,43.618,0,0,0-5.194,5.524,30.235,30.235,0,0,0-3.741,6.556,33.2,33.2,0,0,0-2.1,7.288,39.7,39.7,0,0,0-.6,7.606,34.381,34.381,0,0,1,2.116-15.131,28.317,28.317,0,0,1,3.73-6.77,44.123,44.123,0,0,1,5.232-5.675c1.884-1.739,3.824-3.4,5.657-5.156a73.573,73.573,0,0,0,5.191-5.574,65.647,65.647,0,0,0,4.563-6.112A72.18,72.18,0,0,0,79.632,228.3Z" transform="translate(-49.119 -223.374)" fill="#55a3f3"/>
            <path id="Trazado_197554" data-name="Trazado 197554" d="M150.641,222.312a8.4,8.4,0,0,1,3.576.843,10.642,10.642,0,0,1,3,2.213,13.072,13.072,0,0,1,3.23,6.674,20.913,20.913,0,0,1-.025,7.4,21.446,21.446,0,0,1-2.459,6.915,27.855,27.855,0,0,0,1.143-3.459,24.14,24.14,0,0,0,.69-3.549,23.775,23.775,0,0,0-.157-7.156,13.61,13.61,0,0,0-2.889-6.405,10.287,10.287,0,0,0-2.721-2.281A9.007,9.007,0,0,0,150.641,222.312Z" transform="translate(-67.121 -222.312)" fill="#55a3f3"/>
          </g>
          <g id="Grupo_155511" data-name="Grupo 155511" transform="translate(51.898 47.837)">
            <path id="Trazado_197555" data-name="Trazado 197555" d="M110.933,281.316a12.561,12.561,0,0,0,3.3,9.657,6.525,6.525,0,0,0,2.681,1.849c2.357.753,5-.687,6.288-2.8a12.157,12.157,0,0,0,1.3-7.189c-.222-3.191-1.274-6.739-4.129-8.18C115.759,272.329,111.349,276.993,110.933,281.316Z" transform="translate(-110.879 -274.034)" fill="#ff8775"/>
            <path id="Trazado_197556" data-name="Trazado 197556" d="M120.817,291.047a6.093,6.093,0,0,1-2.3-2.424,1.243,1.243,0,0,1-.183-.646c.032-.432.444-.721.814-.946l2.248-1.363a.771.771,0,0,0,.467-.9c-.131-2.448-.345-5.1-1.986-6.927a3.456,3.456,0,0,0-1.635-1.078,3.351,3.351,0,0,0-2.77.675,9.108,9.108,0,0,0-1.942,2.2s-1.688,4.765.993,8.53A6.234,6.234,0,0,0,120.817,291.047Z" transform="translate(-111.257 -274.503)" fill="#ff8775" style="mix-blend-mode: multiply;isolation: isolate"/>
            <path id="Trazado_197557" data-name="Trazado 197557" d="M113.646,279.558a8.248,8.248,0,0,1,1.88-2.447,3.469,3.469,0,0,1,3.134-.731,4.676,4.676,0,0,1,2.456,2.16,9.039,9.039,0,0,1,1.046,3.011,24.558,24.558,0,0,1,.278,3.083,2.3,2.3,0,0,1-.017.472,1.042,1.042,0,0,1-.291.578,3.93,3.93,0,0,1-.729.477l-1.324.748a6.139,6.139,0,0,0-1.187.744.472.472,0,0,0-.143.442,2.651,2.651,0,0,0,.258.63,6.332,6.332,0,0,0,1.924,2.248,5.879,5.879,0,0,1-2.336-2,2.986,2.986,0,0,1-.392-.739,1.09,1.09,0,0,1,.189-.98,2.5,2.5,0,0,1,.654-.573l.637-.42,1.275-.828a4.088,4.088,0,0,0,.533-.364c.035-.03.047-.106.025-.381a26.324,26.324,0,0,0-.317-2.964,8.429,8.429,0,0,0-.884-2.721,4.1,4.1,0,0,0-1.9-1.9,3.005,3.005,0,0,0-2.612.4A9.477,9.477,0,0,0,113.646,279.558Z" transform="translate(-111.37 -274.428)" fill="#0a2a6b"/>
          </g>
          <path id="Trazado_197558" data-name="Trazado 197558" d="M155.272,278.264c0,1.818-.9,3.292-2.013,3.292s-2.012-1.474-2.012-3.292.9-3.292,2.012-3.292S155.272,276.446,155.272,278.264Z" transform="translate(-66.139 -226.364)" fill="#0a2a6b"/>
          <path id="Trazado_197559" data-name="Trazado 197559" d="M142.944,272.71a15.454,15.454,0,0,1,1.478-4.171,9.9,9.9,0,0,1,3.125-3.416,8.151,8.151,0,0,1,4.393-1.754,6.26,6.26,0,0,1,4.444,1.487l-.077.234-2.143.324c-.667.136-1.3.244-1.919.4s-1.229.274-1.853.415a7.3,7.3,0,0,0-1.842.589,8.307,8.307,0,0,0-1.661,1.035,8.709,8.709,0,0,0-1.45,1.379,17.331,17.331,0,0,0-2.263,3.555Z" transform="translate(-64.667 -224.306)" fill="#0a2a6b"/>
          <path id="Trazado_197560" data-name="Trazado 197560" d="M131.683,326.694l-6.649-3,5.55,6.393Z" transform="translate(-61.491 -235.004)" fill="#0a2a6b"/>
          <path id="Trazado_197561" data-name="Trazado 197561" d="M138.444,472.678H55.7s-10.957-61.748,1.921-88.1,21.544-38.643,21.544-38.643,26.635-.98,44.9,13.253a83.4,83.4,0,0,1,25.227,33.1Z" transform="translate(-48.425 -238.944)" fill="#55a3f3"/>
          <g id="Grupo_155531" data-name="Grupo 155531" transform="translate(2.927 106.974)" opacity="0.3">
            <g id="Grupo_155530" data-name="Grupo 155530" clip-path="url(#clip-path)">
              <g id="Grupo_155529" data-name="Grupo 155529" transform="translate(-5.851 -19.235)">
                <g id="Grupo_155517" data-name="Grupo 155517" transform="translate(24.627)">
                  <g id="Grupo_155512" data-name="Grupo 155512" transform="translate(76.098)">
                    <rect id="Rectángulo_46574" data-name="Rectángulo 46574" width="0.669" height="169.783" fill="#2c54ac"/>
                  </g>
                  <g id="Grupo_155513" data-name="Grupo 155513" transform="translate(57.074)">
                    <rect id="Rectángulo_46575" data-name="Rectángulo 46575" width="0.669" height="169.783" fill="#2c54ac"/>
                  </g>
                  <g id="Grupo_155514" data-name="Grupo 155514" transform="translate(38.049)">
                    <rect id="Rectángulo_46576" data-name="Rectángulo 46576" width="0.669" height="169.783" fill="#2c54ac"/>
                  </g>
                  <g id="Grupo_155515" data-name="Grupo 155515" transform="translate(19.024)">
                    <rect id="Rectángulo_46577" data-name="Rectángulo 46577" width="0.669" height="169.783" fill="#2c54ac"/>
                  </g>
                  <g id="Grupo_155516" data-name="Grupo 155516">
                    <rect id="Rectángulo_46578" data-name="Rectángulo 46578" width="0.669" height="169.783" fill="#2c54ac"/>
                  </g>
                </g>
                <g id="Grupo_155528" data-name="Grupo 155528" transform="translate(0 28.929)">
                  <g id="Grupo_155518" data-name="Grupo 155518">
                    <rect id="Rectángulo_46579" data-name="Rectángulo 46579" width="116.12" height="0.67" fill="#2c54ac"/>
                  </g>
                  <g id="Grupo_155519" data-name="Grupo 155519" transform="translate(0 14.876)">
                    <rect id="Rectángulo_46580" data-name="Rectángulo 46580" width="116.12" height="0.67" fill="#2c54ac"/>
                  </g>
                  <g id="Grupo_155520" data-name="Grupo 155520" transform="translate(0 29.752)">
                    <rect id="Rectángulo_46581" data-name="Rectángulo 46581" width="116.12" height="0.67" fill="#2c54ac"/>
                  </g>
                  <g id="Grupo_155521" data-name="Grupo 155521" transform="translate(0 44.628)">
                    <rect id="Rectángulo_46582" data-name="Rectángulo 46582" width="116.12" height="0.67" fill="#2c54ac"/>
                  </g>
                  <g id="Grupo_155522" data-name="Grupo 155522" transform="translate(0 59.504)">
                    <rect id="Rectángulo_46583" data-name="Rectángulo 46583" width="116.12" height="0.67" fill="#2c54ac"/>
                  </g>
                  <g id="Grupo_155523" data-name="Grupo 155523" transform="translate(0 74.38)">
                    <rect id="Rectángulo_46584" data-name="Rectángulo 46584" width="116.12" height="0.67" fill="#2c54ac"/>
                  </g>
                  <g id="Grupo_155524" data-name="Grupo 155524" transform="translate(0 89.256)">
                    <rect id="Rectángulo_46585" data-name="Rectángulo 46585" width="116.12" height="0.67" fill="#2c54ac"/>
                  </g>
                  <g id="Grupo_155525" data-name="Grupo 155525" transform="translate(0 104.132)">
                    <rect id="Rectángulo_46586" data-name="Rectángulo 46586" width="116.12" height="0.67" fill="#2c54ac"/>
                  </g>
                  <g id="Grupo_155526" data-name="Grupo 155526" transform="translate(0 119.008)">
                    <rect id="Rectángulo_46587" data-name="Rectángulo 46587" width="116.12" height="0.67" fill="#2c54ac"/>
                  </g>
                  <g id="Grupo_155527" data-name="Grupo 155527" transform="translate(0 133.884)">
                    <rect id="Rectángulo_46588" data-name="Rectángulo 46588" width="116.12" height="0.67" fill="#2c54ac"/>
                  </g>
                </g>
              </g>
            </g>
          </g>
          <path id="Trazado_197563" data-name="Trazado 197563" d="M193.143,363.925l-23.117,42.838L163.807,387.3s-8.755,0-17.739,9.884-12.878,17.071-12.878,17.071l33.842,45.224s18.569-28.452,23.66-44.624,14.974-41.63,14.974-41.63,25.724-8.67,32.041-14.375,9.3-25.728,7.628-29.065-3.576,1.668-4.291,5.245-5.005,13.229-5.005,13.229,5.244-14.063,3.1-24.074-4.886-5.6-5.839-4.291-2.452,10.215-3.606,15.1a80.857,80.857,0,0,1-3.783,10.047,34.487,34.487,0,0,0,2.026-13.706c-.6-7.032-2.622-8.462-3.575-8.223s-.358,5.959-1.192,9.534-2.5,9.952-2.5,9.952l-22.356,15.526A16.848,16.848,0,0,0,193.143,363.925Z" transform="translate(-62.937 -233.956)" fill="#ff8775"/>
          <path id="Trazado_197564" data-name="Trazado 197564" d="M143.281,448.955c-2.833-3.338-5.6-6.733-8.349-10.135s-5.449-6.849-8.176-10.271c-2.675-3.463-5.378-6.9-8.026-10.388l-3.96-5.236c-1.3-1.764-2.615-3.51-3.892-5.29,1.424,1.664,2.805,3.361,4.209,5.041l4.141,5.094c2.752,3.4,5.449,6.849,8.175,10.272,2.673,3.464,5.378,6.9,8.025,10.39S140.714,445.407,143.281,448.955Z" transform="translate(-58.981 -249.888)" fill="#0a2a6b"/>
          <path id="Trazado_197565" data-name="Trazado 197565" d="M176.194,420.394c.792,1.856,1.5,3.74,2.191,5.628s1.343,3.789,1.983,5.694c.621,1.91,1.241,3.821,1.8,5.753l.837,2.9c.25.975.527,1.942.754,2.925-.4-.925-.757-1.867-1.138-2.8l-1.055-2.827c-.7-1.885-1.342-3.79-1.981-5.7-.62-1.912-1.241-3.824-1.8-5.755S176.663,422.354,176.194,420.394Z" transform="translate(-70.563 -252.15)" fill="#0a2a6b"/>
          <path id="Trazado_197566" data-name="Trazado 197566" d="M255.933,317.972a44.245,44.245,0,0,1,.31,7.572,49.736,49.736,0,0,1-2.908,14.872l-.682,1.773-.74,1.747c-.545,1.143-1.094,2.28-1.722,3.375q.338-.885.7-1.757l.652-1.77.626-1.775.568-1.793a73.29,73.29,0,0,0,2.88-14.712C255.845,323.007,255.927,320.5,255.933,317.972Z" transform="translate(-83.684 -233.989)" fill="#0a2a6b"/>
          <path id="Trazado_197567" data-name="Trazado 197567" d="M246.039,370.11a27.4,27.4,0,0,0,3-5.948l.021-.058.061-.039a18.956,18.956,0,0,0,2.576-1.959,19.86,19.86,0,0,0,2.182-2.383,14.591,14.591,0,0,0,1.742-2.675,4.9,4.9,0,0,0,.516-2.961l.241.286a5.208,5.208,0,0,0-3.894.61c-1.254.633-2.521,1.4-3.8,2.068l-7.638,4.144-1.911,1.033a14.041,14.041,0,0,1-2.065.78,12.959,12.959,0,0,0-3.563,2.277,13.952,13.952,0,0,0-4.308,7.3,13.521,13.521,0,0,1,7.636-10.14,13.807,13.807,0,0,0,1.969-.814l1.9-1.06,7.592-4.228c1.275-.705,2.51-1.4,3.845-2.069a8.885,8.885,0,0,1,2.142-.736,4.449,4.449,0,0,1,2.339.139l.2.072.036.215a5.624,5.624,0,0,1-.61,3.392,13.591,13.591,0,0,1-1.9,2.76,20.481,20.481,0,0,1-2.322,2.374,18.4,18.4,0,0,1-2.707,1.914l.081-.1A25.319,25.319,0,0,1,246.039,370.11Z" transform="translate(-79.963 -240.278)" fill="#0a2a6b"/>
          <path id="Trazado_197568" data-name="Trazado 197568" d="M120.164,299.492a3.77,3.77,0,1,1-3.77-3.77A3.77,3.77,0,0,1,120.164,299.492Z" transform="translate(-59.29 -230.043)" fill="#fff"/>
        </g>
        <g id="Grupo_155539" data-name="Grupo 155539" transform="translate(207.058 164.089)">
          <path id="Trazado_197569" data-name="Trazado 197569" d="M320.471,336.4s11.913-53.568,18.362-84.283c7.987-38.045,74.6-51.01,89.126,8.751S451.2,389.52,444.56,406.951s-27.391,15.771-27.391,15.771Z" transform="translate(-279.759 -219.737)" fill="#0a2a6b"/>
          <g id="Grupo_155533" data-name="Grupo 155533" transform="translate(44.144 63.511)">
            <path id="Trazado_197570" data-name="Trazado 197570" d="M337.123,321.887A12.482,12.482,0,1,1,349.6,309.406,12.5,12.5,0,0,1,337.123,321.887Zm0-24.141a11.659,11.659,0,1,0,11.659,11.659A11.673,11.673,0,0,0,337.123,297.747Z" transform="translate(-324.642 -296.924)" fill="#55a3f3"/>
          </g>
          <path id="Trazado_197571" data-name="Trazado 197571" d="M430.954,487.046l7.487-60.1-47.849,43.218-2.82,16.879Z" transform="translate(-291.693 -256.47)" fill="#2c54ac"/>
          <path id="Trazado_197572" data-name="Trazado 197572" d="M369.591,230.982c-10.467,3.783-18.323,13.04-22.4,23.394s-4.77,21.747-4.243,32.864c.332,7.022,1.158,14.131,3.844,20.627s7.436,12.379,13.885,15.178a26.669,26.669,0,0,0,16.313,1.158,49.365,49.365,0,0,0,15.162-6.627c15.425-9.6,21.015-26.174,24.328-44.038,1.139-6.14,8.131-11.261,6.149-17.182-3.087-9.221-10.826-16.357-19.612-20.524s-18.588-5.681-28.282-6.455" transform="translate(-283.716 -221.436)" fill="#ff8775"/>
          <path id="Trazado_197573" data-name="Trazado 197573" d="M405.873,268.051a48.531,48.531,0,0,1-22.675-27.38c.833,4.659.492,8.85,1.326,13.508a1.421,1.421,0,0,1,0,.759.965.965,0,0,1-1.227.429,2.642,2.642,0,0,1-1.077-.927,29.6,29.6,0,0,1-6.165-15.032,82.3,82.3,0,0,1-13.194,10.576c-4.749,2.9-10.277,4.813-15.823,4.375a71.863,71.863,0,0,1,6.372-13.247,34.274,34.274,0,0,1,5.17-6.748,28.647,28.647,0,0,1,9.385-5.863c13.922-5.579,30.29-2.595,43.038,5.306,4.433,2.747,8.59,6.137,11.356,10.557,3.907,6.244,4.683,13.911,4.892,21.273.206,7.235-.677,19.527-2.268,26.587S401.967,292.087,405.873,268.051Z" transform="translate(-284.469 -220.772)" fill="#0a2a6b"/>
          <g id="Grupo_155534" data-name="Grupo 155534" transform="translate(122.411 58.256)">
            <path id="Trazado_197574" data-name="Trazado 197574" d="M435.055,300.164a13.244,13.244,0,0,1-6.17,8.817,6.868,6.868,0,0,1-3.258,1.087c-2.609.072-4.865-2.163-5.548-4.681a12.81,12.81,0,0,1,.795-7.662c1.161-3.168,3.265-6.454,6.581-7.077C432.8,289.644,435.9,295.663,435.055,300.164Z" transform="translate(-419.78 -290.537)" fill="#ff8775"/>
            <path id="Trazado_197575" data-name="Trazado 197575" d="M423.341,307.3a6.413,6.413,0,0,0,3.038-1.782,1.3,1.3,0,0,0,.375-.6,1.475,1.475,0,0,0-.548-1.2l-1.877-2.04a.814.814,0,0,1-.208-1.053c.851-2.442,1.846-5.07,4.043-6.435a3.626,3.626,0,0,1,1.972-.612,3.531,3.531,0,0,1,2.609,1.495,9.617,9.617,0,0,1,1.323,2.8s.313,5.323-3.507,8.35A6.575,6.575,0,0,1,423.341,307.3Z" transform="translate(-420.411 -291.077)" fill="#ff8775" style="mix-blend-mode: multiply;isolation: isolate"/>
            <path id="Trazado_197576" data-name="Trazado 197576" d="M434.067,297.787a10.006,10.006,0,0,0-1.579-2.717,3.171,3.171,0,0,0-2.529-1.173,4.326,4.326,0,0,0-2.484,1.367,8.887,8.887,0,0,0-1.693,2.5,27.641,27.641,0,0,0-1.19,2.91,1.816,1.816,0,0,0-.093.287c-.007.07-.012.059.006.106a4.249,4.249,0,0,0,.434.526l1.049,1.213.522.612a2.649,2.649,0,0,1,.494.772,1.147,1.147,0,0,1-.1,1.048,3.091,3.091,0,0,1-.613.633,6.2,6.2,0,0,1-2.953,1.343,6.665,6.665,0,0,0,2.609-1.712,2.844,2.844,0,0,0,.447-.563.5.5,0,0,0-.016-.49,6.456,6.456,0,0,0-.985-1.1l-1.122-1.146a4.185,4.185,0,0,1-.6-.7,1.106,1.106,0,0,1-.126-.67,2.5,2.5,0,0,1,.121-.484,25.949,25.949,0,0,1,1.186-3.041,9.516,9.516,0,0,1,1.942-2.744,4.931,4.931,0,0,1,3.12-1.468,3.659,3.659,0,0,1,2.96,1.66A8.681,8.681,0,0,1,434.067,297.787Z" transform="translate(-420.411 -290.991)" fill="#0a2a6b"/>
          </g>
          <path id="Trazado_197577" data-name="Trazado 197577" d="M361.36,280.225c-.392,2.048-1.725,3.514-2.977,3.273s-1.949-2.095-1.556-4.142,1.725-3.514,2.977-3.273S361.753,278.177,361.36,280.225Z" transform="translate(-286.186 -229.713)" fill="#0a2a6b"/>
          <path id="Trazado_197578" data-name="Trazado 197578" d="M392.781,286.481c-.395,2.062-1.738,3.538-3,3.3s-1.963-2.11-1.568-4.173,1.738-3.539,3-3.3S393.177,284.419,392.781,286.481Z" transform="translate(-291.751 -230.817)" fill="#0a2a6b"/>
          <path id="Trazado_197579" data-name="Trazado 197579" d="M350.546,271.028a15.466,15.466,0,0,1,2.237-3.818,9.9,9.9,0,0,1,3.71-2.767,8.155,8.155,0,0,1,4.646-.9,6.263,6.263,0,0,1,4.085,2.3l-.119.216-2.166-.085c-.68.007-1.322-.006-1.96.035s-1.259.037-1.9.059a7.31,7.31,0,0,0-1.92.232,8.291,8.291,0,0,0-1.826.7,8.709,8.709,0,0,0-1.684,1.082,17.351,17.351,0,0,0-2.891,3.065Z" transform="translate(-285.092 -227.481)" fill="#0a2a6b"/>
          <path id="Trazado_197580" data-name="Trazado 197580" d="M397.341,276.351a17.327,17.327,0,0,0-2.228-3.576,8.732,8.732,0,0,0-1.437-1.393,8.255,8.255,0,0,0-1.65-1.051,7.307,7.307,0,0,0-1.837-.607c-.621-.148-1.233-.268-1.848-.434s-1.249-.281-1.914-.422l-2.14-.346-.075-.235a6.263,6.263,0,0,1,4.458-1.443,8.147,8.147,0,0,1,4.377,1.8,9.9,9.9,0,0,1,3.091,3.445,15.448,15.448,0,0,1,1.437,4.184Z" transform="translate(-291.061 -228.079)" fill="#0a2a6b"/>
          <path id="Trazado_197581" data-name="Trazado 197581" d="M371.2,278.618a15.5,15.5,0,0,1-2.238,9.652,17.248,17.248,0,0,1-3.225,3.937,16.225,16.225,0,0,1-4.252,2.8l.257-1c1.306,2.136,2.575,4.3,3.674,6.576-1.727-1.849-3.283-3.814-4.8-5.8l-.457-.6.714-.4a19.543,19.543,0,0,0,3.768-2.771,21.35,21.35,0,0,0,3.032-3.566A22.636,22.636,0,0,0,371.2,278.618Z" transform="translate(-286.796 -230.167)" fill="#0a2a6b"/>
          <path id="Trazado_197582" data-name="Trazado 197582" d="M367.335,321.459c-.347,1.187-2.343,1.647-4.457,1.028s-3.546-2.084-3.2-3.27,2.343-1.647,4.457-1.028S367.683,320.272,367.335,321.459Z" transform="translate(-286.702 -237.135)" fill="#0a2a6b"/>
          <g id="Grupo_155535" data-name="Grupo 155535" transform="translate(29.877 80.803)">
            <path id="Trazado_197583" data-name="Trazado 197583" d="M329.96,376.835l57.878,17.72s7.237-11.9,14-18.412c3.879-3.736,5.607-5.276,8.8-7.945-5.579-7.233-13.81-15.714-13.81-15.714l2.082-34.541-25.749,17.942L368,348.842s-11.943-1.095-19.573-1.153a144,144,0,0,0-11.256,15.029A93.583,93.583,0,0,0,329.96,376.835Z" transform="translate(-311.318 -317.944)" fill="#ff8775"/>
            <path id="Trazado_197584" data-name="Trazado 197584" d="M411.315,380.771c-1.566-2.113-3.153-4.192-4.7-6.2-16.116,12.917-22.8,26.356-22.8,26.356l-57.878-17.72a93.583,93.583,0,0,1,7.208-14.116,144,144,0,0,1,11.256-15.029c-4.9-.036-8.794-.166-8.794-.166s-9.084,9.483-21.576,31.059-4.088,30.432-2.5,41.561-4.088,47.575-4.088,47.575h69.94a452.816,452.816,0,0,1,10.78-49.168C392.7,408.683,398.713,391.864,411.315,380.771Z" transform="translate(-307.299 -324.32)" fill="#2c54ac"/>
          </g>
          <path id="Trazado_197585" data-name="Trazado 197585" d="M329.172,353.9l-2.141.2a38.382,38.382,0,0,0-29.47,18.71C290.9,384.086,284.7,400.7,281.007,410.895c-3.963,10.938-7.449,22.565-9.688,30.434a8.7,8.7,0,0,0,7.337,11.017,192.822,192.822,0,0,0,38.9.675c24.55-2.145,27.811-3.019,27.811-3.019l34.753,20.305,7.408-23.764S323.594,414.76,316.46,414s-13.467,4.137-13.467,4.137-4.016-15.014,1.12-26.03C310.885,377.576,329.172,353.9,329.172,353.9Z" transform="translate(-270.983 -243.516)" fill="#ff8775"/>
          <path id="Trazado_197586" data-name="Trazado 197586" d="M370.517,444.059l16.656-.941s1.765-12.235,4-14.118,14.353-4.194,20-2.215-14.626,28.29-14.626,28.29Z" transform="translate(-288.633 -256.306)" fill="#ff8775"/>
          <path id="Trazado_197587" data-name="Trazado 197587" d="M306.925,431.978l-3.5,3.179c-1.162,1.064-2.368,2.088-3.47,3.2a52.454,52.454,0,0,0-5.95,7.276l-.259-.468c4.944-.255,9.892-.424,14.838-.634s9.893-.389,14.841-.545l.137,0,.107.081c4.3,3.259,8.6,6.521,12.866,9.828l6.4,4.955,6.368,5-6.566-4.739-6.53-4.785c-4.357-3.186-8.679-6.417-13-9.652l.243.077q-7.419.315-14.841.554c-4.948.155-9.894.352-14.844.463l-.6.013.343-.482c.925-1.3,1.9-2.541,2.928-3.749a41.727,41.727,0,0,1,3.255-3.46c1.16-1.088,2.4-2.062,3.6-3.085Z" transform="translate(-274.916 -257.361)" fill="#0a2a6b"/>
          <g id="Grupo_155536" data-name="Grupo 155536" transform="translate(101.392 137.255)">
            <path id="Trazado_197588" data-name="Trazado 197588" d="M421.826,503.671s.876-1.4,2.233-3.671h-9.8Z" transform="translate(-397.781 -406.678)" fill="none"/>
            <path id="Trazado_197589" data-name="Trazado 197589" d="M439.826,410.281c-1.151-6.592-6.931-15.4-13.1-23.718-12.6,11.093-18.619,27.912-23.145,44.154-3.779,13.561-6.859,27-9.355,40.857l13.939,8.312h9.049a287.97,287.97,0,0,0,14.273-28.3C439.23,433.224,440.524,414.277,439.826,410.281Z" transform="translate(-394.229 -386.563)" fill="#ff8775"/>
          </g>
          <path id="Trazado_197590" data-name="Trazado 197590" d="M408.152,426.127a10.315,10.315,0,0,1,3.346.21c1.1.214,2.2.438,3.293.7A36.2,36.2,0,0,1,421.2,429.1a20,20,0,0,1,5.664,3.685,15.3,15.3,0,0,1,2.211,2.591,13.92,13.92,0,0,1,.87,1.474,4.062,4.062,0,0,1,.559,1.7,1.1,1.1,0,0,1-.489.944,1.348,1.348,0,0,1-1.022.03l-1.615-.491c-1.08-.319-2.147-.676-3.211-1.041l-6.34-2.249a41.291,41.291,0,0,0-12.979-2.793l.086-.738a23.754,23.754,0,0,1,7.349,3.083,50.467,50.467,0,0,1,6.293,4.837,47.053,47.053,0,0,1,5.455,5.767,16.013,16.013,0,0,1,3.467,7.212,4.337,4.337,0,0,1-.253,2.121,2.319,2.319,0,0,1-.287.524,1.569,1.569,0,0,1-.515.406,2.656,2.656,0,0,1-1.121.218,8.608,8.608,0,0,1-2.048-.277,10.766,10.766,0,0,1-1.889-.763,69.242,69.242,0,0,1-6.817-4.021c-4.388-2.882-8.665-5.973-13.531-7.891l.264-.434,4.934,4.447c1.643,1.482,3.3,2.958,4.869,4.527a27.937,27.937,0,0,1,4.214,5.147,10.5,10.5,0,0,1,1.309,3.06.8.8,0,0,1-.433.7,1.426,1.426,0,0,1-.817.153,11.237,11.237,0,0,1-1.654-.154,11.249,11.249,0,0,0,1.654.117,1.381,1.381,0,0,0,.788-.164.742.742,0,0,0,.388-.65A10.494,10.494,0,0,0,415.2,457.2a27.743,27.743,0,0,0-4.294-5.012c-1.594-1.529-3.292-2.948-4.948-4.418l-4.99-4.383-1.074-.944,1.338.51c4.967,1.893,9.336,4.948,13.727,7.784a68.288,68.288,0,0,0,6.76,3.951,9.985,9.985,0,0,0,1.76.705,7.934,7.934,0,0,0,1.845.243,1.951,1.951,0,0,0,.8-.146.854.854,0,0,0,.43-.54,3.592,3.592,0,0,0,.193-1.75,11.243,11.243,0,0,0-1.225-3.573,20.6,20.6,0,0,0-2.111-3.23,49.369,49.369,0,0,0-5.369-5.656,49.872,49.872,0,0,0-6.164-4.781,23,23,0,0,0-7.1-3.013l-3.519-.8,3.6.063a41.752,41.752,0,0,1,13.2,2.893l6.311,2.329c1.053.375,2.108.744,3.175,1.073l1.6.508a.887.887,0,0,0,.617.03.6.6,0,0,0,.232-.5,3.711,3.711,0,0,0-.486-1.464,13.409,13.409,0,0,0-.82-1.432,14.832,14.832,0,0,0-2.115-2.54,20.3,20.3,0,0,0-5.49-3.725,35.977,35.977,0,0,0-6.324-2.2c-1.084-.281-2.178-.53-3.273-.768A10.264,10.264,0,0,0,408.152,426.127Z" transform="translate(-293.841 -256.313)" fill="#0a2a6b"/>
          <path id="Trazado_197591" data-name="Trazado 197591" d="M374.1,447.744c3,1.262,5.951,2.605,8.9,3.96s5.869,2.775,8.805,4.159c2.907,1.444,5.83,2.856,8.723,4.329l4.332,2.225c1.431.769,2.874,1.513,4.294,2.3-1.5-.623-2.979-1.294-4.47-1.94l-4.432-2.019c-2.95-1.357-5.87-2.774-8.805-4.159-2.907-1.446-5.83-2.856-8.722-4.331S376.949,449.311,374.1,447.744Z" transform="translate(-289.269 -260.157)" fill="#0a2a6b"/>
          <path id="Trazado_197592" data-name="Trazado 197592" d="M402.617,440.271a56.9,56.9,0,0,1,7.041,3.059,49.937,49.937,0,0,1,6.565,4.025,40.8,40.8,0,0,1,5.786,5.095c.874.944,1.706,1.925,2.484,2.947a31.292,31.292,0,0,1,2.1,3.218c-.775-1.018-1.559-2.021-2.413-2.964q-1.248-1.44-2.621-2.758a55.02,55.02,0,0,0-5.82-4.874,73.246,73.246,0,0,0-6.382-4.137C407.158,442.6,404.894,441.436,402.617,440.271Z" transform="translate(-294.325 -258.832)" fill="#0a2a6b"/>
          <path id="Trazado_197593" data-name="Trazado 197593" d="M379.519,342.862a32.285,32.285,0,0,0,14.354-5.188c7.291-4.649,8.444-7.286,8.444-7.286a29.349,29.349,0,0,1-10.832,10.5,46.739,46.739,0,0,1-13.338,5.245Z" transform="translate(-289.986 -239.347)" fill="#0a2a6b"/>
          <g id="Grupo_155537" data-name="Grupo 155537" transform="translate(53.5)" opacity="0.4">
            <path id="Trazado_197594" data-name="Trazado 197594" d="M392.929,219.724a54.183,54.183,0,0,0,5.568,17.451,53,53,0,0,0,35.144,27.174,53.2,53.2,0,0,0,9.111,1.318,48.852,48.852,0,0,1-9.2-.924,52.609,52.609,0,0,1-8.887-2.629,50.154,50.154,0,0,1-26.734-24.654,52.542,52.542,0,0,1-3.341-8.646A48.85,48.85,0,0,1,392.929,219.724Z" transform="translate(-346.107 -219.724)" fill="#55a3f3"/>
            <path id="Trazado_197595" data-name="Trazado 197595" d="M408.6,222.059a36.11,36.11,0,0,0,4.574,9.105,38.174,38.174,0,0,0,15.438,12.862l2.354.974,2.424.794,2.477.637q1.26.212,2.526.453-1.278-.107-2.564-.239l-2.54-.462-2.492-.693-2.435-.884a34.25,34.25,0,0,1-15.711-13.093l-1.308-2.236-1.132-2.326-.912-2.415Q408.934,223.3,408.6,222.059Z" transform="translate(-348.886 -220.138)" fill="#55a3f3"/>
            <path id="Trazado_197596" data-name="Trazado 197596" d="M345.546,245.08a9.218,9.218,0,0,0,4.587-.163,30.811,30.811,0,0,0,12.227-6.331,31.181,31.181,0,0,0,6.194-6.827c.43-.642.865-1.283,1.232-1.964.189-.337.392-.669.571-1.011l.51-1.044c.374-.683.639-1.413.952-2.127.294-.72.519-1.466.8-2.2a27.455,27.455,0,0,1-1.38,4.489l-.463,1.085c-.165.357-.354.7-.53,1.055-.341.712-.751,1.384-1.158,2.06a29.845,29.845,0,0,1-6.2,7.114,29.536,29.536,0,0,1-8.13,4.792,30.241,30.241,0,0,1-4.54,1.3A8.885,8.885,0,0,1,345.546,245.08Z" transform="translate(-337.705 -220.378)" fill="#55a3f3"/>
            <path id="Trazado_197597" data-name="Trazado 197597" d="M444.908,288.793q.606,8.917,1.793,17.776,1.161,8.855,2.9,17.618t4.011,17.392c1.515,5.758,3.147,11.489,4.646,17.262,1.482,5.777,2.815,11.606,3.719,17.515a88,88,0,0,1,1.1,17.878,67.918,67.918,0,0,1-3.151,17.611,51.381,51.381,0,0,1-3.4,8.28,24.478,24.478,0,0,1-5.427,7.059,24.4,24.4,0,0,0,5.249-7.152,51.142,51.142,0,0,0,3.2-8.307,67.608,67.608,0,0,0,2.9-17.517c.426-11.893-1.987-23.673-4.985-35.161-1.473-5.767-3.08-11.505-4.573-17.279s-2.837-11.593-3.907-17.462q-1.642-8.8-2.675-17.688Q445.3,297.729,444.908,288.793Z" transform="translate(-355.324 -231.972)" fill="#55a3f3"/>
            <path id="Trazado_197598" data-name="Trazado 197598" d="M425.917,316.755c1.116,4.637,2.384,9.227,3.624,13.831s2.4,9.239,3.315,13.934a79.061,79.061,0,0,1,1.431,14.274,55.011,55.011,0,0,1-.486,7.163,42.169,42.169,0,0,1-1.594,6.982,53.378,53.378,0,0,0,1.447-14.139,84.893,84.893,0,0,0-1.606-14.129c-.843-4.676-2.007-9.295-3.117-13.93S426.7,321.462,425.917,316.755Z" transform="translate(-351.957 -236.93)" fill="#55a3f3"/>
            <path id="Trazado_197599" data-name="Trazado 197599" d="M342.291,309.313a60.988,60.988,0,0,1-1.2,9.476C340.483,321.92,339.7,325,339,328.1c-.759,3.083-1.436,6.178-1.962,9.3l-.359,2.346-.262,2.36-.181,2.371q-.021,1.187-.067,2.383c-.058-.793-.11-1.588-.151-2.385l0-2.394.148-2.391.249-2.383c.4-3.171,1.09-6.292,1.788-9.4l2.271-9.256C341.205,315.57,341.842,312.464,342.291,309.313Z" transform="translate(-336.015 -235.61)" fill="#55a3f3"/>
            <path id="Trazado_197600" data-name="Trazado 197600" d="M356.043,338.914c-.114,2.189-.384,4.326-.635,6.472-.274,2.141-.528,4.281-.95,6.432a32.217,32.217,0,0,1,1.585-12.9Z" transform="translate(-339.263 -240.859)" fill="#55a3f3"/>
          </g>
          <path id="Trazado_197601" data-name="Trazado 197601" d="M416.713,335.181A12.482,12.482,0,1,1,420.7,310.87l-.262.779a11.672,11.672,0,1,0,3.775,2.126l-.427-.329.958-.3a12.482,12.482,0,0,1-8.032,22.036Z" transform="translate(-294.611 -235.771)" fill="#55a3f3"/>
          <g id="Grupo_155538" data-name="Grupo 155538" transform="translate(43.302 110.134)">
            <path id="Trazado_197602" data-name="Trazado 197602" d="M388.894,406.5l-.339-.11L323.619,385.2l.195-.42a152.734,152.734,0,0,1,9.771-17.64c3.392-5.038,9.759-13.457,9.823-13.542l.656.5c-.063.084-6.416,8.485-9.8,13.505a149.331,149.331,0,0,0-9.509,17.106L388.476,405.5c1.006-1.97,6.6-12.632,12.951-19.53,7.017-7.618,10.111-8.79,10.239-8.837l.278.775c-.027.011-3.083,1.206-9.912,8.619-6.91,7.5-12.922,19.535-12.981,19.657Z" transform="translate(-323.619 -353.597)" fill="#55a3f3"/>
          </g>
        </g>
        <g id="Grupo_155545" data-name="Grupo 155545" transform="translate(108.421 20.627)">
          <g id="Grupo_155541" data-name="Grupo 155541">
            <circle id="Elipse_5892" data-name="Elipse 5892" cx="87.453" cy="87.453" r="87.453" transform="translate(5.878 0.411)" fill="#55a3f3"/>
            <g id="Grupo_155540" data-name="Grupo 155540">
              <path id="Trazado_197603" data-name="Trazado 197603" d="M245.626,221.069c-52.131,0-94.54-39.416-94.54-87.865S193.5,45.34,245.626,45.34s94.54,39.415,94.54,87.864S297.755,221.069,245.626,221.069Zm0-174.906c-51.676,0-93.718,39.047-93.718,87.041s42.041,87.043,93.718,87.043S339.343,181.2,339.343,133.2,297.3,46.163,245.626,46.163Z" transform="translate(-151.086 -45.34)" fill="#55a3f3"/>
            </g>
            <path id="Trazado_197604" data-name="Trazado 197604" d="M317.962,272.867,289.14,241.755l17.581-4.85Z" transform="translate(-175.566 -79.309)" fill="#55a3f3"/>
            <path id="Trazado_197605" data-name="Trazado 197605" d="M192.15,272.867l28.822-31.112-17.58-4.85Z" transform="translate(-158.368 -79.309)" fill="#55a3f3"/>
          </g>
          <g id="Grupo_155544" data-name="Grupo 155544" transform="translate(55.801 22.733)">
            <g id="Grupo_155542" data-name="Grupo 155542" transform="translate(4.671)">
              <path id="Trazado_197606" data-name="Trazado 197606" d="M247.23,167.3v-9.089a41.284,41.284,0,0,1,2.144-14.321,34.74,34.74,0,0,1,5.488-9.861,77.887,77.887,0,0,1,6.775-7.375,102.329,102.329,0,0,0,8.232-8.489q3.6-4.2,3.6-11.062a10.452,10.452,0,0,0-1.886-6.345,13.91,13.91,0,0,0-4.544-4.03,10.847,10.847,0,0,0-5.231-1.458,14.258,14.258,0,0,0-8.318,2.315A18.757,18.757,0,0,0,248,103.5a51.12,51.12,0,0,0-3.687,7.546h-4.671l-15.052-9.262a53.685,53.685,0,0,1,3.6-7.889,42.683,42.683,0,0,1,7.29-9.6,39.305,39.305,0,0,1,11.833-8.061,40.779,40.779,0,0,1,17.065-3.259,44.225,44.225,0,0,1,17.579,3.344,27.745,27.745,0,0,1,12.433,10.291q4.631,6.946,4.632,18.265,0,9.434-2.573,15.264A34.877,34.877,0,0,1,290.107,130q-3.775,4.032-7.546,7.975a61.56,61.56,0,0,0-5.574,6.432,28.081,28.081,0,0,0-4.2,8.146,35.456,35.456,0,0,0-1.543,11.148v3.6Zm12.005,36.188a15.1,15.1,0,0,1-10.118-3.344,11,11,0,0,1-3.945-8.833,11.486,11.486,0,0,1,4.03-8.919,14.5,14.5,0,0,1,10.033-3.6,13.882,13.882,0,0,1,9.861,3.6,11.715,11.715,0,0,1,3.859,8.919,11.236,11.236,0,0,1-3.774,8.833Q265.409,203.488,259.236,203.488Z" transform="translate(-224.592 -72.973)" fill="#2c54ac"/>
            </g>
            <g id="Grupo_155543" data-name="Grupo 155543">
              <path id="Trazado_197607" data-name="Trazado 197607" d="M241.552,167.3v-9.089A41.284,41.284,0,0,1,243.7,143.89a34.741,34.741,0,0,1,5.488-9.861,77.994,77.994,0,0,1,6.774-7.375,102.343,102.343,0,0,0,8.233-8.489q3.6-4.2,3.6-11.062a10.452,10.452,0,0,0-1.886-6.345,13.9,13.9,0,0,0-4.545-4.03,10.842,10.842,0,0,0-5.231-1.458,14.258,14.258,0,0,0-8.318,2.315,18.757,18.757,0,0,0-5.488,5.917,51.041,51.041,0,0,0-3.687,7.546l-19.723-9.262a53.685,53.685,0,0,1,3.6-7.889,42.683,42.683,0,0,1,7.29-9.6,39.305,39.305,0,0,1,11.833-8.061A40.779,40.779,0,0,1,258.7,72.973a44.226,44.226,0,0,1,17.579,3.344,27.75,27.75,0,0,1,12.433,10.291q4.631,6.946,4.632,18.265,0,9.434-2.573,15.264A34.875,34.875,0,0,1,284.429,130q-3.775,4.032-7.546,7.975a61.553,61.553,0,0,0-5.574,6.432,28.082,28.082,0,0,0-4.2,8.146,35.457,35.457,0,0,0-1.543,11.148v3.6Zm12.005,36.188a15.1,15.1,0,0,1-10.118-3.344,11,11,0,0,1-3.945-8.833,11.486,11.486,0,0,1,4.03-8.919,14.5,14.5,0,0,1,10.033-3.6,13.882,13.882,0,0,1,9.861,3.6,11.715,11.715,0,0,1,3.859,8.919,11.236,11.236,0,0,1-3.774,8.833Q259.73,203.488,253.558,203.488Z" transform="translate(-218.914 -72.973)" fill="#fff"/>
            </g>
          </g>
        </g>
        <g id="Grupo_155550" data-name="Grupo 155550" transform="translate(0 54.414)">
          <circle id="Elipse_5893" data-name="Elipse 5893" cx="42.244" cy="42.244" r="42.244" transform="matrix(0.155, -0.988, 0.988, 0.155, 0, 83.467)" fill="#2c54ac"/>
          <g id="Grupo_155546" data-name="Grupo 155546" transform="translate(1.635 5.654)">
            <path id="Trazado_197608" data-name="Trazado 197608" d="M67.784,178.537c-25.641,0-46.5-19.122-46.5-42.628s20.861-42.627,46.5-42.627,46.5,19.123,46.5,42.627S93.425,178.537,67.784,178.537Zm0-84.487c-25.218,0-45.735,18.778-45.735,41.859S42.565,177.77,67.784,177.77s45.735-18.778,45.735-41.861S93,94.05,67.784,94.05Z" transform="translate(-21.282 -93.282)" fill="#2c54ac"/>
          </g>
          <path id="Trazado_197609" data-name="Trazado 197609" d="M64.983,192.278l7.058,17.777L76,192.278Z" transform="translate(-27.397 -105.182)" fill="#2c54ac"/>
          <g id="Grupo_155549" data-name="Grupo 155549" transform="translate(27.982 17.516)">
            <g id="Grupo_155547" data-name="Grupo 155547" transform="translate(2.15)">
              <path id="Trazado_197610" data-name="Trazado 197610" d="M71.466,152.8l-.711-4.183a19.25,19.25,0,0,1-.133-6.76,16.224,16.224,0,0,1,1.755-4.968,36.429,36.429,0,0,1,2.54-3.924,47.742,47.742,0,0,0,3.125-4.552,7.658,7.658,0,0,0,.792-5.373,4.872,4.872,0,0,0-1.365-2.773,6.489,6.489,0,0,0-2.406-1.5,5.07,5.07,0,0,0-2.522-.262,6.656,6.656,0,0,0-3.648,1.716,8.773,8.773,0,0,0-2.063,3.153,23.9,23.9,0,0,0-1.107,3.762l-2.15.365-7.652-3.085a24.933,24.933,0,0,1,1.041-3.913,19.923,19.923,0,0,1,2.6-4.991,18.365,18.365,0,0,1,4.816-4.636,19.032,19.032,0,0,1,7.6-2.834,20.649,20.649,0,0,1,8.353.164,12.954,12.954,0,0,1,6.528,3.765,15.117,15.117,0,0,1,3.561,8.044,17.843,17.843,0,0,1,.01,7.227,16.273,16.273,0,0,1-2.15,5.036q-1.422,2.151-2.85,4.261a28.989,28.989,0,0,0-2.062,3.4,13.127,13.127,0,0,0-1.3,4.078,16.562,16.562,0,0,0,.161,5.252l.282,1.658Zm8.357,15.718a7.053,7.053,0,0,1-4.919-.748,5.137,5.137,0,0,1-2.507-3.757,5.36,5.36,0,0,1,1.158-4.42,6.765,6.765,0,0,1,4.336-2.443,6.482,6.482,0,0,1,4.821.886,5.471,5.471,0,0,1,2.474,3.8A5.244,5.244,0,0,1,84.14,166.2,6.747,6.747,0,0,1,79.823,168.522Z" transform="translate(-55.922 -107.7)" fill="#55a3f3"/>
            </g>
            <g id="Grupo_155548" data-name="Grupo 155548" transform="translate(0 0.365)">
              <path id="Trazado_197611" data-name="Trazado 197611" d="M68.853,153.248l-.712-4.183a19.284,19.284,0,0,1-.133-6.759,16.221,16.221,0,0,1,1.755-4.969,36.431,36.431,0,0,1,2.541-3.924,47.839,47.839,0,0,0,3.125-4.551,7.661,7.661,0,0,0,.792-5.374,4.88,4.88,0,0,0-1.365-2.773,6.5,6.5,0,0,0-2.407-1.5,5.068,5.068,0,0,0-2.521-.262,6.654,6.654,0,0,0-3.648,1.716,8.762,8.762,0,0,0-2.063,3.152,23.9,23.9,0,0,0-1.107,3.762l-9.8-2.72a25.026,25.026,0,0,1,1.041-3.913,19.905,19.905,0,0,1,2.6-4.99,18.364,18.364,0,0,1,4.816-4.636,19.025,19.025,0,0,1,7.6-2.835,20.653,20.653,0,0,1,8.353.164,12.957,12.957,0,0,1,6.528,3.765,15.129,15.129,0,0,1,3.561,8.045,17.838,17.838,0,0,1,.009,7.226,16.273,16.273,0,0,1-2.149,5.036q-1.423,2.151-2.85,4.261a28.688,28.688,0,0,0-2.062,3.4,13.11,13.11,0,0,0-1.3,4.079,16.539,16.539,0,0,0,.161,5.252l.281,1.657Zm8.356,15.718a7.055,7.055,0,0,1-4.919-.748,5.139,5.139,0,0,1-2.507-3.757,5.362,5.362,0,0,1,1.158-4.42,6.768,6.768,0,0,1,4.336-2.443,6.485,6.485,0,0,1,4.821.886,5.468,5.468,0,0,1,2.474,3.8,5.247,5.247,0,0,1-1.046,4.361A6.746,6.746,0,0,1,77.209,168.966Z" transform="translate(-53.308 -108.144)" fill="#fff"/>
            </g>
          </g>
        </g>
        <g id="Grupo_155555" data-name="Grupo 155555" transform="translate(303.059 84.25)">
          <circle id="Elipse_5894" data-name="Elipse 5894" cx="29.75" cy="29.75" r="29.75" transform="translate(0 28.272) rotate(-28.37)" fill="#0a2a6b"/>
          <g id="Grupo_155551" data-name="Grupo 155551" transform="translate(7.463 10.088)">
            <path id="Trazado_197612" data-name="Trazado 197612" d="M430.88,195.746a35.313,35.313,0,0,1-10.429-1.587A34.114,34.114,0,0,1,400.9,178.884a28.794,28.794,0,0,1-2.9-23.229c4.911-15.89,22.974-24.472,40.258-19.129A34.116,34.116,0,0,1,457.814,151.8a28.8,28.8,0,0,1,2.895,23.23C456.788,187.719,444.482,195.746,430.88,195.746ZM398.788,155.9a27.977,27.977,0,0,0,2.82,22.572,33.292,33.292,0,0,0,19.085,14.9,34.555,34.555,0,0,0,10.188,1.551c13.251,0,25.229-7.8,29.041-20.137a27.98,27.98,0,0,0-2.82-22.572,33.3,33.3,0,0,0-19.085-14.9c-16.857-5.208-34.452,3.129-39.229,18.586Z" transform="translate(-396.748 -134.938)" fill="#0a2a6b"/>
          </g>
          <path id="Trazado_197613" data-name="Trazado 197613" d="M433.8,205.633l-8.445,10.494,1.034-12.784Z" transform="translate(-394.357 -136.98)" fill="#0a2a6b"/>
          <g id="Grupo_155554" data-name="Grupo 155554" transform="translate(30.418 20.329)">
            <g id="Grupo_155552" data-name="Grupo 155552" transform="translate(1.42 0.232)">
              <path id="Trazado_197614" data-name="Trazado 197614" d="M430,175.718l.452-2.764a12.718,12.718,0,0,1,1.366-4.248,10.714,10.714,0,0,1,2.16-2.726,23.958,23.958,0,0,1,2.428-1.905,31.492,31.492,0,0,0,2.926-2.172,5.05,5.05,0,0,0,1.647-3.185,3.225,3.225,0,0,0-.257-2.024,4.29,4.29,0,0,0-1.181-1.452,3.345,3.345,0,0,0-1.518-.7,4.4,4.4,0,0,0-2.645.29,5.794,5.794,0,0,0-1.965,1.526,15.829,15.829,0,0,0-1.5,2.111l-1.421-.233-4.116-3.566a16.6,16.6,0,0,1,1.489-2.22,13.164,13.164,0,0,1,2.7-2.558,12.126,12.126,0,0,1,4-1.862,12.561,12.561,0,0,1,5.352-.141,13.639,13.639,0,0,1,5.18,1.893,8.557,8.557,0,0,1,3.269,3.75,9.974,9.974,0,0,1,.5,5.785,11.785,11.785,0,0,1-1.542,4.514,10.78,10.78,0,0,1-2.421,2.683q-1.349,1.038-2.693,2.049a18.98,18.98,0,0,0-2.016,1.678,8.66,8.66,0,0,0-1.684,2.267,10.96,10.96,0,0,0-1.025,3.314l-.179,1.1Zm1.847,11.6a4.657,4.657,0,0,1-2.911-1.521,3.4,3.4,0,0,1-.759-2.883,3.54,3.54,0,0,1,1.67-2.512,4.465,4.465,0,0,1,3.231-.595,4.279,4.279,0,0,1,2.82,1.586,3.613,3.613,0,0,1,.729,2.9,3.466,3.466,0,0,1-1.588,2.5A4.456,4.456,0,0,1,431.845,187.321Z" transform="translate(-426.377 -147.669)" fill="#55a3f3"/>
            </g>
            <g id="Grupo_155553" data-name="Grupo 155553">
              <path id="Trazado_197615" data-name="Trazado 197615" d="M428.271,175.435l.452-2.764a12.736,12.736,0,0,1,1.366-4.248,10.716,10.716,0,0,1,2.16-2.726,24.163,24.163,0,0,1,2.428-1.905,31.507,31.507,0,0,0,2.927-2.172,5.053,5.053,0,0,0,1.646-3.185,3.219,3.219,0,0,0-.258-2.024,4.281,4.281,0,0,0-1.181-1.452,3.345,3.345,0,0,0-1.518-.7,4.4,4.4,0,0,0-2.645.29,5.783,5.783,0,0,0-1.964,1.526,15.755,15.755,0,0,0-1.5,2.111l-5.536-3.8a16.505,16.505,0,0,1,1.488-2.22,13.165,13.165,0,0,1,2.7-2.558,12.126,12.126,0,0,1,4-1.862,12.574,12.574,0,0,1,5.352-.141,13.639,13.639,0,0,1,5.18,1.893,8.551,8.551,0,0,1,3.268,3.75,9.981,9.981,0,0,1,.5,5.785,11.784,11.784,0,0,1-1.543,4.514,10.748,10.748,0,0,1-2.421,2.683q-1.349,1.038-2.693,2.049a18.972,18.972,0,0,0-2.016,1.678,8.645,8.645,0,0,0-1.683,2.268,10.9,10.9,0,0,0-1.025,3.313l-.18,1.095Zm1.848,11.6a4.652,4.652,0,0,1-2.911-1.521,3.389,3.389,0,0,1-.759-2.883,3.538,3.538,0,0,1,1.67-2.512,4.465,4.465,0,0,1,3.231-.595,4.28,4.28,0,0,1,2.819,1.586,3.611,3.611,0,0,1,.729,2.9,3.466,3.466,0,0,1-1.588,2.5A4.454,4.454,0,0,1,430.119,187.038Z" transform="translate(-424.651 -147.387)" fill="#fff"/>
            </g>
          </g>
        </g>
        <g id="Grupo_155562" data-name="Grupo 155562" transform="translate(2.086)" opacity="0.4" style="mix-blend-mode: multiply;isolation: isolate">
          <g id="Grupo_155556" data-name="Grupo 155556" transform="translate(32.095)">
            <path id="Trazado_197616" data-name="Trazado 197616" d="M74.71,54.162l-.872-3.042a14.358,14.358,0,0,1-.656-5,12.1,12.1,0,0,1,.89-3.828,27.137,27.137,0,0,1,1.561-3.119,35.65,35.65,0,0,0,1.941-3.632,5.709,5.709,0,0,0,.144-4.049,3.64,3.64,0,0,0-1.241-1.943,4.849,4.849,0,0,0-1.908-.913,3.789,3.789,0,0,0-1.891.014,4.972,4.972,0,0,0-2.563,1.574,6.533,6.533,0,0,0-1.269,2.508,17.8,17.8,0,0,0-.51,2.88L60.844,34.4a18.62,18.62,0,0,1,.449-2.987A14.862,14.862,0,0,1,62.811,27.5,13.7,13.7,0,0,1,66,23.667a14.2,14.2,0,0,1,5.4-2.728,15.394,15.394,0,0,1,6.206-.568,9.66,9.66,0,0,1,5.15,2.252,11.281,11.281,0,0,1,3.3,5.67,13.311,13.311,0,0,1,.6,5.356,12.173,12.173,0,0,1-1.178,3.911q-.877,1.712-1.761,3.394a21.529,21.529,0,0,0-1.248,2.689,9.774,9.774,0,0,0-.625,3.13,12.357,12.357,0,0,0,.553,3.88l.346,1.205ZM82.2,65.124a5.255,5.255,0,0,1-3.709-.148A3.829,3.829,0,0,1,76.326,62.4a4,4,0,0,1,.493-3.372,5.052,5.052,0,0,1,3.013-2.169,4.833,4.833,0,0,1,3.647.259,4.08,4.08,0,0,1,2.148,2.615,3.914,3.914,0,0,1-.415,3.319A5.029,5.029,0,0,1,82.2,65.124Z" transform="translate(-60.844 -20.266)" fill="#55a3f3"/>
          </g>
          <g id="Grupo_155557" data-name="Grupo 155557" transform="translate(340.595 10.478)">
            <path id="Trazado_197617" data-name="Trazado 197617" d="M439.635,62.848l1.078-2.976a14.376,14.376,0,0,1,2.4-4.435,12.09,12.09,0,0,1,2.967-2.578,27.209,27.209,0,0,1,3.092-1.612,35.635,35.635,0,0,0,3.7-1.8,5.707,5.707,0,0,0,2.491-3.2,3.639,3.639,0,0,0,.135-2.3,4.841,4.841,0,0,0-1.01-1.859,3.772,3.772,0,0,0-1.54-1.1,4.967,4.967,0,0,0-3-.228,6.528,6.528,0,0,0-2.5,1.287,17.774,17.774,0,0,0-2.1,2.034l-5.36-5.371a18.638,18.638,0,0,1,2.115-2.156,14.858,14.858,0,0,1,3.525-2.28,13.685,13.685,0,0,1,4.831-1.236,14.2,14.2,0,0,1,5.974.957,15.39,15.39,0,0,1,5.36,3.18,9.661,9.661,0,0,1,2.851,4.844,11.274,11.274,0,0,1-.649,6.53,13.324,13.324,0,0,1-2.652,4.693,12.146,12.146,0,0,1-3.248,2.476q-1.714.872-3.417,1.717a21.564,21.564,0,0,0-2.587,1.445,9.8,9.8,0,0,0-2.342,2.169,12.345,12.345,0,0,0-1.827,3.468L447.5,65.7Zm-.36,13.273a5.264,5.264,0,0,1-2.916-2.3,3.83,3.83,0,0,1-.244-3.36,4,4,0,0,1,2.378-2.443,5.05,5.05,0,0,1,3.712.011,4.835,4.835,0,0,1,2.8,2.349,4.077,4.077,0,0,1,.206,3.378,3.909,3.909,0,0,1-2.283,2.444A5.029,5.029,0,0,1,439.275,76.121Z" transform="translate(-435.84 -33.003)" fill="#55a3f3"/>
          </g>
          <g id="Grupo_155558" data-name="Grupo 155558" transform="translate(304.081 43.442)">
            <path id="Trazado_197618" data-name="Trazado 197618" d="M397.633,99.669l.03-2.568a11.666,11.666,0,0,1,.653-4.04,9.814,9.814,0,0,1,1.584-2.767,22.02,22.02,0,0,1,1.938-2.062,28.966,28.966,0,0,0,2.354-2.372,4.638,4.638,0,0,0,1.055-3.114,2.952,2.952,0,0,0-.513-1.8,3.924,3.924,0,0,0-1.27-1.153,3.064,3.064,0,0,0-1.473-.429,4.029,4.029,0,0,0-2.359.626,5.322,5.322,0,0,0-1.57,1.654A14.4,14.4,0,0,0,397,83.765l-5.542-2.683a15.157,15.157,0,0,1,1.044-2.217,12.063,12.063,0,0,1,2.091-2.689,11.1,11.1,0,0,1,3.37-2.239,11.51,11.51,0,0,1,4.832-.865,12.492,12.492,0,0,1,4.957,1,7.841,7.841,0,0,1,3.479,2.948,9.157,9.157,0,0,1,1.248,5.176,10.821,10.821,0,0,1-.777,4.305,9.864,9.864,0,0,1-1.826,2.765q-1.08,1.127-2.159,2.229a17.38,17.38,0,0,0-1.6,1.8,7.928,7.928,0,0,0-1.214,2.288,10,10,0,0,0-.473,3.144l-.012,1.018Zm3.273,10.265a4.266,4.266,0,0,1-2.848-.978,3.108,3.108,0,0,1-1.085-2.509,3.244,3.244,0,0,1,1.168-2.507,4.092,4.092,0,0,1,2.847-.984,3.921,3.921,0,0,1,2.774,1.05,3.312,3.312,0,0,1,1.061,2.533,3.178,3.178,0,0,1-1.1,2.484A4.081,4.081,0,0,1,400.906,109.934Z" transform="translate(-391.454 -73.072)" fill="#55a3f3"/>
          </g>
          <g id="Grupo_155559" data-name="Grupo 155559" transform="translate(0 28.75)">
            <path id="Trazado_197619" data-name="Trazado 197619" d="M28.965,74.071,28.57,72.35a8.019,8.019,0,0,1-.216-2.805,6.747,6.747,0,0,1,.61-2.105,15.17,15.17,0,0,1,.962-1.691,19.857,19.857,0,0,0,1.19-1.965,3.183,3.183,0,0,0,.2-2.251,2.028,2.028,0,0,0-.633-1.12,2.717,2.717,0,0,0-1.036-.566A2.12,2.12,0,0,0,28.6,59.8a2.771,2.771,0,0,0-1.475.8,3.653,3.653,0,0,0-.782,1.359,9.89,9.89,0,0,0-.37,1.589l-4.137-.9A10.453,10.453,0,0,1,22.17,61a8.288,8.288,0,0,1,.963-2.135,7.648,7.648,0,0,1,1.891-2.041,7.93,7.93,0,0,1,3.09-1.359,8.6,8.6,0,0,1,3.474-.131,5.392,5.392,0,0,1,2.8,1.408A6.285,6.285,0,0,1,36.059,60a7.425,7.425,0,0,1,.177,3,6.785,6.785,0,0,1-.773,2.143q-.539.927-1.082,1.838a12.012,12.012,0,0,0-.777,1.46,5.451,5.451,0,0,0-.441,1.725,6.9,6.9,0,0,0,.192,2.178l.157.681Zm3.846,6.33a2.931,2.931,0,0,1-2.061-.193,2.138,2.138,0,0,1-1.131-1.5A2.23,2.23,0,0,1,30,76.844a2.812,2.812,0,0,1,1.742-1.118,2.7,2.7,0,0,1,2.025.253A2.273,2.273,0,0,1,34.88,77.5a2.184,2.184,0,0,1-.331,1.837A2.8,2.8,0,0,1,32.811,80.4Z" transform="translate(-21.831 -55.213)" fill="#55a3f3"/>
          </g>
          <g id="Grupo_155560" data-name="Grupo 155560" transform="translate(360.504 63.304)">
            <path id="Trazado_197620" data-name="Trazado 197620" d="M462.831,114.381l.812-1.714a8.6,8.6,0,0,1,1.685-2.509,7.265,7.265,0,0,1,1.916-1.369,16.309,16.309,0,0,1,1.937-.786,21.254,21.254,0,0,0,2.312-.865,3.426,3.426,0,0,0,1.668-1.764,2.181,2.181,0,0,0,.211-1.366,2.886,2.886,0,0,0-.5-1.166,2.255,2.255,0,0,0-.856-.743,2.977,2.977,0,0,0-1.775-.307,3.91,3.91,0,0,0-1.564.625,10.679,10.679,0,0,0-1.371,1.093L464.418,100a11.243,11.243,0,0,1,1.385-1.166,8.9,8.9,0,0,1,2.233-1.159,8.19,8.19,0,0,1,2.952-.462,8.507,8.507,0,0,1,3.51.911,9.234,9.234,0,0,1,3.016,2.2,5.791,5.791,0,0,1,1.425,3.052,6.758,6.758,0,0,1-.759,3.858,7.979,7.979,0,0,1-1.849,2.649,7.284,7.284,0,0,1-2.078,1.292q-1.072.423-2.136.83a12.858,12.858,0,0,0-1.626.714,5.869,5.869,0,0,0-1.52,1.161,7.388,7.388,0,0,0-1.287,1.965l-.322.679Zm-.971,7.9a3.154,3.154,0,0,1-1.609-1.535,2.3,2.3,0,0,1,.045-2.019,2.4,2.4,0,0,1,1.557-1.321,3.02,3.02,0,0,1,2.214.218,2.9,2.9,0,0,1,1.538,1.561,2.442,2.442,0,0,1-.069,2.026,2.347,2.347,0,0,1-1.5,1.329A3.012,3.012,0,0,1,461.86,122.279Z" transform="translate(-460.039 -97.215)" fill="#55a3f3"/>
          </g>
          <g id="Grupo_155561" data-name="Grupo 155561" transform="translate(85.689 34.159)">
            <path id="Trazado_197621" data-name="Trazado 197621" d="M131.7,83.993l-.056-2.129a9.683,9.683,0,0,1,.413-3.367,8.13,8.13,0,0,1,1.225-2.344,18.256,18.256,0,0,1,1.541-1.77,24.06,24.06,0,0,0,1.876-2.039,3.847,3.847,0,0,0,.775-2.614,2.453,2.453,0,0,0-.481-1.474,3.254,3.254,0,0,0-1.09-.916,2.54,2.54,0,0,0-1.234-.309,3.343,3.343,0,0,0-1.934.594,4.395,4.395,0,0,0-1.249,1.42,12.055,12.055,0,0,0-.817,1.79l-4.677-2.047a12.572,12.572,0,0,1,.795-1.87,10.042,10.042,0,0,1,1.648-2.3,9.229,9.229,0,0,1,2.722-1.961,9.549,9.549,0,0,1,3.977-.869,10.373,10.373,0,0,1,4.138.674,6.5,6.5,0,0,1,2.976,2.334,7.591,7.591,0,0,1,1.2,4.249,8.956,8.956,0,0,1-.508,3.591,8.183,8.183,0,0,1-1.425,2.35q-.86.967-1.719,1.914a14.568,14.568,0,0,0-1.265,1.541,6.567,6.567,0,0,0-.934,1.934A8.321,8.321,0,0,0,137.3,83l.022.843Zm3.036,8.4a3.538,3.538,0,0,1-2.391-.721,2.579,2.579,0,0,1-.979-2.044,2.691,2.691,0,0,1,.889-2.114,3.4,3.4,0,0,1,2.327-.906,3.255,3.255,0,0,1,2.332.782,2.749,2.749,0,0,1,.959,2.066,2.634,2.634,0,0,1-.829,2.092A3.384,3.384,0,0,1,134.735,92.395Z" transform="translate(-125.99 -61.788)" fill="#55a3f3"/>
          </g>
        </g>
      </g>
    </g>
  </g>
</svg>
