<svg xmlns="http://www.w3.org/2000/svg" xmlns:xlink="http://www.w3.org/1999/xlink" width="1244" height="606" viewBox="0 0 1244 606">
  <defs>
    <clipPath id="clip-path">
      <rect id="Rectángulo_46332" data-name="Rectángulo 46332" width="1081" height="598" rx="16" fill="#f6f6f6"/>
    </clipPath>
    <clipPath id="clip-path-2">
      <ellipse id="Elipse_4979" data-name="Elipse 4979" cx="67.115" cy="67.115" rx="67.115" ry="67.115" fill="none"/>
    </clipPath>
  </defs>
  <g id="Grupo_157821" data-name="Grupo 157821" transform="translate(-179 -2972)">
    <g id="Grupo_154709" data-name="Grupo 154709" transform="translate(-526 -5554.164)">
      <g id="Grupo_154673" data-name="Grupo 154673" transform="translate(705 8526.164)">
        <rect id="Rectángulo_46422" data-name="Rectángulo 46422" width="1244" height="606" rx="30" fill="#f6f6f6"/>
        <g id="Enmascarar_grupo_141249" data-name="Enmascarar grupo 141249" opacity="0.603" clip-path="url(#clip-path)">
          <g id="Grupo_154672" data-name="Grupo 154672" transform="translate(-163.367 -75.098)">
            <path id="Trazado_174289" data-name="Trazado 174289" d="M256.143,383.022A172.065,172.065,0,1,0,428.208,555.087,172.065,172.065,0,0,0,256.143,383.022Zm0,309.736A137.671,137.671,0,1,1,393.814,555.087,137.672,137.672,0,0,1,256.143,692.758Z" transform="translate(92.886 -76.25)" fill="#e8e8e8" opacity="0.428"/>
            <path id="Trazado_174290" data-name="Trazado 174290" d="M160.067,328.37-98.26,586.7a22.569,22.569,0,0,1-31.919,0h0a22.571,22.571,0,0,1,0-31.92L128.147,296.451a22.571,22.571,0,0,1,31.919,0h0A22.571,22.571,0,0,1,160.067,328.37Z" transform="translate(136.79 -289.84)" fill="none" stroke="#8f9294" stroke-miterlimit="10" stroke-width="2" opacity="0.232"/>
            <path id="Trazado_174291" data-name="Trazado 174291" d="M134.574,417.572-62.6,614.75a17.228,17.228,0,0,1-24.364,0h0a17.227,17.227,0,0,1,0-24.365L110.209,393.207a17.229,17.229,0,0,1,24.365,0h0A17.229,17.229,0,0,1,134.574,417.572Z" transform="translate(136.067 -285.559)" fill="none" stroke="#8f9294" stroke-miterlimit="10" stroke-width="2" opacity="0.339"/>
            <g id="Grupo_124668" data-name="Grupo 124668" transform="translate(1137.325 291.092)">
              <line id="Línea_1655" data-name="Línea 1655" x1="16.541" y2="16.541" fill="none" stroke="#d8d9da" stroke-miterlimit="10" stroke-width="0.78"/>
              <line id="Línea_1656" data-name="Línea 1656" x1="16.541" y2="16.541" transform="translate(8.059)" fill="none" stroke="#d8d9da" stroke-miterlimit="10" stroke-width="0.78"/>
              <line id="Línea_1657" data-name="Línea 1657" x1="16.541" y2="16.541" transform="translate(16.117)" fill="none" stroke="#d8d9da" stroke-miterlimit="10" stroke-width="0.78"/>
              <line id="Línea_1658" data-name="Línea 1658" x1="16.541" y2="16.541" transform="translate(24.176)" fill="none" stroke="#d8d9da" stroke-miterlimit="10" stroke-width="0.78"/>
              <line id="Línea_1659" data-name="Línea 1659" x1="16.541" y2="16.541" transform="translate(32.234)" fill="none" stroke="#d8d9da" stroke-miterlimit="10" stroke-width="0.78"/>
              <line id="Línea_1660" data-name="Línea 1660" x1="16.541" y2="16.541" transform="translate(40.293)" fill="none" stroke="#d8d9da" stroke-miterlimit="10" stroke-width="0.78"/>
              <line id="Línea_1661" data-name="Línea 1661" x1="16.541" y2="16.541" transform="translate(48.351)" fill="none" stroke="#d8d9da" stroke-miterlimit="10" stroke-width="0.78"/>
              <line id="Línea_1662" data-name="Línea 1662" x1="16.541" y2="16.541" transform="translate(56.41)" fill="none" stroke="#d8d9da" stroke-miterlimit="10" stroke-width="0.78"/>
              <line id="Línea_1663" data-name="Línea 1663" x1="16.541" y2="16.541" transform="translate(64.468)" fill="none" stroke="#d8d9da" stroke-miterlimit="10" stroke-width="0.78"/>
              <line id="Línea_1664" data-name="Línea 1664" x1="16.541" y2="16.541" transform="translate(72.527)" fill="none" stroke="#d8d9da" stroke-miterlimit="10" stroke-width="0.78"/>
              <line id="Línea_1665" data-name="Línea 1665" x1="16.541" y2="16.541" transform="translate(80.586)" fill="none" stroke="#d8d9da" stroke-miterlimit="10" stroke-width="0.78"/>
              <line id="Línea_1666" data-name="Línea 1666" x1="16.541" y2="16.541" transform="translate(88.644)" fill="none" stroke="#d8d9da" stroke-miterlimit="10" stroke-width="0.78"/>
              <line id="Línea_1667" data-name="Línea 1667" x1="16.541" y2="16.541" transform="translate(96.703)" fill="none" stroke="#d8d9da" stroke-miterlimit="10" stroke-width="0.78"/>
            </g>
            <g id="Grupo_124677" data-name="Grupo 124677" transform="translate(321.547 182.969)">
              <g id="Grupo_124673" data-name="Grupo 124673">
                <line id="Línea_1668" data-name="Línea 1668" y2="13.347" transform="translate(6.673)" fill="none" stroke="#8f9294" stroke-miterlimit="10" stroke-width="0.388"/>
                <line id="Línea_1669" data-name="Línea 1669" x2="13.347" transform="translate(0 6.673)" fill="none" stroke="#8f9294" stroke-miterlimit="10" stroke-width="0.388"/>
              </g>
              <g id="Grupo_124674" data-name="Grupo 124674" transform="translate(36.37)">
                <line id="Línea_1670" data-name="Línea 1670" y2="13.347" transform="translate(6.673)" fill="none" stroke="#8f9294" stroke-miterlimit="10" stroke-width="0.388"/>
                <line id="Línea_1671" data-name="Línea 1671" x2="13.347" transform="translate(0 6.673)" fill="none" stroke="#8f9294" stroke-miterlimit="10" stroke-width="0.388"/>
              </g>
              <g id="Grupo_124675" data-name="Grupo 124675" transform="translate(72.74)">
                <line id="Línea_1672" data-name="Línea 1672" y2="13.347" transform="translate(6.673)" fill="none" stroke="#8f9294" stroke-miterlimit="10" stroke-width="0.388"/>
                <line id="Línea_1673" data-name="Línea 1673" x2="13.347" transform="translate(0 6.673)" fill="none" stroke="#8f9294" stroke-miterlimit="10" stroke-width="0.388"/>
              </g>
              <g id="Grupo_124676" data-name="Grupo 124676" transform="translate(109.109)">
                <line id="Línea_1674" data-name="Línea 1674" y2="13.347" transform="translate(6.673)" fill="none" stroke="#8f9294" stroke-miterlimit="10" stroke-width="0.388"/>
                <line id="Línea_1675" data-name="Línea 1675" x2="13.347" transform="translate(0 6.673)" fill="none" stroke="#8f9294" stroke-miterlimit="10" stroke-width="0.388"/>
              </g>
            </g>
            <g id="Grupo_124682" data-name="Grupo 124682" transform="translate(321.547 205.073)">
              <g id="Grupo_124678" data-name="Grupo 124678">
                <line id="Línea_1676" data-name="Línea 1676" y2="13.347" transform="translate(6.673)" fill="none" stroke="#8f9294" stroke-miterlimit="10" stroke-width="0.388"/>
                <line id="Línea_1677" data-name="Línea 1677" x2="13.347" transform="translate(0 6.673)" fill="none" stroke="#8f9294" stroke-miterlimit="10" stroke-width="0.388"/>
              </g>
              <g id="Grupo_124679" data-name="Grupo 124679" transform="translate(36.37)">
                <line id="Línea_1678" data-name="Línea 1678" y2="13.347" transform="translate(6.673)" fill="none" stroke="#8f9294" stroke-miterlimit="10" stroke-width="0.388"/>
                <line id="Línea_1679" data-name="Línea 1679" x2="13.347" transform="translate(0 6.673)" fill="none" stroke="#8f9294" stroke-miterlimit="10" stroke-width="0.388"/>
              </g>
              <g id="Grupo_124680" data-name="Grupo 124680" transform="translate(72.74)">
                <line id="Línea_1680" data-name="Línea 1680" y2="13.347" transform="translate(6.673)" fill="none" stroke="#8f9294" stroke-miterlimit="10" stroke-width="0.388"/>
                <line id="Línea_1681" data-name="Línea 1681" x2="13.347" transform="translate(0 6.673)" fill="none" stroke="#8f9294" stroke-miterlimit="10" stroke-width="0.388"/>
              </g>
              <g id="Grupo_124681" data-name="Grupo 124681" transform="translate(109.109)">
                <line id="Línea_1682" data-name="Línea 1682" y2="13.347" transform="translate(6.673)" fill="none" stroke="#8f9294" stroke-miterlimit="10" stroke-width="0.388"/>
                <line id="Línea_1683" data-name="Línea 1683" x2="13.347" transform="translate(0 6.673)" fill="none" stroke="#8f9294" stroke-miterlimit="10" stroke-width="0.388"/>
              </g>
            </g>
            <g id="Grupo_124687" data-name="Grupo 124687" transform="translate(321.547 227.177)">
              <g id="Grupo_124683" data-name="Grupo 124683">
                <line id="Línea_1684" data-name="Línea 1684" y2="13.347" transform="translate(6.673)" fill="none" stroke="#8f9294" stroke-miterlimit="10" stroke-width="0.388"/>
                <line id="Línea_1685" data-name="Línea 1685" x2="13.347" transform="translate(0 6.673)" fill="none" stroke="#8f9294" stroke-miterlimit="10" stroke-width="0.388"/>
              </g>
              <g id="Grupo_124684" data-name="Grupo 124684" transform="translate(36.37)">
                <line id="Línea_1686" data-name="Línea 1686" y2="13.347" transform="translate(6.673)" fill="none" stroke="#8f9294" stroke-miterlimit="10" stroke-width="0.388"/>
                <line id="Línea_1687" data-name="Línea 1687" x2="13.347" transform="translate(0 6.673)" fill="none" stroke="#8f9294" stroke-miterlimit="10" stroke-width="0.388"/>
              </g>
              <g id="Grupo_124685" data-name="Grupo 124685" transform="translate(72.74)">
                <line id="Línea_1688" data-name="Línea 1688" y2="13.347" transform="translate(6.673)" fill="none" stroke="#8f9294" stroke-miterlimit="10" stroke-width="0.388"/>
                <line id="Línea_1689" data-name="Línea 1689" x2="13.347" transform="translate(0 6.673)" fill="none" stroke="#8f9294" stroke-miterlimit="10" stroke-width="0.388"/>
              </g>
              <g id="Grupo_124686" data-name="Grupo 124686" transform="translate(109.109)">
                <line id="Línea_1690" data-name="Línea 1690" y2="13.347" transform="translate(6.673)" fill="none" stroke="#8f9294" stroke-miterlimit="10" stroke-width="0.388"/>
                <line id="Línea_1691" data-name="Línea 1691" x2="13.347" transform="translate(0 6.673)" fill="none" stroke="#8f9294" stroke-miterlimit="10" stroke-width="0.388"/>
              </g>
            </g>
            <g id="Grupo_124692" data-name="Grupo 124692" transform="translate(321.547 249.281)">
              <g id="Grupo_124688" data-name="Grupo 124688">
                <line id="Línea_1692" data-name="Línea 1692" y2="13.347" transform="translate(6.673)" fill="none" stroke="#8f9294" stroke-miterlimit="10" stroke-width="0.388"/>
                <line id="Línea_1693" data-name="Línea 1693" x2="13.347" transform="translate(0 6.673)" fill="none" stroke="#8f9294" stroke-miterlimit="10" stroke-width="0.388"/>
              </g>
              <g id="Grupo_124689" data-name="Grupo 124689" transform="translate(36.37)">
                <line id="Línea_1694" data-name="Línea 1694" y2="13.347" transform="translate(6.673)" fill="none" stroke="#8f9294" stroke-miterlimit="10" stroke-width="0.388"/>
                <line id="Línea_1695" data-name="Línea 1695" x2="13.347" transform="translate(0 6.673)" fill="none" stroke="#8f9294" stroke-miterlimit="10" stroke-width="0.388"/>
              </g>
              <g id="Grupo_124690" data-name="Grupo 124690" transform="translate(72.74)">
                <line id="Línea_1696" data-name="Línea 1696" y2="13.347" transform="translate(6.673)" fill="none" stroke="#8f9294" stroke-miterlimit="10" stroke-width="0.388"/>
                <line id="Línea_1697" data-name="Línea 1697" x2="13.347" transform="translate(0 6.673)" fill="none" stroke="#8f9294" stroke-miterlimit="10" stroke-width="0.388"/>
              </g>
              <g id="Grupo_124691" data-name="Grupo 124691" transform="translate(109.109)">
                <line id="Línea_1698" data-name="Línea 1698" y2="13.347" transform="translate(6.673)" fill="none" stroke="#8f9294" stroke-miterlimit="10" stroke-width="0.388"/>
                <line id="Línea_1699" data-name="Línea 1699" x2="13.347" transform="translate(0 6.673)" fill="none" stroke="#8f9294" stroke-miterlimit="10" stroke-width="0.388"/>
              </g>
            </g>
            <rect id="Rectángulo_35685" data-name="Rectángulo 35685" width="147.983" height="12.408" transform="translate(854.434 124.285)" fill="none" stroke="#8f9294" stroke-linecap="round" stroke-linejoin="round" stroke-width="1"/>
            <path id="Trazado_174309" data-name="Trazado 174309" d="M756.137,275.471a31.494,31.494,0,1,0,31.494,31.493A31.493,31.493,0,0,0,756.137,275.471Zm0,46.22a14.727,14.727,0,1,1,14.727-14.727A14.727,14.727,0,0,1,756.137,321.691Z" transform="translate(318.547 -102.032)" fill="#fff"/>
            <g id="Grupo_124745" data-name="Grupo 124745" transform="translate(990.048 385.049)" clip-path="url(#clip-path-2)">
              <path id="Trazado_174310" data-name="Trazado 174310" d="M520.873,136.445c-18.563,19.7-38.5,38.043-57.063,57.824" transform="translate(-471.027 -139.593)" fill="none" stroke="#606060" stroke-miterlimit="10" stroke-width="0.655"/>
              <path id="Trazado_174311" data-name="Trazado 174311" d="M529.372,136.393c-20.676,22.159-43.8,43.686-65.6,65.57" transform="translate(-471.035 -139.604)" fill="none" stroke="#606060" stroke-miterlimit="10" stroke-width="0.655"/>
              <path id="Trazado_174312" data-name="Trazado 174312" d="M537.255,136.4c-24.544,24.538-49.26,49.254-73.611,73.623" transform="translate(-471.063 -139.602)" fill="none" stroke="#606060" stroke-miterlimit="10" stroke-width="0.655"/>
              <path id="Trazado_174313" data-name="Trazado 174313" d="M545.027,136.55q-40.119,40.128-81.332,81.319" transform="translate(-471.052 -139.57)" fill="none" stroke="#606060" stroke-miterlimit="10" stroke-width="0.655"/>
              <path id="Trazado_174314" data-name="Trazado 174314" d="M554.553,136.489c-29.91,29.219-60.208,58.719-90.784,89.093" transform="translate(-471.036 -139.583)" fill="none" stroke="#606060" stroke-miterlimit="10" stroke-width="0.655"/>
              <path id="Trazado_174315" data-name="Trazado 174315" d="M560.831,136.579c-31.377,32.3-62.474,62.6-94.366,95.286-.8.8-2.391.8-2.814,1.892" transform="translate(-471.061 -139.564)" fill="none" stroke="#606060" stroke-miterlimit="10" stroke-width="0.655"/>
              <path id="Trazado_174316" data-name="Trazado 174316" d="M569.453,136.461c-19.316,20.481-40.046,38.82-60.777,59.55-15.148,15.946-30.3,29.5-44.814,45.417" transform="translate(-471.015 -139.589)" fill="none" stroke="#606060" stroke-miterlimit="10" stroke-width="0.655"/>
              <path id="Trazado_174317" data-name="Trazado 174317" d="M574.853,137.765C538.2,175,499.926,210.876,463.77,249.109" transform="translate(-471.035 -139.305)" fill="none" stroke="#606060" stroke-miterlimit="10" stroke-width="0.655"/>
              <path id="Trazado_174318" data-name="Trazado 174318" d="M574.753,144.249C538.174,180.758,500.7,218.232,463.88,255.262" transform="translate(-471.011 -137.891)" fill="none" stroke="#606060" stroke-miterlimit="10" stroke-width="0.655"/>
              <path id="Trazado_174319" data-name="Trazado 174319" d="M578.766,147.767c-38.2,38.6-77.274,76.076-114.868,114.748" transform="translate(-471.008 -137.123)" fill="none" stroke="#606060" stroke-miterlimit="10" stroke-width="0.655"/>
              <path id="Trazado_174320" data-name="Trazado 174320" d="M586.77,147.736c-41.362,41.032-81.229,83.29-123.154,123.043" transform="translate(-471.069 -137.13)" fill="none" stroke="#606060" stroke-miterlimit="10" stroke-width="0.655"/>
              <path id="Trazado_174321" data-name="Trazado 174321" d="M593.344,147.97,467.2,274.109" transform="translate(-470.286 -137.079)" fill="none" stroke="#606060" stroke-miterlimit="10" stroke-width="0.655"/>
              <path id="Trazado_174322" data-name="Trazado 174322" d="M599.692,147.974c-42.114,41.54-83.575,83.8-126.077,126.206" transform="translate(-468.888 -137.078)" fill="none" stroke="#606060" stroke-miterlimit="10" stroke-width="0.655"/>
              <path id="Trazado_174323" data-name="Trazado 174323" d="M602.457,150.913c-40.7,40.351-80.568,81.812-122.4,122.658" transform="translate(-467.483 -136.437)" fill="none" stroke="#606060" stroke-miterlimit="10" stroke-width="0.655"/>
              <path id="Trazado_174324" data-name="Trazado 174324" d="M601.286,157.09c-38.552,38.408-75.228,78.275-114.757,115.13" transform="translate(-466.071 -135.09)" fill="none" stroke="#606060" stroke-miterlimit="10" stroke-width="0.655"/>
              <path id="Trazado_174325" data-name="Trazado 174325" d="M599.576,164.17c-35.867,35.366-70.95,71.245-106.547,106.468" transform="translate(-464.653 -133.546)" fill="none" stroke="#606060" stroke-miterlimit="10" stroke-width="0.655"/>
              <path id="Trazado_174326" data-name="Trazado 174326" d="M598.385,170.164c-32.91,32.848-65.6,66.335-98.832,99.1" transform="translate(-463.231 -132.238)" fill="none" stroke="#606060" stroke-miterlimit="10" stroke-width="0.655"/>
              <path id="Trazado_174327" data-name="Trazado 174327" d="M596.9,176.763q-45.646,45.586-90.961,91.156" transform="translate(-461.837 -130.799)" fill="none" stroke="#606060" stroke-miterlimit="10" stroke-width="0.655"/>
              <path id="Trazado_174328" data-name="Trazado 174328" d="M595.564,183.234c-27.333,28.09-55.24,56-83.056,83.156" transform="translate(-460.405 -129.388)" fill="none" stroke="#606060" stroke-miterlimit="10" stroke-width="0.655"/>
              <path id="Trazado_174329" data-name="Trazado 174329" d="M594.064,189.833c-24.843,24.835-50.357,50.35-75.132,75.172" transform="translate(-459.004 -127.948)" fill="none" stroke="#606060" stroke-miterlimit="10" stroke-width="0.655"/>
              <path id="Trazado_174330" data-name="Trazado 174330" d="M592.451,196.537q-33.362,33.375-67.082,67.044" transform="translate(-457.6 -126.486)" fill="none" stroke="#606060" stroke-miterlimit="10" stroke-width="0.655"/>
              <path id="Trazado_174331" data-name="Trazado 174331" d="M591.288,202.6q-23.214,23.116-46.305,46.354-6.592,6.653-13.165,13.327" transform="translate(-456.193 -125.163)" fill="none" stroke="#606060" stroke-miterlimit="10" stroke-width="0.655"/>
              <path id="Trazado_174332" data-name="Trazado 174332" d="M589.822,209.851c-16.846,17.195-34.387,34.736-51.547,50.862" transform="translate(-454.785 -123.582)" fill="none" stroke="#606060" stroke-miterlimit="10" stroke-width="0.655"/>
            </g>
            <ellipse id="Elipse_4980" data-name="Elipse 4980" cx="6.533" cy="6.533" rx="6.533" ry="6.533" transform="translate(1106.18 97.765)" fill="none" stroke="#606060" stroke-miterlimit="10" stroke-width="0.655"/>
            <g id="Grupo_124668-2" data-name="Grupo 124668" transform="translate(1161.475 151.735)">
              <line id="Línea_1655-2" data-name="Línea 1655" x1="13.014" y2="13.014" fill="none" stroke="#d8d9da" stroke-miterlimit="10" stroke-width="0.78"/>
              <line id="Línea_1656-2" data-name="Línea 1656" x1="13.014" y2="13.014" transform="translate(6.34)" fill="none" stroke="#d8d9da" stroke-miterlimit="10" stroke-width="0.78"/>
              <line id="Línea_1657-2" data-name="Línea 1657" x1="13.014" y2="13.014" transform="translate(12.68)" fill="none" stroke="#d8d9da" stroke-miterlimit="10" stroke-width="0.78"/>
              <line id="Línea_1658-2" data-name="Línea 1658" x1="13.014" y2="13.014" transform="translate(19.02)" fill="none" stroke="#d8d9da" stroke-miterlimit="10" stroke-width="0.78"/>
              <line id="Línea_1659-2" data-name="Línea 1659" x1="13.014" y2="13.014" transform="translate(25.36)" fill="none" stroke="#d8d9da" stroke-miterlimit="10" stroke-width="0.78"/>
              <line id="Línea_1660-2" data-name="Línea 1660" x1="13.014" y2="13.014" transform="translate(31.7)" fill="none" stroke="#d8d9da" stroke-miterlimit="10" stroke-width="0.78"/>
              <line id="Línea_1661-2" data-name="Línea 1661" x1="13.014" y2="13.014" transform="translate(38.04)" fill="none" stroke="#d8d9da" stroke-miterlimit="10" stroke-width="0.78"/>
              <line id="Línea_1662-2" data-name="Línea 1662" x1="13.014" y2="13.014" transform="translate(44.38)" fill="none" stroke="#d8d9da" stroke-miterlimit="10" stroke-width="0.78"/>
              <line id="Línea_1663-2" data-name="Línea 1663" x1="13.014" y2="13.014" transform="translate(50.72)" fill="none" stroke="#d8d9da" stroke-miterlimit="10" stroke-width="0.78"/>
              <line id="Línea_1664-2" data-name="Línea 1664" x1="13.014" y2="13.014" transform="translate(57.06)" fill="none" stroke="#d8d9da" stroke-miterlimit="10" stroke-width="0.78"/>
              <line id="Línea_1665-2" data-name="Línea 1665" x1="13.014" y2="13.014" transform="translate(63.4)" fill="none" stroke="#d8d9da" stroke-miterlimit="10" stroke-width="0.78"/>
              <line id="Línea_1666-2" data-name="Línea 1666" x1="13.014" y2="13.014" transform="translate(69.74)" fill="none" stroke="#d8d9da" stroke-miterlimit="10" stroke-width="0.78"/>
              <line id="Línea_1667-2" data-name="Línea 1667" x1="13.014" y2="13.014" transform="translate(76.08)" fill="none" stroke="#d8d9da" stroke-miterlimit="10" stroke-width="0.78"/>
            </g>
          </g>
        </g>
      </g>
    </g>
    <g id="Grupo_156348" data-name="Grupo 156348">
      <rect id="Rectángulo_46641" data-name="Rectángulo 46641" width="260" height="60" rx="10" transform="translate(390 3243)" fill="#7f4fc7"/>
      <rect id="Rectángulo_46642" data-name="Rectángulo 46642" width="190" height="60" rx="10" transform="translate(705 3039)" fill="#2194e5"/>
      <rect id="Rectángulo_46645" data-name="Rectángulo 46645" width="190" height="50" rx="10" transform="translate(1020 2988)" fill="#c5e5fe"/>
      <rect id="Rectángulo_46650" data-name="Rectángulo 46650" width="190" height="50" rx="10" transform="translate(1020 3192)" fill="#c5e5fe"/>
      <rect id="Rectángulo_46653" data-name="Rectángulo 46653" width="190" height="50" rx="10" transform="translate(1020 3396)" fill="#c5e5fe"/>
      <rect id="Rectángulo_46646" data-name="Rectángulo 46646" width="190" height="50" rx="10" transform="translate(1020 3044)" fill="#c5e5fe"/>
      <rect id="Rectángulo_46649" data-name="Rectángulo 46649" width="190" height="50" rx="10" transform="translate(1020 3248)" fill="#c5e5fe"/>
      <rect id="Rectángulo_46652" data-name="Rectángulo 46652" width="190" height="50" rx="10" transform="translate(1020 3452)" fill="#c5e5fe"/>
      <rect id="Rectángulo_46647" data-name="Rectángulo 46647" width="190" height="50" rx="10" transform="translate(1020 3100)" fill="#c5e5fe"/>
      <rect id="Rectángulo_46648" data-name="Rectángulo 46648" width="190" height="50" rx="10" transform="translate(1020 3304)" fill="#c5e5fe"/>
      <rect id="Rectángulo_46651" data-name="Rectángulo 46651" width="190" height="50" rx="10" transform="translate(1020 3508)" fill="#c5e5fe"/>
      <rect id="Rectángulo_46644" data-name="Rectángulo 46644" width="190" height="60" rx="10" transform="translate(705 3447)" fill="#2194e5"/>
      <path id="Trazado_198347" data-name="Trazado 198347" d="M-72.866-10.415h-3.841V0h-3.085V-10.415h-3.771V-12.8h10.7ZM-68.577,0h-2.971V-9.51h2.971Zm-3.146-11.971a1.334,1.334,0,0,1,.457-1.043,1.718,1.718,0,0,1,1.187-.407,1.718,1.718,0,0,1,1.187.407,1.334,1.334,0,0,1,.457,1.043,1.334,1.334,0,0,1-.457,1.043,1.718,1.718,0,0,1-1.187.407,1.718,1.718,0,0,1-1.187-.407A1.334,1.334,0,0,1-71.723-11.971Zm13.8,7.286a5.735,5.735,0,0,1-1,3.538A3.2,3.2,0,0,1-61.616.176a2.742,2.742,0,0,1-2.153-.958V3.656h-2.962V-9.51h2.769l.088.879a2.742,2.742,0,0,1,2.241-1.055,3.224,3.224,0,0,1,2.733,1.3,5.805,5.805,0,0,1,.976,3.564Zm-2.962-.185q0-2.531-1.477-2.531a1.394,1.394,0,0,0-1.406.756V-2.9a1.439,1.439,0,0,0,1.424.791q1.415,0,1.459-2.443Zm3.894.026a5.613,5.613,0,0,1,.554-2.536,3.96,3.96,0,0,1,1.591-1.709,4.791,4.791,0,0,1,2.435-.6,4.373,4.373,0,0,1,3.366,1.323,5.076,5.076,0,0,1,1.23,3.6v.105a4.925,4.925,0,0,1-1.235,3.529A4.384,4.384,0,0,1-52.4.176a4.434,4.434,0,0,1-3.261-1.217,4.761,4.761,0,0,1-1.327-3.3Zm2.962.185a3.538,3.538,0,0,0,.413,1.934,1.376,1.376,0,0,0,1.222.615q1.582,0,1.617-2.435v-.3q0-2.558-1.635-2.558-1.485,0-1.608,2.206Zm12.5,1.986a.684.684,0,0,0-.4-.606,6.016,6.016,0,0,0-1.5-.475A6.853,6.853,0,0,1-45.259-4.4a3.062,3.062,0,0,1-1.1-.971,2.319,2.319,0,0,1-.378-1.31,2.628,2.628,0,0,1,1.081-2.158,4.453,4.453,0,0,1,2.83-.848,4.934,4.934,0,0,1,3.023.853,2.666,2.666,0,0,1,1.143,2.241h-2.971q0-1.143-1.2-1.143a1.194,1.194,0,0,0-.782.259.8.8,0,0,0-.316.646.737.737,0,0,0,.387.642,3.654,3.654,0,0,0,1.235.4,10.671,10.671,0,0,1,1.49.378A2.706,2.706,0,0,1-38.676-2.76,2.491,2.491,0,0,1-39.832-.642a5.068,5.068,0,0,1-2.993.817A5.172,5.172,0,0,1-45-.264a3.645,3.645,0,0,1-1.494-1.2,2.707,2.707,0,0,1-.536-1.591h2.769a1.145,1.145,0,0,0,.439.962,1.808,1.808,0,0,0,1.081.3,1.422,1.422,0,0,0,.91-.246A.787.787,0,0,0-41.533-2.672Zm8.35-2.153a5.809,5.809,0,0,1,.976-3.56,3.211,3.211,0,0,1,2.725-1.3,2.731,2.731,0,0,1,2.145,1V-13.5h2.971V0h-2.663l-.149-1.02A2.8,2.8,0,0,1-29.5.176a3.205,3.205,0,0,1-2.689-1.3A5.993,5.993,0,0,1-33.183-4.825Zm2.962.185q0,2.531,1.477,2.531a1.458,1.458,0,0,0,1.406-.826V-6.557A1.419,1.419,0,0,0-28.727-7.4q-1.371,0-1.485,2.215ZM-18.083.176a4.889,4.889,0,0,1-3.542-1.305,4.507,4.507,0,0,1-1.354-3.4v-.246a5.84,5.84,0,0,1,.541-2.575,3.955,3.955,0,0,1,1.578-1.727A4.763,4.763,0,0,1-18.4-9.686a4.117,4.117,0,0,1,3.164,1.244,4.887,4.887,0,0,1,1.16,3.467v1.151h-5.889a2.135,2.135,0,0,0,.694,1.257,2.066,2.066,0,0,0,1.389.457,2.662,2.662,0,0,0,2.2-.984l1.354,1.6A3.784,3.784,0,0,1-15.9-.277,5.3,5.3,0,0,1-18.083.176ZM-18.417-7.4q-1.3,0-1.547,1.723h2.988v-.229a1.467,1.467,0,0,0-.36-1.1A1.434,1.434,0,0,0-18.417-7.4ZM.426-4.685a5.735,5.735,0,0,1-1,3.538A3.2,3.2,0,0,1-3.265.176,2.742,2.742,0,0,1-5.418-.782V3.656H-8.38V-9.51h2.769l.088.879A2.742,2.742,0,0,1-3.283-9.686a3.224,3.224,0,0,1,2.733,1.3A5.805,5.805,0,0,1,.426-4.825Zm-2.962-.185q0-2.531-1.477-2.531a1.394,1.394,0,0,0-1.406.756V-2.9a1.439,1.439,0,0,0,1.424.791q1.415,0,1.459-2.443ZM7.088,0a3.344,3.344,0,0,1-.281-.853A2.754,2.754,0,0,1,4.522.176,3.374,3.374,0,0,1,2.237-.637,2.588,2.588,0,0,1,1.3-2.681,2.66,2.66,0,0,1,2.439-5.019,5.821,5.821,0,0,1,5.761-5.81h.914v-.5q0-1.316-1.134-1.316A.927.927,0,0,0,4.487-6.587H1.525A2.655,2.655,0,0,1,2.7-8.825a4.931,4.931,0,0,1,2.993-.86A4.323,4.323,0,0,1,8.565-8.8,3.086,3.086,0,0,1,9.646-6.363v4.21a4.311,4.311,0,0,0,.4,2V0ZM5.234-1.934a1.652,1.652,0,0,0,.918-.237,1.487,1.487,0,0,0,.523-.536V-4.228H5.814q-1.547,0-1.547,1.389a.848.848,0,0,0,.272.655A.986.986,0,0,0,5.234-1.934Zm11.8-4.9-.976-.07a1.752,1.752,0,0,0-1.793.879V0H11.307V-9.51h2.777l.1,1.222a2.294,2.294,0,0,1,2.083-1.4,2.888,2.888,0,0,1,.826.105ZM23.2,0a3.344,3.344,0,0,1-.281-.853A2.754,2.754,0,0,1,20.632.176a3.374,3.374,0,0,1-2.285-.813,2.588,2.588,0,0,1-.94-2.043,2.66,2.66,0,0,1,1.143-2.338,5.821,5.821,0,0,1,3.322-.791h.914v-.5q0-1.316-1.134-1.316A.927.927,0,0,0,20.6-6.587H17.635a2.655,2.655,0,0,1,1.173-2.239,4.931,4.931,0,0,1,2.993-.86,4.323,4.323,0,0,1,2.874.888,3.086,3.086,0,0,1,1.081,2.435v4.21a4.311,4.311,0,0,0,.4,2V0ZM21.344-1.934a1.652,1.652,0,0,0,.918-.237,1.487,1.487,0,0,0,.523-.536V-4.228h-.861q-1.547,0-1.547,1.389a.848.848,0,0,0,.272.655A.986.986,0,0,0,21.344-1.934ZM22.083-13.5h3.129l-2.443,2.76-2.417,0Zm8.112,3.99.1,1.116a3.27,3.27,0,0,1,2.716-1.292,2.407,2.407,0,0,1,2.435,1.433,3.165,3.165,0,0,1,2.795-1.433q2.892,0,2.971,3.5V0H38.237V-6a1.813,1.813,0,0,0-.246-1.063,1.048,1.048,0,0,0-.9-.334,1.4,1.4,0,0,0-1.31.782l.009.123V0H32.823V-5.985a1.906,1.906,0,0,0-.237-1.081A1.045,1.045,0,0,0,31.68-7.4a1.42,1.42,0,0,0-1.3.782V0H27.417V-9.51ZM47.5.176a4.889,4.889,0,0,1-3.542-1.305,4.507,4.507,0,0,1-1.354-3.4v-.246a5.84,5.84,0,0,1,.541-2.575,3.955,3.955,0,0,1,1.578-1.727,4.763,4.763,0,0,1,2.461-.611,4.117,4.117,0,0,1,3.164,1.244,4.887,4.887,0,0,1,1.16,3.467v1.151H45.62a2.135,2.135,0,0,0,.694,1.257,2.066,2.066,0,0,0,1.389.457,2.662,2.662,0,0,0,2.2-.984l1.354,1.6A3.784,3.784,0,0,1,49.685-.277,5.3,5.3,0,0,1,47.5.176ZM47.167-7.4q-1.3,0-1.547,1.723h2.988v-.229a1.467,1.467,0,0,0-.36-1.1A1.434,1.434,0,0,0,47.167-7.4Zm8.982-4.474V-9.51h1.564v2.057H56.149V-3.1a1.111,1.111,0,0,0,.193.747,1.037,1.037,0,0,0,.765.211,4.345,4.345,0,0,0,.738-.053V-.079a5.466,5.466,0,0,1-1.67.255,3.1,3.1,0,0,1-2.259-.721,2.954,2.954,0,0,1-.729-2.188v-4.72H51.974V-9.51h1.213v-2.364ZM64.63-6.829l-.976-.07a1.752,1.752,0,0,0-1.793.879V0H58.9V-9.51h2.777l.1,1.222a2.294,2.294,0,0,1,2.083-1.4,2.888,2.888,0,0,1,.826.105Zm.378,1.986a5.613,5.613,0,0,1,.554-2.536,3.96,3.96,0,0,1,1.591-1.709,4.791,4.791,0,0,1,2.435-.6,4.373,4.373,0,0,1,3.366,1.323,5.076,5.076,0,0,1,1.23,3.6v.105a4.925,4.925,0,0,1-1.235,3.529A4.384,4.384,0,0,1,69.6.176a4.434,4.434,0,0,1-3.261-1.217,4.761,4.761,0,0,1-1.327-3.3Zm2.962.185a3.538,3.538,0,0,0,.413,1.934,1.376,1.376,0,0,0,1.222.615q1.582,0,1.617-2.435v-.3q0-2.558-1.635-2.558-1.485,0-1.608,2.206Zm12.5,1.986a.684.684,0,0,0-.4-.606,6.016,6.016,0,0,0-1.5-.475A6.853,6.853,0,0,1,76.742-4.4a3.062,3.062,0,0,1-1.1-.971,2.319,2.319,0,0,1-.378-1.31,2.628,2.628,0,0,1,1.081-2.158,4.453,4.453,0,0,1,2.83-.848,4.934,4.934,0,0,1,3.023.853,2.666,2.666,0,0,1,1.143,2.241H80.372q0-1.143-1.2-1.143a1.194,1.194,0,0,0-.782.259.8.8,0,0,0-.316.646.737.737,0,0,0,.387.642,3.654,3.654,0,0,0,1.235.4,10.671,10.671,0,0,1,1.49.378A2.706,2.706,0,0,1,83.325-2.76,2.491,2.491,0,0,1,82.169-.642a5.068,5.068,0,0,1-2.993.817A5.172,5.172,0,0,1,77-.264a3.645,3.645,0,0,1-1.494-1.2,2.707,2.707,0,0,1-.536-1.591h2.769a1.145,1.145,0,0,0,.439.962,1.808,1.808,0,0,0,1.081.3,1.422,1.422,0,0,0,.91-.246A.787.787,0,0,0,80.468-2.672Z" transform="translate(520 3279)" fill="#fff"/>
      <path id="Trazado_198336" data-name="Trazado 198336" d="M-47.342-4.333a4.673,4.673,0,0,1-.721,2.36,4.35,4.35,0,0,1-1.85,1.586,6.3,6.3,0,0,1-2.72.563,5.025,5.025,0,0,1-3.973-1.644,6.786,6.786,0,0,1-1.45-4.641v-.633a7.746,7.746,0,0,1,.655-3.292,4.961,4.961,0,0,1,1.885-2.18,5.26,5.26,0,0,1,2.848-.769,5.516,5.516,0,0,1,3.744,1.226,4.844,4.844,0,0,1,1.608,3.379h-3.076a2.292,2.292,0,0,0-.589-1.679,2.422,2.422,0,0,0-1.687-.51,1.843,1.843,0,0,0-1.687.861,5.536,5.536,0,0,0-.562,2.751v.905A6.126,6.126,0,0,0-54.4-3.12a1.882,1.882,0,0,0,1.771.879,2.369,2.369,0,0,0,1.626-.5,2.126,2.126,0,0,0,.6-1.591ZM-41.418.176A4.889,4.889,0,0,1-44.96-1.129a4.507,4.507,0,0,1-1.354-3.4v-.246a5.84,5.84,0,0,1,.541-2.575A3.955,3.955,0,0,1-44.2-9.075a4.763,4.763,0,0,1,2.461-.611,4.117,4.117,0,0,1,3.164,1.244,4.887,4.887,0,0,1,1.16,3.467v1.151H-43.3A2.135,2.135,0,0,0-42.6-2.566a2.066,2.066,0,0,0,1.389.457,2.662,2.662,0,0,0,2.2-.984l1.354,1.6A3.784,3.784,0,0,1-39.234-.277,5.3,5.3,0,0,1-41.418.176ZM-41.752-7.4q-1.3,0-1.547,1.723h2.988v-.229a1.467,1.467,0,0,0-.36-1.1A1.434,1.434,0,0,0-41.752-7.4ZM-33.5-9.51l.1,1.116a3.225,3.225,0,0,1,2.716-1.292,2.713,2.713,0,0,1,2.219.888,4.226,4.226,0,0,1,.76,2.672V0h-2.971V-6a1.6,1.6,0,0,0-.29-1.059A1.342,1.342,0,0,0-32.023-7.4a1.413,1.413,0,0,0-1.292.686V0h-2.962V-9.51Zm10.881-2.364V-9.51h1.564v2.057h-1.564V-3.1a1.111,1.111,0,0,0,.193.747,1.037,1.037,0,0,0,.765.211,4.345,4.345,0,0,0,.738-.053V-.079a5.466,5.466,0,0,1-1.67.255,3.1,3.1,0,0,1-2.259-.721,2.954,2.954,0,0,1-.729-2.188v-4.72h-1.213V-9.51h1.213v-2.364Zm8.481,5.045-.976-.07a1.752,1.752,0,0,0-1.793.879V0h-2.962V-9.51h2.777l.1,1.222a2.294,2.294,0,0,1,2.083-1.4,2.888,2.888,0,0,1,.826.105ZM-7.976,0a3.344,3.344,0,0,1-.281-.853A2.754,2.754,0,0,1-10.542.176a3.374,3.374,0,0,1-2.285-.813,2.588,2.588,0,0,1-.94-2.043,2.66,2.66,0,0,1,1.143-2.338A5.821,5.821,0,0,1-9.3-5.81h.914v-.5q0-1.316-1.134-1.316a.927.927,0,0,0-1.055,1.042H-13.54a2.655,2.655,0,0,1,1.173-2.239,4.931,4.931,0,0,1,2.993-.86A4.323,4.323,0,0,1-6.5-8.8,3.086,3.086,0,0,1-5.418-6.363v4.21a4.311,4.311,0,0,0,.4,2V0ZM-9.831-1.934a1.652,1.652,0,0,0,.918-.237,1.487,1.487,0,0,0,.523-.536V-4.228H-9.25q-1.547,0-1.547,1.389a.848.848,0,0,0,.272.655A.986.986,0,0,0-9.831-1.934ZM-.655,0H-3.625V-13.5H-.655ZM4.293,0H1.323V-9.51H4.293ZM1.147-11.971A1.334,1.334,0,0,1,1.6-13.014a1.718,1.718,0,0,1,1.187-.407,1.718,1.718,0,0,1,1.187.407,1.334,1.334,0,0,1,.457,1.043,1.334,1.334,0,0,1-.457,1.043,1.718,1.718,0,0,1-1.187.407A1.718,1.718,0,0,1,1.6-10.927,1.334,1.334,0,0,1,1.147-11.971ZM9.611-2.285h4.333V0H5.867V-1.652l4.219-5.572H6.051V-9.51h7.8v1.6ZM20.738,0a3.344,3.344,0,0,1-.281-.853A2.754,2.754,0,0,1,18.171.176a3.374,3.374,0,0,1-2.285-.813,2.588,2.588,0,0,1-.94-2.043,2.66,2.66,0,0,1,1.143-2.338,5.821,5.821,0,0,1,3.322-.791h.914v-.5q0-1.316-1.134-1.316a.927.927,0,0,0-1.055,1.042H15.174a2.655,2.655,0,0,1,1.173-2.239,4.931,4.931,0,0,1,2.993-.86,4.323,4.323,0,0,1,2.874.888A3.086,3.086,0,0,1,23.3-6.363v4.21a4.311,4.311,0,0,0,.4,2V0ZM18.883-1.934a1.652,1.652,0,0,0,.918-.237,1.487,1.487,0,0,0,.523-.536V-4.228h-.861q-1.547,0-1.547,1.389a.848.848,0,0,0,.272.655A.986.986,0,0,0,18.883-1.934Zm10.072-.176a1.317,1.317,0,0,0,.967-.338,1.241,1.241,0,0,0,.334-.945h2.777A3.288,3.288,0,0,1,31.913-.826a4.168,4.168,0,0,1-2.887,1,4.22,4.22,0,0,1-3.27-1.3,5.125,5.125,0,0,1-1.2-3.6v-.123A5.792,5.792,0,0,1,25.093-7.4a3.872,3.872,0,0,1,1.534-1.7A4.573,4.573,0,0,1,29-9.686a4.116,4.116,0,0,1,2.944,1.028,3.647,3.647,0,0,1,1.09,2.786H30.256A1.626,1.626,0,0,0,29.9-7a1.244,1.244,0,0,0-.967-.4q-1.151,0-1.345,1.468a10.357,10.357,0,0,0-.062,1.283,4.068,4.068,0,0,0,.343,1.986A1.187,1.187,0,0,0,28.956-2.109ZM37.411,0H34.44V-9.51h2.971ZM34.264-11.971a1.334,1.334,0,0,1,.457-1.043,1.718,1.718,0,0,1,1.187-.407,1.718,1.718,0,0,1,1.187.407,1.334,1.334,0,0,1,.457,1.043,1.334,1.334,0,0,1-.457,1.043,1.718,1.718,0,0,1-1.187.407,1.718,1.718,0,0,1-1.187-.407A1.334,1.334,0,0,1,34.264-11.971Zm4.6,7.128a5.613,5.613,0,0,1,.554-2.536,3.96,3.96,0,0,1,1.591-1.709,4.791,4.791,0,0,1,2.435-.6,4.373,4.373,0,0,1,3.366,1.323,5.076,5.076,0,0,1,1.23,3.6v.105A4.925,4.925,0,0,1,46.8-1.129,4.384,4.384,0,0,1,43.458.176,4.434,4.434,0,0,1,40.2-1.042a4.761,4.761,0,0,1-1.327-3.3Zm2.962.185a3.538,3.538,0,0,0,.413,1.934,1.376,1.376,0,0,0,1.222.615q1.582,0,1.617-2.435v-.3q0-2.558-1.635-2.558-1.485,0-1.608,2.206ZM43.844-13.5h3.129L44.53-10.74l-2.417,0Zm8.218,3.99.1,1.116a3.225,3.225,0,0,1,2.716-1.292,2.713,2.713,0,0,1,2.219.888,4.226,4.226,0,0,1,.76,2.672V0H54.883V-6a1.6,1.6,0,0,0-.29-1.059A1.342,1.342,0,0,0,53.539-7.4a1.413,1.413,0,0,0-1.292.686V0H49.285V-9.51Z" transform="translate(800 3075)" fill="#12263f"/>
      <path id="Trazado_198335" data-name="Trazado 198335" d="M-56.707-11.375l3.719,9.281,3.719-9.281h1.945V0h-1.5V-4.43l.141-4.781L-52.418,0h-1.148l-3.727-9.187.148,4.758V0h-1.5V-11.375ZM-41.395.156a3.693,3.693,0,0,1-2.8-1.129,4.19,4.19,0,0,1-1.078-3.02v-.266a5.073,5.073,0,0,1,.48-2.246,3.748,3.748,0,0,1,1.344-1.547,3.378,3.378,0,0,1,1.871-.559,3.166,3.166,0,0,1,2.563,1.086A4.7,4.7,0,0,1-38.1-4.414v.6h-5.727a3,3,0,0,0,.73,2.02,2.3,2.3,0,0,0,1.777.77,2.517,2.517,0,0,0,1.3-.312,3.259,3.259,0,0,0,.93-.828l.883.688A3.55,3.55,0,0,1-41.395.156Zm-.18-7.578a1.928,1.928,0,0,0-1.469.637A3.1,3.1,0,0,0-43.777-5h4.234v-.109a2.753,2.753,0,0,0-.594-1.707A1.815,1.815,0,0,0-41.574-7.422Zm4.8,3.125a4.952,4.952,0,0,1,.922-3.129,2.915,2.915,0,0,1,2.414-1.184A2.932,2.932,0,0,1-31.09-7.594V-12h1.445V0h-1.328l-.07-.906A2.943,2.943,0,0,1-33.457.156a2.887,2.887,0,0,1-2.395-1.2,5.008,5.008,0,0,1-.926-3.141Zm1.445.164a3.749,3.749,0,0,0,.594,2.25A1.92,1.92,0,0,0-33.1-1.07,2.108,2.108,0,0,0-31.09-2.3V-6.187a2.125,2.125,0,0,0-1.992-1.2,1.929,1.929,0,0,0-1.656.82A4.128,4.128,0,0,0-35.332-4.133ZM-25.832,0h-1.445V-8.453h1.445Zm-1.562-10.7a.863.863,0,0,1,.215-.594.807.807,0,0,1,.637-.242.819.819,0,0,1,.641.242.854.854,0,0,1,.219.594.826.826,0,0,1-.219.586.834.834,0,0,1-.641.234.821.821,0,0,1-.637-.234A.834.834,0,0,1-27.395-10.7ZM-18.3,0a3.036,3.036,0,0,1-.2-.891A3.225,3.225,0,0,1-20.91.156a2.984,2.984,0,0,1-2.051-.707,2.287,2.287,0,0,1-.8-1.793,2.39,2.39,0,0,1,1-2.051,4.733,4.733,0,0,1,2.824-.73h1.406v-.664A1.623,1.623,0,0,0-18.98-7a1.821,1.821,0,0,0-1.336-.449,2.108,2.108,0,0,0-1.3.391,1.151,1.151,0,0,0-.523.945H-23.59a2,2,0,0,1,.449-1.223,3.066,3.066,0,0,1,1.219-.934,4.1,4.1,0,0,1,1.691-.344,3.342,3.342,0,0,1,2.289.73,2.635,2.635,0,0,1,.859,2.012v3.891a4.757,4.757,0,0,0,.3,1.852V0Zm-2.4-1.1a2.54,2.54,0,0,0,1.289-.352,2.127,2.127,0,0,0,.883-.914V-4.1H-19.66q-2.656,0-2.656,1.555a1.316,1.316,0,0,0,.453,1.063A1.742,1.742,0,0,0-20.7-1.1ZM-5.637,0a3.036,3.036,0,0,1-.2-.891A3.225,3.225,0,0,1-8.246.156,2.984,2.984,0,0,1-10.3-.551a2.287,2.287,0,0,1-.8-1.793,2.39,2.39,0,0,1,1-2.051,4.733,4.733,0,0,1,2.824-.73h1.406v-.664A1.623,1.623,0,0,0-6.316-7a1.821,1.821,0,0,0-1.336-.449,2.107,2.107,0,0,0-1.3.391,1.151,1.151,0,0,0-.523.945h-1.453a2,2,0,0,1,.449-1.223,3.066,3.066,0,0,1,1.219-.934,4.1,4.1,0,0,1,1.691-.344,3.342,3.342,0,0,1,2.289.73,2.635,2.635,0,0,1,.859,2.012v3.891a4.757,4.757,0,0,0,.3,1.852V0Zm-2.4-1.1a2.54,2.54,0,0,0,1.289-.352,2.127,2.127,0,0,0,.883-.914V-4.1H-7q-2.656,0-2.656,1.555A1.316,1.316,0,0,0-9.2-1.484,1.742,1.742,0,0,0-8.035-1.1ZM1.934-7.156a4.331,4.331,0,0,0-.711-.055A1.9,1.9,0,0,0-.707-6V0H-2.152V-8.453H-.746l.023.977A2.251,2.251,0,0,1,1.293-8.609a1.477,1.477,0,0,1,.641.109ZM4.832,0H3.387V-8.453H4.832ZM3.27-10.7a.863.863,0,0,1,.215-.594.807.807,0,0,1,.637-.242.819.819,0,0,1,.641.242.854.854,0,0,1,.219.594.826.826,0,0,1-.219.586.834.834,0,0,1-.641.234.821.821,0,0,1-.637-.234A.834.834,0,0,1,3.27-10.7Zm5.836.2v2.047h1.578v1.117H9.105v5.249a1.173,1.173,0,0,0,.211.763.888.888,0,0,0,.719.254,3.5,3.5,0,0,0,.688-.094V0A4.215,4.215,0,0,1,9.613.156,1.8,1.8,0,0,1,8.152-.43,2.517,2.517,0,0,1,7.66-2.094V-7.336H6.121V-8.453H7.66V-10.5ZM13.73-8.453l.039.938a3.122,3.122,0,0,1,2.508-1.094A2.417,2.417,0,0,1,18.691-7.25a3.2,3.2,0,0,1,1.1-.984,3.242,3.242,0,0,1,1.6-.375q2.781,0,2.828,2.945V0H22.77V-5.578a1.941,1.941,0,0,0-.414-1.355,1.823,1.823,0,0,0-1.391-.449,1.916,1.916,0,0,0-1.336.48,1.949,1.949,0,0,0-.617,1.293V0H17.559V-5.539a1.613,1.613,0,0,0-1.8-1.844,1.934,1.934,0,0,0-1.945,1.211V0H12.363V-8.453ZM29.9.156a3.693,3.693,0,0,1-2.8-1.129,4.19,4.19,0,0,1-1.078-3.02v-.266a5.073,5.073,0,0,1,.48-2.246,3.748,3.748,0,0,1,1.344-1.547,3.378,3.378,0,0,1,1.871-.559,3.166,3.166,0,0,1,2.563,1.086A4.7,4.7,0,0,1,33.2-4.414v.6H27.473a3,3,0,0,0,.73,2.02,2.3,2.3,0,0,0,1.777.77,2.517,2.517,0,0,0,1.3-.312,3.259,3.259,0,0,0,.93-.828l.883.688A3.55,3.55,0,0,1,29.9.156Zm-.18-7.578a1.928,1.928,0,0,0-1.469.637A3.1,3.1,0,0,0,27.52-5h4.234v-.109a2.753,2.753,0,0,0-.594-1.707A1.815,1.815,0,0,0,29.723-7.422Zm.7-4.562h1.75l-2.094,2.3-1.164,0ZM36.832-10.5v2.047H38.41v1.117H36.832v5.249a1.173,1.173,0,0,0,.211.763.888.888,0,0,0,.719.254,3.5,3.5,0,0,0,.688-.094V0A4.215,4.215,0,0,1,37.34.156,1.8,1.8,0,0,1,35.879-.43a2.517,2.517,0,0,1-.492-1.664V-7.336H33.848V-8.453h1.539V-10.5ZM41.668,0H40.223V-8.453h1.445ZM40.105-10.7a.863.863,0,0,1,.215-.594.807.807,0,0,1,.637-.242.819.819,0,0,1,.641.242.854.854,0,0,1,.219.594.826.826,0,0,1-.219.586.834.834,0,0,1-.641.234.821.821,0,0,1-.637-.234A.834.834,0,0,1,40.105-10.7Zm7.266,9.672a2.082,2.082,0,0,0,1.352-.469,1.649,1.649,0,0,0,.641-1.172H50.73a2.621,2.621,0,0,1-.5,1.383A3.293,3.293,0,0,1,49-.234a3.55,3.55,0,0,1-1.629.391A3.482,3.482,0,0,1,44.625-1a4.59,4.59,0,0,1-1.02-3.152v-.242a5.089,5.089,0,0,1,.453-2.2,3.451,3.451,0,0,1,1.3-1.492,3.7,3.7,0,0,1,2-.531,3.39,3.39,0,0,1,2.363.852,3.043,3.043,0,0,1,1,2.211H49.363a1.992,1.992,0,0,0-.621-1.348,1.932,1.932,0,0,0-1.379-.527,2.023,2.023,0,0,0-1.707.793,3.724,3.724,0,0,0-.605,2.293v.273a3.65,3.65,0,0,0,.6,2.25A2.033,2.033,0,0,0,47.371-1.023ZM57.574,0a3.036,3.036,0,0,1-.2-.891A3.225,3.225,0,0,1,54.965.156a2.984,2.984,0,0,1-2.051-.707,2.287,2.287,0,0,1-.8-1.793,2.39,2.39,0,0,1,1-2.051,4.733,4.733,0,0,1,2.824-.73h1.406v-.664A1.623,1.623,0,0,0,56.895-7a1.821,1.821,0,0,0-1.336-.449,2.107,2.107,0,0,0-1.3.391,1.151,1.151,0,0,0-.523.945H52.285a2,2,0,0,1,.449-1.223,3.066,3.066,0,0,1,1.219-.934,4.1,4.1,0,0,1,1.691-.344,3.342,3.342,0,0,1,2.289.73,2.635,2.635,0,0,1,.859,2.012v3.891a4.757,4.757,0,0,0,.3,1.852V0Zm-2.4-1.1a2.54,2.54,0,0,0,1.289-.352,2.127,2.127,0,0,0,.883-.914V-4.1H56.215q-2.656,0-2.656,1.555a1.316,1.316,0,0,0,.453,1.063A1.742,1.742,0,0,0,55.176-1.1Z" transform="translate(1115 3019)" fill="#12263f"/>
      <path id="Trazado_198339" data-name="Trazado 198339" d="M-22.043-3.609A4.185,4.185,0,0,1-23.375-.824a4.365,4.365,0,0,1-2.98.98,4.008,4.008,0,0,1-3.23-1.445A5.815,5.815,0,0,1-30.8-5.156V-6.25a6.481,6.481,0,0,1,.566-2.789,4.231,4.231,0,0,1,1.605-1.848,4.47,4.47,0,0,1,2.406-.645,4.11,4.11,0,0,1,2.906,1.012,4.235,4.235,0,0,1,1.273,2.8h-1.508A3.268,3.268,0,0,0-24.4-9.693a2.565,2.565,0,0,0-1.824-.611,2.684,2.684,0,0,0-2.254,1.063,4.882,4.882,0,0,0-.816,3.026v1.1a5.018,5.018,0,0,0,.773,2.948A2.5,2.5,0,0,0-26.355-1.07a2.886,2.886,0,0,0,1.918-.566,3.143,3.143,0,0,0,.887-1.973ZM-15-.836A3.07,3.07,0,0,1-17.48.156a2.628,2.628,0,0,1-2.059-.785,3.4,3.4,0,0,1-.715-2.324v-5.5h1.445v5.461q0,1.922,1.563,1.922a2.163,2.163,0,0,0,2.2-1.234V-8.453H-13.6V0h-1.375ZM-6.184,0a3.036,3.036,0,0,1-.2-.891A3.225,3.225,0,0,1-8.793.156a2.984,2.984,0,0,1-2.051-.707,2.287,2.287,0,0,1-.8-1.793,2.39,2.39,0,0,1,1-2.051,4.733,4.733,0,0,1,2.824-.73H-6.41v-.664A1.623,1.623,0,0,0-6.863-7,1.821,1.821,0,0,0-8.2-7.445a2.107,2.107,0,0,0-1.3.391,1.151,1.151,0,0,0-.523.945h-1.453a2,2,0,0,1,.449-1.223A3.066,3.066,0,0,1-9.8-8.266a4.1,4.1,0,0,1,1.691-.344,3.342,3.342,0,0,1,2.289.73,2.635,2.635,0,0,1,.859,2.012v3.891a4.757,4.757,0,0,0,.3,1.852V0Zm-2.4-1.1a2.54,2.54,0,0,0,1.289-.352,2.127,2.127,0,0,0,.883-.914V-4.1H-7.543Q-10.2-4.1-10.2-2.547a1.316,1.316,0,0,0,.453,1.063A1.742,1.742,0,0,0-8.582-1.1ZM1.387-7.156a4.331,4.331,0,0,0-.711-.055A1.9,1.9,0,0,0-1.254-6V0H-2.7V-8.453h1.406l.023.977A2.251,2.251,0,0,1,.746-8.609a1.477,1.477,0,0,1,.641.109ZM5.066-10.5v2.047H6.645v1.117H5.066v5.249a1.173,1.173,0,0,0,.211.763A.888.888,0,0,0,6-1.07a3.5,3.5,0,0,0,.688-.094V0A4.215,4.215,0,0,1,5.574.156,1.8,1.8,0,0,1,4.113-.43a2.517,2.517,0,0,1-.492-1.664V-7.336H2.082V-8.453H3.621V-10.5ZM9.9,0H8.457V-8.453H9.9ZM8.34-10.7a.863.863,0,0,1,.215-.594.807.807,0,0,1,.637-.242.819.819,0,0,1,.641.242.854.854,0,0,1,.219.594.826.826,0,0,1-.219.586.834.834,0,0,1-.641.234.821.821,0,0,1-.637-.234A.834.834,0,0,1,8.34-10.7ZM13.785,0H12.34V-12h1.445Zm5.82.156a3.693,3.693,0,0,1-2.8-1.129,4.19,4.19,0,0,1-1.078-3.02v-.266a5.073,5.073,0,0,1,.48-2.246,3.748,3.748,0,0,1,1.344-1.547,3.378,3.378,0,0,1,1.871-.559,3.166,3.166,0,0,1,2.563,1.086A4.7,4.7,0,0,1,22.9-4.414v.6H17.176a3,3,0,0,0,.73,2.02,2.3,2.3,0,0,0,1.777.77,2.517,2.517,0,0,0,1.3-.312,3.259,3.259,0,0,0,.93-.828l.883.688A3.55,3.55,0,0,1,19.605.156Zm-.18-7.578a1.928,1.928,0,0,0-1.469.637A3.1,3.1,0,0,0,17.223-5h4.234v-.109a2.753,2.753,0,0,0-.594-1.707A1.815,1.815,0,0,0,19.426-7.422ZM29.5-2.242a1.064,1.064,0,0,0-.441-.91,4.249,4.249,0,0,0-1.539-.559,7.277,7.277,0,0,1-1.742-.562,2.479,2.479,0,0,1-.953-.781,1.869,1.869,0,0,1-.309-1.078,2.193,2.193,0,0,1,.879-1.758,3.432,3.432,0,0,1,2.246-.719,3.532,3.532,0,0,1,2.332.742,2.357,2.357,0,0,1,.895,1.9H29.41a1.3,1.3,0,0,0-.5-1.023,1.888,1.888,0,0,0-1.27-.43,1.976,1.976,0,0,0-1.234.344,1.082,1.082,0,0,0-.445.9.877.877,0,0,0,.414.789,5.1,5.1,0,0,0,1.5.508,7.8,7.8,0,0,1,1.754.578,2.558,2.558,0,0,1,1,.809,1.988,1.988,0,0,1,.324,1.152,2.163,2.163,0,0,1-.906,1.816,3.8,3.8,0,0,1-2.352.684,4.257,4.257,0,0,1-1.8-.359,2.922,2.922,0,0,1-1.223-1A2.42,2.42,0,0,1,24.223-2.6h1.445a1.5,1.5,0,0,0,.582,1.152,2.258,2.258,0,0,0,1.434.426A2.331,2.331,0,0,0,29-1.355,1.02,1.02,0,0,0,29.5-2.242Z" transform="translate(1115 3223)" fill="#12263f"/>
      <path id="Trazado_198342" data-name="Trazado 198342" d="M-57.824-4.6H-60.5V0H-62V-11.375h3.766a4.457,4.457,0,0,1,2.957.875,3.148,3.148,0,0,1,1.035,2.547A3.062,3.062,0,0,1-54.82-6.1a3.428,3.428,0,0,1-1.6,1.18l2.672,4.828V0h-1.609ZM-60.5-5.828h2.3a2.6,2.6,0,0,0,1.777-.579,1.959,1.959,0,0,0,.66-1.55,2.062,2.062,0,0,0-.629-1.62,2.663,2.663,0,0,0-1.816-.571h-2.3ZM-47.152,0a3.036,3.036,0,0,1-.2-.891A3.225,3.225,0,0,1-49.762.156a2.984,2.984,0,0,1-2.051-.707,2.287,2.287,0,0,1-.8-1.793,2.39,2.39,0,0,1,1-2.051,4.733,4.733,0,0,1,2.824-.73h1.406v-.664A1.623,1.623,0,0,0-47.832-7a1.821,1.821,0,0,0-1.336-.449,2.107,2.107,0,0,0-1.3.391,1.151,1.151,0,0,0-.523.945h-1.453a2,2,0,0,1,.449-1.223,3.066,3.066,0,0,1,1.219-.934,4.1,4.1,0,0,1,1.691-.344,3.342,3.342,0,0,1,2.289.73,2.635,2.635,0,0,1,.859,2.012v3.891a4.757,4.757,0,0,0,.3,1.852V0Zm-2.4-1.1a2.54,2.54,0,0,0,1.289-.352,2.127,2.127,0,0,0,.883-.914V-4.1h-1.133q-2.656,0-2.656,1.555a1.316,1.316,0,0,0,.453,1.063A1.742,1.742,0,0,0-49.551-1.1Zm7.25-7.352.047,1.063a3.08,3.08,0,0,1,2.531-1.219q2.68,0,2.7,3.023V0h-1.445V-5.594a1.946,1.946,0,0,0-.418-1.352,1.675,1.675,0,0,0-1.277-.437,2.086,2.086,0,0,0-1.234.375,2.546,2.546,0,0,0-.828.984V0h-1.445V-8.453ZM-35.184-4.3a4.968,4.968,0,0,1,.914-3.145,2.923,2.923,0,0,1,2.422-1.168,2.908,2.908,0,0,1,2.414,1.094l.07-.937h1.32V-.2a3.439,3.439,0,0,1-.973,2.586,3.589,3.589,0,0,1-2.613.945,4.348,4.348,0,0,1-1.789-.391,3.08,3.08,0,0,1-1.336-1.07L-34,1A2.826,2.826,0,0,0-31.73,2.148a2.214,2.214,0,0,0,1.645-.594A2.269,2.269,0,0,0-29.5-.117V-.844a2.971,2.971,0,0,1-2.367,1,2.887,2.887,0,0,1-2.4-1.2A5.224,5.224,0,0,1-35.184-4.3Zm1.453.164a3.79,3.79,0,0,0,.586,2.246A1.9,1.9,0,0,0-31.5-1.07,2.117,2.117,0,0,0-29.5-2.312V-6.172a2.142,2.142,0,0,0-1.992-1.211,1.921,1.921,0,0,0-1.648.82A4.128,4.128,0,0,0-33.73-4.133Zm7.484-.172a4.993,4.993,0,0,1,.488-2.234A3.643,3.643,0,0,1-24.4-8.07a3.7,3.7,0,0,1,1.988-.539,3.565,3.565,0,0,1,2.793,1.2,4.6,4.6,0,0,1,1.066,3.18v.1a5.036,5.036,0,0,1-.473,2.215A3.589,3.589,0,0,1-20.375-.391a3.743,3.743,0,0,1-2.02.547,3.556,3.556,0,0,1-2.785-1.2A4.575,4.575,0,0,1-26.246-4.2Zm1.453.172a3.616,3.616,0,0,0,.652,2.258,2.088,2.088,0,0,0,1.746.852,2.075,2.075,0,0,0,1.75-.863A3.955,3.955,0,0,0-20-4.3a3.61,3.61,0,0,0-.66-2.254,2.1,2.1,0,0,0-1.754-.863,2.075,2.075,0,0,0-1.727.852A3.925,3.925,0,0,0-24.793-4.133ZM-13.16-4.3a4.993,4.993,0,0,1,.488-2.234A3.643,3.643,0,0,1-11.312-8.07a3.7,3.7,0,0,1,1.988-.539,3.565,3.565,0,0,1,2.793,1.2,4.6,4.6,0,0,1,1.066,3.18v.1a5.036,5.036,0,0,1-.473,2.215A3.589,3.589,0,0,1-7.289-.391a3.743,3.743,0,0,1-2.02.547,3.556,3.556,0,0,1-2.785-1.2A4.575,4.575,0,0,1-13.16-4.2Zm1.453.172a3.616,3.616,0,0,0,.652,2.258,2.088,2.088,0,0,0,1.746.852,2.075,2.075,0,0,0,1.75-.863A3.955,3.955,0,0,0-6.91-4.3a3.61,3.61,0,0,0-.66-2.254,2.1,2.1,0,0,0-1.754-.863,2.075,2.075,0,0,0-1.727.852A3.925,3.925,0,0,0-11.707-4.133Zm16.1-3.023a4.331,4.331,0,0,0-.711-.055A1.9,1.9,0,0,0,1.754-6V0H.309V-8.453H1.715l.023.977A2.251,2.251,0,0,1,3.754-8.609a1.477,1.477,0,0,1,.641.109ZM9.082.156a3.693,3.693,0,0,1-2.8-1.129,4.19,4.19,0,0,1-1.078-3.02v-.266A5.073,5.073,0,0,1,5.688-6.5,3.748,3.748,0,0,1,7.031-8.051,3.378,3.378,0,0,1,8.9-8.609a3.166,3.166,0,0,1,2.563,1.086,4.7,4.7,0,0,1,.914,3.109v.6H6.652a3,3,0,0,0,.73,2.02,2.3,2.3,0,0,0,1.777.77,2.517,2.517,0,0,0,1.3-.312,3.259,3.259,0,0,0,.93-.828l.883.688A3.55,3.55,0,0,1,9.082.156ZM8.9-7.422a1.928,1.928,0,0,0-1.469.637A3.1,3.1,0,0,0,6.7-5h4.234v-.109a2.753,2.753,0,0,0-.594-1.707A1.815,1.815,0,0,0,8.9-7.422Zm8.539,6.4a2.082,2.082,0,0,0,1.352-.469,1.649,1.649,0,0,0,.641-1.172H20.8a2.621,2.621,0,0,1-.5,1.383A3.293,3.293,0,0,1,19.07-.234a3.55,3.55,0,0,1-1.629.391A3.482,3.482,0,0,1,14.7-1a4.59,4.59,0,0,1-1.02-3.152v-.242a5.089,5.089,0,0,1,.453-2.2,3.451,3.451,0,0,1,1.3-1.492,3.7,3.7,0,0,1,2-.531,3.39,3.39,0,0,1,2.363.852,3.043,3.043,0,0,1,1,2.211H19.434a1.992,1.992,0,0,0-.621-1.348,1.932,1.932,0,0,0-1.379-.527,2.023,2.023,0,0,0-1.707.793,3.724,3.724,0,0,0-.605,2.293v.273a3.65,3.65,0,0,0,.6,2.25A2.033,2.033,0,0,0,17.441-1.023Zm4.6-3.281a4.993,4.993,0,0,1,.488-2.234A3.643,3.643,0,0,1,23.891-8.07a3.7,3.7,0,0,1,1.988-.539,3.565,3.565,0,0,1,2.793,1.2,4.6,4.6,0,0,1,1.066,3.18v.1a5.036,5.036,0,0,1-.473,2.215A3.589,3.589,0,0,1,27.914-.391a3.743,3.743,0,0,1-2.02.547,3.556,3.556,0,0,1-2.785-1.2A4.575,4.575,0,0,1,22.043-4.2Zm1.453.172a3.616,3.616,0,0,0,.652,2.258,2.088,2.088,0,0,0,1.746.852,2.075,2.075,0,0,0,1.75-.863A3.955,3.955,0,0,0,28.293-4.3a3.61,3.61,0,0,0-.66-2.254,2.1,2.1,0,0,0-1.754-.863,2.075,2.075,0,0,0-1.727.852A3.925,3.925,0,0,0,23.5-4.133ZM35.637-7.156a4.331,4.331,0,0,0-.711-.055A1.9,1.9,0,0,0,33-6V0H31.551V-8.453h1.406l.023.977A2.251,2.251,0,0,1,35-8.609a1.477,1.477,0,0,1,.641.109Zm5.414,0a4.331,4.331,0,0,0-.711-.055A1.9,1.9,0,0,0,38.41-6V0H36.965V-8.453h1.406l.023.977A2.251,2.251,0,0,1,40.41-8.609a1.477,1.477,0,0,1,.641.109ZM43.949,0H42.5V-8.453h1.445ZM42.387-10.7a.863.863,0,0,1,.215-.594.807.807,0,0,1,.637-.242.819.819,0,0,1,.641.242.854.854,0,0,1,.219.594.826.826,0,0,1-.219.586.834.834,0,0,1-.641.234.821.821,0,0,1-.637-.234A.834.834,0,0,1,42.387-10.7ZM45.91-4.3a4.952,4.952,0,0,1,.922-3.129,2.915,2.915,0,0,1,2.414-1.184A2.932,2.932,0,0,1,51.6-7.594V-12h1.445V0H51.715l-.07-.906A2.943,2.943,0,0,1,49.23.156a2.887,2.887,0,0,1-2.395-1.2,5.008,5.008,0,0,1-.926-3.141Zm1.445.164a3.749,3.749,0,0,0,.594,2.25,1.92,1.92,0,0,0,1.641.813A2.108,2.108,0,0,0,51.6-2.3V-6.187a2.125,2.125,0,0,0-1.992-1.2,1.929,1.929,0,0,0-1.656.82A4.128,4.128,0,0,0,47.355-4.133ZM54.9-4.3a4.993,4.993,0,0,1,.488-2.234A3.643,3.643,0,0,1,56.75-8.07a3.7,3.7,0,0,1,1.988-.539,3.565,3.565,0,0,1,2.793,1.2A4.6,4.6,0,0,1,62.6-4.234v.1a5.036,5.036,0,0,1-.473,2.215A3.589,3.589,0,0,1,60.773-.391a3.743,3.743,0,0,1-2.02.547,3.556,3.556,0,0,1-2.785-1.2A4.575,4.575,0,0,1,54.9-4.2Zm1.453.172a3.616,3.616,0,0,0,.652,2.258,2.088,2.088,0,0,0,1.746.852,2.075,2.075,0,0,0,1.75-.863A3.955,3.955,0,0,0,61.152-4.3a3.61,3.61,0,0,0-.66-2.254,2.1,2.1,0,0,0-1.754-.863,2.075,2.075,0,0,0-1.727.852A3.925,3.925,0,0,0,56.355-4.133Z" transform="translate(1115 3427)" fill="#12263f"/>
      <path id="Trazado_198337" data-name="Trazado 198337" d="M-27.535-11.375l3.719,9.281,3.719-9.281h1.945V0h-1.5V-4.43l.141-4.781L-23.246,0h-1.148l-3.727-9.187.148,4.758V0h-1.5V-11.375ZM-12.223.156a3.693,3.693,0,0,1-2.8-1.129A4.19,4.19,0,0,1-16.1-3.992v-.266a5.073,5.073,0,0,1,.48-2.246,3.748,3.748,0,0,1,1.344-1.547A3.378,3.378,0,0,1-12.4-8.609,3.166,3.166,0,0,1-9.84-7.523a4.7,4.7,0,0,1,.914,3.109v.6h-5.727a3,3,0,0,0,.73,2.02,2.3,2.3,0,0,0,1.777.77,2.517,2.517,0,0,0,1.3-.312,3.259,3.259,0,0,0,.93-.828l.883.688A3.55,3.55,0,0,1-12.223.156Zm-.18-7.578a1.928,1.928,0,0,0-1.469.637A3.1,3.1,0,0,0-14.605-5h4.234v-.109a2.753,2.753,0,0,0-.594-1.707A1.815,1.815,0,0,0-12.4-7.422Zm4.8,3.125a4.952,4.952,0,0,1,.922-3.129A2.915,2.915,0,0,1-4.27-8.609,2.932,2.932,0,0,1-1.918-7.594V-12H-.473V0H-1.8l-.07-.906A2.943,2.943,0,0,1-4.285.156a2.887,2.887,0,0,1-2.395-1.2,5.008,5.008,0,0,1-.926-3.141Zm1.445.164a3.749,3.749,0,0,0,.594,2.25,1.92,1.92,0,0,0,1.641.813A2.108,2.108,0,0,0-1.918-2.3V-6.187a2.125,2.125,0,0,0-1.992-1.2,1.929,1.929,0,0,0-1.656.82A4.128,4.128,0,0,0-6.16-4.133ZM3.34,0H1.895V-8.453H3.34ZM1.777-10.7a.863.863,0,0,1,.215-.594.807.807,0,0,1,.637-.242.819.819,0,0,1,.641.242.854.854,0,0,1,.219.594.826.826,0,0,1-.219.586.834.834,0,0,1-.641.234.821.821,0,0,1-.637-.234A.834.834,0,0,1,1.777-10.7ZM10.871,0a3.036,3.036,0,0,1-.2-.891A3.225,3.225,0,0,1,8.262.156,2.984,2.984,0,0,1,6.211-.551a2.287,2.287,0,0,1-.8-1.793,2.39,2.39,0,0,1,1-2.051,4.733,4.733,0,0,1,2.824-.73h1.406v-.664A1.623,1.623,0,0,0,10.191-7a1.821,1.821,0,0,0-1.336-.449,2.107,2.107,0,0,0-1.3.391,1.151,1.151,0,0,0-.523.945H5.582a2,2,0,0,1,.449-1.223A3.066,3.066,0,0,1,7.25-8.266a4.1,4.1,0,0,1,1.691-.344,3.342,3.342,0,0,1,2.289.73,2.635,2.635,0,0,1,.859,2.012v3.891a4.757,4.757,0,0,0,.3,1.852V0Zm-2.4-1.1a2.54,2.54,0,0,0,1.289-.352,2.127,2.127,0,0,0,.883-.914V-4.1H9.512q-2.656,0-2.656,1.555a1.316,1.316,0,0,0,.453,1.063A1.742,1.742,0,0,0,8.473-1.1Zm7.25-7.352.047,1.063A3.08,3.08,0,0,1,18.3-8.609q2.68,0,2.7,3.023V0H19.559V-5.594a1.946,1.946,0,0,0-.418-1.352,1.675,1.675,0,0,0-1.277-.437,2.086,2.086,0,0,0-1.234.375,2.546,2.546,0,0,0-.828.984V0H14.355V-8.453ZM28.4,0a3.036,3.036,0,0,1-.2-.891A3.225,3.225,0,0,1,25.793.156a2.984,2.984,0,0,1-2.051-.707,2.287,2.287,0,0,1-.8-1.793,2.39,2.39,0,0,1,1-2.051,4.733,4.733,0,0,1,2.824-.73h1.406v-.664A1.623,1.623,0,0,0,27.723-7a1.821,1.821,0,0,0-1.336-.449,2.108,2.108,0,0,0-1.3.391,1.151,1.151,0,0,0-.523.945H23.113a2,2,0,0,1,.449-1.223,3.066,3.066,0,0,1,1.219-.934,4.1,4.1,0,0,1,1.691-.344,3.342,3.342,0,0,1,2.289.73,2.635,2.635,0,0,1,.859,2.012v3.891a4.757,4.757,0,0,0,.3,1.852V0ZM26-1.1a2.54,2.54,0,0,0,1.289-.352,2.127,2.127,0,0,0,.883-.914V-4.1H27.043q-2.656,0-2.656,1.555a1.316,1.316,0,0,0,.453,1.063A1.742,1.742,0,0,0,26-1.1Z" transform="translate(1115 3075)" fill="#12263f"/>
      <path id="Trazado_198340" data-name="Trazado 198340" d="M-24.6,0V-11.375h3.211a5.169,5.169,0,0,1,2.625.656A4.438,4.438,0,0,1-17-8.852a6.078,6.078,0,0,1,.629,2.781v.727a6.1,6.1,0,0,1-.621,2.82A4.369,4.369,0,0,1-18.766-.664,5.5,5.5,0,0,1-21.449,0Zm1.5-10.148v8.922h1.578a3.434,3.434,0,0,0,2.7-1.079,4.458,4.458,0,0,0,.965-3.073v-.665a4.529,4.529,0,0,0-.91-3.014,3.239,3.239,0,0,0-2.582-1.091ZM-10.824.156a3.693,3.693,0,0,1-2.8-1.129A4.19,4.19,0,0,1-14.7-3.992v-.266a5.073,5.073,0,0,1,.48-2.246,3.748,3.748,0,0,1,1.344-1.547A3.378,3.378,0,0,1-11-8.609,3.166,3.166,0,0,1-8.441-7.523a4.7,4.7,0,0,1,.914,3.109v.6h-5.727a3,3,0,0,0,.73,2.02,2.3,2.3,0,0,0,1.777.77,2.517,2.517,0,0,0,1.3-.312,3.259,3.259,0,0,0,.93-.828l.883.688A3.55,3.55,0,0,1-10.824.156ZM-11-7.422a1.928,1.928,0,0,0-1.469.637A3.1,3.1,0,0,0-13.207-5h4.234v-.109a2.753,2.753,0,0,0-.594-1.707A1.815,1.815,0,0,0-11-7.422Zm8.539,6.4a2.082,2.082,0,0,0,1.352-.469A1.649,1.649,0,0,0-.473-2.664H.895a2.621,2.621,0,0,1-.5,1.383A3.293,3.293,0,0,1-.836-.234,3.55,3.55,0,0,1-2.465.156,3.482,3.482,0,0,1-5.211-1,4.59,4.59,0,0,1-6.23-4.148v-.242a5.089,5.089,0,0,1,.453-2.2,3.451,3.451,0,0,1,1.3-1.492,3.7,3.7,0,0,1,2-.531,3.39,3.39,0,0,1,2.363.852,3.043,3.043,0,0,1,1,2.211H-.473a1.992,1.992,0,0,0-.621-1.348,1.932,1.932,0,0,0-1.379-.527,2.023,2.023,0,0,0-1.707.793,3.724,3.724,0,0,0-.605,2.293v.273a3.65,3.65,0,0,0,.6,2.25A2.033,2.033,0,0,0-2.465-1.023ZM4.09,0H2.645V-8.453H4.09ZM2.527-10.7a.863.863,0,0,1,.215-.594.807.807,0,0,1,.637-.242.819.819,0,0,1,.641.242.854.854,0,0,1,.219.594.826.826,0,0,1-.219.586.834.834,0,0,1-.641.234.821.821,0,0,1-.637-.234A.834.834,0,0,1,2.527-10.7ZM7.973,0H6.527V-12H7.973Zm5.82.156A3.693,3.693,0,0,1,11-.973a4.19,4.19,0,0,1-1.078-3.02v-.266A5.073,5.073,0,0,1,10.4-6.5a3.748,3.748,0,0,1,1.344-1.547,3.378,3.378,0,0,1,1.871-.559,3.166,3.166,0,0,1,2.563,1.086,4.7,4.7,0,0,1,.914,3.109v.6H11.363a3,3,0,0,0,.73,2.02,2.3,2.3,0,0,0,1.777.77,2.517,2.517,0,0,0,1.3-.312,3.259,3.259,0,0,0,.93-.828l.883.688A3.55,3.55,0,0,1,13.793.156Zm-.18-7.578a1.928,1.928,0,0,0-1.469.637A3.1,3.1,0,0,0,11.41-5h4.234v-.109a2.753,2.753,0,0,0-.594-1.707A1.815,1.815,0,0,0,13.613-7.422Zm10.07,5.18a1.064,1.064,0,0,0-.441-.91A4.249,4.249,0,0,0,21.7-3.711a7.277,7.277,0,0,1-1.742-.562,2.479,2.479,0,0,1-.953-.781A1.869,1.869,0,0,1,18.7-6.133a2.193,2.193,0,0,1,.879-1.758,3.432,3.432,0,0,1,2.246-.719,3.532,3.532,0,0,1,2.332.742,2.357,2.357,0,0,1,.895,1.9H23.6a1.3,1.3,0,0,0-.5-1.023,1.888,1.888,0,0,0-1.27-.43,1.976,1.976,0,0,0-1.234.344,1.082,1.082,0,0,0-.445.9.877.877,0,0,0,.414.789,5.1,5.1,0,0,0,1.5.508,7.8,7.8,0,0,1,1.754.578,2.558,2.558,0,0,1,1,.809,1.988,1.988,0,0,1,.324,1.152,2.163,2.163,0,0,1-.906,1.816,3.8,3.8,0,0,1-2.352.684,4.257,4.257,0,0,1-1.8-.359,2.922,2.922,0,0,1-1.223-1A2.42,2.42,0,0,1,18.41-2.6h1.445a1.5,1.5,0,0,0,.582,1.152,2.258,2.258,0,0,0,1.434.426,2.331,2.331,0,0,0,1.316-.332A1.02,1.02,0,0,0,23.684-2.242Z" transform="translate(1115 3279)" fill="#12263f"/>
      <path id="Trazado_198343" data-name="Trazado 198343" d="M-61.6,0V-11.375h3.211a5.169,5.169,0,0,1,2.625.656A4.438,4.438,0,0,1-54-8.852a6.078,6.078,0,0,1,.629,2.781v.727a6.1,6.1,0,0,1-.621,2.82A4.369,4.369,0,0,1-55.766-.664,5.5,5.5,0,0,1-58.449,0Zm1.5-10.148v8.922h1.578a3.434,3.434,0,0,0,2.7-1.079,4.458,4.458,0,0,0,.965-3.073v-.665a4.529,4.529,0,0,0-.91-3.014,3.239,3.239,0,0,0-2.582-1.091ZM-47.824.156a3.693,3.693,0,0,1-2.8-1.129A4.19,4.19,0,0,1-51.7-3.992v-.266a5.073,5.073,0,0,1,.48-2.246,3.748,3.748,0,0,1,1.344-1.547A3.378,3.378,0,0,1-48-8.609a3.166,3.166,0,0,1,2.563,1.086,4.7,4.7,0,0,1,.914,3.109v.6h-5.727a3,3,0,0,0,.73,2.02,2.3,2.3,0,0,0,1.777.77,2.517,2.517,0,0,0,1.3-.312,3.259,3.259,0,0,0,.93-.828l.883.688A3.55,3.55,0,0,1-47.824.156ZM-48-7.422a1.928,1.928,0,0,0-1.469.637A3.1,3.1,0,0,0-50.207-5h4.234v-.109a2.753,2.753,0,0,0-.594-1.707A1.815,1.815,0,0,0-48-7.422Zm10.07,5.18a1.064,1.064,0,0,0-.441-.91,4.249,4.249,0,0,0-1.539-.559,7.277,7.277,0,0,1-1.742-.562,2.479,2.479,0,0,1-.953-.781,1.869,1.869,0,0,1-.309-1.078,2.193,2.193,0,0,1,.879-1.758,3.432,3.432,0,0,1,2.246-.719,3.532,3.532,0,0,1,2.332.742,2.357,2.357,0,0,1,.895,1.9H-38.02a1.3,1.3,0,0,0-.5-1.023,1.888,1.888,0,0,0-1.27-.43,1.976,1.976,0,0,0-1.234.344,1.082,1.082,0,0,0-.445.9.877.877,0,0,0,.414.789,5.1,5.1,0,0,0,1.5.508,7.8,7.8,0,0,1,1.754.578,2.558,2.558,0,0,1,1,.809,1.988,1.988,0,0,1,.324,1.152,2.163,2.163,0,0,1-.906,1.816,3.8,3.8,0,0,1-2.352.684,4.257,4.257,0,0,1-1.8-.359,2.922,2.922,0,0,1-1.223-1A2.42,2.42,0,0,1-43.207-2.6h1.445a1.5,1.5,0,0,0,.582,1.152,2.258,2.258,0,0,0,1.434.426,2.331,2.331,0,0,0,1.316-.332A1.02,1.02,0,0,0-37.934-2.242Zm6.117.281,2.094-6.492h1.477L-31.277,0h-1.1l-3.062-8.453h1.477ZM-25.285,0H-26.73V-8.453h1.445Zm-1.562-10.7a.863.863,0,0,1,.215-.594A.807.807,0,0,1-26-11.531a.819.819,0,0,1,.641.242.854.854,0,0,1,.219.594.826.826,0,0,1-.219.586A.834.834,0,0,1-26-9.875a.821.821,0,0,1-.637-.234A.834.834,0,0,1-26.848-10.7ZM-17.754,0a3.036,3.036,0,0,1-.2-.891A3.225,3.225,0,0,1-20.363.156a2.984,2.984,0,0,1-2.051-.707,2.287,2.287,0,0,1-.8-1.793,2.39,2.39,0,0,1,1-2.051,4.733,4.733,0,0,1,2.824-.73h1.406v-.664A1.623,1.623,0,0,0-18.434-7a1.821,1.821,0,0,0-1.336-.449,2.108,2.108,0,0,0-1.3.391,1.151,1.151,0,0,0-.523.945h-1.453a2,2,0,0,1,.449-1.223,3.066,3.066,0,0,1,1.219-.934,4.1,4.1,0,0,1,1.691-.344,3.342,3.342,0,0,1,2.289.73,2.635,2.635,0,0,1,.859,2.012v3.891a4.757,4.757,0,0,0,.3,1.852V0Zm-2.4-1.1a2.54,2.54,0,0,0,1.289-.352,2.127,2.127,0,0,0,.883-.914V-4.1h-1.133q-2.656,0-2.656,1.555a1.316,1.316,0,0,0,.453,1.063A1.742,1.742,0,0,0-20.152-1.1Zm9.273.078a2.082,2.082,0,0,0,1.352-.469,1.649,1.649,0,0,0,.641-1.172H-7.52a2.621,2.621,0,0,1-.5,1.383A3.293,3.293,0,0,1-9.25-.234a3.55,3.55,0,0,1-1.629.391A3.482,3.482,0,0,1-13.625-1a4.59,4.59,0,0,1-1.02-3.152v-.242a5.089,5.089,0,0,1,.453-2.2,3.451,3.451,0,0,1,1.3-1.492,3.7,3.7,0,0,1,2-.531,3.39,3.39,0,0,1,2.363.852,3.043,3.043,0,0,1,1,2.211H-8.887a1.992,1.992,0,0,0-.621-1.348,1.932,1.932,0,0,0-1.379-.527,2.023,2.023,0,0,0-1.707.793A3.724,3.724,0,0,0-13.2-4.336v.273a3.65,3.65,0,0,0,.6,2.25A2.033,2.033,0,0,0-10.879-1.023ZM-4.324,0H-5.77V-8.453h1.445ZM-5.887-10.7a.863.863,0,0,1,.215-.594.807.807,0,0,1,.637-.242.819.819,0,0,1,.641.242.854.854,0,0,1,.219.594.826.826,0,0,1-.219.586.834.834,0,0,1-.641.234.821.821,0,0,1-.637-.234A.834.834,0,0,1-5.887-10.7ZM-2.395-4.3a4.993,4.993,0,0,1,.488-2.234A3.643,3.643,0,0,1-.547-8.07a3.7,3.7,0,0,1,1.988-.539,3.565,3.565,0,0,1,2.793,1.2A4.6,4.6,0,0,1,5.3-4.234v.1a5.036,5.036,0,0,1-.473,2.215A3.589,3.589,0,0,1,3.477-.391a3.743,3.743,0,0,1-2.02.547,3.556,3.556,0,0,1-2.785-1.2A4.575,4.575,0,0,1-2.395-4.2Zm1.453.172A3.616,3.616,0,0,0-.289-1.875a2.088,2.088,0,0,0,1.746.852,2.075,2.075,0,0,0,1.75-.863A3.955,3.955,0,0,0,3.855-4.3,3.61,3.61,0,0,0,3.2-6.559a2.1,2.1,0,0,0-1.754-.863A2.075,2.075,0,0,0-.285-6.57,3.925,3.925,0,0,0-.941-4.133ZM2.1-11.984h1.75l-2.094,2.3-1.164,0ZM8.48-8.453l.047,1.063a3.08,3.08,0,0,1,2.531-1.219q2.68,0,2.7,3.023V0H12.316V-5.594A1.946,1.946,0,0,0,11.9-6.945a1.675,1.675,0,0,0-1.277-.437,2.086,2.086,0,0,0-1.234.375,2.546,2.546,0,0,0-.828.984V0H7.113V-8.453Zm12.781,0,.039.938a3.122,3.122,0,0,1,2.508-1.094A2.417,2.417,0,0,1,26.223-7.25a3.2,3.2,0,0,1,1.1-.984,3.242,3.242,0,0,1,1.6-.375q2.781,0,2.828,2.945V0H30.3V-5.578a1.941,1.941,0,0,0-.414-1.355A1.823,1.823,0,0,0,28.5-7.383a1.916,1.916,0,0,0-1.336.48,1.949,1.949,0,0,0-.617,1.293V0H25.09V-5.539a1.613,1.613,0,0,0-1.8-1.844A1.934,1.934,0,0,0,21.34-6.172V0H19.895V-8.453ZM37.434.156a3.693,3.693,0,0,1-2.8-1.129,4.19,4.19,0,0,1-1.078-3.02v-.266a5.073,5.073,0,0,1,.48-2.246,3.748,3.748,0,0,1,1.344-1.547,3.378,3.378,0,0,1,1.871-.559,3.166,3.166,0,0,1,2.563,1.086,4.7,4.7,0,0,1,.914,3.109v.6H35a3,3,0,0,0,.73,2.02,2.3,2.3,0,0,0,1.777.77,2.517,2.517,0,0,0,1.3-.312,3.259,3.259,0,0,0,.93-.828l.883.688A3.55,3.55,0,0,1,37.434.156Zm-.18-7.578a1.928,1.928,0,0,0-1.469.637A3.1,3.1,0,0,0,35.051-5h4.234v-.109a2.753,2.753,0,0,0-.594-1.707A1.815,1.815,0,0,0,37.254-7.422Zm4.8,3.125a4.952,4.952,0,0,1,.922-3.129,2.915,2.915,0,0,1,2.414-1.184,2.932,2.932,0,0,1,2.352,1.016V-12h1.445V0H47.855l-.07-.906A2.943,2.943,0,0,1,45.371.156a2.887,2.887,0,0,1-2.395-1.2,5.008,5.008,0,0,1-.926-3.141Zm1.445.164a3.749,3.749,0,0,0,.594,2.25,1.92,1.92,0,0,0,1.641.813A2.108,2.108,0,0,0,47.738-2.3V-6.187a2.125,2.125,0,0,0-1.992-1.2,1.929,1.929,0,0,0-1.656.82A4.128,4.128,0,0,0,43.5-4.133ZM53,0H51.551V-8.453H53ZM51.434-10.7a.863.863,0,0,1,.215-.594.807.807,0,0,1,.637-.242.819.819,0,0,1,.641.242.854.854,0,0,1,.219.594.826.826,0,0,1-.219.586.834.834,0,0,1-.641.234.821.821,0,0,1-.637-.234A.834.834,0,0,1,51.434-10.7ZM60.527,0a3.036,3.036,0,0,1-.2-.891A3.225,3.225,0,0,1,57.918.156a2.984,2.984,0,0,1-2.051-.707,2.287,2.287,0,0,1-.8-1.793,2.39,2.39,0,0,1,1-2.051,4.733,4.733,0,0,1,2.824-.73H60.3v-.664A1.623,1.623,0,0,0,59.848-7a1.821,1.821,0,0,0-1.336-.449,2.107,2.107,0,0,0-1.3.391,1.151,1.151,0,0,0-.523.945H55.238a2,2,0,0,1,.449-1.223,3.066,3.066,0,0,1,1.219-.934A4.1,4.1,0,0,1,58.6-8.609a3.342,3.342,0,0,1,2.289.73,2.635,2.635,0,0,1,.859,2.012v3.891a4.757,4.757,0,0,0,.3,1.852V0Zm-2.4-1.1a2.54,2.54,0,0,0,1.289-.352,2.127,2.127,0,0,0,.883-.914V-4.1H59.168q-2.656,0-2.656,1.555a1.316,1.316,0,0,0,.453,1.063A1.742,1.742,0,0,0,58.129-1.1Z" transform="translate(1115 3483)" fill="#12263f"/>
      <path id="Trazado_198338" data-name="Trazado 198338" d="M-17.152-11.375l3.719,9.281,3.719-9.281H-7.77V0h-1.5V-4.43l.141-4.781L-12.863,0h-1.148l-3.727-9.187.148,4.758V0h-1.5V-11.375ZM-5.73-4.3a4.993,4.993,0,0,1,.488-2.234A3.643,3.643,0,0,1-3.883-8.07a3.7,3.7,0,0,1,1.988-.539A3.565,3.565,0,0,1,.9-7.414a4.6,4.6,0,0,1,1.066,3.18v.1a5.036,5.036,0,0,1-.473,2.215A3.589,3.589,0,0,1,.141-.391a3.743,3.743,0,0,1-2.02.547,3.556,3.556,0,0,1-2.785-1.2A4.575,4.575,0,0,1-5.73-4.2Zm1.453.172a3.616,3.616,0,0,0,.652,2.258,2.088,2.088,0,0,0,1.746.852,2.075,2.075,0,0,0,1.75-.863A3.955,3.955,0,0,0,.52-4.3a3.61,3.61,0,0,0-.66-2.254,2.1,2.1,0,0,0-1.754-.863,2.075,2.075,0,0,0-1.727.852A3.925,3.925,0,0,0-4.277-4.133Zm7.7-.164a4.952,4.952,0,0,1,.922-3.129A2.915,2.915,0,0,1,6.762-8.609,2.932,2.932,0,0,1,9.113-7.594V-12h1.445V0H9.23L9.16-.906A2.943,2.943,0,0,1,6.746.156a2.887,2.887,0,0,1-2.395-1.2,5.008,5.008,0,0,1-.926-3.141Zm1.445.164a3.749,3.749,0,0,0,.594,2.25,1.92,1.92,0,0,0,1.641.813A2.108,2.108,0,0,0,9.113-2.3V-6.187a2.125,2.125,0,0,0-1.992-1.2,1.929,1.929,0,0,0-1.656.82A4.128,4.128,0,0,0,4.871-4.133ZM18.02,0a3.036,3.036,0,0,1-.2-.891A3.225,3.225,0,0,1,15.41.156a2.984,2.984,0,0,1-2.051-.707,2.287,2.287,0,0,1-.8-1.793,2.39,2.39,0,0,1,1-2.051,4.733,4.733,0,0,1,2.824-.73h1.406v-.664A1.623,1.623,0,0,0,17.34-7,1.821,1.821,0,0,0,16-7.445a2.107,2.107,0,0,0-1.3.391,1.151,1.151,0,0,0-.523.945H12.73a2,2,0,0,1,.449-1.223A3.066,3.066,0,0,1,14.4-8.266a4.1,4.1,0,0,1,1.691-.344,3.342,3.342,0,0,1,2.289.73,2.635,2.635,0,0,1,.859,2.012v3.891a4.757,4.757,0,0,0,.3,1.852V0Zm-2.4-1.1a2.54,2.54,0,0,0,1.289-.352,2.127,2.127,0,0,0,.883-.914V-4.1H16.66Q14-4.1,14-2.547a1.316,1.316,0,0,0,.453,1.063A1.742,1.742,0,0,0,15.621-1.1Z" transform="translate(1115 3131)" fill="#12263f"/>
      <path id="Trazado_198341" data-name="Trazado 198341" d="M-36.746-4.453V0h-1.5V-11.375h4.2a4.215,4.215,0,0,1,2.926.953A3.231,3.231,0,0,1-30.066-7.9,3.189,3.189,0,0,1-31.1-5.348a4.4,4.4,0,0,1-2.965.895Zm0-1.227h2.7a2.7,2.7,0,0,0,1.844-.567,2.075,2.075,0,0,0,.641-1.64,2.143,2.143,0,0,0-.641-1.628,2.525,2.525,0,0,0-1.758-.634h-2.781ZM-24.973.156a3.693,3.693,0,0,1-2.8-1.129,4.19,4.19,0,0,1-1.078-3.02v-.266a5.073,5.073,0,0,1,.48-2.246,3.748,3.748,0,0,1,1.344-1.547,3.378,3.378,0,0,1,1.871-.559A3.166,3.166,0,0,1-22.59-7.523a4.7,4.7,0,0,1,.914,3.109v.6H-27.4a3,3,0,0,0,.73,2.02,2.3,2.3,0,0,0,1.777.77,2.517,2.517,0,0,0,1.3-.312,3.259,3.259,0,0,0,.93-.828l.883.688A3.55,3.55,0,0,1-24.973.156Zm-.18-7.578a1.928,1.928,0,0,0-1.469.637A3.1,3.1,0,0,0-27.355-5h4.234v-.109a2.753,2.753,0,0,0-.594-1.707A1.815,1.815,0,0,0-25.152-7.422Zm9.234.266a4.331,4.331,0,0,0-.711-.055A1.9,1.9,0,0,0-18.559-6V0H-20V-8.453H-18.6l.023.977a2.251,2.251,0,0,1,2.016-1.133,1.477,1.477,0,0,1,.641.109Zm4.57,6.133A2.082,2.082,0,0,0-10-1.492a1.649,1.649,0,0,0,.641-1.172h1.367a2.621,2.621,0,0,1-.5,1.383A3.293,3.293,0,0,1-9.719-.234a3.55,3.55,0,0,1-1.629.391A3.482,3.482,0,0,1-14.094-1a4.59,4.59,0,0,1-1.02-3.152v-.242a5.089,5.089,0,0,1,.453-2.2,3.451,3.451,0,0,1,1.3-1.492,3.7,3.7,0,0,1,2-.531,3.39,3.39,0,0,1,2.363.852,3.043,3.043,0,0,1,1,2.211H-9.355a1.992,1.992,0,0,0-.621-1.348,1.932,1.932,0,0,0-1.379-.527,2.023,2.023,0,0,0-1.707.793,3.724,3.724,0,0,0-.605,2.293v.273a3.65,3.65,0,0,0,.6,2.25A2.033,2.033,0,0,0-11.348-1.023ZM-2.855.156a3.693,3.693,0,0,1-2.8-1.129A4.19,4.19,0,0,1-6.73-3.992v-.266A5.073,5.073,0,0,1-6.25-6.5,3.748,3.748,0,0,1-4.906-8.051a3.378,3.378,0,0,1,1.871-.559A3.166,3.166,0,0,1-.473-7.523,4.7,4.7,0,0,1,.441-4.414v.6H-5.285a3,3,0,0,0,.73,2.02,2.3,2.3,0,0,0,1.777.77,2.517,2.517,0,0,0,1.3-.312,3.259,3.259,0,0,0,.93-.828l.883.688A3.55,3.55,0,0,1-2.855.156Zm-.18-7.578A1.928,1.928,0,0,0-4.5-6.785,3.1,3.1,0,0,0-5.238-5H-1v-.109A2.753,2.753,0,0,0-1.6-6.816,1.815,1.815,0,0,0-3.035-7.422ZM3.48-8.453l.047,1.063A3.08,3.08,0,0,1,6.059-8.609q2.68,0,2.7,3.023V0H7.316V-5.594A1.946,1.946,0,0,0,6.9-6.945a1.675,1.675,0,0,0-1.277-.437,2.086,2.086,0,0,0-1.234.375,2.546,2.546,0,0,0-.828.984V0H2.113V-8.453ZM12.9-10.5v2.047H14.48v1.117H12.9v5.249a1.173,1.173,0,0,0,.211.763.888.888,0,0,0,.719.254,3.5,3.5,0,0,0,.688-.094V0A4.215,4.215,0,0,1,13.41.156,1.8,1.8,0,0,1,11.949-.43a2.517,2.517,0,0,1-.492-1.664V-7.336H9.918V-8.453h1.539V-10.5ZM17.738,0H16.293V-8.453h1.445ZM16.176-10.7a.863.863,0,0,1,.215-.594.807.807,0,0,1,.637-.242.819.819,0,0,1,.641.242.854.854,0,0,1,.219.594.826.826,0,0,1-.219.586.834.834,0,0,1-.641.234.821.821,0,0,1-.637-.234A.834.834,0,0,1,16.176-10.7ZM21.621,0H20.176V-12h1.445Zm5.82.156a3.693,3.693,0,0,1-2.8-1.129,4.19,4.19,0,0,1-1.078-3.02v-.266a5.073,5.073,0,0,1,.48-2.246,3.748,3.748,0,0,1,1.344-1.547,3.378,3.378,0,0,1,1.871-.559,3.166,3.166,0,0,1,2.563,1.086,4.7,4.7,0,0,1,.914,3.109v.6H25.012a3,3,0,0,0,.73,2.02,2.3,2.3,0,0,0,1.777.77,2.517,2.517,0,0,0,1.3-.312,3.259,3.259,0,0,0,.93-.828l.883.688A3.55,3.55,0,0,1,27.441.156Zm-.18-7.578a1.928,1.928,0,0,0-1.469.637A3.1,3.1,0,0,0,25.059-5h4.234v-.109A2.753,2.753,0,0,0,28.7-6.816,1.815,1.815,0,0,0,27.262-7.422Zm10.07,5.18a1.064,1.064,0,0,0-.441-.91,4.249,4.249,0,0,0-1.539-.559,7.277,7.277,0,0,1-1.742-.562,2.479,2.479,0,0,1-.953-.781,1.869,1.869,0,0,1-.309-1.078,2.193,2.193,0,0,1,.879-1.758,3.432,3.432,0,0,1,2.246-.719,3.532,3.532,0,0,1,2.332.742,2.357,2.357,0,0,1,.895,1.9H37.246a1.3,1.3,0,0,0-.5-1.023,1.888,1.888,0,0,0-1.27-.43,1.976,1.976,0,0,0-1.234.344,1.082,1.082,0,0,0-.445.9.877.877,0,0,0,.414.789,5.1,5.1,0,0,0,1.5.508,7.8,7.8,0,0,1,1.754.578,2.558,2.558,0,0,1,1,.809,1.988,1.988,0,0,1,.324,1.152,2.163,2.163,0,0,1-.906,1.816A3.8,3.8,0,0,1,35.52.156a4.257,4.257,0,0,1-1.8-.359,2.922,2.922,0,0,1-1.223-1A2.42,2.42,0,0,1,32.059-2.6H33.5a1.5,1.5,0,0,0,.582,1.152,2.258,2.258,0,0,0,1.434.426,2.331,2.331,0,0,0,1.316-.332A1.02,1.02,0,0,0,37.332-2.242Z" transform="translate(1115 3335)" fill="#12263f"/>
      <path id="Trazado_198344" data-name="Trazado 198344" d="M-25.906-1.992l3.25-9.383h1.641L-25.234,0h-1.328l-4.211-11.375h1.633ZM-14.859,0a3.036,3.036,0,0,1-.2-.891A3.225,3.225,0,0,1-17.469.156,2.984,2.984,0,0,1-19.52-.551a2.287,2.287,0,0,1-.8-1.793,2.39,2.39,0,0,1,1-2.051,4.733,4.733,0,0,1,2.824-.73h1.406v-.664A1.623,1.623,0,0,0-15.539-7a1.821,1.821,0,0,0-1.336-.449,2.108,2.108,0,0,0-1.3.391,1.151,1.151,0,0,0-.523.945h-1.453A2,2,0,0,1-19.7-7.332a3.066,3.066,0,0,1,1.219-.934,4.1,4.1,0,0,1,1.691-.344,3.342,3.342,0,0,1,2.289.73,2.635,2.635,0,0,1,.859,2.012v3.891a4.757,4.757,0,0,0,.3,1.852V0Zm-2.4-1.1a2.54,2.54,0,0,0,1.289-.352,2.127,2.127,0,0,0,.883-.914V-4.1h-1.133q-2.656,0-2.656,1.555a1.316,1.316,0,0,0,.453,1.063A1.742,1.742,0,0,0-17.258-1.1Zm9.969-6.055A4.331,4.331,0,0,0-8-7.211,1.9,1.9,0,0,0-9.93-6V0h-1.445V-8.453h1.406l.023.977A2.251,2.251,0,0,1-7.93-8.609a1.477,1.477,0,0,1,.641.109ZM-4.391,0H-5.836V-8.453h1.445ZM-5.953-10.7a.863.863,0,0,1,.215-.594.807.807,0,0,1,.637-.242.819.819,0,0,1,.641.242.854.854,0,0,1,.219.594.826.826,0,0,1-.219.586.834.834,0,0,1-.641.234.821.821,0,0,1-.637-.234A.834.834,0,0,1-5.953-10.7ZM3.141,0a3.036,3.036,0,0,1-.2-.891A3.225,3.225,0,0,1,.531.156,2.984,2.984,0,0,1-1.52-.551a2.287,2.287,0,0,1-.8-1.793,2.39,2.39,0,0,1,1-2.051,4.733,4.733,0,0,1,2.824-.73H2.914v-.664A1.623,1.623,0,0,0,2.461-7a1.821,1.821,0,0,0-1.336-.449,2.107,2.107,0,0,0-1.3.391A1.151,1.151,0,0,0-.7-6.109H-2.148A2,2,0,0,1-1.7-7.332,3.066,3.066,0,0,1-.48-8.266a4.1,4.1,0,0,1,1.691-.344,3.342,3.342,0,0,1,2.289.73,2.635,2.635,0,0,1,.859,2.012v3.891a4.757,4.757,0,0,0,.3,1.852V0ZM.742-1.1a2.54,2.54,0,0,0,1.289-.352,2.127,2.127,0,0,0,.883-.914V-4.1H1.781Q-.875-4.1-.875-2.547A1.316,1.316,0,0,0-.422-1.484,1.742,1.742,0,0,0,.742-1.1Zm7.25-7.352.047,1.063A3.08,3.08,0,0,1,10.57-8.609q2.68,0,2.7,3.023V0H11.828V-5.594a1.946,1.946,0,0,0-.418-1.352,1.675,1.675,0,0,0-1.277-.437A2.086,2.086,0,0,0,8.9-7.008a2.546,2.546,0,0,0-.828.984V0H6.625V-8.453Zm8.82,7.273h4.945V0H15.047V-1.062l4.664-6.2H15.117v-1.2h6.406V-7.43ZM28.6,0a3.036,3.036,0,0,1-.2-.891A3.225,3.225,0,0,1,25.992.156a2.984,2.984,0,0,1-2.051-.707,2.287,2.287,0,0,1-.8-1.793,2.39,2.39,0,0,1,1-2.051,4.733,4.733,0,0,1,2.824-.73h1.406v-.664A1.623,1.623,0,0,0,27.922-7a1.821,1.821,0,0,0-1.336-.449,2.108,2.108,0,0,0-1.3.391,1.151,1.151,0,0,0-.523.945H23.313a2,2,0,0,1,.449-1.223,3.066,3.066,0,0,1,1.219-.934,4.1,4.1,0,0,1,1.691-.344,3.342,3.342,0,0,1,2.289.73,2.635,2.635,0,0,1,.859,2.012v3.891a4.757,4.757,0,0,0,.3,1.852V0ZM26.2-1.1a2.54,2.54,0,0,0,1.289-.352,2.127,2.127,0,0,0,.883-.914V-4.1H27.242q-2.656,0-2.656,1.555a1.316,1.316,0,0,0,.453,1.063A1.742,1.742,0,0,0,26.2-1.1Z" transform="translate(1115 3539)" fill="#12263f"/>
      <path id="Trazado_198345" data-name="Trazado 198345" d="M-42.526,0V-12.8H-38.4a6.064,6.064,0,0,1,3.05.769A5.406,5.406,0,0,1-33.24-9.857a6.554,6.554,0,0,1,.769,3.142v.589a6.592,6.592,0,0,1-.743,3.151A5.429,5.429,0,0,1-35.306-.8a5.93,5.93,0,0,1-3.01.8Zm3.085-10.415v8.042h1.072a2.4,2.4,0,0,0,2.039-.945,4.63,4.63,0,0,0,.712-2.808V-6.68a4.592,4.592,0,0,0-.712-2.795,2.442,2.442,0,0,0-2.074-.94ZM-27.9,0h-2.971V-9.51H-27.9Zm-3.146-11.971a1.334,1.334,0,0,1,.457-1.043,1.718,1.718,0,0,1,1.187-.407,1.718,1.718,0,0,1,1.187.407,1.334,1.334,0,0,1,.457,1.043,1.334,1.334,0,0,1-.457,1.043,1.718,1.718,0,0,1-1.187.407,1.718,1.718,0,0,1-1.187-.407A1.334,1.334,0,0,1-31.047-11.971Zm9.949,9.3a.684.684,0,0,0-.4-.606A6.016,6.016,0,0,0-23-3.753,6.853,6.853,0,0,1-24.825-4.4a3.062,3.062,0,0,1-1.1-.971A2.319,2.319,0,0,1-26.3-6.68,2.628,2.628,0,0,1-25.22-8.837a4.453,4.453,0,0,1,2.83-.848,4.934,4.934,0,0,1,3.023.853,2.666,2.666,0,0,1,1.143,2.241h-2.971q0-1.143-1.2-1.143a1.194,1.194,0,0,0-.782.259.8.8,0,0,0-.316.646.737.737,0,0,0,.387.642,3.654,3.654,0,0,0,1.235.4,10.671,10.671,0,0,1,1.49.378A2.706,2.706,0,0,1-18.242-2.76,2.491,2.491,0,0,1-19.4-.642,5.068,5.068,0,0,1-22.39.176a5.172,5.172,0,0,1-2.18-.439,3.645,3.645,0,0,1-1.494-1.2A2.707,2.707,0,0,1-26.6-3.05h2.769a1.145,1.145,0,0,0,.439.962,1.808,1.808,0,0,0,1.081.3,1.422,1.422,0,0,0,.91-.246A.787.787,0,0,0-21.1-2.672ZM-8.029-4.685a5.735,5.735,0,0,1-1,3.538A3.2,3.2,0,0,1-11.72.176a2.742,2.742,0,0,1-2.153-.958V3.656h-2.962V-9.51h2.769l.088.879a2.742,2.742,0,0,1,2.241-1.055A3.224,3.224,0,0,1-9-8.389a5.805,5.805,0,0,1,.976,3.564Zm-2.962-.185q0-2.531-1.477-2.531a1.394,1.394,0,0,0-1.406.756V-2.9a1.439,1.439,0,0,0,1.424.791q1.415,0,1.459-2.443ZM-2.123.176A4.889,4.889,0,0,1-5.665-1.129a4.507,4.507,0,0,1-1.354-3.4v-.246a5.84,5.84,0,0,1,.541-2.575A3.955,3.955,0,0,1-4.9-9.075a4.763,4.763,0,0,1,2.461-.611A4.117,4.117,0,0,1,.725-8.442a4.887,4.887,0,0,1,1.16,3.467v1.151H-4a2.135,2.135,0,0,0,.694,1.257,2.066,2.066,0,0,0,1.389.457,2.662,2.662,0,0,0,2.2-.984l1.354,1.6A3.784,3.784,0,0,1,.062-.277,5.3,5.3,0,0,1-2.123.176ZM-2.457-7.4Q-3.757-7.4-4-5.678h2.988v-.229a1.467,1.467,0,0,0-.36-1.1A1.434,1.434,0,0,0-2.457-7.4Zm11.285.571L7.853-6.9a1.752,1.752,0,0,0-1.793.879V0H3.1V-9.51H5.875l.1,1.222a2.294,2.294,0,0,1,2.083-1.4,2.888,2.888,0,0,1,.826.105Zm6.047,4.157a.684.684,0,0,0-.4-.606,6.016,6.016,0,0,0-1.5-.475A6.853,6.853,0,0,1,11.149-4.4a3.062,3.062,0,0,1-1.1-.971,2.319,2.319,0,0,1-.378-1.31,2.628,2.628,0,0,1,1.081-2.158,4.453,4.453,0,0,1,2.83-.848,4.934,4.934,0,0,1,3.023.853A2.666,2.666,0,0,1,17.75-6.592H14.779q0-1.143-1.2-1.143a1.194,1.194,0,0,0-.782.259.8.8,0,0,0-.316.646.737.737,0,0,0,.387.642,3.654,3.654,0,0,0,1.235.4,10.671,10.671,0,0,1,1.49.378A2.706,2.706,0,0,1,17.732-2.76,2.491,2.491,0,0,1,16.576-.642a5.068,5.068,0,0,1-2.993.817A5.172,5.172,0,0,1,11.4-.264a3.645,3.645,0,0,1-1.494-1.2A2.707,2.707,0,0,1,9.374-3.05h2.769a1.145,1.145,0,0,0,.439.962,1.808,1.808,0,0,0,1.081.3,1.422,1.422,0,0,0,.91-.246A.787.787,0,0,0,14.875-2.672ZM22.241,0H19.27V-9.51h2.971ZM19.094-11.971a1.334,1.334,0,0,1,.457-1.043,1.718,1.718,0,0,1,1.187-.407,1.718,1.718,0,0,1,1.187.407,1.334,1.334,0,0,1,.457,1.043,1.334,1.334,0,0,1-.457,1.043,1.718,1.718,0,0,1-1.187.407,1.718,1.718,0,0,1-1.187-.407A1.334,1.334,0,0,1,19.094-11.971Zm4.6,7.128a5.613,5.613,0,0,1,.554-2.536,3.96,3.96,0,0,1,1.591-1.709,4.791,4.791,0,0,1,2.435-.6,4.373,4.373,0,0,1,3.366,1.323,5.076,5.076,0,0,1,1.23,3.6v.105a4.925,4.925,0,0,1-1.235,3.529A4.384,4.384,0,0,1,28.288.176a4.434,4.434,0,0,1-3.261-1.217,4.761,4.761,0,0,1-1.327-3.3Zm2.962.185a3.538,3.538,0,0,0,.413,1.934,1.376,1.376,0,0,0,1.222.615q1.582,0,1.617-2.435v-.3Q29.9-7.4,28.27-7.4q-1.485,0-1.608,2.206ZM28.674-13.5H31.8L29.36-10.74l-2.417,0Zm8.218,3.99.1,1.116A3.225,3.225,0,0,1,39.7-9.686a2.713,2.713,0,0,1,2.219.888,4.226,4.226,0,0,1,.76,2.672V0H39.713V-6a1.6,1.6,0,0,0-.29-1.059A1.342,1.342,0,0,0,38.369-7.4a1.413,1.413,0,0,0-1.292.686V0H34.115V-9.51Z" transform="translate(800 3483)" fill="#12263f"/>
      <path id="Trazado_197837" data-name="Trazado 197837" d="M-7534-8687h-65.5v114.5h65.5" transform="translate(8554 11700)" fill="none" stroke="#7f4fc7" stroke-width="3"/>
      <path id="Trazado_197843" data-name="Trazado 197843" d="M-7563.5-8687h-36v409.5h36" transform="translate(8268.5 11754.5)" fill="none" stroke="#7f4fc7" stroke-width="3"/>
      <path id="Trazado_197839" data-name="Trazado 197839" d="M-7534-8687h-65.5v114.5h65.5" transform="translate(8554 11902.75)" fill="none" stroke="#7f4fc7" stroke-width="3"/>
      <path id="Trazado_197841" data-name="Trazado 197841" d="M-7534-8687h-65.5v114.5h65.5" transform="translate(8554 12108.5)" fill="none" stroke="#7f4fc7" stroke-width="3"/>
      <path id="Trazado_197838" data-name="Trazado 197838" d="M-7659-8631h125" transform="translate(8554 11700)" fill="none" stroke="#7f4fc7" stroke-width="3"/>
      <path id="Trazado_197840" data-name="Trazado 197840" d="M-7659-8631h375" transform="translate(8304 11902.75)" fill="none" stroke="#7f4fc7" stroke-width="3"/>
      <path id="Trazado_197842" data-name="Trazado 197842" d="M-7659-8631h125" transform="translate(8554 12108.5)" fill="none" stroke="#7f4fc7" stroke-width="3"/>
      <rect id="Rectángulo_46643" data-name="Rectángulo 46643" width="190" height="60" rx="10" transform="translate(705 3243)" fill="#2194e5"/>
      <path id="Trazado_198346" data-name="Trazado 198346" d="M-31.166-4.342V0h-3.085V-12.8h5.106a5.948,5.948,0,0,1,2.6.541A4.074,4.074,0,0,1-24.8-10.718a4.2,4.2,0,0,1,.62,2.263,3.7,3.7,0,0,1-1.34,2.993A5.561,5.561,0,0,1-29.2-4.342Zm0-2.382h2.021a1.906,1.906,0,0,0,1.367-.448,1.665,1.665,0,0,0,.47-1.266,2.059,2.059,0,0,0-.483-1.433,1.712,1.712,0,0,0-1.318-.545h-2.057Zm8.007,1.881a5.613,5.613,0,0,1,.554-2.536,3.96,3.96,0,0,1,1.591-1.709,4.791,4.791,0,0,1,2.435-.6,4.373,4.373,0,0,1,3.366,1.323,5.076,5.076,0,0,1,1.23,3.6v.105a4.925,4.925,0,0,1-1.235,3.529A4.384,4.384,0,0,1-18.562.176a4.434,4.434,0,0,1-3.261-1.217,4.761,4.761,0,0,1-1.327-3.3Zm2.962.185a3.538,3.538,0,0,0,.413,1.934,1.376,1.376,0,0,0,1.222.615q1.582,0,1.617-2.435v-.3q0-2.558-1.635-2.558-1.485,0-1.608,2.206ZM-7.7-2.672a.684.684,0,0,0-.4-.606,6.016,6.016,0,0,0-1.5-.475A6.853,6.853,0,0,1-11.426-4.4a3.062,3.062,0,0,1-1.1-.971A2.319,2.319,0,0,1-12.9-6.68a2.628,2.628,0,0,1,1.081-2.158,4.453,4.453,0,0,1,2.83-.848,4.934,4.934,0,0,1,3.023.853A2.666,2.666,0,0,1-4.825-6.592H-7.8q0-1.143-1.2-1.143a1.194,1.194,0,0,0-.782.259.8.8,0,0,0-.316.646.737.737,0,0,0,.387.642,3.654,3.654,0,0,0,1.235.4,10.671,10.671,0,0,1,1.49.378A2.706,2.706,0,0,1-4.843-2.76,2.491,2.491,0,0,1-6-.642,5.068,5.068,0,0,1-8.991.176a5.172,5.172,0,0,1-2.18-.439,3.645,3.645,0,0,1-1.494-1.2A2.707,2.707,0,0,1-13.2-3.05h2.769a1.145,1.145,0,0,0,.439.962,1.808,1.808,0,0,0,1.081.3A1.422,1.422,0,0,0-8-2.03.787.787,0,0,0-7.7-2.672ZM-.334,0H-3.3V-9.51H-.334ZM-3.48-11.971a1.334,1.334,0,0,1,.457-1.043,1.718,1.718,0,0,1,1.187-.407,1.718,1.718,0,0,1,1.187.407,1.334,1.334,0,0,1,.457,1.043A1.334,1.334,0,0,1-.65-10.927a1.718,1.718,0,0,1-1.187.407,1.718,1.718,0,0,1-1.187-.407A1.334,1.334,0,0,1-3.48-11.971ZM5.511-2.109a1.317,1.317,0,0,0,.967-.338,1.241,1.241,0,0,0,.334-.945H9.589A3.288,3.288,0,0,1,8.468-.826a4.168,4.168,0,0,1-2.887,1,4.22,4.22,0,0,1-3.27-1.3,5.125,5.125,0,0,1-1.2-3.6v-.123A5.792,5.792,0,0,1,1.648-7.4a3.872,3.872,0,0,1,1.534-1.7,4.573,4.573,0,0,1,2.373-.593A4.116,4.116,0,0,1,8.5-8.657a3.647,3.647,0,0,1,1.09,2.786H6.812A1.626,1.626,0,0,0,6.451-7a1.244,1.244,0,0,0-.967-.4Q4.333-7.4,4.14-5.933a10.357,10.357,0,0,0-.062,1.283,4.068,4.068,0,0,0,.343,1.986A1.187,1.187,0,0,0,5.511-2.109ZM13.966,0H11V-9.51h2.971ZM10.819-11.971a1.334,1.334,0,0,1,.457-1.043,1.718,1.718,0,0,1,1.187-.407,1.718,1.718,0,0,1,1.187.407,1.334,1.334,0,0,1,.457,1.043,1.334,1.334,0,0,1-.457,1.043,1.718,1.718,0,0,1-1.187.407,1.718,1.718,0,0,1-1.187-.407A1.334,1.334,0,0,1,10.819-11.971Zm4.6,7.128a5.613,5.613,0,0,1,.554-2.536,3.96,3.96,0,0,1,1.591-1.709A4.791,4.791,0,0,1,20-9.686a4.373,4.373,0,0,1,3.366,1.323,5.076,5.076,0,0,1,1.23,3.6v.105a4.925,4.925,0,0,1-1.235,3.529A4.384,4.384,0,0,1,20.013.176a4.434,4.434,0,0,1-3.261-1.217,4.761,4.761,0,0,1-1.327-3.3Zm2.962.185a3.538,3.538,0,0,0,.413,1.934,1.376,1.376,0,0,0,1.222.615q1.582,0,1.617-2.435v-.3Q21.63-7.4,20-7.4q-1.485,0-1.608,2.206ZM20.4-13.5h3.129l-2.443,2.76-2.417,0Zm8.218,3.99.1,1.116A3.225,3.225,0,0,1,31.43-9.686a2.713,2.713,0,0,1,2.219.888,4.226,4.226,0,0,1,.76,2.672V0H31.438V-6a1.6,1.6,0,0,0-.29-1.059A1.342,1.342,0,0,0,30.094-7.4a1.413,1.413,0,0,0-1.292.686V0H25.84V-9.51Z" transform="translate(800 3279)" fill="#12263f"/>
    </g>
  </g>
</svg>
