<svg xmlns="http://www.w3.org/2000/svg" xmlns:xlink="http://www.w3.org/1999/xlink" width="400.918" height="172.733" viewBox="0 0 400.918 172.733">
  <defs>
    <clipPath id="clip-path">
      <path id="Trazado_194907" data-name="Trazado 194907" d="M0,125.079A71.746,71.746,0,1,0,71.746,53.333,71.744,71.744,0,0,0,0,125.079" transform="translate(0 -53.333)" fill="#7f4fc7"/>
    </clipPath>
  </defs>
  <g id="Grupo_157859" data-name="Grupo 157859" transform="translate(-179.082 -5254.267)">
    <g id="Grupo_157774" data-name="Grupo 157774" transform="translate(128 5046.492)">
      <g id="Grupo_154368" data-name="Grupo 154368">
        <g id="Grupo_154313" data-name="Grupo 154313" transform="translate(58.551 237.015)">
          <g id="Grupo_152768" data-name="Grupo 152768" transform="translate(0 0)" clip-path="url(#clip-path)">
            <path id="Trazado_194826" data-name="Trazado 194826" d="M3.777,55.22A1.888,1.888,0,1,0,1.889,57.11,1.888,1.888,0,0,0,3.777,55.22" transform="translate(0 -53.333)" fill="#7f4fc7"/>
            <path id="Trazado_194827" data-name="Trazado 194827" d="M12.049,55.22a1.888,1.888,0,1,0-1.887,1.889,1.888,1.888,0,0,0,1.887-1.889" transform="translate(9.191 -53.333)" fill="#7f4fc7"/>
            <path id="Trazado_194828" data-name="Trazado 194828" d="M20.322,55.22a1.888,1.888,0,1,0-1.887,1.889,1.888,1.888,0,0,0,1.887-1.889" transform="translate(18.383 -53.333)" fill="#7f4fc7"/>
            <path id="Trazado_194829" data-name="Trazado 194829" d="M28.595,55.22a1.888,1.888,0,1,0-1.887,1.889,1.888,1.888,0,0,0,1.887-1.889" transform="translate(27.576 -53.333)" fill="#7f4fc7"/>
            <path id="Trazado_194830" data-name="Trazado 194830" d="M36.867,55.22a1.888,1.888,0,1,0-1.887,1.889,1.888,1.888,0,0,0,1.887-1.889" transform="translate(36.767 -53.333)" fill="#7f4fc7"/>
            <path id="Trazado_194831" data-name="Trazado 194831" d="M45.14,55.22a1.888,1.888,0,1,0-1.887,1.889A1.888,1.888,0,0,0,45.14,55.22" transform="translate(45.959 -53.333)" fill="#7f4fc7"/>
            <path id="Trazado_194832" data-name="Trazado 194832" d="M53.412,55.22a1.888,1.888,0,1,0-1.887,1.889,1.888,1.888,0,0,0,1.887-1.889" transform="translate(55.15 -53.333)" fill="#7f4fc7"/>
            <path id="Trazado_194833" data-name="Trazado 194833" d="M61.685,55.22A1.888,1.888,0,1,0,59.8,57.11a1.889,1.889,0,0,0,1.887-1.889" transform="translate(64.342 -53.333)" fill="#7f4fc7"/>
            <path id="Trazado_194834" data-name="Trazado 194834" d="M69.958,55.22A1.888,1.888,0,1,0,68.07,57.11a1.888,1.888,0,0,0,1.887-1.889" transform="translate(73.534 -53.333)" fill="#7f4fc7"/>
            <path id="Trazado_194835" data-name="Trazado 194835" d="M3.777,63.493a1.888,1.888,0,1,0-1.887,1.887,1.887,1.887,0,0,0,1.887-1.887" transform="translate(0 -44.141)" fill="#7f4fc7"/>
            <path id="Trazado_194836" data-name="Trazado 194836" d="M12.049,63.493a1.888,1.888,0,1,0-1.887,1.887,1.887,1.887,0,0,0,1.887-1.887" transform="translate(9.191 -44.141)" fill="#7f4fc7"/>
            <path id="Trazado_194837" data-name="Trazado 194837" d="M20.322,63.493a1.888,1.888,0,1,0-1.887,1.887,1.887,1.887,0,0,0,1.887-1.887" transform="translate(18.383 -44.141)" fill="#7f4fc7"/>
            <path id="Trazado_194838" data-name="Trazado 194838" d="M28.595,63.493a1.888,1.888,0,1,0-1.887,1.887,1.887,1.887,0,0,0,1.887-1.887" transform="translate(27.576 -44.141)" fill="#7f4fc7"/>
            <path id="Trazado_194839" data-name="Trazado 194839" d="M36.867,63.493a1.888,1.888,0,1,0-1.887,1.887,1.887,1.887,0,0,0,1.887-1.887" transform="translate(36.767 -44.141)" fill="#7f4fc7"/>
            <path id="Trazado_194840" data-name="Trazado 194840" d="M45.14,63.493a1.888,1.888,0,1,0-1.887,1.887,1.887,1.887,0,0,0,1.887-1.887" transform="translate(45.959 -44.141)" fill="#7f4fc7"/>
            <path id="Trazado_194841" data-name="Trazado 194841" d="M53.412,63.493a1.888,1.888,0,1,0-1.887,1.887,1.887,1.887,0,0,0,1.887-1.887" transform="translate(55.15 -44.141)" fill="#7f4fc7"/>
            <path id="Trazado_194842" data-name="Trazado 194842" d="M61.685,63.493A1.888,1.888,0,1,0,59.8,65.381a1.888,1.888,0,0,0,1.887-1.887" transform="translate(64.342 -44.141)" fill="#7f4fc7"/>
            <path id="Trazado_194843" data-name="Trazado 194843" d="M69.958,63.493a1.888,1.888,0,1,0-1.887,1.887,1.887,1.887,0,0,0,1.887-1.887" transform="translate(73.534 -44.141)" fill="#7f4fc7"/>
            <path id="Trazado_194844" data-name="Trazado 194844" d="M3.777,71.766a1.888,1.888,0,1,0-1.887,1.887,1.887,1.887,0,0,0,1.887-1.887" transform="translate(0 -34.949)" fill="#7f4fc7"/>
            <path id="Trazado_194845" data-name="Trazado 194845" d="M12.049,71.766a1.888,1.888,0,1,0-1.887,1.887,1.887,1.887,0,0,0,1.887-1.887" transform="translate(9.191 -34.949)" fill="#7f4fc7"/>
            <path id="Trazado_194846" data-name="Trazado 194846" d="M20.322,71.766a1.888,1.888,0,1,0-1.887,1.887,1.887,1.887,0,0,0,1.887-1.887" transform="translate(18.383 -34.949)" fill="#7f4fc7"/>
            <path id="Trazado_194847" data-name="Trazado 194847" d="M28.595,71.766a1.888,1.888,0,1,0-1.887,1.887,1.887,1.887,0,0,0,1.887-1.887" transform="translate(27.576 -34.949)" fill="#7f4fc7"/>
            <path id="Trazado_194848" data-name="Trazado 194848" d="M36.867,71.766a1.888,1.888,0,1,0-1.887,1.887,1.887,1.887,0,0,0,1.887-1.887" transform="translate(36.767 -34.949)" fill="#7f4fc7"/>
            <path id="Trazado_194849" data-name="Trazado 194849" d="M45.14,71.766a1.888,1.888,0,1,0-1.887,1.887,1.887,1.887,0,0,0,1.887-1.887" transform="translate(45.959 -34.949)" fill="#7f4fc7"/>
            <path id="Trazado_194850" data-name="Trazado 194850" d="M53.412,71.766a1.888,1.888,0,1,0-1.887,1.887,1.887,1.887,0,0,0,1.887-1.887" transform="translate(55.15 -34.949)" fill="#7f4fc7"/>
            <path id="Trazado_194851" data-name="Trazado 194851" d="M61.685,71.766A1.888,1.888,0,1,0,59.8,73.654a1.888,1.888,0,0,0,1.887-1.887" transform="translate(64.342 -34.949)" fill="#7f4fc7"/>
            <path id="Trazado_194852" data-name="Trazado 194852" d="M69.958,71.766a1.888,1.888,0,1,0-1.887,1.887,1.887,1.887,0,0,0,1.887-1.887" transform="translate(73.534 -34.949)" fill="#7f4fc7"/>
            <path id="Trazado_194853" data-name="Trazado 194853" d="M3.777,80.038a1.888,1.888,0,1,0-1.887,1.887,1.887,1.887,0,0,0,1.887-1.887" transform="translate(0 -25.757)" fill="#7f4fc7"/>
            <path id="Trazado_194854" data-name="Trazado 194854" d="M12.049,80.038a1.888,1.888,0,1,0-1.887,1.887,1.887,1.887,0,0,0,1.887-1.887" transform="translate(9.191 -25.757)" fill="#7f4fc7"/>
            <path id="Trazado_194855" data-name="Trazado 194855" d="M20.322,80.038a1.888,1.888,0,1,0-1.887,1.887,1.887,1.887,0,0,0,1.887-1.887" transform="translate(18.383 -25.757)" fill="#7f4fc7"/>
            <path id="Trazado_194856" data-name="Trazado 194856" d="M28.595,80.038a1.888,1.888,0,1,0-1.887,1.887,1.887,1.887,0,0,0,1.887-1.887" transform="translate(27.576 -25.757)" fill="#7f4fc7"/>
            <path id="Trazado_194857" data-name="Trazado 194857" d="M36.867,80.038a1.888,1.888,0,1,0-1.887,1.887,1.887,1.887,0,0,0,1.887-1.887" transform="translate(36.767 -25.757)" fill="#7f4fc7"/>
            <path id="Trazado_194858" data-name="Trazado 194858" d="M45.14,80.038a1.888,1.888,0,1,0-1.887,1.887,1.887,1.887,0,0,0,1.887-1.887" transform="translate(45.959 -25.757)" fill="#7f4fc7"/>
            <path id="Trazado_194859" data-name="Trazado 194859" d="M53.412,80.038a1.888,1.888,0,1,0-1.887,1.887,1.887,1.887,0,0,0,1.887-1.887" transform="translate(55.15 -25.757)" fill="#7f4fc7"/>
            <path id="Trazado_194860" data-name="Trazado 194860" d="M61.685,80.038A1.888,1.888,0,1,0,59.8,81.926a1.888,1.888,0,0,0,1.887-1.887" transform="translate(64.342 -25.757)" fill="#7f4fc7"/>
            <path id="Trazado_194861" data-name="Trazado 194861" d="M69.958,80.038a1.888,1.888,0,1,0-1.887,1.887,1.887,1.887,0,0,0,1.887-1.887" transform="translate(73.534 -25.757)" fill="#7f4fc7"/>
            <path id="Trazado_194862" data-name="Trazado 194862" d="M3.777,88.311A1.888,1.888,0,1,0,1.889,90.2a1.887,1.887,0,0,0,1.887-1.889" transform="translate(0 -16.565)" fill="#7f4fc7"/>
            <path id="Trazado_194863" data-name="Trazado 194863" d="M12.049,88.311A1.888,1.888,0,1,0,10.161,90.2a1.887,1.887,0,0,0,1.887-1.889" transform="translate(9.191 -16.565)" fill="#7f4fc7"/>
            <path id="Trazado_194864" data-name="Trazado 194864" d="M20.322,88.311A1.888,1.888,0,1,0,18.434,90.2a1.887,1.887,0,0,0,1.887-1.889" transform="translate(18.383 -16.565)" fill="#7f4fc7"/>
            <path id="Trazado_194865" data-name="Trazado 194865" d="M28.595,88.311A1.888,1.888,0,1,0,26.707,90.2a1.887,1.887,0,0,0,1.887-1.889" transform="translate(27.576 -16.565)" fill="#7f4fc7"/>
            <path id="Trazado_194866" data-name="Trazado 194866" d="M36.867,88.311A1.888,1.888,0,1,0,34.979,90.2a1.887,1.887,0,0,0,1.887-1.889" transform="translate(36.767 -16.565)" fill="#7f4fc7"/>
            <path id="Trazado_194867" data-name="Trazado 194867" d="M45.14,88.311A1.888,1.888,0,1,0,43.252,90.2a1.887,1.887,0,0,0,1.887-1.889" transform="translate(45.959 -16.565)" fill="#7f4fc7"/>
            <path id="Trazado_194868" data-name="Trazado 194868" d="M53.412,88.311A1.888,1.888,0,1,0,51.524,90.2a1.887,1.887,0,0,0,1.887-1.889" transform="translate(55.15 -16.565)" fill="#7f4fc7"/>
            <path id="Trazado_194869" data-name="Trazado 194869" d="M61.685,88.311A1.888,1.888,0,1,0,59.8,90.2a1.888,1.888,0,0,0,1.887-1.889" transform="translate(64.342 -16.565)" fill="#7f4fc7"/>
            <path id="Trazado_194870" data-name="Trazado 194870" d="M69.958,88.311A1.888,1.888,0,1,0,68.07,90.2a1.887,1.887,0,0,0,1.887-1.889" transform="translate(73.534 -16.565)" fill="#7f4fc7"/>
            <path id="Trazado_194871" data-name="Trazado 194871" d="M3.777,96.584a1.888,1.888,0,1,0-1.887,1.887,1.887,1.887,0,0,0,1.887-1.887" transform="translate(0 -7.373)" fill="#7f4fc7"/>
            <path id="Trazado_194872" data-name="Trazado 194872" d="M12.049,96.584a1.888,1.888,0,1,0-1.887,1.887,1.887,1.887,0,0,0,1.887-1.887" transform="translate(9.191 -7.373)" fill="#7f4fc7"/>
            <path id="Trazado_194873" data-name="Trazado 194873" d="M20.322,96.584a1.888,1.888,0,1,0-1.887,1.887,1.887,1.887,0,0,0,1.887-1.887" transform="translate(18.383 -7.373)" fill="#7f4fc7"/>
            <path id="Trazado_194874" data-name="Trazado 194874" d="M28.595,96.584a1.888,1.888,0,1,0-1.887,1.887,1.887,1.887,0,0,0,1.887-1.887" transform="translate(27.576 -7.373)" fill="#7f4fc7"/>
            <path id="Trazado_194875" data-name="Trazado 194875" d="M36.867,96.584a1.888,1.888,0,1,0-1.887,1.887,1.887,1.887,0,0,0,1.887-1.887" transform="translate(36.767 -7.373)" fill="#7f4fc7"/>
            <path id="Trazado_194876" data-name="Trazado 194876" d="M45.14,96.584a1.888,1.888,0,1,0-1.887,1.887,1.887,1.887,0,0,0,1.887-1.887" transform="translate(45.959 -7.373)" fill="#7f4fc7"/>
            <path id="Trazado_194877" data-name="Trazado 194877" d="M53.412,96.584a1.888,1.888,0,1,0-1.887,1.887,1.887,1.887,0,0,0,1.887-1.887" transform="translate(55.15 -7.373)" fill="#7f4fc7"/>
            <path id="Trazado_194878" data-name="Trazado 194878" d="M61.685,96.584A1.888,1.888,0,1,0,59.8,98.472a1.888,1.888,0,0,0,1.887-1.887" transform="translate(64.342 -7.373)" fill="#7f4fc7"/>
            <path id="Trazado_194879" data-name="Trazado 194879" d="M69.958,96.584a1.888,1.888,0,1,0-1.887,1.887,1.887,1.887,0,0,0,1.887-1.887" transform="translate(73.534 -7.373)" fill="#7f4fc7"/>
            <path id="Trazado_194880" data-name="Trazado 194880" d="M3.777,104.856a1.888,1.888,0,1,0-1.887,1.887,1.887,1.887,0,0,0,1.887-1.887" transform="translate(0 1.818)" fill="#7f4fc7"/>
            <path id="Trazado_194881" data-name="Trazado 194881" d="M12.049,104.856a1.888,1.888,0,1,0-1.887,1.887,1.887,1.887,0,0,0,1.887-1.887" transform="translate(9.191 1.818)" fill="#7f4fc7"/>
            <path id="Trazado_194882" data-name="Trazado 194882" d="M20.322,104.856a1.888,1.888,0,1,0-1.887,1.887,1.887,1.887,0,0,0,1.887-1.887" transform="translate(18.383 1.818)" fill="#7f4fc7"/>
            <path id="Trazado_194883" data-name="Trazado 194883" d="M28.595,104.856a1.888,1.888,0,1,0-1.887,1.887,1.887,1.887,0,0,0,1.887-1.887" transform="translate(27.576 1.818)" fill="#7f4fc7"/>
            <path id="Trazado_194884" data-name="Trazado 194884" d="M36.867,104.856a1.888,1.888,0,1,0-1.887,1.887,1.887,1.887,0,0,0,1.887-1.887" transform="translate(36.767 1.818)" fill="#7f4fc7"/>
            <path id="Trazado_194885" data-name="Trazado 194885" d="M45.14,104.856a1.888,1.888,0,1,0-1.887,1.887,1.887,1.887,0,0,0,1.887-1.887" transform="translate(45.959 1.818)" fill="#7f4fc7"/>
            <path id="Trazado_194886" data-name="Trazado 194886" d="M53.412,104.856a1.888,1.888,0,1,0-1.887,1.887,1.887,1.887,0,0,0,1.887-1.887" transform="translate(55.15 1.818)" fill="#7f4fc7"/>
            <path id="Trazado_194887" data-name="Trazado 194887" d="M61.685,104.856a1.888,1.888,0,1,0-1.887,1.887,1.888,1.888,0,0,0,1.887-1.887" transform="translate(64.342 1.818)" fill="#7f4fc7"/>
            <path id="Trazado_194888" data-name="Trazado 194888" d="M69.958,104.856a1.888,1.888,0,1,0-1.887,1.887,1.887,1.887,0,0,0,1.887-1.887" transform="translate(73.534 1.818)" fill="#7f4fc7"/>
            <path id="Trazado_194889" data-name="Trazado 194889" d="M3.777,113.129a1.888,1.888,0,1,0-1.887,1.887,1.887,1.887,0,0,0,1.887-1.887" transform="translate(0 11.01)" fill="#7f4fc7"/>
            <path id="Trazado_194890" data-name="Trazado 194890" d="M12.049,113.129a1.888,1.888,0,1,0-1.887,1.887,1.887,1.887,0,0,0,1.887-1.887" transform="translate(9.191 11.01)" fill="#7f4fc7"/>
            <path id="Trazado_194891" data-name="Trazado 194891" d="M20.322,113.129a1.888,1.888,0,1,0-1.887,1.887,1.887,1.887,0,0,0,1.887-1.887" transform="translate(18.383 11.01)" fill="#7f4fc7"/>
            <path id="Trazado_194892" data-name="Trazado 194892" d="M28.595,113.129a1.888,1.888,0,1,0-1.887,1.887,1.887,1.887,0,0,0,1.887-1.887" transform="translate(27.576 11.01)" fill="#7f4fc7"/>
            <path id="Trazado_194893" data-name="Trazado 194893" d="M36.867,113.129a1.888,1.888,0,1,0-1.887,1.887,1.887,1.887,0,0,0,1.887-1.887" transform="translate(36.767 11.01)" fill="#7f4fc7"/>
            <path id="Trazado_194894" data-name="Trazado 194894" d="M45.14,113.129a1.888,1.888,0,1,0-1.887,1.887,1.887,1.887,0,0,0,1.887-1.887" transform="translate(45.959 11.01)" fill="#7f4fc7"/>
            <path id="Trazado_194895" data-name="Trazado 194895" d="M53.412,113.129a1.888,1.888,0,1,0-1.887,1.887,1.887,1.887,0,0,0,1.887-1.887" transform="translate(55.15 11.01)" fill="#7f4fc7"/>
            <path id="Trazado_194896" data-name="Trazado 194896" d="M61.685,113.129a1.888,1.888,0,1,0-1.887,1.887,1.888,1.888,0,0,0,1.887-1.887" transform="translate(64.342 11.01)" fill="#7f4fc7"/>
            <path id="Trazado_194897" data-name="Trazado 194897" d="M69.958,113.129a1.888,1.888,0,1,0-1.887,1.887,1.887,1.887,0,0,0,1.887-1.887" transform="translate(73.534 11.01)" fill="#7f4fc7"/>
            <path id="Trazado_194898" data-name="Trazado 194898" d="M3.777,121.4a1.888,1.888,0,1,0-1.887,1.887A1.887,1.887,0,0,0,3.777,121.4" transform="translate(0 20.201)" fill="#7f4fc7"/>
            <path id="Trazado_194899" data-name="Trazado 194899" d="M12.049,121.4a1.888,1.888,0,1,0-1.887,1.887,1.887,1.887,0,0,0,1.887-1.887" transform="translate(9.191 20.201)" fill="#7f4fc7"/>
            <path id="Trazado_194900" data-name="Trazado 194900" d="M20.322,121.4a1.888,1.888,0,1,0-1.887,1.887,1.887,1.887,0,0,0,1.887-1.887" transform="translate(18.383 20.201)" fill="#7f4fc7"/>
            <path id="Trazado_194901" data-name="Trazado 194901" d="M28.595,121.4a1.888,1.888,0,1,0-1.887,1.887,1.887,1.887,0,0,0,1.887-1.887" transform="translate(27.576 20.201)" fill="#7f4fc7"/>
            <path id="Trazado_194902" data-name="Trazado 194902" d="M36.867,121.4a1.888,1.888,0,1,0-1.887,1.887,1.887,1.887,0,0,0,1.887-1.887" transform="translate(36.767 20.201)" fill="#7f4fc7"/>
            <path id="Trazado_194903" data-name="Trazado 194903" d="M45.14,121.4a1.888,1.888,0,1,0-1.887,1.887A1.887,1.887,0,0,0,45.14,121.4" transform="translate(45.959 20.201)" fill="#7f4fc7"/>
            <path id="Trazado_194904" data-name="Trazado 194904" d="M53.412,121.4a1.888,1.888,0,1,0-1.887,1.887,1.887,1.887,0,0,0,1.887-1.887" transform="translate(55.15 20.201)" fill="#7f4fc7"/>
            <path id="Trazado_194905" data-name="Trazado 194905" d="M61.685,121.4a1.888,1.888,0,1,0-1.887,1.887,1.888,1.888,0,0,0,1.887-1.887" transform="translate(64.342 20.201)" fill="#7f4fc7"/>
            <path id="Trazado_194906" data-name="Trazado 194906" d="M69.958,121.4a1.888,1.888,0,1,0-1.887,1.887,1.887,1.887,0,0,0,1.887-1.887" transform="translate(73.534 20.201)" fill="#7f4fc7"/>
          </g>
        </g>
        <g id="Grupo_154317" data-name="Grupo 154317" transform="translate(0 350.45)">
          <g id="Grupo_154315" data-name="Grupo 154315" transform="translate(53.793 15.646)">
            <path id="Trazado_195058" data-name="Trazado 195058" d="M14.988,227.726H81.36a2.488,2.488,0,1,0,0-4.975H14.988a2.488,2.488,0,1,0,0,4.975" transform="translate(-12.5 -222.751)" fill="#3cafff"/>
            <path id="Trazado_195059" data-name="Trazado 195059" d="M84.949,227.726H101.7a2.488,2.488,0,1,0,0-4.975H84.949a2.488,2.488,0,1,0,0,4.975" transform="translate(-5.009 -222.751)" fill="#3cafff"/>
            <path id="Trazado_195064" data-name="Trazado 195064" d="M131.644,232.612H85.022a1.748,1.748,0,0,0,0,3.5h46.622a1.748,1.748,0,0,0,0-3.5" transform="translate(-4.922 -221.695)" fill="#3cafff"/>
            <path id="Trazado_195065" data-name="Trazado 195065" d="M79.13,232.612H67.361a1.748,1.748,0,0,0,0,3.5H79.13a1.748,1.748,0,1,0,0-3.5" transform="translate(-6.813 -221.695)" fill="#3cafff"/>
          </g>
          <g id="Grupo_154316" data-name="Grupo 154316">
            <path id="Trazado_195062" data-name="Trazado 195062" d="M193.258,1.333H114.9c-1.622,0-2.936.783-2.936,1.747s1.314,1.748,2.936,1.748h78.353c1.622,0,2.938-.783,2.938-1.748s-1.315-1.747-2.938-1.747" transform="translate(-60.887 -1.333)" fill="#7f4fc7"/>
            <path id="Trazado_195063" data-name="Trazado 195063" d="M129.623,1.333H98.873c-2.522,0-4.564.783-4.564,1.747s2.042,1.748,4.564,1.748h30.75c2.522,0,4.564-.783,4.564-1.748s-2.042-1.747-4.564-1.747" transform="translate(-42.309 -18.333)" fill="#7f4fc7"/>
          </g>
        </g>
        <g id="Grupo_154318" data-name="Grupo 154318" transform="translate(322.278 215.623)">
          <g id="Grupo_154315-2" data-name="Grupo 154315" transform="translate(38.286 11.135)">
            <path id="Trazado_195058-2" data-name="Trazado 195058" d="M14.271,226.292H61.51a1.771,1.771,0,1,0,0-3.541H14.271a1.771,1.771,0,1,0,0,3.541" transform="translate(-12.5 -222.751)" fill="#b7aadb"/>
            <path id="Trazado_195059-2" data-name="Trazado 195059" d="M84.232,226.292H96.157a1.771,1.771,0,1,0,0-3.541H84.232a1.771,1.771,0,1,0,0,3.541" transform="translate(-27.336 -222.751)" fill="#b7aadb"/>
            <path id="Trazado_195064-2" data-name="Trazado 195064" d="M117.7,232.612H84.518a1.244,1.244,0,0,0,0,2.488H117.7a1.244,1.244,0,0,0,0-2.488" transform="translate(-27.508 -224.842)" fill="#b7aadb"/>
            <path id="Trazado_195065-2" data-name="Trazado 195065" d="M75.234,232.612H66.857a1.244,1.244,0,0,0,0,2.488h8.377a1.244,1.244,0,1,0,0-2.488" transform="translate(-23.763 -224.842)" fill="#b7aadb"/>
          </g>
          <g id="Grupo_154316-2" data-name="Grupo 154316">
            <path id="Trazado_195062-2" data-name="Trazado 195062" d="M169.825,1.333H114.059c-1.155,0-2.09.557-2.09,1.243s.935,1.244,2.09,1.244h55.766c1.155,0,2.091-.557,2.091-1.244s-.936-1.243-2.091-1.243" transform="translate(-75.613 -1.333)" fill="#b7aadb"/>
            <path id="Trazado_195063-2" data-name="Trazado 195063" d="M119.443,1.333H97.558c-1.8,0-3.249.557-3.249,1.243s1.453,1.244,3.249,1.244h21.886c1.8,0,3.249-.557,3.249-1.244s-1.453-1.243-3.249-1.243" transform="translate(-94.309 -1.333)" fill="#b7aadb"/>
          </g>
        </g>
      </g>
    </g>
    <g id="Grupo_157773" data-name="Grupo 157773" transform="translate(176.316 5230.291)">
      <g id="Grupo_157679" data-name="Grupo 157679" transform="translate(51.317 23.976)">
        <path id="Trazado_198063" data-name="Trazado 198063" d="M238.385,63.756q-.623,0-1.243.013a56.269,56.269,0,0,1-38.525-13.905,55.274,55.274,0,0,0-85.153,15.079,21.348,21.348,0,0,0-1.095,2.4,57.948,57.948,0,0,1-31.926,32.911c-.421.17-.812.344-1.169.523a50.594,50.594,0,0,0,32.533,94.857,82.312,82.312,0,0,1,40.774,2.145A55.428,55.428,0,0,0,194.89,194a87.406,87.406,0,0,1,42.393-9.717q.564.01,1.131.01a60.269,60.269,0,1,0-.029-120.538Z" transform="translate(-51.317 -31.427)" fill="#b7aadb"/>
        <path id="Trazado_198064" data-name="Trazado 198064" d="M84.108,90.541c-.232,5.789,2.792,11.825,8.021,14.32,4.975,2.374,11.1,1.254,15.73-1.742S115.821,95.5,118.525,90.7a31.608,31.608,0,0,0,4.2-11.147c1.439-10.811-8.186-19.023-17.75-12.933C95.8,72.455,84.606,78.108,84.108,90.541Z" transform="translate(-71.571 -49.041)" fill="#b7aadb"/>
        <path id="Trazado_198065" data-name="Trazado 198065" d="M488.422,47.634a18.162,18.162,0,0,0,7.422-.207,8.547,8.547,0,0,0,5.631-4.541,8.431,8.431,0,0,0-.607-7.239,16.643,16.643,0,0,0-5.154-5.386c-7.5-5.333-18.879-8.159-27.794-4.891-3.572,1.309-5.751,4.408-4.378,8.191,1.461,4.025,6.068,6.758,9.581,8.782A42.632,42.632,0,0,0,488.422,47.634Z" transform="translate(-305.769 -23.976)" fill="#b7aadb"/>
      </g>
      <g id="Grupo_157772" data-name="Grupo 157772" transform="translate(62.444 34.588)">
        <g id="Grupo_157701" data-name="Grupo 157701" transform="translate(152.166 16.805)">
          <g id="Grupo_157680" data-name="Grupo 157680" transform="translate(10.795 121.227)">
            <path id="Trazado_198066" data-name="Trazado 198066" d="M509.108,413.762l-2.2,23.309h24.1l2.293-7.642,2.038,7.642h22.417l-1.783-24.089Z" transform="translate(-506.911 -412.981)" fill="#454f6b"/>
            <path id="Trazado_198067" data-name="Trazado 198067" d="M536.016,423.121a61.376,61.376,0,0,0,23.165-6.2l-.292-3.937-46.872.781-.4,4.222A46.643,46.643,0,0,0,536.016,423.121Z" transform="translate(-509.82 -412.981)" fill="#422c4f"/>
          </g>
          <g id="Grupo_157681" data-name="Grupo 157681" transform="translate(0 47.753)">
            <path id="Trazado_198068" data-name="Trazado 198068" d="M494.243,220.7h0a9.376,9.376,0,0,0-6.777,4.194l-8.8,13.507,7.515,12.271,7.739-9.406Z" transform="translate(-478.661 -220.699)" fill="#7ca566"/>
            <path id="Trazado_198069" data-name="Trazado 198069" d="M510.38,248.269a53.232,53.232,0,0,0-5.33,16.315l5.17-6.284Z" transform="translate(-494.966 -237.734)" fill="#638674"/>
          </g>
          <g id="Grupo_157688" data-name="Grupo 157688" transform="translate(15.582)">
            <path id="Trazado_198070" data-name="Trazado 198070" d="M535.159,174.128a5.291,5.291,0,0,0-.225,3.054,2.432,2.432,0,0,0,2.225,1.84c.58-.018,1.126-.3,1.706-.319,1.044-.025,1.878.8,2.687,1.465a10.506,10.506,0,0,0,13.774-.432c.966-.893,1.86-2.024,3.15-2.279a8.478,8.478,0,0,0,2.139-.314,2.823,2.823,0,0,0,1.272-2.23,9.344,9.344,0,0,0-4.414-9.222,11.665,11.665,0,0,0-5.856-1.444,16.038,16.038,0,0,0-7.826,2.028,27.164,27.164,0,0,1-3.272,1.8c-1.037.405-2.153.337-3.186.692a1.633,1.633,0,0,0-1.165,1.577A21.75,21.75,0,0,1,535.159,174.128Z" transform="translate(-528.926 -138.065)" fill="#654059"/>
            <g id="Grupo_157682" data-name="Grupo 157682" transform="translate(0.944 26.718)">
              <circle id="Elipse_5898" data-name="Elipse 5898" cx="3.893" cy="3.893" r="3.893" fill="#f2c9ad"/>
              <path id="Trazado_198071" data-name="Trazado 198071" d="M530.857,172.583a2.012,2.012,0,1,1-2.012-2.012A2.012,2.012,0,0,1,530.857,172.583Z" transform="translate(-524.952 -168.69)" fill="#eba58e"/>
            </g>
            <g id="Grupo_157683" data-name="Grupo 157683" transform="translate(28.982 24.043)">
              <circle id="Elipse_5899" data-name="Elipse 5899" cx="3.893" cy="3.893" r="3.893" fill="#f2c9ad"/>
              <path id="Trazado_198072" data-name="Trazado 198072" d="M604.232,165.583a2.012,2.012,0,1,1-2.012-2.012A2.012,2.012,0,0,1,604.232,165.583Z" transform="translate(-598.327 -161.69)" fill="#eba58e"/>
            </g>
            <path id="Trazado_198073" data-name="Trazado 198073" d="M526.6,125.08c-1.862-3.436-3.773-7.118-5.636-10.554-.874-1.611-1.776-3.383-1.456-5.187a5.432,5.432,0,0,1,2.093-3.208c.2-.158.408-.3.621-.444a8.443,8.443,0,0,0,3.469-4.849,7.052,7.052,0,0,1,1.7-3.186A5.746,5.746,0,0,1,531.568,96a5.619,5.619,0,0,1,1.473.25,7.828,7.828,0,0,0,5.031-.136,6.132,6.132,0,0,1,5.016.319,6.969,6.969,0,0,1,1.985,1.69,8.748,8.748,0,0,0,5.065,3.037,4.278,4.278,0,0,1,1.437.553,5.858,5.858,0,0,1,2.426,3.6,13.717,13.717,0,0,1,.208,4.422c-.326,4.156-2.448,10.2-3.954,14.084Z" transform="translate(-519.439 -95.727)" fill="#654059"/>
            <g id="Grupo_157684" data-name="Grupo 157684" transform="translate(10.688 37.642)">
              <path id="Trazado_198074" data-name="Trazado 198074" d="M557.247,198.542A6.051,6.051,0,0,0,566,197.9a12.238,12.238,0,0,0,1.038-1.258v-2.406H555.763l-.091,2.859A12.582,12.582,0,0,0,557.247,198.542Z" transform="translate(-552.515 -194.236)" fill="#422c4f"/>
              <path id="Trazado_198075" data-name="Trazado 198075" d="M561.931,205.735v-5.2a12.246,12.246,0,0,1-1.038,1.258,6.051,6.051,0,0,1-8.75.642,12.581,12.581,0,0,1-1.575-1.447l-.164,5.147-2.993,1.094.807.778a10.827,10.827,0,0,0,16.388-1.6h0Z" transform="translate(-547.411 -198.126)" fill="#f2c9ad"/>
            </g>
            <path id="Trazado_198076" data-name="Trazado 198076" d="M561.248,137.181l-1.623-7.014A4.094,4.094,0,0,0,555.4,127a4.094,4.094,0,0,1-3.993-2.471l-.718-1.672a4.979,4.979,0,0,1-4.506,4.788c-1.348.083-2.73-.4-4.03-.035a4.32,4.32,0,0,0-2.488,2.153,12.825,12.825,0,0,0-1.091,3.186q-.526,2.134-1.053,4.269l.247,4.624a11.846,11.846,0,0,0,12.46,11.2h0a11.846,11.846,0,0,0,11.2-12.46Z" transform="translate(-530.614 -112.492)" fill="#f2c9ad"/>
            <g id="Grupo_157687" data-name="Grupo 157687" transform="translate(10.337 17.697)">
              <g id="Grupo_157685" data-name="Grupo 157685">
                <path id="Trazado_198077" data-name="Trazado 198077" d="M549.515,142.11a3.956,3.956,0,0,0-3.023,2.537,32.15,32.15,0,0,1,6.755-1.255A3.963,3.963,0,0,0,549.515,142.11Z" transform="translate(-546.492 -142.04)" fill="#654059"/>
              </g>
              <circle id="Elipse_5900" data-name="Elipse 5900" cx="1.194" cy="1.194" r="1.194" transform="translate(2.548 3.958)" fill="#422c4f"/>
              <g id="Grupo_157686" data-name="Grupo 157686" transform="translate(11.889)">
                <path id="Trazado_198078" data-name="Trazado 198078" d="M581.34,142.11a3.958,3.958,0,0,1,3.023,2.537,32.16,32.16,0,0,0-6.755-1.255A3.963,3.963,0,0,1,581.34,142.11Z" transform="translate(-577.607 -142.04)" fill="#654059"/>
              </g>
              <circle id="Elipse_5901" data-name="Elipse 5901" cx="1.194" cy="1.194" r="1.194" transform="translate(13.708 3.958)" fill="#422c4f"/>
              <path id="Trazado_198079" data-name="Trazado 198079" d="M570.733,169.82l-3.948.115a5.516,5.516,0,0,0,.724.867,1.58,1.58,0,0,0,2.179.031A6.72,6.72,0,0,0,570.733,169.82Z" transform="translate(-559.031 -159.205)" fill="#eba58e"/>
              <path id="Trazado_198080" data-name="Trazado 198080" d="M567.7,177.214a26.683,26.683,0,0,1-10.13.288,4.689,4.689,0,0,0,1.162,2.723,6.34,6.34,0,0,0,1.593,1.35,4.717,4.717,0,0,0,4.6-.132A6.7,6.7,0,0,0,567.7,177.214Z" transform="translate(-553.339 -163.774)" fill="#fff"/>
            </g>
          </g>
          <g id="Grupo_157692" data-name="Grupo 157692" transform="translate(55.024 48.182)">
            <g id="Grupo_157689" data-name="Grupo 157689">
              <path id="Trazado_198081" data-name="Trazado 198081" d="M622.661,221.821h0a12.972,12.972,0,0,1,8.739,7.194l8.074,17.577-11.846,8.625-3.328-8.1Z" transform="translate(-622.661 -221.821)" fill="#7ca566"/>
              <path id="Trazado_198082" data-name="Trazado 198082" d="M628.584,265.311a23.765,23.765,0,0,0-1.316-6.747,10.636,10.636,0,0,0-2.471-3.785l.823,12.7,3.292,8.011A99.741,99.741,0,0,0,628.584,265.311Z" transform="translate(-623.981 -242.185)" fill="#638674"/>
            </g>
            <g id="Grupo_157691" data-name="Grupo 157691" transform="translate(4.012 26.417)">
              <g id="Grupo_157690" data-name="Grupo 157690">
                <path id="Trazado_198083" data-name="Trazado 198083" d="M645.065,347.259l1.368-6.745a12.622,12.622,0,0,0,.249-2.223l.691-29.954a37.58,37.58,0,0,0-1.7-12.079l-1.658-5.3-8.9,6.481,2.753,6.155,1.433,34.772-2.726,3.144a7.148,7.148,0,0,0-1.441,2.616l-1.422,4.718a1.065,1.065,0,0,0,1.782,1.051l3.329-3.41-1.269,4.641h0l7.235-2.787C644.9,347.984,644.991,347.625,645.065,347.259Z" transform="translate(-633.474 -290.955)" fill="#f2c9ad"/>
                <path id="Trazado_198084" data-name="Trazado 198084" d="M637.241,443.913l-4.08,6.154,2.166-.469a12.263,12.263,0,0,0,9.149-8.471Z" transform="translate(-633.161 -383.744)" fill="#eba58e"/>
              </g>
              <path id="Trazado_198085" data-name="Trazado 198085" d="M637.456,297.435l8.9-6.48.451,1.442-7.855,8.382Z" transform="translate(-635.815 -290.955)" fill="#422c4f"/>
            </g>
          </g>
          <g id="Grupo_157700" data-name="Grupo 157700" transform="translate(10.795 45.925)">
            <path id="Trazado_198086" data-name="Trazado 198086" d="M522.387,216.732,511.7,217.742l-.807,50.584-3.98,25.368,10.455,1.98a77.2,77.2,0,0,0,32.6-.835l7.292-1.772-2.93-25.775-3.184-49.121-11.559-2.257h0a10.827,10.827,0,0,1-16.388,1.6Z" transform="translate(-506.911 -215.914)" fill="#7ca566"/>
            <g id="Grupo_157699" data-name="Grupo 157699" transform="translate(3.487 2.986)">
              <g id="Grupo_157693" data-name="Grupo 157693" transform="translate(11.066)">
                <path id="Trazado_198087" data-name="Trazado 198087" d="M562.265,224.82a16.119,16.119,0,0,1-4.008,1.833,13.511,13.511,0,0,1-9.514-.6A16.131,16.131,0,0,1,545,223.728a10.082,10.082,0,0,0,3.3,3.173,11.094,11.094,0,0,0,10.29.651A10.089,10.089,0,0,0,562.265,224.82Z" transform="translate(-544.997 -223.728)" fill="#638674"/>
              </g>
              <g id="Grupo_157694" data-name="Grupo 157694" transform="translate(5.765 12.449)">
                <path id="Trazado_198088" data-name="Trazado 198088" d="M561.489,277.614a59.8,59.8,0,0,1-8.466-2.946,49.755,49.755,0,0,1-16.248-11.4,59.848,59.848,0,0,1-5.65-6.959,27.649,27.649,0,0,0,4.168,8.195,32.648,32.648,0,0,0,17.072,11.98A27.66,27.66,0,0,0,561.489,277.614Z" transform="translate(-531.125 -256.307)" fill="#638674"/>
              </g>
              <g id="Grupo_157695" data-name="Grupo 157695" transform="translate(20.861 20.399)">
                <path id="Trazado_198089" data-name="Trazado 198089" d="M586.964,277.114a22.083,22.083,0,0,1-3.4,2.383,19.6,19.6,0,0,1-8.792,2.538,22.107,22.107,0,0,1-4.144-.206,11.561,11.561,0,0,0,4.128,1.1,13.752,13.752,0,0,0,9.3-2.685A11.556,11.556,0,0,0,586.964,277.114Z" transform="translate(-570.631 -277.114)" fill="#638674"/>
              </g>
              <g id="Grupo_157696" data-name="Grupo 157696" transform="translate(0 68.559)">
                <path id="Trazado_198090" data-name="Trazado 198090" d="M555.776,403.148c-2.782.431-5.939.945-9.3,1.376s-6.925.788-10.5,1-7.155.262-10.544.217-6.583-.189-9.4-.3a45.092,45.092,0,0,0,9.239,2.3,54.719,54.719,0,0,0,21.586-1.245A45.088,45.088,0,0,0,555.776,403.148Z" transform="translate(-516.037 -403.148)" fill="#638674"/>
              </g>
              <g id="Grupo_157697" data-name="Grupo 157697" transform="translate(16.906 59.077)">
                <path id="Trazado_198091" data-name="Trazado 198091" d="M581.652,378.334c-2.964,1.427-6.71,3.338-10.556,5.035-3.839,1.714-7.768,3.21-10.815,4.451a37.226,37.226,0,0,0,21.371-9.486Z" transform="translate(-560.281 -378.334)" fill="#638674"/>
              </g>
              <g id="Grupo_157698" data-name="Grupo 157698" transform="translate(2.724 57.936)">
                <path id="Trazado_198092" data-name="Trazado 198092" d="M523.165,375.348a23.708,23.708,0,0,0,4.505,2.484,28.664,28.664,0,0,0,11.467,2.243,23.7,23.7,0,0,0,5.109-.6,79.476,79.476,0,0,1-21.082-4.124Z" transform="translate(-523.165 -375.348)" fill="#638674"/>
              </g>
            </g>
          </g>
        </g>
        <g id="Grupo_157721" data-name="Grupo 157721" transform="translate(40.823 0)">
          <g id="Grupo_157703" data-name="Grupo 157703" transform="translate(44.665 52.965)">
            <g id="Grupo_157702" data-name="Grupo 157702">
              <path id="Trazado_198093" data-name="Trazado 198093" d="M312.082,195.931a9.4,9.4,0,0,0,2.906-2.547v-3.027l-10.826,1.274v3.037a6.961,6.961,0,0,0,2.739,1.712A6.7,6.7,0,0,0,312.082,195.931Z" transform="translate(-304.161 -190.357)" fill="#422c4f"/>
              <path id="Trazado_198094" data-name="Trazado 198094" d="M312.082,200.826a6.7,6.7,0,0,1-5.182.449,6.96,6.96,0,0,1-2.739-1.712v6.515l1.26.394a14.2,14.2,0,0,0,9.567-.394v-7.8A9.4,9.4,0,0,1,312.082,200.826Z" transform="translate(-304.161 -195.252)" fill="#eba58e"/>
            </g>
            <path id="Trazado_198095" data-name="Trazado 198095" d="M304.161,218.69l6.878,7.674,3.948-7.674h0a14.2,14.2,0,0,1-9.567.394Z" transform="translate(-304.161 -207.864)" fill="#e58064"/>
          </g>
          <path id="Trazado_198096" data-name="Trazado 198096" d="M270.452,367.024l-.541,5.159h40.5l-.605-5.159Z" transform="translate(-238.333 -246.552)" fill="#5195a8"/>
          <g id="Grupo_157714" data-name="Grupo 157714" transform="translate(32.299 21.836)">
            <g id="Grupo_157704" data-name="Grupo 157704" transform="translate(0 24.219)">
              <circle id="Elipse_5902" data-name="Elipse 5902" cx="3.63" cy="3.63" r="3.63" fill="#eba58e"/>
              <path id="Trazado_198097" data-name="Trazado 198097" d="M280.058,178.521a2.011,2.011,0,1,1-2.011-2.011A2.011,2.011,0,0,1,280.058,178.521Z" transform="translate(-274.417 -174.891)" fill="#e78882"/>
            </g>
            <g id="Grupo_157705" data-name="Grupo 157705" transform="translate(26.408 19.729)">
              <circle id="Elipse_5903" data-name="Elipse 5903" cx="3.63" cy="3.63" r="3.63" fill="#eba58e"/>
              <path id="Trazado_198098" data-name="Trazado 198098" d="M349.17,166.771a2.011,2.011,0,1,1-2.011-2.011A2.011,2.011,0,0,1,349.17,166.771Z" transform="translate(-343.528 -163.141)" fill="#e78882"/>
            </g>
            <path id="Trazado_198099" data-name="Trazado 198099" d="M278.208,135.373l-4.514-10.138a8.092,8.092,0,0,1,1.108-8.39c.832-1.025,1.659-2.039,2.454-2.962a17.055,17.055,0,0,1,4.145-3.849,8.5,8.5,0,0,1,10.588,1.679c1.262-.855,2.828-1.948,4.331-1.7a6.063,6.063,0,0,1,3.055,2l1.733,1.737a7.472,7.472,0,0,1,2.021,6.829L300.6,132.509Z" transform="translate(-272.537 -108.891)" fill="#8c404c"/>
            <path id="Trazado_198100" data-name="Trazado 198100" d="M306.516,140.911a10.484,10.484,0,0,1-5.979-4.092,16.011,16.011,0,0,1-12.745,6.765l-1.155,9.045a11.369,11.369,0,0,0,12.188,8.549h0a11.367,11.367,0,0,0,10.205-11.413Z" transform="translate(-280.968 -126.147)" fill="#eba58e"/>
            <g id="Grupo_157708" data-name="Grupo 157708" transform="translate(9.188 16.344)">
              <g id="Grupo_157706" data-name="Grupo 157706" transform="translate(0 1.417)">
                <path id="Trazado_198101" data-name="Trazado 198101" d="M298.278,155.589a3.9,3.9,0,0,0-2.433,2.483l5.88-2.042A3.9,3.9,0,0,0,298.278,155.589Z" transform="translate(-295.845 -155.372)" fill="#8c404c"/>
              </g>
              <circle id="Elipse_5904" data-name="Elipse 5904" cx="1.006" cy="1.006" r="1.006" transform="translate(3.013 5.004)" fill="#422c4f"/>
              <g id="Grupo_157707" data-name="Grupo 157707" transform="translate(10.502)">
                <path id="Trazado_198102" data-name="Trazado 198102" d="M326.533,151.671a3.9,3.9,0,0,1,3.009,1.739l-6.212-.389A3.9,3.9,0,0,1,326.533,151.671Z" transform="translate(-323.33 -151.664)" fill="#8c404c"/>
              </g>
              <circle id="Elipse_5905" data-name="Elipse 5905" cx="1.006" cy="1.006" r="1.006" transform="translate(11.597 4.174)" fill="#422c4f"/>
              <path id="Trazado_198103" data-name="Trazado 198103" d="M318.3,175.967l-2.888.285a1.62,1.62,0,0,0,1.492.942A1.785,1.785,0,0,0,318.3,175.967Z" transform="translate(-307.938 -166.68)" fill="#e78882"/>
              <path id="Trazado_198104" data-name="Trazado 198104" d="M317.84,180.942a21.331,21.331,0,0,1-7.3,1.8,3.7,3.7,0,0,0,2.685,2.372,3.535,3.535,0,0,0,3.33-1.065A6.288,6.288,0,0,0,317.84,180.942Z" transform="translate(-304.922 -169.754)" fill="#fff"/>
            </g>
            <g id="Grupo_157713" data-name="Grupo 157713" transform="translate(6.901 3.854)">
              <g id="Grupo_157709" data-name="Grupo 157709" transform="translate(0 3.072)">
                <path id="Trazado_198105" data-name="Trazado 198105" d="M289.86,129.158c1.793.054,3.9-.1,6.008-.233s4.217-.264,5.987-.552a11.344,11.344,0,0,0-12,.786Z" transform="translate(-289.86 -127.018)" fill="#a04a5a"/>
              </g>
              <g id="Grupo_157710" data-name="Grupo 157710" transform="translate(3.888)">
                <path id="Trazado_198106" data-name="Trazado 198106" d="M300.036,119.29c1.205.445,2.617.9,3.989,1.463s2.7,1.22,3.875,1.745a6.757,6.757,0,0,0-7.864-3.209Z" transform="translate(-300.036 -118.978)" fill="#a04a5a"/>
              </g>
              <g id="Grupo_157711" data-name="Grupo 157711" transform="translate(12.844 1.652)">
                <path id="Trazado_198107" data-name="Trazado 198107" d="M330.373,123.743a6.113,6.113,0,0,0-6.9,1.707c1.044-.225,2.236-.576,3.445-.872S329.346,124.031,330.373,123.743Z" transform="translate(-323.474 -123.301)" fill="#a04a5a"/>
              </g>
              <g id="Grupo_157712" data-name="Grupo 157712" transform="translate(13.156 3.921)">
                <path id="Trazado_198108" data-name="Trazado 198108" d="M330.641,131.4a6.622,6.622,0,0,0-6.351-1.977,38.61,38.61,0,0,0,6.351,1.977Z" transform="translate(-324.29 -129.24)" fill="#a04a5a"/>
              </g>
            </g>
          </g>
          <g id="Grupo_157715" data-name="Grupo 157715" transform="translate(26.992 125.63)">
            <path id="Trazado_198109" data-name="Trazado 198109" d="M285.614,417.016l-1.6-17.789a1.446,1.446,0,0,0-1.44-1.316h0a1.446,1.446,0,0,0-1.432,1.245l-2.5,17.86h-20.73l1.992-23.386a36.726,36.726,0,0,1,3.645-13.105h38.047l.342.815a36.714,36.714,0,0,1,2.615,10.014l2.94,25.663Z" transform="translate(-257.911 -380.524)" fill="#984058"/>
            <path id="Trazado_198110" data-name="Trazado 198110" d="M319.352,380.524l-.191,17.386.872-.605a7.152,7.152,0,0,0,3.076-5.877v-10.9Z" transform="translate(-295.757 -380.524)" fill="#472948"/>
            <path id="Trazado_198111" data-name="Trazado 198111" d="M284.945,380.524l-2.1,10.03-1.433,22.163,3.535-21.971Z" transform="translate(-272.431 -380.524)" fill="#472948"/>
            <path id="Trazado_198112" data-name="Trazado 198112" d="M354.661,380.524l2.1,10.03,1.433,22.163-3.535-21.971Z" transform="translate(-317.691 -380.524)" fill="#472948"/>
            <path id="Trazado_198113" data-name="Trazado 198113" d="M309.459,381.339l-.342-.815H271.071c-.355.721-.677,1.456-.983,2.2H310C309.83,382.257,309.651,381.8,309.459,381.339Z" transform="translate(-265.435 -380.524)" fill="#472948"/>
          </g>
          <g id="Grupo_157720" data-name="Grupo 157720">
            <path id="Trazado_198114" data-name="Trazado 198114" d="M217.225,213.083l-29.953-1.819.751,10.512,29.585,8.552Z" transform="translate(-187.271 -150.31)" fill="#6ca8bf"/>
            <g id="Grupo_157719" data-name="Grupo 157719" transform="translate(29.151)">
              <path id="Trazado_198115" data-name="Trazado 198115" d="M468.118,91.915l-8.534-3.388-1.923,4.393,8.534,3.388Z" transform="translate(-383.493 -74.473)" fill="#5195a8"/>
              <g id="Grupo_157716" data-name="Grupo 157716" transform="translate(74.869)">
                <path id="Trazado_198116" data-name="Trazado 198116" d="M492.547,55.709l1.122-1.564-3.128-1.51a8.944,8.944,0,0,0-10.471,2l-.825.9,9.686,4.5A38.7,38.7,0,0,0,492.547,55.709Z" transform="translate(-471.697 -51.746)" fill="#e78882"/>
                <path id="Trazado_198117" data-name="Trazado 198117" d="M467.04,57.148,465.1,59.261l-1.272-2.332a4.935,4.935,0,0,0-4.332-2.572l3.63,11.527-.792,2.171,5.869,2.33,1.049-2.655,1.318-.892a38.754,38.754,0,0,0,6.158-5.188Z" transform="translate(-459.494 -53.359)" fill="#eba58e"/>
              </g>
              <g id="Grupo_157717" data-name="Grupo 157717" transform="translate(0 18.447)">
                <path id="Trazado_198118" data-name="Trazado 198118" d="M311.07,213.718l-1.32.1a3.107,3.107,0,0,0-2.576,1.8l-3.948,7.674-6.878-7.674-.52-.58a3.107,3.107,0,0,0-2.47-1.029l-1.841.093,12.3,13.721Z" transform="translate(-280.834 -170.274)" fill="#5195a8"/>
                <path id="Trazado_198119" data-name="Trazado 198119" d="M346.5,104.787l-.242-1.375-8.534-3.388a6.854,6.854,0,0,0-4.348,3.8L324.1,124.76l-25.342,18.315-4.962.393-7.256,14.1-12.3-13.72-9.879.5v46.8a7.2,7.2,0,0,1-.193,1.655l-.417,1.762a7.192,7.192,0,0,0,2.506,7.27l.268.215h39.358l.792-.792a7.191,7.191,0,0,0,1.238-8.51,7.194,7.194,0,0,1-.854-2.982l-1.94-31.4,28.022-24.047,12.731-25.25A6.853,6.853,0,0,0,346.5,104.787Z" transform="translate(-263.56 -100.024)" fill="#6ca8bf"/>
              </g>
              <g id="Grupo_157718" data-name="Grupo 157718" transform="translate(6.015 49.614)">
                <path id="Trazado_198120" data-name="Trazado 198120" d="M300.64,276.17a38.448,38.448,0,0,0,7.422-7.212,32.407,32.407,0,0,0,4.548-7.8c-1.712,2.041-3.7,4.308-5.968,6.542a67.321,67.321,0,0,1-15.871,11.7c-2.8,1.507-5.557,2.735-8.013,3.768a32.4,32.4,0,0,0,8.8-2.039A38.434,38.434,0,0,0,300.64,276.17Z" transform="translate(-281.437 -230.752)" fill="#5195a8"/>
                <path id="Trazado_198121" data-name="Trazado 198121" d="M288.78,280.746a24.915,24.915,0,0,0,5.389.094,20.656,20.656,0,0,0,4.621-.951,61.79,61.79,0,0,1-19.489-2.475,20.656,20.656,0,0,0,4.237,2.075A24.9,24.9,0,0,0,288.78,280.746Z" transform="translate(-279.302 -240.798)" fill="#5195a8"/>
                <path id="Trazado_198122" data-name="Trazado 198122" d="M300.655,341.488a54.145,54.145,0,0,0-15.915,4.06c4.54-.479,10.328-1.3,16.143-1.9,5.813-.624,11.645-1.032,16.185-1.511A54.161,54.161,0,0,0,300.655,341.488Z" transform="translate(-282.662 -280.183)" fill="#5195a8"/>
                <path id="Trazado_198123" data-name="Trazado 198123" d="M371.311,206.567a111.973,111.973,0,0,0,15.155-24.978,113.629,113.629,0,0,0-14.56,23.362,41.6,41.6,0,0,0,1.475-6.5,35.739,35.739,0,0,0,.392-8.7,22.042,22.042,0,0,0-2.633,16.971l-.039.094.049-.058c.012.04.021.084.034.124C371.228,206.781,371.268,206.671,371.311,206.567Z" transform="translate(-335.624 -181.589)" fill="#5195a8"/>
              </g>
            </g>
          </g>
        </g>
        <g id="Grupo_157739" data-name="Grupo 157739" transform="translate(0 70.88)">
          <g id="Grupo_157723" data-name="Grupo 157723" transform="translate(23.055 57.38)">
            <g id="Grupo_157722" data-name="Grupo 157722">
              <path id="Trazado_198124" data-name="Trazado 198124" d="M143.022,391.718l-.206.6a38.1,38.1,0,0,0-1.256,20.025l1.844,8.922h18.312l1.685-14.9,2.675,14.9h18.6l1.946-12.7a38.1,38.1,0,0,0-2.806-21.16h0Z" transform="translate(-140.771 -387.407)" fill="#454f6b"/>
              <path id="Trazado_198125" data-name="Trazado 198125" d="M172.278,397.593a61.955,61.955,0,0,0,13.706-6.6,38.15,38.15,0,0,0-1.366-3.582h0l-40.79,4.311-.206.6a38.047,38.047,0,0,0-1.547,6.178C151.794,401.625,162.57,400.866,172.278,397.593Z" transform="translate(-141.576 -387.407)" fill="#422c4f"/>
            </g>
            <path id="Trazado_198126" data-name="Trazado 198126" d="M179.477,437.024c-4.283.1-8.4.23-12.688.328a12.479,12.479,0,0,0,6.345,1.532A12.644,12.644,0,0,0,179.477,437.024Z" transform="translate(-156.847 -418.065)" fill="#422c4f"/>
            <path id="Trazado_198127" data-name="Trazado 198127" d="M199.994,431.816c4.139-1.106,8.132-2.135,12.272-3.24a12.7,12.7,0,0,1-5.673,3.213A12.843,12.843,0,0,1,199.994,431.816Z" transform="translate(-177.364 -412.845)" fill="#422c4f"/>
          </g>
          <g id="Grupo_157724" data-name="Grupo 157724" transform="translate(61.606 9.894)">
            <path id="Trazado_198128" data-name="Trazado 198128" d="M250.831,281.816l-9.171-12.1,6.968-6.581,2.2,2.967Z" transform="translate(-241.661 -263.135)" fill="#f2c9ad"/>
            <path id="Trazado_198129" data-name="Trazado 198129" d="M248.629,263.135l-6.968,6.581,2.414,3.185,5.2-8.9Z" transform="translate(-241.661 -263.135)" fill="#422c4f"/>
          </g>
          <g id="Grupo_157736" data-name="Grupo 157736" transform="translate(15.752)">
            <path id="Trazado_198130" data-name="Trazado 198130" d="M143.68,240.269l-8.393,1.984a25.269,25.269,0,0,0-11.343,6.04l-2.284,2.112,8.534,6.981-.3,4.845a6.937,6.937,0,0,0,2.345,5.64h0a6.936,6.936,0,0,1,2.344,4.76h0a51.327,51.327,0,0,1-2.428,19.276l-3.335,10.211,1.216.318a55.144,55.144,0,0,0,41.074-5.338l2.612-1.475-2.085-4.229a51.321,51.321,0,0,1-5.212-19.865l-.132-2.388a6.938,6.938,0,0,1,1.027-4.032l.585-.945a6.937,6.937,0,0,0,.848-5.262l-1.239-5.185,7.769-7.337-6.324-6.3a9.749,9.749,0,0,0-8.7-2.668l-4.33.826h0a9.366,9.366,0,0,1-10.443,2.706Z" transform="translate(-121.661 -237.243)" fill="#e68799"/>
            <g id="Grupo_157735" data-name="Grupo 157735" transform="translate(6.451 3.647)">
              <g id="Grupo_157725" data-name="Grupo 157725" transform="translate(14.45)">
                <path id="Trazado_198131" data-name="Trazado 198131" d="M190.133,246.787a17.425,17.425,0,0,1-3.086,1.372,15.593,15.593,0,0,1-7.423.586,17.43,17.43,0,0,1-3.264-.871,9.272,9.272,0,0,0,3.1,1.582,11.037,11.037,0,0,0,7.859-.621A9.256,9.256,0,0,0,190.133,246.787Z" transform="translate(-176.361 -246.787)" fill="#e36b85"/>
              </g>
              <g id="Grupo_157726" data-name="Grupo 157726" transform="translate(12.316 22.875)">
                <path id="Trazado_198132" data-name="Trazado 198132" d="M190.873,309.246a14.278,14.278,0,0,0-4.63-2.093,16.065,16.065,0,0,0-11.437,1.325,14.281,14.281,0,0,0-4.029,3.1,28.47,28.47,0,0,1,4.463-2.123,22.637,22.637,0,0,1,10.8-1.251A28.45,28.45,0,0,1,190.873,309.246Z" transform="translate(-170.776 -306.651)" fill="#e36b85"/>
              </g>
              <g id="Grupo_157727" data-name="Grupo 157727" transform="translate(7.859 6.404)">
                <path id="Trazado_198133" data-name="Trazado 198133" d="M175.189,268.611a28.445,28.445,0,0,0-16.079-5.06c2.268.684,5.2,1.47,8.085,2.385S172.938,267.874,175.189,268.611Z" transform="translate(-159.11 -263.546)" fill="#e36b85"/>
              </g>
              <g id="Grupo_157728" data-name="Grupo 157728" transform="translate(21.341 4.217)">
                <path id="Trazado_198134" data-name="Trazado 198134" d="M204.316,257.822a20.62,20.62,0,0,0-9.922,4.022c1.407-.526,3.178-1.284,4.964-2S202.941,258.424,204.316,257.822Z" transform="translate(-194.394 -257.822)" fill="#e36b85"/>
              </g>
              <g id="Grupo_157729" data-name="Grupo 157729" transform="translate(4.262 51.034)">
                <path id="Trazado_198135" data-name="Trazado 198135" d="M185.4,380.346c-2.364,1.15-5.063,2.4-8,3.521a69.49,69.49,0,0,1-18.972,4.406c-3.13.29-6.1.356-8.733.365a32.7,32.7,0,0,0,8.781,1.508,38.618,38.618,0,0,0,19.707-4.577A32.691,32.691,0,0,0,185.4,380.346Z" transform="translate(-149.697 -380.346)" fill="#e36b85"/>
              </g>
              <g id="Grupo_157730" data-name="Grupo 157730" transform="translate(19.44 45.536)">
                <path id="Trazado_198136" data-name="Trazado 198136" d="M205.341,365.957c-2.135,1.69-4.843,3.868-7.712,5.825s-5.865,3.714-8.211,5.1a27.713,27.713,0,0,0,15.923-10.923Z" transform="translate(-189.418 -365.957)" fill="#e36b85"/>
              </g>
              <g id="Grupo_157731" data-name="Grupo 157731" transform="translate(1.623 7.683)">
                <path id="Trazado_198137" data-name="Trazado 198137" d="M143.6,266.894a14.218,14.218,0,0,0-.264,8.6A14.218,14.218,0,0,0,143.6,266.894Z" transform="translate(-142.792 -266.894)" fill="#e36b85"/>
              </g>
              <g id="Grupo_157732" data-name="Grupo 157732" transform="translate(0 10.53)">
                <path id="Trazado_198138" data-name="Trazado 198138" d="M138.544,274.345a10.025,10.025,0,0,0,2.281,5.621A10.029,10.029,0,0,0,138.544,274.345Z" transform="translate(-138.544 -274.345)" fill="#e36b85"/>
              </g>
              <g id="Grupo_157733" data-name="Grupo 157733" transform="translate(38.706 4.007)">
                <path id="Trazado_198139" data-name="Trazado 198139" d="M240.5,257.273a14.523,14.523,0,0,0,.048,8.789A14.529,14.529,0,0,0,240.5,257.273Z" transform="translate(-239.838 -257.273)" fill="#e36b85"/>
              </g>
              <g id="Grupo_157734" data-name="Grupo 157734" transform="translate(39.389 5.948)">
                <path id="Trazado_198140" data-name="Trazado 198140" d="M243.977,262.352a11.711,11.711,0,0,0-2.35,6.684A11.706,11.706,0,0,0,243.977,262.352Z" transform="translate(-241.626 -262.352)" fill="#e36b85"/>
              </g>
            </g>
          </g>
          <g id="Grupo_157738" data-name="Grupo 157738" transform="translate(0 13.918)">
            <g id="Grupo_157737" data-name="Grupo 157737">
              <path id="Trazado_198141" data-name="Trazado 198141" d="M109.789,309.414,106,311.25,90.011,296.73l14.711-16.838-7.611-6.225L81.687,293.245a5.829,5.829,0,0,0,1.024,8.226l19.061,14.667a4.769,4.769,0,0,0,4.33.772l1.455-.455h0l4.88-7.361A4.1,4.1,0,0,0,109.789,309.414Z" transform="translate(-80.436 -273.667)" fill="#f2c9ad"/>
              <path id="Trazado_198142" data-name="Trazado 198142" d="M158.851,368.108a4.109,4.109,0,0,0-2.56-1.722l-4.88,7.361a8.011,8.011,0,0,0,7.521,1.191l3.656-1.286Z" transform="translate(-124.291 -330.957)" fill="#eba58e"/>
            </g>
            <path id="Trazado_198143" data-name="Trazado 198143" d="M123.016,273.667l7.61,6.226-5.381,6.159L122.36,274.5Z" transform="translate(-106.34 -273.667)" fill="#422c4f"/>
            <path id="Trazado_198144" data-name="Trazado 198144" d="M96.844,331.264l-5.35-1.146,1.327-.407a3.49,3.49,0,0,1,4.022,1.553Z" transform="translate(-87.269 -308.201)" fill="#eba58e"/>
          </g>
        </g>
        <g id="Grupo_157741" data-name="Grupo 157741" transform="translate(8.985 67.74)">
          <path id="Trazado_198145" data-name="Trazado 198145" d="M128.036,229.024l-7.584,6.479a4.46,4.46,0,0,0-1.459,4.348h0l2.1-1.656,4.84,7.132,8.725-7.9Z" transform="translate(-113.18 -229.024)" fill="#6ca8bf"/>
          <g id="Grupo_157740" data-name="Grupo 157740" transform="translate(0 9.171)">
            <path id="Trazado_198146" data-name="Trazado 198146" d="M104.209,288.864l.353,1.051a12.425,12.425,0,0,0,8.073,7.9l3.117.974-1.177-9.359-10.62-2.017A4.977,4.977,0,0,0,104.209,288.864Z" transform="translate(-103.953 -274.275)" fill="#e78882"/>
            <path id="Trazado_198147" data-name="Trazado 198147" d="M116.7,260.157l-4.84-7.133-2.875,2.265a5.561,5.561,0,0,0-1.627,2.083l-2.975,6.608a4.983,4.983,0,0,0-.434,2.186l10.62,2.017-.224-1.785,1.225,1.975a3.51,3.51,0,0,0,3.679,1.591h0Z" transform="translate(-103.95 -253.024)" fill="#eba58e"/>
          </g>
        </g>
        <g id="Grupo_157752" data-name="Grupo 157752" transform="translate(22.914 30.716)">
          <g id="Grupo_157742" data-name="Grupo 157742" transform="translate(13.664 33.059)">
            <path id="Trazado_198148" data-name="Trazado 198148" d="M187.915,221.344c-.064.319-.141.636-.234.949a6.212,6.212,0,0,1-1.964,3.125,5.981,5.981,0,0,1-5.994.5,10.135,10.135,0,0,1-3.047-2.135l1,6.666,1.8.678a9.366,9.366,0,0,0,10.443-2.706h0Z" transform="translate(-176.479 -220.314)" fill="#f2c9ad"/>
            <path id="Trazado_198149" data-name="Trazado 198149" d="M185.4,223.752a6.212,6.212,0,0,0,1.964-3.125c.094-.313.17-.629.234-.949l-.292-1.03L176.161,220.8l.2,1.316a10.135,10.135,0,0,0,3.047,2.135A5.981,5.981,0,0,0,185.4,223.752Z" transform="translate(-176.161 -218.649)" fill="#422c4f"/>
          </g>
          <g id="Grupo_157743" data-name="Grupo 157743">
            <path id="Trazado_198150" data-name="Trazado 198150" d="M161.169,213.752a8.27,8.27,0,0,0-4.724,3.055c-1.948,2.535-2.148,5.905-4.461,8.217a5.991,5.991,0,0,1-5.9,1.713,5.034,5.034,0,0,1-1.5-.814,10.484,10.484,0,0,0,2.54,3.536,6.756,6.756,0,0,0,5.851,1.675,6.315,6.315,0,0,0,3.721-2.7,8.806,8.806,0,0,0,1.365-4.445,21.98,21.98,0,0,0-1.368-7.395,45.129,45.129,0,0,1,8.208-2.674A7.345,7.345,0,0,0,161.169,213.752Z" transform="translate(-142.985 -182.463)" fill="#422c4f"/>
            <path id="Trazado_198151" data-name="Trazado 198151" d="M172.179,171.285a5.043,5.043,0,0,0,4.407-2.2,7.176,7.176,0,0,0,1.136-2.657,19.962,19.962,0,0,0-1.653-6.354c-1.539-3.622-3.685-7.025-4.58-10.858-.891-3.813-.557-8.052-2.669-11.35a11.341,11.341,0,0,0-3.646-3.433,16.54,16.54,0,0,0-19.266,1.775c-5.121,4.655-4.843,11.131-3.835,17.977.58,3.938-1.113,7.824-1.555,11.78a18.906,18.906,0,0,0,.78,7.829,15.687,15.687,0,0,0,.7,1.8,5.034,5.034,0,0,0,1.5.814,5.991,5.991,0,0,0,5.9-1.713c2.313-2.311,2.513-5.682,4.461-8.217a8.27,8.27,0,0,1,4.724-3.055,7.345,7.345,0,0,1,3.731.17,20.011,20.011,0,0,1,2.951-.382c-.028.716-.053,1.44-.058,2.162.93.918,1.7,2.021,2.536,3.034C168.9,169.8,170.378,171.115,172.179,171.285Z" transform="translate(-140.402 -132.132)" fill="#654059"/>
            <path id="Trazado_198152" data-name="Trazado 198152" d="M216.7,222.831a5.043,5.043,0,0,1-4.407,2.2c-1.8-.17-3.278-1.487-4.433-2.88-.84-1.013-1.606-2.116-2.536-3.034a14.658,14.658,0,0,0,.868,5.669c1,2.45,3.4,4.536,6.037,4.286a6.238,6.238,0,0,0,4.778-3.822,10.454,10.454,0,0,0,.83-5.081A7.176,7.176,0,0,1,216.7,222.831Z" transform="translate(-180.516 -185.882)" fill="#422c4f"/>
          </g>
          <path id="Trazado_198153" data-name="Trazado 198153" d="M177.937,170.819A16.378,16.378,0,0,1,167.4,163.51a19.02,19.02,0,0,1-10.234,11.464l.5,3.724c.831,6.134,6.193,10.473,11.978,9.689s9.8-6.391,8.97-12.526Z" transform="translate(-150.762 -151.52)" fill="#f2c9ad"/>
          <g id="Grupo_157744" data-name="Grupo 157744" transform="translate(10.004 19.833)">
            <path id="Trazado_198154" data-name="Trazado 198154" d="M168.718,184.265a3.528,3.528,0,0,0-2.134,2.3l5.259-1.992A3.526,3.526,0,0,0,168.718,184.265Z" transform="translate(-166.584 -184.036)" fill="#654059"/>
          </g>
          <g id="Grupo_157745" data-name="Grupo 157745" transform="translate(11.41 21.924)">
            <path id="Trazado_198155" data-name="Trazado 198155" d="M174.268,190.278a1.966,1.966,0,0,0-.984-.663,2.4,2.4,0,0,0-2.563.768,1.968,1.968,0,0,0-.458,1.095,3.991,3.991,0,0,1,4-1.2Z" transform="translate(-170.263 -189.508)" fill="#422c4f"/>
          </g>
          <g id="Grupo_157746" data-name="Grupo 157746" transform="translate(19.544 18.544)">
            <path id="Trazado_198156" data-name="Trazado 198156" d="M194.5,180.684a3.528,3.528,0,0,1,2.639,1.7l-5.589-.627A3.528,3.528,0,0,1,194.5,180.684Z" transform="translate(-191.549 -180.662)" fill="#654059"/>
          </g>
          <g id="Grupo_157747" data-name="Grupo 157747" transform="translate(19.972 20.686)">
            <path id="Trazado_198157" data-name="Trazado 198157" d="M192.67,187.51a1.965,1.965,0,0,1,.789-.886,2.4,2.4,0,0,1,2.674.108,1.969,1.969,0,0,1,.715.947,3.991,3.991,0,0,0-4.177-.17Z" transform="translate(-192.67 -186.268)" fill="#422c4f"/>
          </g>
          <path id="Trazado_198158" data-name="Trazado 198158" d="M187.328,201.641l-3.134.642a1.861,1.861,0,0,0,1.717.8A2.1,2.1,0,0,0,187.328,201.641Z" transform="translate(-167.461 -175.081)" fill="#eba58e"/>
          <path id="Trazado_198159" data-name="Trazado 198159" d="M185.679,206.148a18.356,18.356,0,0,1-8.956,2.451,9.649,9.649,0,0,0,1.835,2.065,4.4,4.4,0,0,0,2.553.971,4.109,4.109,0,0,0,3.241-1.7A7.3,7.3,0,0,0,185.679,206.148Z" transform="translate(-162.844 -177.866)" fill="#fff"/>
          <g id="Grupo_157748" data-name="Grupo 157748" transform="translate(7.361 7.389)">
            <path id="Trazado_198160" data-name="Trazado 198160" d="M159.667,159.836a12.077,12.077,0,0,0,7.478-8.367,43.285,43.285,0,0,0-7.478,8.367Z" transform="translate(-159.667 -151.469)" fill="#754e6a"/>
          </g>
          <g id="Grupo_157749" data-name="Grupo 157749" transform="translate(6.019 5.972)">
            <path id="Trazado_198161" data-name="Trazado 198161" d="M156.154,152.058a9.889,9.889,0,0,0,7.857-4.3,31.316,31.316,0,0,0-7.857,4.3Z" transform="translate(-156.154 -147.762)" fill="#754e6a"/>
          </g>
          <g id="Grupo_157750" data-name="Grupo 157750" transform="translate(16.848 6.964)">
            <path id="Trazado_198162" data-name="Trazado 198162" d="M192.077,154.478c-1.06-.729-2.4-1.45-3.728-2.178s-2.667-1.45-3.856-1.943a8.259,8.259,0,0,0,7.584,4.121Z" transform="translate(-184.493 -150.357)" fill="#754e6a"/>
          </g>
          <g id="Grupo_157751" data-name="Grupo 157751" transform="translate(17.341 5.624)">
            <path id="Trazado_198163" data-name="Trazado 198163" d="M193.123,148.074a12.253,12.253,0,0,0-7.339-1.04A12.251,12.251,0,0,0,193.123,148.074Z" transform="translate(-185.784 -146.85)" fill="#754e6a"/>
          </g>
        </g>
        <g id="Grupo_157771" data-name="Grupo 157771" transform="translate(84.082 31.478)">
          <g id="Grupo_157754" data-name="Grupo 157754" transform="translate(65.273 47.164)">
            <path id="Trazado_198164" data-name="Trazado 198164" d="M471.632,257.557h0a8.631,8.631,0,0,1,6.771,5.864l8.377,26.021L497.862,277.6l.924,3.159a3.819,3.819,0,0,0,2.681,2.617l3.655.975-15.346,15.789a5.848,5.848,0,0,1-9.739-2.218L471.3,271.865Z" transform="translate(-471.305 -257.557)" fill="#f4d071"/>
            <path id="Trazado_198165" data-name="Trazado 198165" d="M548.065,316.752l-2.8-5.159L540.8,310l.924,3.159a3.819,3.819,0,0,0,2.681,2.617Z" transform="translate(-514.248 -289.962)" fill="#eca85e"/>
            <g id="Grupo_157753" data-name="Grupo 157753" transform="translate(26.557 1.762)">
              <path id="Trazado_198166" data-name="Trazado 198166" d="M549.558,284.459l.28,1.123a6.872,6.872,0,0,1-.233,4.082l-1.515,4.037a21.524,21.524,0,0,1-3.681,6.294h0a3.818,3.818,0,0,1-2.681-2.617l-.924-3.159,1.911-6.178Z" transform="translate(-540.805 -275.941)" fill="#bd6c67"/>
              <path id="Trazado_198167" data-name="Trazado 198167" d="M545.307,274.268h0a10.956,10.956,0,0,1,2.982-10.406l1.73-1.694,2.13,8.518-6.842,3.582Z" transform="translate(-543.396 -262.168)" fill="#a64f5a"/>
            </g>
            <path id="Trazado_198168" data-name="Trazado 198168" d="M477.512,280.81l-5.5-12.184-.474-.555-.235,10.29L478.4,299.52l.855-4.857A23.7,23.7,0,0,0,477.512,280.81Z" transform="translate(-471.305 -264.053)" fill="#eca85e"/>
          </g>
          <g id="Grupo_157755" data-name="Grupo 157755" transform="translate(24.218 101.367)">
            <path id="Trazado_198169" data-name="Trazado 198169" d="M364.95,399.407l-.24,1.438a62.29,62.29,0,0,0-.034,20.272l1.235,7.566h19.018l2.038-12.1,1.6,12.1h19.786l1.106-5.045a39.489,39.489,0,0,0-1.106-20.939h0Z" transform="translate(-363.863 -399.407)" fill="#3e4870"/>
            <path id="Trazado_198170" data-name="Trazado 198170" d="M375.685,414.737c.579-1.915,1.423-3.9,2-5.815a32.725,32.725,0,0,0,21.918,1.014c.289,1.53.658,3.269.948,4.8a14.177,14.177,0,0,0,8.3-4.013,13.527,13.527,0,0,0,1.217-1.5,39.507,39.507,0,0,0-1.57-6.521l-43.4-3.293-.24,1.438a62.372,62.372,0,0,0-.76,7A19.949,19.949,0,0,0,375.685,414.737Z" transform="translate(-364.004 -399.407)" fill="#422c4f"/>
          </g>
          <g id="Grupo_157761" data-name="Grupo 157761" transform="translate(30.674)">
            <path id="Trazado_198171" data-name="Trazado 198171" d="M406.9,173.925a4.31,4.31,0,0,1-3.034,1.326,4.462,4.462,0,0,1-3.093-1.341,7.734,7.734,0,0,1-6.878,1.632,7.829,7.829,0,0,1-5.2-4.855,5.923,5.923,0,0,1-6.267-2.821,5.819,5.819,0,0,1,.907-6.745A6.067,6.067,0,0,1,385.8,150.17a7.1,7.1,0,0,1,.2-7.337,6.181,6.181,0,0,1,6.359-2.439,5.5,5.5,0,0,1,3.034-4.337,5.564,5.564,0,0,1,5.293.6,6.6,6.6,0,0,1,5.868-2.485,6.815,6.815,0,0,1,5.256,3.794,6.008,6.008,0,0,1,5.335,1.562,5.672,5.672,0,0,1,1.569,5.159,5.958,5.958,0,0,1,3.941,4.026,5.864,5.864,0,0,1-1.352,5.421,5.928,5.928,0,0,1,2.2,5.254,5.829,5.829,0,0,1-3.57,4.376,5.775,5.775,0,0,1,.786,6.135,5.626,5.626,0,0,1-5.427,2.786,4.722,4.722,0,0,1-3.484,2.975A6.008,6.008,0,0,1,406.9,173.925Z" transform="translate(-380.757 -134.126)" fill="#422c4f"/>
            <g id="Grupo_157756" data-name="Grupo 157756" transform="translate(13.003 37.838)">
              <path id="Trazado_198172" data-name="Trazado 198172" d="M424.956,237.454a6.413,6.413,0,0,0,4.825,1.889,6.315,6.315,0,0,0,3.882-2.1,10.381,10.381,0,0,0,.756-.913V233.77l-10.508-.621v3.178A10.92,10.92,0,0,0,424.956,237.454Z" transform="translate(-420.424 -233.149)" fill="#422c4f"/>
              <path id="Trazado_198173" data-name="Trazado 198173" d="M428.781,246.025v-4.559a10.377,10.377,0,0,1-.756.913,6.315,6.315,0,0,1-3.882,2.1,6.413,6.413,0,0,1-4.825-1.889,10.916,10.916,0,0,1-1.045-1.128v3.844l-3.487.478,1.263,1.141a10.953,10.953,0,0,0,14.928-.233h0Z" transform="translate(-414.786 -238.287)" fill="#bd6c67"/>
            </g>
            <path id="Trazado_198174" data-name="Trazado 198174" d="M420.765,159.524a10.6,10.6,0,0,0-10.6,10.6v3.86a10.6,10.6,0,0,1,21.207,0v-3.86A10.6,10.6,0,0,0,420.765,159.524Z" transform="translate(-398.925 -149.819)" fill="#e36b85"/>
            <g id="Grupo_157757" data-name="Grupo 157757" transform="translate(11.236 13.565)">
              <path id="Trazado_198175" data-name="Trazado 198175" d="M414.788,177.562a6.834,6.834,0,0,0,8.628-4.049,5.469,5.469,0,0,0,1.911,4.162,5.032,5.032,0,0,0,4.3.852,5.356,5.356,0,0,0,1.74,3.659v-1.956a10.6,10.6,0,0,0-21.207,0v1.583A6.652,6.652,0,0,0,414.788,177.562Z" transform="translate(-410.161 -169.627)" fill="#422c4f"/>
              <path id="Trazado_198176" data-name="Trazado 198176" d="M429.628,184.812a5.032,5.032,0,0,1-4.3-.852,5.469,5.469,0,0,1-1.911-4.162,6.834,6.834,0,0,1-8.628,4.049,6.652,6.652,0,0,1-4.627,4.251v5.16a10.6,10.6,0,0,0,21.207,0v-4.787A5.356,5.356,0,0,1,429.628,184.812Z" transform="translate(-410.161 -175.912)" fill="#bd6c67"/>
            </g>
            <g id="Grupo_157760" data-name="Grupo 157760" transform="translate(14.55 22.969)">
              <g id="Grupo_157758" data-name="Grupo 157758">
                <path id="Trazado_198177" data-name="Trazado 198177" d="M421.824,194.236a3.775,3.775,0,0,0-2.99,1.535l6.019-.078A3.775,3.775,0,0,0,421.824,194.236Z" transform="translate(-418.834 -194.236)" fill="#422c4f"/>
              </g>
              <path id="Trazado_198178" data-name="Trazado 198178" d="M426.128,202.854a.942.942,0,1,1-.942-.942A.942.942,0,0,1,426.128,202.854Z" transform="translate(-422.177 -198.979)" fill="#422c4f"/>
              <g id="Grupo_157759" data-name="Grupo 157759" transform="translate(10.216)">
                <path id="Trazado_198179" data-name="Trazado 198179" d="M448.6,194.236a3.774,3.774,0,0,1,2.99,1.535l-6.018-.078A3.774,3.774,0,0,1,448.6,194.236Z" transform="translate(-445.57 -194.236)" fill="#422c4f"/>
              </g>
              <path id="Trazado_198180" data-name="Trazado 198180" d="M450.98,202.854a.942.942,0,1,0,.942-.942A.942.942,0,0,0,450.98,202.854Z" transform="translate(-438.697 -198.979)" fill="#422c4f"/>
              <path id="Trazado_198181" data-name="Trazado 198181" d="M437.864,213.918a21.19,21.19,0,0,0-5.039.014,2.748,2.748,0,0,0,2.789,1.433A5.8,5.8,0,0,0,437.864,213.918Z" transform="translate(-427.479 -206.309)" fill="#a64f5a"/>
              <path id="Trazado_198182" data-name="Trazado 198182" d="M436.424,220.8a39.168,39.168,0,0,1-10.861-.1,7.124,7.124,0,0,0,1.828,2.978A5.223,5.223,0,0,0,430.53,225a5.519,5.519,0,0,0,3.505-1.141A9.445,9.445,0,0,0,436.424,220.8Z" transform="translate(-422.992 -210.587)" fill="#fff"/>
            </g>
          </g>
          <g id="Grupo_157763" data-name="Grupo 157763" transform="translate(0 44.753)">
            <path id="Trazado_198183" data-name="Trazado 198183" d="M339.478,251.257h0a6.641,6.641,0,0,0-6.693,4.6L324,283.131l-11.081-11.845L312,274.445a3.818,3.818,0,0,1-2.681,2.617l-3.655.975,15.346,15.789a5.848,5.848,0,0,0,9.739-2.218l8.732-26.054Z" transform="translate(-303.682 -251.247)" fill="#f4d071"/>
            <path id="Trazado_198184" data-name="Trazado 198184" d="M378.752,267.315l-1.21,1.672-6.255,10.3a14.2,14.2,0,0,0-1.992,8.8l1.211,12,8.246-24.6Z" transform="translate(-342.956 -261.175)" fill="#eca85e"/>
            <path id="Trazado_198185" data-name="Trazado 198185" d="M305.661,310.441l2.8-5.159,4.458-1.592L312,306.849a3.818,3.818,0,0,1-2.681,2.617Z" transform="translate(-303.682 -283.651)" fill="#eca85e"/>
            <g id="Grupo_157762" data-name="Grupo 157762" transform="translate(0 1.762)">
              <path id="Trazado_198186" data-name="Trazado 198186" d="M300.969,278.148l-.28,1.123a6.876,6.876,0,0,0,.233,4.082l1.515,4.037a21.523,21.523,0,0,0,3.681,6.293h0a3.818,3.818,0,0,0,2.681-2.617l.925-3.159-1.911-6.177Z" transform="translate(-300.483 -269.63)" fill="#bd6c67"/>
              <path id="Trazado_198187" data-name="Trazado 198187" d="M308.6,267.957h0a10.957,10.957,0,0,0-2.983-10.406l-1.73-1.694-2.129,8.518,6.842,3.583Z" transform="translate(-301.268 -255.857)" fill="#a64f5a"/>
            </g>
          </g>
          <g id="Grupo_157770" data-name="Grupo 157770" transform="translate(22.867 44.764)">
            <path id="Trazado_198188" data-name="Trazado 198188" d="M403.35,252.774,401.482,263.1a85.447,85.447,0,0,0-1.262,19.433h0a85.436,85.436,0,0,1-1.659,21.48l-2.282,11.059h0a40.252,40.252,0,0,0,24.187,1.454l.451-.113-1.432-12.638a78.46,78.46,0,0,1,.355-20.366h0a78.445,78.445,0,0,0,.63-17.448l-.927-12.275h0a10.953,10.953,0,0,1-14.928.233Z" transform="translate(-382.541 -252.201)" fill="#6bc5ff"/>
            <g id="Grupo_157769" data-name="Grupo 157769" transform="translate(8.633 3.54)">
              <g id="Grupo_157764" data-name="Grupo 157764" transform="translate(12.058)">
                <path id="Trazado_198189" data-name="Trazado 198189" d="M428.336,262.748a14.053,14.053,0,0,1-3.381,1.039,11.706,11.706,0,0,1-7.588-1.21,14.087,14.087,0,0,1-2.891-2.039,8.483,8.483,0,0,0,2.489,2.693,9.364,9.364,0,0,0,8.168,1.3A8.479,8.479,0,0,0,428.336,262.748Z" transform="translate(-414.476 -260.538)" fill="#5dabff"/>
              </g>
              <g id="Grupo_157765" data-name="Grupo 157765" transform="translate(4.384 25.142)">
                <path id="Trazado_198190" data-name="Trazado 198190" d="M422.311,331.682a20.612,20.612,0,0,0-5.832-3.583,23.667,23.667,0,0,0-7.681-1.726,32.209,32.209,0,0,0-7.779.682c-2.418.459-4.636.955-6.625,1.278a32.928,32.928,0,0,0,6.8.149,65.928,65.928,0,0,1,7.5-.2,36.125,36.125,0,0,1,7.323,1.173A44.642,44.642,0,0,1,422.311,331.682Z" transform="translate(-394.394 -326.337)" fill="#5dabff"/>
              </g>
              <g id="Grupo_157766" data-name="Grupo 157766" transform="translate(7.791 7.128)">
                <path id="Trazado_198191" data-name="Trazado 198191" d="M415.811,289.791a27.9,27.9,0,0,0-12.5-10.6c1.77,1.473,4.094,3.285,6.338,5.2S414.068,288.286,415.811,289.791Z" transform="translate(-403.31 -279.193)" fill="#5dabff"/>
              </g>
              <g id="Grupo_157767" data-name="Grupo 157767" transform="translate(0 51.904)">
                <path id="Trazado_198192" data-name="Trazado 198192" d="M415.146,401.694a54.38,54.38,0,0,1-7.839.834,44.831,44.831,0,0,1-17.232-2.845,54.415,54.415,0,0,1-7.155-3.31,24.672,24.672,0,0,0,6.459,4.857,29.12,29.12,0,0,0,18.089,2.987A24.669,24.669,0,0,0,415.146,401.694Z" transform="translate(-382.92 -396.373)" fill="#5dabff"/>
              </g>
              <g id="Grupo_157768" data-name="Grupo 157768" transform="translate(13.356 51.128)">
                <path id="Trazado_198193" data-name="Trazado 198193" d="M438.775,394.343a84.073,84.073,0,0,1-20.9,3.781,23.89,23.89,0,0,0,5.043.634,28.967,28.967,0,0,0,11.358-2.055A23.879,23.879,0,0,0,438.775,394.343Z" transform="translate(-417.872 -394.343)" fill="#5dabff"/>
              </g>
            </g>
            <path id="Trazado_198194" data-name="Trazado 198194" d="M381.961,251.847l-1.868,10.321A85.447,85.447,0,0,0,378.83,281.6h0a85.438,85.438,0,0,1-1.659,21.48L374.4,316.52l-3.107-1.05a15.372,15.372,0,0,1-8.779-7.592l-.852-1.675,5.152-17.21a16.588,16.588,0,0,0,.335-8.207l-.225-1.059a15.645,15.645,0,0,1,1.021-9.636l4.925-11.015,1.21-7.8Z" transform="translate(-361.151 -251.274)" fill="#f4d071"/>
            <path id="Trazado_198195" data-name="Trazado 198195" d="M372.486,407.681l-.95,4.253-1.306-.343a15.443,15.443,0,0,1-9.9-8.063h0l1.361-4.12h0A15.372,15.372,0,0,0,370.467,407Z" transform="translate(-360.327 -342.804)" fill="#df8d6d"/>
            <path id="Trazado_198196" data-name="Trazado 198196" d="M456.263,255.149l.927,12.275a78.444,78.444,0,0,1-.63,17.448h0a78.457,78.457,0,0,0-.355,20.366l1.647,14.536,2.029-.271a11.171,11.171,0,0,0,7.2-4.044l.451-.557-1.848-16.258a26.676,26.676,0,0,1,.8-10.127h0a26.678,26.678,0,0,0-.169-14.816l-3.937-13.059-.382-4.573Z" transform="translate(-419.261 -253.668)" fill="#f4d071"/>
            <path id="Trazado_198197" data-name="Trazado 198197" d="M463.325,417.194l.256,4.21,1.686-.4a11.171,11.171,0,0,0,6.921-4.99l.054-.087-.451-2.946h0a11.171,11.171,0,0,1-7.2,4.044Z" transform="translate(-423.968 -351.191)" fill="#df8d6d"/>
          </g>
        </g>
      </g>
    </g>
  </g>
</svg>
