<svg xmlns="http://www.w3.org/2000/svg" xmlns:xlink="http://www.w3.org/1999/xlink" width="400" height="579" viewBox="0 0 400 579">
  <defs>
    <clipPath id="clip-path">
      <path id="Trazado_197421" data-name="Trazado 197421" d="M423.987,362.734c-1.927-14.584-33.051-33.852-44.143-41.6l-34.951,35.058L331.24,324.111c-10.5,5.641-27.333,16.31-31.315,28.476-5.892,18-4.069,111.6-4.069,111.6h117s1.31-28.124,1.31-40.236S426.278,380.083,423.987,362.734Z" transform="translate(-295.589 -321.129)" fill="none"/>
    </clipPath>
  </defs>
  <g id="Grupo_157866" data-name="Grupo 157866" transform="translate(2448 9799)">
    <rect id="Rectángulo_46556" data-name="Rectángulo 46556" width="400" height="579" rx="20" transform="translate(-2448 -9799)" fill="#2194e5"/>
    <g id="Grupo_155464" data-name="Grupo 155464" transform="translate(-2453.818 -9620.627)">
      <g id="BACKGROUND" transform="translate(22.015 31.86)">
        <g id="Grupo_155406" data-name="Grupo 155406">
          <g id="Grupo_155405" data-name="Grupo 155405" opacity="0.3">
            <g id="Grupo_155404" data-name="Grupo 155404">
              <path id="Trazado_197396" data-name="Trazado 197396" d="M294.948,367.093c-1.135-.018-2.3-.057-3.465-.116l.042-.836c1.154.059,2.31.1,3.435.116Zm3.468-.007-.017-.836c1.16-.023,2.315-.069,3.433-.134l.048.834C300.753,367.017,299.587,367.063,298.416,367.086Zm-10.391-.347q-1.727-.146-3.445-.346l.1-.831q1.707.2,3.421.345Zm17.312-.054-.08-.833c1.147-.11,2.295-.242,3.412-.394l.112.828C307.652,366.44,306.494,366.574,305.336,366.686Zm-24.191-.738q-1.714-.247-3.421-.536l.139-.825q1.7.289,3.4.533Zm31.061-.193-.145-.823c1.133-.2,2.267-.422,3.369-.663l.178.817C314.5,365.328,313.351,365.554,312.206,365.755Zm-37.889-.958q-1.7-.326-3.391-.685l.174-.819q1.685.357,3.376.682Zm44.666-.515-.211-.809c1.114-.29,2.228-.6,3.311-.933l.244.8C321.232,363.673,320.106,363.99,318.983,364.281Zm-51.435-.914q-1.685-.385-3.365-.793l.2-.813q1.676.405,3.354.789Zm58.079-1.105-.275-.789c1.072-.374,2.156-.777,3.221-1.2l.308.777C327.8,361.478,326.71,361.885,325.627,362.262Zm-211.078-.347-.009-.835.234,0c1.135-.013,2.29-.05,3.432-.111l.045.834c-1.154.062-2.32.1-3.468.113Zm-3.471-.05c-1.158-.044-2.323-.116-3.465-.213l.071-.833c1.128.1,2.28.166,3.425.21Zm149.747-.122q-1.673-.425-3.345-.861l.21-.809q1.67.435,3.341.86Zm-139.116-.19-.076-.833c1.1-.1,2.255-.224,3.419-.368l.1.829C123.981,361.327,122.822,361.452,121.709,361.553Zm-17.545-.273c-1.147-.153-2.3-.332-3.429-.535l.149-.824c1.115.2,2.255.379,3.389.529Zm24.422-.574-.126-.826q1.7-.26,3.395-.565l.147.823Q130.3,360.442,128.586,360.7Zm-31.25-.657c-1.127-.26-2.259-.548-3.362-.857l.225-.805c1.092.306,2.211.59,3.325.846Zm156.8-.047-3.337-.892.218-.808,3.335.892Zm77.941-.286-.337-.766c1.053-.465,2.1-.953,3.113-1.451l.369.75C334.2,358.751,333.144,359.245,332.08,359.716ZM135.4,359.494l-.163-.82q1.688-.336,3.373-.7l.177.817Q137.1,359.157,135.4,359.494Zm112.066-1.278q-1.665-.445-3.335-.884l.213-.809q1.67.44,3.338.886ZM90.656,358.18c-1.1-.363-2.2-.756-3.269-1.166l.3-.781c1.06.407,2.148.795,3.232,1.153Zm51.508-.134-.185-.816q1.682-.38,3.361-.774l.19.814Q143.848,357.664,142.164,358.047ZM338.3,356.662l-.4-.736c.992-.537,2-1.105,2.988-1.69l.425.72C340.322,355.547,339.307,356.121,338.3,356.662Zm-189.413-.181-.192-.814,3.362-.789.19.813Zm91.9-.017q-1.669-.427-3.344-.84l.2-.812q1.678.413,3.352.842ZM84.177,355.7c-1.046-.457-2.1-.947-3.139-1.459l.369-.75c1.025.505,2.07.992,3.1,1.444Zm71.437-.78-.185-.816q1.685-.381,3.375-.749l.177.817Q157.3,354.533,155.614,354.916Zm78.483-.094q-1.678-.39-3.361-.756l.177-.817q1.69.365,3.374.759Zm-71.743-1.356-.165-.82q1.347-.27,2.7-.52l.7-.128.146.823-.7.127Q163.7,353.2,162.354,353.466Zm65.009-.1q-.824-.164-1.647-.318-.869-.163-1.738-.318l.146-.823c.581.1,1.164.21,1.745.318q.83.156,1.656.321Zm116.907-.228-.451-.7c.947-.609,1.907-1.252,2.85-1.91l.478.686C346.194,351.876,345.227,352.523,344.27,353.138Zm-266.3-.5c-1.013-.559-2.022-1.144-3-1.739l.436-.713c.964.589,1.962,1.168,2.965,1.72Zm91.167-.389-.131-.827q1.709-.27,3.424-.5l.114.828Q170.833,351.978,169.133,352.248Zm51.448-.08q-1.7-.265-3.409-.493l.111-.829q1.717.23,3.425.5Zm-44.626-.855-.1-.831q1.719-.2,3.442-.363l.078.833Q177.667,351.113,175.956,351.313Zm37.8-.059q-1.712-.193-3.426-.35l.076-.833q1.724.158,3.444.352Zm-30.945-.592-.062-.834q1.726-.127,3.454-.218l.044.834Q184.529,350.534,182.811,350.662Zm24.086-.038q-1.719-.121-3.438-.207l.042-.836q1.727.088,3.455.209Zm-17.208-.329-.027-.836q1.73-.056,3.461-.076l.009.835Q191.41,350.239,189.689,350.3Zm10.33-.015q-1.72-.052-3.444-.066l.008-.836q1.731.014,3.461.066Zm149.933-1.1-.5-.669c.911-.685,1.821-1.395,2.706-2.109l.525.649C351.788,347.777,350.87,348.493,349.951,349.184Zm-277.9-.158c-.953-.641-1.907-1.312-2.834-2l.5-.673c.918.677,1.862,1.342,2.8,1.976Zm-5.581-4.115c-.891-.718-1.783-1.469-2.654-2.234l.552-.628c.861.757,1.745,1.5,2.627,2.21Zm288.865-.078-.546-.633c.859-.744,1.72-1.515,2.561-2.293l.569.613C357.073,343.305,356.2,344.084,355.337,344.833Zm-294.077-4.5c-.829-.792-1.656-1.616-2.458-2.448l.6-.58c.794.824,1.612,1.639,2.434,2.423Zm299.165-.207-.587-.6c.814-.8,1.624-1.628,2.41-2.453l.606.576C362.063,338.489,361.246,339.32,360.426,340.128ZM56.448,335.34c-.761-.856-1.518-1.744-2.251-2.641l.647-.529c.726.888,1.476,1.767,2.228,2.616Zm308.759-.226-.621-.557q1.143-1.276,2.261-2.594l.637.541Q366.358,333.83,365.207,335.114ZM52.055,329.97c-.693-.922-1.376-1.869-2.03-2.813l.687-.476c.648.935,1.324,1.873,2.011,2.786Zm317.629-.142-.653-.521q1.07-1.339,2.113-2.716l.667.5Q370.762,328.483,369.685,329.829Zm4.18-5.522-.679-.487q.335-.468.666-.938.659-.936,1.292-1.887l.7.463q-.639.96-1.305,1.905Q374.2,323.837,373.864,324.306Zm-325.755-.042c-.617-.971-1.222-1.97-1.8-2.966l.723-.418c.572.986,1.172,1.975,1.783,2.937Zm329.6-5.728L377,318.1c.59-.961,1.178-1.957,1.746-2.961l.728.412C378.9,316.562,378.307,317.567,377.711,318.536ZM44.63,318.263c-.535-1.012-1.06-2.055-1.559-3.1l.755-.361c.493,1.034,1.013,2.066,1.543,3.069ZM381.121,312.5l-.741-.384c.526-1.017,1.038-2.052,1.524-3.081l.756.358C382.17,310.429,381.652,311.474,381.121,312.5Zm-339.483-.492c-.455-1.059-.895-2.14-1.307-3.213l.781-.3c.407,1.064.842,2.135,1.293,3.181Zm342.447-5.776-.769-.33c.449-1.041.886-2.112,1.3-3.182l.78.3C384.978,304.1,384.537,305.18,384.085,306.231Zm-344.929-.7c-.369-1.1-.721-2.21-1.042-3.309l.8-.234c.319,1.088.666,2.19,1.032,3.276Zm347.437-5.762-.79-.274c.377-1.084.738-2.183,1.073-3.266l.8.246C387.337,297.567,386.973,298.675,386.593,299.768Zm-349.385-.895c-.279-1.121-.537-2.26-.767-3.383l.819-.167c.228,1.112.483,2.239.76,3.349Zm351.433-5.729-.808-.218c.3-1.09.581-2.212.844-3.333l.813.19C389.224,290.915,388.939,292.045,388.64,293.145ZM35.816,292.077c-.184-1.14-.345-2.3-.48-3.436l.83-.1c.134,1.128.293,2.273.475,3.4ZM390.223,286.4l-.82-.162c.223-1.125.429-2.263.61-3.383l.825.134C390.656,284.114,390.448,285.262,390.223,286.4ZM35.005,285.188c-.086-1.154-.146-2.321-.181-3.467l.836-.025c.034,1.134.094,2.288.178,3.431Zm356.333-5.634-.829-.106c.144-1.13.272-2.279.378-3.417l.833.078C391.612,277.254,391.484,278.414,391.338,279.554Zm-355.7-1.292-.836-.013c.017-1.153.06-2.321.128-3.469l.835.05C35.692,275.965,35.65,277.119,35.633,278.261Zm356.347-5.609-.833-.05c.066-1.131.114-2.287.142-3.434l.836.02C392.1,270.345,392.048,271.511,391.98,272.652ZM36.043,271.409l-.832-.088c.122-1.148.271-2.307.445-3.444l.827.127C36.311,269.128,36.163,270.274,36.043,271.409Zm355.271-5.679c-.011-1.141-.042-2.3-.094-3.437l.836-.038c.051,1.15.082,2.315.094,3.466ZM37.065,264.615l-.823-.153q.317-1.7.663-3.4l.819.167Q37.381,262.923,37.065,264.615Zm353.945-5.753c-.089-1.123-.2-2.275-.33-3.422l.831-.094c.131,1.156.242,2.318.333,3.45Zm-352.58-1-.817-.175.723-3.376.817.175Zm351.8-5.825c-.169-1.128-.361-2.268-.569-3.389l.821-.154c.211,1.131.4,2.282.574,3.42ZM39.865,251.1l-.819-.169q.348-1.689.673-3.381l.821.157Q40.218,249.406,39.865,251.1Zm349.108-5.825c-.251-1.123-.523-2.246-.809-3.341l.809-.211c.288,1.1.562,2.238.814,3.369ZM41.148,244.3l-.825-.136c.194-1.173.365-2.317.508-3.4l.829.11C41.515,241.964,41.343,243.118,41.148,244.3Zm346.089-5.675c-.327-1.092-.68-2.193-1.048-3.273l.793-.27c.37,1.089.726,2.2,1.056,3.3Zm-345.193-1.2-.833-.074c.106-1.166.182-2.318.226-3.425l.836.034C42.228,235.08,42.151,236.246,42.044,237.425Zm342.978-5.3c-.409-1.072-.841-2.144-1.285-3.186l.769-.328c.448,1.052.884,2.135,1.3,3.215ZM41.479,230.5c-.019-1.116-.071-2.269-.156-3.424l.834-.061c.086,1.17.138,2.339.158,3.471Zm340.853-4.7q-.542-1.154-1.117-2.293-.2-.395-.4-.789l.741-.385c.138.266.274.53.408.8q.581,1.149,1.127,2.314ZM40.983,223.662c-.139-1.111-.31-2.253-.505-3.395l.825-.142c.2,1.155.369,2.31.51,3.433Zm338.2-3.98q-.832-1.5-1.7-2.991l.722-.422q.871,1.5,1.711,3.009ZM39.827,216.9c-.233-1.087-.494-2.214-.778-3.349l.812-.2c.286,1.144.549,2.281.784,3.377Zm335.9-3.17q-.888-1.479-1.787-2.95l.713-.436q.9,1.476,1.791,2.955Zm-337.565-3.5q-.464-1.654-.971-3.3l.8-.245q.509,1.658.977,3.321Zm333.981-2.4q-.9-1.478-1.782-2.962l.719-.427q.879,1.482,1.778,2.955ZM36.154,203.635q-.533-1.636-1.091-3.27l.792-.269q.558,1.639,1.094,3.281Zm332.465-1.757q-.863-1.5-1.687-3.025l.736-.4q.818,1.513,1.676,3.007ZM33.939,197.1q-.543-1.563-1.093-3.126l-.046-.131.789-.277.046.131q.549,1.564,1.095,3.129Zm331.393-1.324c-.53-1.063-1.032-2.117-1.488-3.133l.762-.343c.453,1.005.949,2.049,1.475,3.1ZM31.659,190.585q-.567-1.633-1.124-3.268l.792-.269q.553,1.633,1.121,3.262Zm330.856-1.153c-.4-1.071-.776-2.179-1.113-3.294l.8-.242c.333,1.1.7,2.19,1.1,3.244Zm-333.07-5.4q-.534-1.648-1.039-3.3l.8-.244q.5,1.645,1.034,3.286Zm331.044-1.248c-.266-1.091-.511-2.233-.733-3.393l.822-.156c.217,1.147.461,2.275.722,3.352ZM27.436,177.412q-.464-1.666-.881-3.35l.811-.2q.415,1.671.876,3.328Zm331.751-1.441c-.162-1.123-.3-2.28-.425-3.441l.831-.086c.12,1.149.262,2.3.421,3.408ZM25.766,170.689Q25.4,169,25.071,167.3l.821-.156q.323,1.69.691,3.37Zm332.7-1.611q-.119-1.715-.188-3.457l.836-.034q.068,1.729.186,3.433Zm-333.994-5.2q-.275-1.708-.5-3.426l.829-.11q.226,1.706.5,3.4Zm333.712-1.721q-.017-1.14-.017-2.286l0-1.171.836,0,0,1.166q0,1.141.017,2.274ZM23.56,157.016q-.178-1.723-.307-3.45l.834-.062q.127,1.714.3,3.426Zm335.5-1.751-.836-.021q.044-1.721.114-3.457l.836.034Q359.105,153.55,359.061,155.265ZM23.046,150.107q-.078-1.731-.1-3.463l.835-.013q.026,1.719.1,3.438Zm336.289-1.728-.835-.044q.09-1.72.2-3.45l.834.051Q359.425,146.661,359.335,148.379ZM23.777,143.191l-.836-.012c.018-1.151.053-2.316.106-3.463l.835.038C23.83,140.894,23.794,142.049,23.777,143.191Zm335.978-1.7-.834-.058q.116-1.72.242-3.445l.834.06Q359.873,139.774,359.755,141.494ZM24.093,136.322l-.833-.066c.09-1.16.2-2.321.325-3.45l.831.092C24.292,134.019,24.184,135.171,24.093,136.322Zm336.156-1.714-.834-.062.254-3.444.834.062Zm-335.4-5.121-.828-.119c.166-1.148.351-2.3.551-3.422l.823.147C25.2,127.206,25.013,128.349,24.849,129.488Zm335.9-1.768-.834-.059q.12-1.724.232-3.442l.834.053Q360.873,125.992,360.751,127.719Zm-334.694-5-.817-.176c.243-1.133.508-2.269.786-3.376l.811.2C26.561,120.47,26.3,121.6,26.058,122.72Zm335.134-1.9-.834-.047q.1-1.726.174-3.444l.836.038Q361.29,119.088,361.191,120.821ZM27.736,116.056l-.8-.234c.322-1.108.669-2.223,1.029-3.312l.793.263C28.4,113.852,28.056,114.957,27.736,116.056ZM361.5,113.91l-.836-.026q.054-1.731.078-3.446l.836.012Q361.553,112.172,361.5,113.91ZM29.9,109.532l-.783-.293c.407-1.088.837-2.173,1.277-3.225l.771.323C30.727,107.38,30.3,108.455,29.9,109.532Zm330.858-2.54q-.012-1.732-.064-3.442l.836-.026q.053,1.72.063,3.462Zm-328.2-3.8-.758-.353c.488-1.047,1-2.095,1.528-3.115l.743.384C33.542,101.122,33.033,102.159,32.551,103.2Zm327.988-3.083c-.069-1.155-.155-2.309-.258-3.429l.833-.075c.1,1.128.19,2.291.259,3.455ZM35.7,97.09l-.727-.413c.569-1,1.166-2,1.775-2.98l.709.442C36.854,95.105,36.263,96.1,35.7,97.09Zm324.2-3.822c-.152-1.168-.325-2.31-.516-3.395l.823-.144c.193,1.1.369,2.251.522,3.431Zm-320.567-2-.689-.473.232-.337c.572-.829,1.176-1.664,1.794-2.482l.667.5c-.611.809-1.208,1.635-1.773,2.454Zm319.379-4.756c-.255-1.128-.54-2.247-.847-3.325l.8-.229c.311,1.093.6,2.227.857,3.369ZM43.473,85.786l-.642-.535c.733-.881,1.5-1.761,2.283-2.617l.617.564C44.958,84.044,44.2,84.915,43.473,85.786ZM48.1,80.715l-.591-.592c.81-.811,1.655-1.619,2.508-2.4l.565.616C49.742,79.113,48.907,79.912,48.1,80.715Zm308.724-.8c-.385-1.092-.8-2.165-1.248-3.188l.767-.332c.45,1.04.877,2.131,1.27,3.241Zm-187.837-2-.008-.836c1.1-.01,2.249-.067,3.413-.17l.074.833C171.284,77.849,170.114,77.907,168.992,77.918ZM165.5,77.8a33.33,33.33,0,0,1-3.464-.465l.156-.821a32.486,32.486,0,0,0,3.377.453Zm10.419-.477-.128-.826c1.087-.169,2.221-.378,3.37-.625l.175.817C178.176,76.936,177.026,77.148,175.923,77.32Zm-17.276-.768c-1.088-.289-2.209-.623-3.331-.992l.262-.794c1.107.365,2.211.693,3.284.978ZM53.169,76.074l-.537-.64c.882-.741,1.792-1.472,2.706-2.174l.509.663C54.943,74.619,54.042,75.343,53.169,76.074Zm129.548-.2-.213-.809c1.072-.282,2.184-.6,3.305-.943l.244.8C184.923,75.273,183.8,75.593,182.717,75.878Zm-30.67-1.488c-1.028-.394-2.109-.834-3.211-1.308l.329-.769c1.092.469,2.163.905,3.181,1.3Zm37.3-.535-.271-.791q1.62-.554,3.241-1.161l.292.784Q190.98,73.3,189.351,73.856Zm164.758-.214c-.53-1.013-1.1-2.01-1.7-2.962l.708-.445c.61.971,1.193,1.987,1.734,3.019ZM58.616,71.889l-.481-.685c.943-.661,1.912-1.312,2.881-1.934l.452.7C60.509,70.59,59.549,71.234,58.616,71.889Zm87.057-.219c-1.045-.483-2.086-.98-3.125-1.484l.365-.752q1.551.752,3.111,1.477Zm50.173-.233-.31-.777q1.6-.637,3.19-1.308l.324.771Q197.451,70.8,195.846,71.437Zm6.386-2.678-.335-.766q1.582-.691,3.153-1.4l.342.763Q203.818,68.065,202.232,68.76Zm-62.785-.1-3.093-1.533.37-.749,3.093,1.534ZM64.4,68.181l-.421-.722c1-.581,2.017-1.148,3.033-1.684l.39.74C66.395,67.044,65.385,67.6,64.4,68.181Zm286.077-.314c-.143-.191-.287-.381-.435-.57-.552-.711-1.128-1.418-1.712-2.1l.636-.544c.593.693,1.176,1.41,1.737,2.131.15.193.3.386.443.581ZM208.538,65.932l-.346-.761q1.577-.721,3.137-1.44l.349.759Q210.118,65.21,208.538,65.932Zm-75.283-.316q-1.552-.746-3.119-1.46l.346-.761q1.575.716,3.134,1.468Zm-62.783-.64-.359-.755c1.041-.494,2.107-.973,3.166-1.42l.325.77C72.556,64.015,71.5,64.487,70.472,64.976Zm144.344-1.93-.349-.76q1.587-.728,3.145-1.434l.346.761Q216.4,62.318,214.816,63.046Zm-87.832-.268c-1.1-.458-2.171-.883-3.194-1.261l.29-.785c1.033.383,2.119.812,3.227,1.274Zm219.042-.122c-.788-.819-1.609-1.628-2.444-2.4l.57-.613c.845.787,1.678,1.607,2.476,2.437ZM76.795,62.3l-.292-.784c1.082-.4,2.185-.786,3.277-1.14l.258.8C78.956,61.524,77.865,61.9,76.795,62.3Zm43.75-1.9c-1.083-.34-2.193-.653-3.3-.931l.2-.811c1.122.282,2.247.6,3.346.944Zm100.562-.2-.336-.765q1.61-.708,3.18-1.368l.323.771Q222.712,59.5,221.107,60.209Zm-137.78-.015-.221-.806c1.112-.306,2.245-.588,3.367-.841l.183.815C85.547,59.612,84.426,59.892,83.327,60.194ZM113.9,58.735c-1.116-.214-2.255-.4-3.384-.551l.111-.829c1.144.154,2.3.341,3.43.558Zm-23.878-.048-.146-.824c1.142-.2,2.3-.377,3.432-.521l.106.829C92.29,58.314,91.149,58.488,90.021,58.687Zm250.99-.7c-.87-.725-1.775-1.441-2.69-2.127l.5-.669c.926.694,1.843,1.418,2.724,2.153ZM96.824,57.822l-.064-.833c1.156-.09,2.323-.15,3.468-.181l.022.836C99.119,57.674,97.967,57.734,96.824,57.822Zm10.28,0c-1.13-.089-2.283-.149-3.425-.179l.022-.835c1.157.03,2.324.09,3.469.181Zm120.36-.27-.3-.778q.721-.282,1.43-.548.9-.337,1.8-.681l.3.781q-.9.344-1.805.682Q228.179,57.272,227.464,57.551Zm6.452-2.466-.3-.78q1.6-.621,3.217-1.255l.3.779Q235.522,54.462,233.917,55.086Zm101.607-1.212c-.941-.633-1.914-1.254-2.893-1.847l.433-.715c.99.6,1.974,1.228,2.926,1.867Zm-95.172-1.3-.3-.778q1.606-.629,3.219-1.256l.3.78Q241.956,51.941,240.352,52.57Zm89.3-2.248c-.992-.539-2.02-1.067-3.053-1.569l.366-.753c1.044.509,2.083,1.042,3.085,1.587Zm-82.866-.248-.3-.781q1.616-.617,3.236-1.219l.291.785Q248.4,49.458,246.79,50.073Zm6.466-2.4-.281-.788q1.628-.583,3.265-1.141l.27.791Q254.879,47.1,253.256,47.677Zm70.227-.357c-1.04-.451-2.109-.889-3.178-1.3l.3-.781c1.081.416,2.162.857,3.211,1.313Zm-63.7-1.863-.257-.8q1.651-.53,3.306-1.024l.239.8Q261.421,44.927,259.781,45.456Zm57.295-.6c-1.072-.364-2.174-.713-3.273-1.038l.237-.8c1.11.328,2.222.681,3.305,1.048Zm-50.7-1.357-.219-.807q1.675-.455,3.355-.861l.2.813Q268.042,43.042,266.379,43.495Zm44.108-.591c-1.1-.279-2.226-.542-3.346-.783l.175-.817c1.13.242,2.266.509,3.377.79Zm-37.423-1.017-.17-.818c1.146-.238,2.291-.455,3.405-.645l.141.824C275.337,41.435,274.2,41.65,273.065,41.886Zm30.7-.422c-1.12-.2-2.261-.376-3.395-.533l.114-.828c1.144.158,2.3.339,3.426.537Zm-23.931-.729-.108-.829c1.156-.151,2.317-.277,3.449-.374l.071.833C282.128,40.461,280.981,40.586,279.836,40.735Zm17.121-.21c-1.143-.115-2.3-.21-3.425-.283l.053-.834c1.141.073,2.3.169,3.457.286Zm-10.283-.373-.033-.836c.9-.034,1.776-.042,2.7-.051.255,0,.512,0,.768.006l-.01.836c-.278,0-.565,0-.832,0Q287.971,40.1,286.674,40.151Z" transform="translate(-22.941 -39.264)" fill="#2c54ac"/>
            </g>
          </g>
          <path id="Trazado_197397" data-name="Trazado 197397" d="M96.22,349.581c16.928,1.927,33.944-1.672,50.957-2.659a166.482,166.482,0,0,1,60.315,7.642c20.528,6.59,39.71,17.185,60.877,21.49,35.359,7.192,66.154-13.336,90.145-39.465s32.136-64.96,20.569-98.064c-3.937-11.269-9.947-21.82-13.287-33.267-10.954-37.549,20.659-76.509,4.326-112.374-8.888-19.516-27.276-32.276-48.875-36.267s-51.17-1.116-72.524,3.96c-20.594,4.9-48.165,19.27-68.194,12.528-13.943-4.694-24.812-15.418-38.112-21.617C114.112,38.291,77.86,48.752,57.2,71.644s-27.089,55.539-22.61,85.616c2.692,18.078,8.993,36.068,6.624,54.189-1.556,11.894-6.768,23.006-10.314,34.493C17.147,290.478,46.435,343.913,96.22,349.581Z" transform="translate(-23.855 -40.552)" fill="#9ddcf9"/>
        </g>
      </g>
      <g id="OBJECTS" transform="translate(18.318 2.29)">
        <g id="Grupo_155411" data-name="Grupo 155411" transform="translate(0 12.981)">
          <circle id="Elipse_5885" data-name="Elipse 5885" cx="63.555" cy="63.555" r="63.555" transform="translate(0 125.537) rotate(-80.978)" fill="#2c54ac"/>
          <g id="Grupo_155407" data-name="Grupo 155407" transform="translate(2.733 8.781)">
            <path id="Trazado_197398" data-name="Trazado 197398" d="M91.519,157.41c-38.479,0-69.784-28.69-69.784-63.955S53.04,29.5,91.519,29.5,161.3,58.19,161.3,93.455,130,157.41,91.519,157.41Zm0-127.11c-38.038,0-68.985,28.331-68.985,63.155S53.481,156.61,91.519,156.61,160.5,128.279,160.5,93.455,129.557,30.3,91.519,30.3Z" transform="translate(-21.735 -29.5)" fill="#2c54ac"/>
          </g>
          <path id="Trazado_197399" data-name="Trazado 197399" d="M78.42,176.7l15.9,30.638.438-33.378Z" transform="translate(-30.353 -49.647)" fill="#2c54ac"/>
          <g id="Grupo_155410" data-name="Grupo 155410" transform="translate(42.195 26.448)">
            <g id="Grupo_155408" data-name="Grupo 155408" transform="translate(3.235)">
              <path id="Trazado_197400" data-name="Trazado 197400" d="M98.509,119.45l-1.07-6.294a29,29,0,0,1-.2-10.169,24.414,24.414,0,0,1,2.64-7.475,54.913,54.913,0,0,1,3.823-5.9,72,72,0,0,0,4.7-6.848,11.524,11.524,0,0,0,1.192-8.085,7.337,7.337,0,0,0-2.054-4.172,9.752,9.752,0,0,0-3.621-2.256,7.617,7.617,0,0,0-3.794-.394,10.012,10.012,0,0,0-5.487,2.582,13.189,13.189,0,0,0-3.1,4.743,35.9,35.9,0,0,0-1.665,5.659l-3.235.55L75.122,76.746a37.623,37.623,0,0,1,1.566-5.887,29.987,29.987,0,0,1,3.917-7.509,27.614,27.614,0,0,1,7.246-6.974,28.629,28.629,0,0,1,11.433-4.265,31.061,31.061,0,0,1,12.567.247,19.49,19.49,0,0,1,9.821,5.663q4.025,4.265,5.357,12.1A26.85,26.85,0,0,1,127.044,81a24.487,24.487,0,0,1-3.233,7.575q-2.14,3.237-4.288,6.411a43.485,43.485,0,0,0-3.1,5.11,19.73,19.73,0,0,0-1.951,6.136,24.886,24.886,0,0,0,.243,7.9l.424,2.494ZM111.081,143.1a10.61,10.61,0,0,1-7.4-1.125,7.729,7.729,0,0,1-3.771-5.652,8.068,8.068,0,0,1,1.741-6.651,10.187,10.187,0,0,1,6.524-3.675,9.752,9.752,0,0,1,7.252,1.334,8.227,8.227,0,0,1,3.722,5.721,7.892,7.892,0,0,1-1.573,6.561A10.15,10.15,0,0,1,111.081,143.1Z" transform="translate(-75.122 -51.592)" fill="#55a3f3"/>
            </g>
            <g id="Grupo_155409" data-name="Grupo 155409" transform="translate(0 0.55)">
              <path id="Trazado_197401" data-name="Trazado 197401" d="M94.464,120.137l-1.069-6.294a28.984,28.984,0,0,1-.2-10.17,24.4,24.4,0,0,1,2.64-7.475,54.727,54.727,0,0,1,3.824-5.9,71.739,71.739,0,0,0,4.7-6.848,11.518,11.518,0,0,0,1.192-8.084,7.341,7.341,0,0,0-2.053-4.172,9.772,9.772,0,0,0-3.622-2.256,7.625,7.625,0,0,0-3.794-.394,10.02,10.02,0,0,0-5.487,2.582,13.184,13.184,0,0,0-3.1,4.743,35.93,35.93,0,0,0-1.666,5.66L71.077,77.434a37.622,37.622,0,0,1,1.566-5.887,29.96,29.96,0,0,1,3.917-7.509,27.63,27.63,0,0,1,7.246-6.975A28.645,28.645,0,0,1,95.24,52.8a31.071,31.071,0,0,1,12.567.247,19.5,19.5,0,0,1,9.821,5.663q4.025,4.265,5.357,12.1A26.821,26.821,0,0,1,123,81.684a24.5,24.5,0,0,1-3.233,7.576q-2.139,3.235-4.287,6.41a43.5,43.5,0,0,0-3.1,5.11,19.723,19.723,0,0,0-1.951,6.136,24.91,24.91,0,0,0,.243,7.9l.424,2.494Zm12.572,23.646a10.608,10.608,0,0,1-7.4-1.124,7.727,7.727,0,0,1-3.772-5.653,8.067,8.067,0,0,1,1.742-6.65,10.18,10.18,0,0,1,6.524-3.675,9.751,9.751,0,0,1,7.253,1.333,8.228,8.228,0,0,1,3.721,5.722,7.891,7.891,0,0,1-1.573,6.56A10.146,10.146,0,0,1,107.036,143.784Z" transform="translate(-71.077 -52.279)" fill="#fff"/>
            </g>
          </g>
        </g>
        <g id="Grupo_155416" data-name="Grupo 155416" transform="translate(228.193 0)">
          <circle id="Elipse_5886" data-name="Elipse 5886" cx="53.613" cy="53.613" r="53.613" transform="translate(0 92.395) rotate(-59.506)" fill="#55a3f3"/>
          <g id="Grupo_155412" data-name="Grupo 155412" transform="translate(14.805 18.775)">
            <path id="Trazado_197402" data-name="Trazado 197402" d="M383.679,134.9a63.4,63.4,0,0,1-20.853-3.557c-30.687-10.682-47.688-42.257-37.9-70.384s42.725-42.319,73.412-31.638,47.689,42.257,37.9,70.384C428.658,121.478,407.214,134.9,383.679,134.9ZM377.485,26.565c-23.2,0-44.338,13.215-51.8,34.658-9.646,27.711,7.134,58.828,37.405,69.366s62.748-3.435,72.393-31.146l.378.131-.378-.131c9.647-27.711-7.134-58.828-37.4-69.365A62.608,62.608,0,0,0,377.485,26.565Z" transform="translate(-322.159 -25.765)" fill="#55a3f3"/>
          </g>
          <path id="Trazado_197403" data-name="Trazado 197403" d="M423.769,149.327,411.661,175.81l-1.775-28.1Z" transform="translate(-324.92 -31.409)" fill="#55a3f3"/>
          <g id="Grupo_155415" data-name="Grupo 155415" transform="translate(54.78 35.173)">
            <g id="Grupo_155413" data-name="Grupo 155413" transform="translate(2.73 0.459)">
              <path id="Trazado_197404" data-name="Trazado 197404" d="M382.345,100.713l.893-5.31a24.431,24.431,0,0,1,2.66-8.158,20.574,20.574,0,0,1,4.176-5.223,46.145,46.145,0,0,1,4.683-3.644,60.412,60.412,0,0,0,5.645-4.152,9.716,9.716,0,0,0,3.192-6.11,6.193,6.193,0,0,0-.478-3.893,8.253,8.253,0,0,0-2.259-2.8,6.432,6.432,0,0,0-2.913-1.366,8.454,8.454,0,0,0-5.088.535,11.112,11.112,0,0,0-3.788,2.918,30.312,30.312,0,0,0-2.9,4.048l-2.73-.46-7.884-6.891a31.741,31.741,0,0,1,2.88-4.255,25.276,25.276,0,0,1,5.2-4.9,23.293,23.293,0,0,1,7.706-3.547,24.163,24.163,0,0,1,10.292-.227,26.21,26.21,0,0,1,9.943,3.682,16.437,16.437,0,0,1,6.254,7.235q2.024,4.513.911,11.128a22.65,22.65,0,0,1-3,8.666,20.656,20.656,0,0,1-4.678,5.139q-2.6,1.984-5.193,3.918a36.468,36.468,0,0,0-3.889,3.21,16.644,16.644,0,0,0-3.256,4.347,21.01,21.01,0,0,0-2,6.362l-.353,2.1Zm3.458,22.326a8.949,8.949,0,0,1-5.584-2.949,6.521,6.521,0,0,1-1.437-5.549,6.805,6.805,0,0,1,3.232-4.815,8.591,8.591,0,0,1,6.216-1.119,8.23,8.23,0,0,1,5.409,3.074,6.942,6.942,0,0,1,1.378,5.59,6.658,6.658,0,0,1-3.073,4.791A8.558,8.558,0,0,1,385.8,123.039Z" transform="translate(-375.556 -46.843)" fill="#2c54ac"/>
            </g>
            <g id="Grupo_155414" data-name="Grupo 155414">
              <path id="Trazado_197405" data-name="Trazado 197405" d="M378.932,100.139l.893-5.311a24.433,24.433,0,0,1,2.66-8.157,20.573,20.573,0,0,1,4.176-5.223,46.058,46.058,0,0,1,4.683-3.644,60.509,60.509,0,0,0,5.644-4.152,9.717,9.717,0,0,0,3.192-6.11,6.193,6.193,0,0,0-.478-3.893,8.245,8.245,0,0,0-2.259-2.8,6.432,6.432,0,0,0-2.914-1.366,8.455,8.455,0,0,0-5.088.535,11.112,11.112,0,0,0-3.788,2.918,30.358,30.358,0,0,0-2.9,4.047l-10.614-7.35a31.7,31.7,0,0,1,2.88-4.256,25.278,25.278,0,0,1,5.2-4.9,23.293,23.293,0,0,1,7.706-3.547,24.163,24.163,0,0,1,10.292-.227,26.218,26.218,0,0,1,9.943,3.682,16.44,16.44,0,0,1,6.253,7.235q2.024,4.513.911,11.128a22.637,22.637,0,0,1-3,8.666,20.651,20.651,0,0,1-4.677,5.138q-2.6,1.985-5.194,3.919a36.554,36.554,0,0,0-3.889,3.21,16.643,16.643,0,0,0-3.256,4.347,21.01,21.01,0,0,0-2,6.362l-.353,2.1Zm3.458,22.326a8.949,8.949,0,0,1-5.584-2.949,6.521,6.521,0,0,1-1.437-5.549,6.805,6.805,0,0,1,3.232-4.815,8.591,8.591,0,0,1,6.217-1.119,8.227,8.227,0,0,1,5.409,3.074,6.942,6.942,0,0,1,1.378,5.59,6.659,6.659,0,0,1-3.073,4.791A8.558,8.558,0,0,1,382.39,122.465Z" transform="translate(-372.143 -46.269)" fill="#fff"/>
            </g>
          </g>
        </g>
        <g id="Grupo_155421" data-name="Grupo 155421" transform="translate(142.796 85.485)">
          <circle id="Elipse_5887" data-name="Elipse 5887" cx="39.223" cy="39.223" r="39.223" transform="translate(0 74.379) rotate(-71.469)" fill="#0a2a6b"/>
          <g id="Grupo_155417" data-name="Grupo 155417" transform="translate(6.487 9.947)">
            <path id="Trazado_197406" data-name="Trazado 197406" d="M249.914,201.521a46.672,46.672,0,0,1-13.784-2.1,44.837,44.837,0,0,1-25.7-20.075,37.814,37.814,0,0,1-3.8-30.512l.381.118-.381-.118c6.449-20.874,30.18-32.148,52.9-25.127s35.952,29.713,29.5,50.588a37.815,37.815,0,0,1-20.354,23.048A43.7,43.7,0,0,1,249.914,201.521Zm-4.1-79.1c-17.531,0-33.379,10.325-38.423,26.649a37.025,37.025,0,0,0,3.731,29.873,45.064,45.064,0,0,0,57.209,17.677,37.025,37.025,0,0,0,19.933-22.561c6.319-20.453-6.679-42.7-28.975-49.588A45.644,45.644,0,0,0,245.814,122.417Z" transform="translate(-204.979 -121.616)" fill="#0a2a6b"/>
          </g>
          <path id="Trazado_197407" data-name="Trazado 197407" d="M254.727,217.23l-11.134,13.835,1.363-16.854Z" transform="translate(-206.224 -130.21)" fill="#0a2a6b"/>
          <g id="Grupo_155420" data-name="Grupo 155420" transform="translate(33.944 23.221)">
            <g id="Grupo_155418" data-name="Grupo 155418" transform="translate(1.898)">
              <path id="Trazado_197408" data-name="Trazado 197408" d="M250.988,176.567l-.014-3.693a16.771,16.771,0,0,1,.847-5.822,14.135,14.135,0,0,1,2.214-4.016,31.615,31.615,0,0,1,2.741-3.007,41.68,41.68,0,0,0,3.33-3.463,6.657,6.657,0,0,0,1.445-4.5,4.244,4.244,0,0,0-.777-2.575,5.656,5.656,0,0,0-1.853-1.63,4.415,4.415,0,0,0-2.128-.584,5.8,5.8,0,0,0-3.375.954,7.616,7.616,0,0,0-2.22,2.414,20.638,20.638,0,0,0-1.486,3.072l-1.9.007-6.131-3.738a21.728,21.728,0,0,1,1.451-3.211,17.326,17.326,0,0,1,2.945-3.914,15.974,15.974,0,0,1,4.795-3.294,16.564,16.564,0,0,1,6.928-1.352,17.972,17.972,0,0,1,7.147,1.33,11.277,11.277,0,0,1,5.069,4.16,13.161,13.161,0,0,1,1.911,7.414,15.531,15.531,0,0,1-1.02,6.206,14.171,14.171,0,0,1-2.562,4.017q-1.527,1.644-3.053,3.253a25.107,25.107,0,0,0-2.254,2.622,11.406,11.406,0,0,0-1.694,3.317,14.4,14.4,0,0,0-.609,4.532l.006,1.463Zm4.937,14.683a6.134,6.134,0,0,1-4.116-1.342,4.469,4.469,0,0,1-1.617-3.582,4.668,4.668,0,0,1,1.623-3.63,5.891,5.891,0,0,1,4.071-1.48,5.642,5.642,0,0,1,4.012,1.447,4.761,4.761,0,0,1,1.583,3.617,4.567,4.567,0,0,1-1.519,3.595A5.867,5.867,0,0,1,255.925,191.25Z" transform="translate(-241.683 -138.214)" fill="#55a3f3"/>
            </g>
            <g id="Grupo_155419" data-name="Grupo 155419" transform="translate(0 0.008)">
              <path id="Trazado_197409" data-name="Trazado 197409" d="M248.615,176.576l-.014-3.692a16.771,16.771,0,0,1,.847-5.822,14.135,14.135,0,0,1,2.214-4.016,31.627,31.627,0,0,1,2.74-3.008,41.429,41.429,0,0,0,3.331-3.462,6.663,6.663,0,0,0,1.445-4.5,4.245,4.245,0,0,0-.777-2.575,5.639,5.639,0,0,0-1.853-1.63,4.4,4.4,0,0,0-2.128-.584,5.8,5.8,0,0,0-3.376.954,7.631,7.631,0,0,0-2.22,2.413,20.756,20.756,0,0,0-1.485,3.072L239.31,150a21.726,21.726,0,0,1,1.451-3.211,17.323,17.323,0,0,1,2.946-3.915,15.988,15.988,0,0,1,4.795-3.294,16.564,16.564,0,0,1,6.928-1.352,17.958,17.958,0,0,1,7.147,1.33,11.277,11.277,0,0,1,5.069,4.16,13.16,13.16,0,0,1,1.911,7.414,15.511,15.511,0,0,1-1.021,6.205,14.161,14.161,0,0,1-2.562,4.017q-1.527,1.645-3.053,3.253a25.047,25.047,0,0,0-2.254,2.622,11.407,11.407,0,0,0-1.694,3.317,14.394,14.394,0,0,0-.609,4.532l.006,1.463Zm4.937,14.684a6.138,6.138,0,0,1-4.116-1.342,4.469,4.469,0,0,1-1.617-3.582,4.667,4.667,0,0,1,1.623-3.63,5.887,5.887,0,0,1,4.071-1.48,5.639,5.639,0,0,1,4.012,1.448,4.761,4.761,0,0,1,1.583,3.617,4.568,4.568,0,0,1-1.519,3.595A5.875,5.875,0,0,1,253.552,191.26Z" transform="translate(-239.31 -138.224)" fill="#fff"/>
            </g>
          </g>
        </g>
        <g id="Grupo_155429" data-name="Grupo 155429" transform="translate(6.394 12.565)" opacity="0.4" style="mix-blend-mode: multiply;isolation: isolate">
          <g id="Grupo_155422" data-name="Grupo 155422" transform="translate(328.598 124.949)">
            <path id="Trazado_197410" data-name="Trazado 197410" d="M450.243,210.234l-.668-3.311a15.33,15.33,0,0,1-.27-5.374,12.915,12.915,0,0,1,1.275-4,29,29,0,0,1,1.927-3.184,38.23,38.23,0,0,0,2.375-3.7,6.1,6.1,0,0,0,.5-4.295,3.886,3.886,0,0,0-1.153-2.173,5.168,5.168,0,0,0-1.951-1.134,4.038,4.038,0,0,0-2.013-.147,5.3,5.3,0,0,0-2.86,1.454,6.969,6.969,0,0,0-1.564,2.558,18.892,18.892,0,0,0-.789,3.02l-7.865-1.926a19.907,19.907,0,0,1,.733-3.138,15.858,15.858,0,0,1,1.95-4.034,14.611,14.611,0,0,1,3.719-3.8,15.139,15.139,0,0,1,5.977-2.44,16.42,16.42,0,0,1,6.649-.073,10.311,10.311,0,0,1,5.285,2.836,12.034,12.034,0,0,1,3.029,6.313,14.212,14.212,0,0,1,.183,5.749,12.962,12.962,0,0,1-1.588,4.058q-1.078,1.745-2.163,3.459a23.063,23.063,0,0,0-1.558,2.752,10.434,10.434,0,0,0-.933,3.277,13.154,13.154,0,0,0,.256,4.174l.265,1.312Zm7.03,12.3a5.613,5.613,0,0,1-3.932-.475,4.089,4.089,0,0,1-2.085-2.928,4.264,4.264,0,0,1,.813-3.545,5.387,5.387,0,0,1,3.39-2.049,5.16,5.16,0,0,1,3.856.588,4.354,4.354,0,0,1,2.06,2.965,4.174,4.174,0,0,1-.725,3.495A5.37,5.37,0,0,1,457.272,222.535Z" transform="translate(-437.185 -174.236)" fill="#55a3f3"/>
          </g>
          <g id="Grupo_155423" data-name="Grupo 155423" transform="translate(0 176.163)">
            <path id="Trazado_197411" data-name="Trazado 197411" d="M42.581,271.176l-1.282-2.8a13.976,13.976,0,0,1-1.36-4.71,11.784,11.784,0,0,1,.3-3.809,26.413,26.413,0,0,1,1.044-3.225,34.613,34.613,0,0,0,1.336-3.774,5.553,5.553,0,0,0-.452-3.912,3.536,3.536,0,0,0-1.476-1.687,4.708,4.708,0,0,0-1.967-.6,3.673,3.673,0,0,0-1.815.289,4.83,4.83,0,0,0-2.234,1.886,6.358,6.358,0,0,0-.854,2.6,17.275,17.275,0,0,0-.07,2.842l-7.376-.069a18.154,18.154,0,0,1,0-2.936,14.453,14.453,0,0,1,.889-3.984,13.3,13.3,0,0,1,2.5-4.15,13.8,13.8,0,0,1,4.792-3.41,14.98,14.98,0,0,1,5.882-1.45,9.4,9.4,0,0,1,5.278,1.413,10.974,10.974,0,0,1,4,4.968,12.938,12.938,0,0,1,1.361,5.061,11.809,11.809,0,0,1-.562,3.93q-.593,1.773-1.2,3.519a20.9,20.9,0,0,0-.809,2.766,9.508,9.508,0,0,0-.144,3.1,12,12,0,0,0,1.1,3.648l.508,1.108Zm8.8,9.444a5.113,5.113,0,0,1-3.585.4,3.723,3.723,0,0,1-2.46-2.162,3.887,3.887,0,0,1-.018-3.313,4.908,4.908,0,0,1,2.579-2.524,4.7,4.7,0,0,1,3.544-.282,3.967,3.967,0,0,1,2.446,2.2,3.8,3.8,0,0,1,.084,3.25A4.888,4.888,0,0,1,51.38,280.619Z" transform="translate(-26.312 -238.272)" fill="#55a3f3"/>
          </g>
          <g id="Grupo_155424" data-name="Grupo 155424" transform="translate(181.148)">
            <path id="Trazado_197412" data-name="Trazado 197412" d="M257.09,48.918l.458-3.043a13.98,13.98,0,0,1,1.44-4.686,11.765,11.765,0,0,1,2.334-3.025,26.366,26.366,0,0,1,2.64-2.127,34.476,34.476,0,0,0,3.184-2.427,5.552,5.552,0,0,0,1.764-3.521,3.539,3.539,0,0,0-.312-2.219,4.7,4.7,0,0,0-1.318-1.579,3.668,3.668,0,0,0-1.677-.752,4.833,4.833,0,0,0-2.9.355,6.362,6.362,0,0,0-2.136,1.7,17.264,17.264,0,0,0-1.615,2.34l-6.136-4.1a18.155,18.155,0,0,1,1.6-2.459,14.427,14.427,0,0,1,2.925-2.847,13.3,13.3,0,0,1,4.368-2.1,13.811,13.811,0,0,1,5.877-.23,14.994,14.994,0,0,1,5.717,2.007,9.4,9.4,0,0,1,3.643,4.072,10.97,10.97,0,0,1,.629,6.348,12.924,12.924,0,0,1-1.632,4.98,11.789,11.789,0,0,1-2.622,2.981q-1.467,1.16-2.929,2.29a20.97,20.97,0,0,0-2.191,1.871,9.524,9.524,0,0,0-1.817,2.515,11.993,11.993,0,0,0-1.08,3.654l-.182,1.206Zm2.193,12.72a5.112,5.112,0,0,1-3.218-1.63,3.724,3.724,0,0,1-.875-3.156,3.888,3.888,0,0,1,1.8-2.782,4.908,4.908,0,0,1,3.541-.7,4.7,4.7,0,0,1,3.12,1.7,3.966,3.966,0,0,1,.841,3.181,3.8,3.8,0,0,1-1.708,2.766A4.891,4.891,0,0,1,259.283,61.638Z" transform="translate(-252.816 -18.001)" fill="#55a3f3"/>
          </g>
          <g id="Grupo_155425" data-name="Grupo 155425" transform="translate(149.125 39.181)">
            <path id="Trazado_197413" data-name="Trazado 197413" d="M222.219,93.576l-.462-2.454a11.357,11.357,0,0,1-.15-3.976,9.537,9.537,0,0,1,.98-2.941,21.366,21.366,0,0,1,1.454-2.336,28.165,28.165,0,0,0,1.791-2.71,4.508,4.508,0,0,0,.409-3.169,2.871,2.871,0,0,0-.832-1.618,3.817,3.817,0,0,0-1.432-.857,2.981,2.981,0,0,0-1.487-.128,3.915,3.915,0,0,0-2.127,1.048,5.152,5.152,0,0,0-1.181,1.876,14.135,14.135,0,0,0-.612,2.224l-5.8-1.5a14.787,14.787,0,0,1,.571-2.313,11.744,11.744,0,0,1,1.48-2.963,10.822,10.822,0,0,1,2.785-2.778,11.2,11.2,0,0,1,4.442-1.747,12.133,12.133,0,0,1,4.915.009,7.619,7.619,0,0,1,3.88,2.146,8.9,8.9,0,0,1,2.179,4.7,10.507,10.507,0,0,1,.082,4.252,9.594,9.594,0,0,1-1.212,2.985q-.814,1.28-1.632,2.536a17.066,17.066,0,0,0-1.178,2.02,7.73,7.73,0,0,0-.72,2.413,9.724,9.724,0,0,0,.15,3.088l.183.972Zm5.081,9.159a4.151,4.151,0,0,1-2.9-.388,3.025,3.025,0,0,1-1.514-2.184,3.155,3.155,0,0,1,.635-2.613,3.985,3.985,0,0,1,2.526-1.483,3.813,3.813,0,0,1,2.845.471,3.219,3.219,0,0,1,1.5,2.211,3.088,3.088,0,0,1-.569,2.577A3.968,3.968,0,0,1,227.3,102.735Z" transform="translate(-212.776 -66.993)" fill="#55a3f3"/>
          </g>
          <g id="Grupo_155426" data-name="Grupo 155426" transform="translate(209.445 47.541)">
            <path id="Trazado_197414" data-name="Trazado 197414" d="M289.866,95.476l.447-1.789a8.379,8.379,0,0,1,1.126-2.714A7.051,7.051,0,0,1,293,89.3a15.826,15.826,0,0,1,1.7-1.118,20.692,20.692,0,0,0,2.038-1.267,3.322,3.322,0,0,0,1.253-2,2.12,2.12,0,0,0-.06-1.341,2.82,2.82,0,0,0-.7-1.017,2.2,2.2,0,0,0-.958-.544,2.891,2.891,0,0,0-1.751.047,3.8,3.8,0,0,0-1.372.894,10.347,10.347,0,0,0-1.1,1.3l-3.427-2.793a10.9,10.9,0,0,1,1.1-1.376,8.649,8.649,0,0,1,1.907-1.532,7.973,7.973,0,0,1,2.726-1,8.264,8.264,0,0,1,3.519.2,8.974,8.974,0,0,1,3.3,1.523,5.625,5.625,0,0,1,1.941,2.637,6.573,6.573,0,0,1,.014,3.823,7.76,7.76,0,0,1-1.257,2.878,7.07,7.07,0,0,1-1.734,1.629q-.941.608-1.877,1.2a12.484,12.484,0,0,0-1.413.992,5.692,5.692,0,0,0-1.228,1.4,7.186,7.186,0,0,0-.852,2.118l-.177.709Zm.584,7.712a3.062,3.062,0,0,1-1.827-1.155,2.232,2.232,0,0,1-.342-1.933,2.33,2.33,0,0,1,1.232-1.557,2.941,2.941,0,0,1,2.152-.216,2.816,2.816,0,0,1,1.763,1.194,2.377,2.377,0,0,1,.322,1.945,2.278,2.278,0,0,1-1.177,1.553A2.927,2.927,0,0,1,290.45,103.188Z" transform="translate(-288.199 -77.446)" fill="#55a3f3"/>
          </g>
          <g id="Grupo_155427" data-name="Grupo 155427" transform="translate(320.332 182.503)">
            <path id="Trazado_197415" data-name="Trazado 197415" d="M429.6,267.206l.334-2.07a9.544,9.544,0,0,1,1.015-3.182,8.032,8.032,0,0,1,1.612-2.043,17.915,17.915,0,0,1,1.814-1.43,23.489,23.489,0,0,0,2.187-1.631,3.779,3.779,0,0,0,1.227-2.386,2.407,2.407,0,0,0-.2-1.514,3.216,3.216,0,0,0-.887-1.085,2.508,2.508,0,0,0-1.137-.524,3.287,3.287,0,0,0-1.979.222,4.323,4.323,0,0,0-1.467,1.145A11.8,11.8,0,0,0,431,254.29l-4.151-2.834a12.386,12.386,0,0,1,1.11-1.663,9.876,9.876,0,0,1,2.013-1.919,9.082,9.082,0,0,1,2.991-1.4,9.4,9.4,0,0,1,4.006-.114,10.207,10.207,0,0,1,3.88,1.408,6.4,6.4,0,0,1,2.453,2.8,7.475,7.475,0,0,1,.383,4.33,8.823,8.823,0,0,1-1.148,3.381,8.044,8.044,0,0,1-1.807,2.012q-1.008.78-2.011,1.539a14.167,14.167,0,0,0-1.506,1.26,6.476,6.476,0,0,0-1.256,1.7,8.179,8.179,0,0,0-.761,2.482l-.132.82Zm1.4,8.681a3.478,3.478,0,0,1-2.181-1.133,2.535,2.535,0,0,1-.573-2.156,2.645,2.645,0,0,1,1.245-1.883,3.344,3.344,0,0,1,2.417-.451,3.2,3.2,0,0,1,2.113,1.183,2.7,2.7,0,0,1,.551,2.172,2.591,2.591,0,0,1-1.184,1.873A3.329,3.329,0,0,1,431,275.888Z" transform="translate(-426.85 -246.2)" fill="#55a3f3"/>
          </g>
          <g id="Grupo_155428" data-name="Grupo 155428" transform="translate(20.093 140.94)">
            <path id="Trazado_197416" data-name="Trazado 197416" d="M56.986,215.817l-.055-2.07a9.4,9.4,0,0,1,.4-3.274,7.933,7.933,0,0,1,1.19-2.279,17.734,17.734,0,0,1,1.5-1.719,23.249,23.249,0,0,0,1.823-1.983,3.734,3.734,0,0,0,.753-2.541,2.376,2.376,0,0,0-.468-1.433,3.172,3.172,0,0,0-1.059-.891,2.47,2.47,0,0,0-1.2-.3,3.25,3.25,0,0,0-1.88.577,4.28,4.28,0,0,0-1.214,1.38,11.569,11.569,0,0,0-.794,1.741l-4.547-1.991a12.258,12.258,0,0,1,.773-1.818,9.693,9.693,0,0,1,1.6-2.231,8.94,8.94,0,0,1,2.646-1.907,9.285,9.285,0,0,1,3.866-.845,10.079,10.079,0,0,1,4.023.656,6.325,6.325,0,0,1,2.894,2.268A7.38,7.38,0,0,1,68.4,201.29a8.7,8.7,0,0,1-.494,3.491,7.922,7.922,0,0,1-1.385,2.283q-.835.942-1.67,1.862a14.088,14.088,0,0,0-1.231,1.5,6.414,6.414,0,0,0-.908,1.88,8.068,8.068,0,0,0-.284,2.548l.022.82Zm2.952,8.167a3.443,3.443,0,0,1-2.325-.7,2.5,2.5,0,0,1-.951-1.987,2.616,2.616,0,0,1,.864-2.055,3.3,3.3,0,0,1,2.263-.881,3.163,3.163,0,0,1,2.267.761,2.668,2.668,0,0,1,.933,2.007,2.557,2.557,0,0,1-.806,2.034A3.287,3.287,0,0,1,59.937,223.984Z" transform="translate(-51.436 -194.23)" fill="#55a3f3"/>
          </g>
        </g>
        <g id="Grupo_155457" data-name="Grupo 155457" transform="translate(175.021 138.57)">
          <g id="Grupo_155430" data-name="Grupo 155430" transform="translate(23.776 147.881)">
            <path id="Trazado_197417" data-name="Trazado 197417" d="M266.889,483.588h29.2L295.061,423.6a95.169,95.169,0,0,0-12.143-5.561Z" transform="translate(-266.889 -371.992)" fill="#ff8775"/>
            <path id="Trazado_197418" data-name="Trazado 197418" d="M286.931,406.511a95.173,95.173,0,0,1,12.143,5.561l-.884-51.609Z" transform="translate(-270.902 -360.463)" fill="#55a3f3"/>
          </g>
          <g id="Grupo_155431" data-name="Grupo 155431" transform="translate(46.729 76.09)">
            <path id="Trazado_197419" data-name="Trazado 197419" d="M388.77,311.03a19.236,19.236,0,0,1-3.816-3.059c-2.051-3.334-1.507-37.274-1.507-37.274l-34.333,22.69-.327,16.367s-3.582,1.551-8.621,4.258l13.653,32.077Z" transform="translate(-304.515 -270.697)" fill="#ff8775"/>
            <path id="Trazado_197420" data-name="Trazado 197420" d="M423.987,362.734c-1.927-14.584-33.051-33.852-44.143-41.6l-34.951,35.058L331.24,324.111c-10.5,5.641-27.333,16.31-31.315,28.476-5.892,18-4.069,111.6-4.069,111.6h117s1.31-28.124,1.31-40.236S426.278,380.083,423.987,362.734Z" transform="translate(-295.589 -280.796)" fill="#55a3f3"/>
          </g>
          <g id="Grupo_155451" data-name="Grupo 155451" transform="translate(46.729 116.424)" opacity="0.3">
            <g id="Grupo_155450" data-name="Grupo 155450" clip-path="url(#clip-path)">
              <g id="Grupo_155449" data-name="Grupo 155449" transform="translate(-10.395 -15.651)">
                <g id="Grupo_155437" data-name="Grupo 155437" transform="translate(29.787)">
                  <g id="Grupo_155432" data-name="Grupo 155432" transform="translate(91.998)">
                    <rect id="Rectángulo_46559" data-name="Rectángulo 46559" width="0.779" height="190.034" fill="#2c54ac"/>
                  </g>
                  <g id="Grupo_155433" data-name="Grupo 155433" transform="translate(68.998)">
                    <rect id="Rectángulo_46560" data-name="Rectángulo 46560" width="0.779" height="190.034" fill="#2c54ac"/>
                  </g>
                  <g id="Grupo_155434" data-name="Grupo 155434" transform="translate(45.998)">
                    <rect id="Rectángulo_46561" data-name="Rectángulo 46561" width="0.779" height="190.034" fill="#2c54ac"/>
                  </g>
                  <g id="Grupo_155435" data-name="Grupo 155435" transform="translate(22.999)">
                    <rect id="Rectángulo_46562" data-name="Rectángulo 46562" width="0.779" height="190.034" fill="#2c54ac"/>
                  </g>
                  <g id="Grupo_155436" data-name="Grupo 155436">
                    <rect id="Rectángulo_46563" data-name="Rectángulo 46563" width="0.779" height="190.034" fill="#2c54ac"/>
                  </g>
                </g>
                <g id="Grupo_155448" data-name="Grupo 155448" transform="translate(0 32.365)">
                  <g id="Grupo_155438" data-name="Grupo 155438">
                    <rect id="Rectángulo_46564" data-name="Rectángulo 46564" width="140.381" height="0.779" fill="#2c54ac"/>
                  </g>
                  <g id="Grupo_155439" data-name="Grupo 155439" transform="translate(0 16.65)">
                    <rect id="Rectángulo_46565" data-name="Rectángulo 46565" width="140.381" height="0.779" fill="#2c54ac"/>
                  </g>
                  <g id="Grupo_155440" data-name="Grupo 155440" transform="translate(0 33.301)">
                    <rect id="Rectángulo_46566" data-name="Rectángulo 46566" width="140.381" height="0.779" fill="#2c54ac"/>
                  </g>
                  <g id="Grupo_155441" data-name="Grupo 155441" transform="translate(0 49.951)">
                    <rect id="Rectángulo_46567" data-name="Rectángulo 46567" width="140.381" height="0.779" fill="#2c54ac"/>
                  </g>
                  <g id="Grupo_155442" data-name="Grupo 155442" transform="translate(0 66.602)">
                    <rect id="Rectángulo_46568" data-name="Rectángulo 46568" width="140.381" height="0.779" fill="#2c54ac"/>
                  </g>
                  <g id="Grupo_155443" data-name="Grupo 155443" transform="translate(0 83.252)">
                    <rect id="Rectángulo_46569" data-name="Rectángulo 46569" width="140.381" height="0.779" fill="#2c54ac"/>
                  </g>
                  <g id="Grupo_155444" data-name="Grupo 155444" transform="translate(0 99.902)">
                    <rect id="Rectángulo_46570" data-name="Rectángulo 46570" width="140.381" height="0.779" fill="#2c54ac"/>
                  </g>
                  <g id="Grupo_155445" data-name="Grupo 155445" transform="translate(0 116.553)">
                    <rect id="Rectángulo_46571" data-name="Rectángulo 46571" width="140.381" height="0.779" fill="#2c54ac"/>
                  </g>
                  <g id="Grupo_155446" data-name="Grupo 155446" transform="translate(0 133.203)">
                    <rect id="Rectángulo_46572" data-name="Rectángulo 46572" width="140.381" height="0.779" fill="#2c54ac"/>
                  </g>
                  <g id="Grupo_155447" data-name="Grupo 155447" transform="translate(0 149.853)">
                    <rect id="Rectángulo_46573" data-name="Rectángulo 46573" width="140.381" height="0.779" fill="#2c54ac"/>
                  </g>
                </g>
              </g>
            </g>
          </g>
          <g id="Grupo_155452" data-name="Grupo 155452" transform="translate(63.609)">
            <path id="Trazado_197422" data-name="Trazado 197422" d="M377.122,249.847a19.243,19.243,0,0,1-.144-5.549,87.426,87.426,0,0,1,4.274-20.852,12.23,12.23,0,0,1-8.932-4.16c-2.217-2.557-2.846-6.332-2.416-9.689a10.133,10.133,0,0,1-7.4,4.642,5.333,5.333,0,0,1-2.187-.15c-1.927-.614-3.013-2.778-3.025-4.8a15,15,0,0,1,1.58-5.907c-4.81,5.677-12.937,7.163-20.378,7.233a39.534,39.534,0,0,1-12.418-1.536,22.276,22.276,0,0,1-6.185-3.073c-.425,1.308-.819,2.66-1.151,4.1-5.113,22.11.609,54.766,3.711,69.408a10.277,10.277,0,0,0,9.78,8.154c5.217.133,11.933-.165,16.868-2.031,11.45-4.331,23.176-11.708,33.106-27.875C379.777,255.554,377.792,253.005,377.122,249.847Z" transform="translate(-316.696 -181.127)" fill="#ff8775"/>
            <path id="Trazado_197423" data-name="Trazado 197423" d="M371.294,176.915c-17.391-3.478-42.374-1.811-50.605,23.518a22.276,22.276,0,0,0,6.185,3.073,39.534,39.534,0,0,0,12.418,1.536c7.441-.07,15.568-1.556,20.378-7.233a15,15,0,0,0-1.58,5.907c.011,2.023,1.1,4.187,3.025,4.8a5.333,5.333,0,0,0,2.187.15,10.133,10.133,0,0,0,7.4-4.642c-.43,3.357.2,7.132,2.416,9.689a12.23,12.23,0,0,0,8.932,4.16,87.426,87.426,0,0,0-4.274,20.852,19.246,19.246,0,0,0,.144,5.549c.67,3.158,2.655,5.707,5.081,7.911a111.958,111.958,0,0,0,9.323-19.492C403.664,202.336,389.582,180.572,371.294,176.915Z" transform="translate(-317.495 -175.555)" fill="#0a2a6b"/>
          </g>
          <g id="Grupo_155453" data-name="Grupo 155453" transform="translate(124.334 54.048)">
            <path id="Trazado_197424" data-name="Trazado 197424" d="M410.428,254.119a21.5,21.5,0,0,1-8.136,11.559,9.228,9.228,0,0,1-3.841,1.743c-2.975.42-5.256-2.024-5.713-5.015s.545-6.356,1.878-9.465c1.722-4.018,4.533-8.3,8.381-9.483C409.2,241.551,411.962,248.511,410.428,254.119Z" transform="translate(-392.626 -243.135)" fill="#ff8775"/>
            <path id="Trazado_197425" data-name="Trazado 197425" d="M396.287,264.493a9.6,9.6,0,0,0,3.68-2.563,2.135,2.135,0,0,0,.5-.781,1.513,1.513,0,0,0-.47-1.392l-1.875-2.255a1.017,1.017,0,0,1-.278-.524,1.58,1.58,0,0,1,.175-.737c1.278-3.092,2.743-6.431,5.414-8.377a4.821,4.821,0,0,1,2.32-1,3.044,3.044,0,0,1,2.775,1.5,9.709,9.709,0,0,1,1.148,3.251s-.321,6.464-5.048,10.65S396.287,264.493,396.287,264.493Z" transform="translate(-393.359 -243.88)" fill="#ff8775" style="mix-blend-mode: multiply;isolation: isolate"/>
            <path id="Trazado_197426" data-name="Trazado 197426" d="M409.679,251.5a9.047,9.047,0,0,0-1.6-3.369,2.874,2.874,0,0,0-1.434-.894,2.55,2.55,0,0,0-1.609.161,8.034,8.034,0,0,0-2.78,2.216,15.827,15.827,0,0,0-2.021,3.092c-.59,1.1-1.094,2.263-1.6,3.434a2.543,2.543,0,0,0-.245.658c0,.02,0,.05.066.148l.281.358c.4.5.794,1.005,1.184,1.514.2.262.384.487.6.787a1.893,1.893,0,0,1,.387,1.138,1.752,1.752,0,0,1-.491,1.083,8.533,8.533,0,0,1-.719.7,8.985,8.985,0,0,1-3.412,1.859,9.973,9.973,0,0,0,3-2.283c.4-.455.892-.975.832-1.359-.009-.387-.49-.83-.918-1.32s-.855-.955-1.273-1.44l-.329-.384a1.344,1.344,0,0,1-.3-.723,2.79,2.79,0,0,1,.286-1.172c.477-1.193.985-2.39,1.588-3.557,1.224-2.281,2.887-4.61,5.547-5.629a3.32,3.32,0,0,1,2.159-.034,3.518,3.518,0,0,1,1.664,1.28A8.222,8.222,0,0,1,409.679,251.5Z" transform="translate(-393.359 -243.773)" fill="#0a2a6b"/>
          </g>
          <path id="Trazado_197427" data-name="Trazado 197427" d="M351.152,302.572s9.015-2.231,13.561-5.3A56.458,56.458,0,0,0,379.541,283s-5.339,12.451-12.9,18.186a56.533,56.533,0,0,1-15.625,8.217Z" transform="translate(-259.959 -197.07)" fill="#0a2a6b"/>
          <path id="Trazado_197428" data-name="Trazado 197428" d="M329.449,243.824c0,2-.979,3.621-2.186,3.621s-2.187-1.621-2.187-3.621.979-3.621,2.187-3.621S329.449,241.824,329.449,243.824Z" transform="translate(-254.765 -188.501)" fill="#0a2a6b"/>
          <path id="Trazado_197429" data-name="Trazado 197429" d="M361.454,250.413c0,2-.979,3.621-2.187,3.621s-2.187-1.621-2.187-3.621.979-3.621,2.187-3.621S361.454,248.414,361.454,250.413Z" transform="translate(-261.174 -189.82)" fill="#0a2a6b"/>
          <path id="Trazado_197430" data-name="Trazado 197430" d="M341.181,243.261a54.057,54.057,0,0,0-3,5.389,45.322,45.322,0,0,0-2.263,5.653,43.974,43.974,0,0,0-1.464,5.881,42.452,42.452,0,0,0-.612,6.034l-.448-.619a51.973,51.973,0,0,0,8.909,2.46,28.464,28.464,0,0,1-9.332-1.212l-.429-.126-.019-.493a31.064,31.064,0,0,1,.378-6.305,31.964,31.964,0,0,1,1.61-6.111,31.217,31.217,0,0,1,2.777-5.655A26.74,26.74,0,0,1,341.181,243.261Z" transform="translate(-256.252 -189.113)" fill="#0a2a6b"/>
          <path id="Trazado_197431" data-name="Trazado 197431" d="M335.352,222.33a19.223,19.223,0,0,0-17.276,10.919,17.054,17.054,0,0,1,16.439-5.267A47.249,47.249,0,0,0,335.352,222.33Z" transform="translate(-253.363 -184.921)" fill="#0a2a6b"/>
          <path id="Trazado_197432" data-name="Trazado 197432" d="M369.715,238.033a15.623,15.623,0,0,0-6.959-5.938,38.6,38.6,0,0,0-8.886-2.619c.434-1.812.717-3.543,1.248-5.33C361.53,226.608,367.43,231.555,369.715,238.033Z" transform="translate(-260.531 -185.285)" fill="#0a2a6b"/>
          <g id="Grupo_155454" data-name="Grupo 155454" transform="translate(75.276 87.746)">
            <path id="Trazado_197433" data-name="Trazado 197433" d="M336.676,285.467c-2.781-.493-5.19-.024-5.38,1.048-.157.885,1.248,1.9,3.308,2.51a10.262,10.262,0,0,1,5.922-2.095A9.551,9.551,0,0,0,336.676,285.467Z" transform="translate(-331.284 -285.271)" fill="#0a2a6b"/>
            <path id="Trazado_197434" data-name="Trazado 197434" d="M341.357,287.347a10.262,10.262,0,0,0-5.922,2.095,12.766,12.766,0,0,0,1.384.325c2.781.493,5.19.024,5.38-1.048C342.278,288.272,341.955,287.792,341.357,287.347Z" transform="translate(-332.115 -285.686)" fill="#ff4648"/>
          </g>
          <g id="Grupo_155455" data-name="Grupo 155455" transform="translate(0 113.751)">
            <path id="Trazado_197435" data-name="Trazado 197435" d="M356.743,389.881l-10.018,13.334-62.75-50s-16.988-5.774-21.753-10.062-15.244-26.36-19.532-25.328-7.146,15.324-4.526,24.852,6.67,17.388,10.957,19.77,34.537,8.575,34.537,8.575,32.157,40.731,40.493,49.544,37.157,33.108,37.157,33.108l28.345-30.012s-8.575-12.387-17.388-21.2S356.743,389.881,356.743,389.881Z" transform="translate(-237.16 -317.787)" fill="#ff8775"/>
            <path id="Trazado_197436" data-name="Trazado 197436" d="M380.368,404.232q3.846-6.9,8.048-13.578,4.176-6.7,8.66-13.2c1.516-2.155,3.035-4.306,4.648-6.405a46.855,46.855,0,0,1,5.307-5.951,60.159,60.159,0,0,1,12.85-9.226c-2.151,1.517-4.245,3.1-6.237,4.8a76.386,76.386,0,0,0-5.736,5.315c-.9.936-1.764,1.9-2.6,2.891s-1.611,2.025-2.376,3.086c-1.554,2.1-3.057,4.246-4.544,6.4l-8.934,12.97Q385,397.834,380.368,404.232Z" transform="translate(-265.837 -325.414)" fill="#0a2a6b"/>
            <path id="Trazado_197437" data-name="Trazado 197437" d="M439.736,428.985c-1.444,2.223-3.009,4.344-4.616,6.428s-3.27,4.122-4.955,6.141c-1.708,2-3.43,3.988-5.224,5.914s-3.617,3.831-5.568,5.625c1.443-2.224,3.006-4.345,4.614-6.43s3.271-4.122,4.957-6.141c1.709-2,3.433-3.985,5.227-5.913S437.787,430.78,439.736,428.985Z" transform="translate(-273.648 -340.054)" fill="#0a2a6b"/>
            <path id="Trazado_197438" data-name="Trazado 197438" d="M371.084,422.174c2.066,1.469,4.139,2.855,6.219,4.264s4.15,2.85,6.137,4.441a33.64,33.64,0,0,1,5.414,5.426,18.348,18.348,0,0,1,3.449,6.806,29.86,29.86,0,0,0-4.4-6,53.4,53.4,0,0,0-5.47-4.993c-1.919-1.578-3.932-3.074-5.874-4.687A39.793,39.793,0,0,1,371.084,422.174Z" transform="translate(-263.978 -338.69)" fill="#0a2a6b"/>
            <path id="Trazado_197439" data-name="Trazado 197439" d="M237.3,336.154a1.178,1.178,0,0,1,1.135-.394,1.908,1.908,0,0,1,1.084.633,9.932,9.932,0,0,1,1.325,2.128c.738,1.5,1.264,3.085,1.869,4.619a89.936,89.936,0,0,0,4.089,9.014,19.685,19.685,0,0,0,2.591,4.091,9.692,9.692,0,0,0,3.963,2.487,43.854,43.854,0,0,0,9.579,2l-.493.921a10.613,10.613,0,0,0-3.42-2.317,18.247,18.247,0,0,1-1.966-1.127,9.612,9.612,0,0,1-1.74-1.555,10.419,10.419,0,0,1-2.175-4.065,9.98,9.98,0,0,1-.19-4.607l.1-.508.509.065a15.272,15.272,0,0,1,4.62,1.438,47.278,47.278,0,0,1,4.117,2.334c1.334.81,2.638,1.641,4.012,2.313a22.689,22.689,0,0,0,4.322,1.567,19.4,19.4,0,0,1,4.434,1.7,14.918,14.918,0,0,1,3.728,2.941,20.638,20.638,0,0,1,4.611,8.125,21.344,21.344,0,0,0-4.949-7.792,15.646,15.646,0,0,0-3.7-2.7,18.7,18.7,0,0,0-4.33-1.521,23.511,23.511,0,0,1-4.508-1.5,41.9,41.9,0,0,1-4.15-2.264c-2.654-1.6-5.359-3.2-8.335-3.545l.608-.442a8.859,8.859,0,0,0,.21,4.079,9.254,9.254,0,0,0,1.961,3.591,9.7,9.7,0,0,0,1.523,1.364,17.42,17.42,0,0,0,1.831,1.068,11.561,11.561,0,0,1,3.75,2.635l.9,1.078-1.389-.158a44.855,44.855,0,0,1-9.824-2.147,10.124,10.124,0,0,1-4.313-2.83,20.409,20.409,0,0,1-2.6-4.353,77.57,77.57,0,0,1-3.832-9.211c-.54-1.574-.989-3.167-1.648-4.675a10.5,10.5,0,0,0-1.192-2.143,1.791,1.791,0,0,0-.984-.658A1.142,1.142,0,0,0,237.3,336.154Z" transform="translate(-237.188 -321.383)" fill="#0a2a6b"/>
            <path id="Trazado_197440" data-name="Trazado 197440" d="M239.769,323.648a5.261,5.261,0,0,1,2.53,2.833c.533,1.174.982,2.351,1.468,3.527l2.831,7.071a68.365,68.365,0,0,0,3.02,6.855c.637,1.087,1.274,2.168,1.979,3.2a9.038,9.038,0,0,0,2.557,2.67l-.045.112a7.6,7.6,0,0,1-3.1-2.318,26.912,26.912,0,0,1-2.34-3.069,28.147,28.147,0,0,1-3.017-7.1l-2.467-7.207c-.416-1.2-.785-2.424-1.229-3.593a5.027,5.027,0,0,0-2.237-2.873Z" transform="translate(-237.673 -318.961)" fill="#0a2a6b"/>
            <path id="Trazado_197441" data-name="Trazado 197441" d="M244.825,318.684a25.087,25.087,0,0,1,4.213,7.416,58.354,58.354,0,0,0,3.465,7.717,81.927,81.927,0,0,0,4.655,7.027,42.434,42.434,0,0,0,5.33,6.532l-.072.1a16.615,16.615,0,0,1-3.383-2.673,35.6,35.6,0,0,1-2.837-3.238,42.319,42.319,0,0,1-4.541-7.3,59.111,59.111,0,0,1-3.178-7.955,24.746,24.746,0,0,0-3.744-7.55Z" transform="translate(-238.677 -317.967)" fill="#0a2a6b"/>
          </g>
          <path id="Trazado_197442" data-name="Trazado 197442" d="M296.622,392.729l-.058,9.5-.136,9.5c-.086,6.33-.255,12.657-.3,18.984-.147,6.326-.142,12.649-.161,18.979q-.029,4.747,0,9.493c-.016,3.166.022,6.33.062,9.5-.312-3.153-.467-6.319-.65-9.482-.14-3.165-.246-6.331-.338-9.5-.173-6.332-.168-12.671-.114-19.007.143-6.334.294-12.666.577-18.993l.47-9.488C296.188,399.049,296.361,395.886,296.622,392.729Z" transform="translate(-248.722 -219.043)" fill="#0a2a6b"/>
          <path id="Trazado_197443" data-name="Trazado 197443" d="M392,324.178l-4.461-3.049-34.951,35.058L338.938,324.11l-4.9,2.757,16.454,40.588Z" transform="translate(-256.559 -204.705)" fill="#0a2a6b"/>
          <g id="Grupo_155456" data-name="Grupo 155456" transform="translate(69.374 0.294)" opacity="0.4">
            <path id="Trazado_197444" data-name="Trazado 197444" d="M323.9,196.769c1.762.026,3.521.023,5.277-.065s3.505-.239,5.246-.46a66.831,66.831,0,0,0,10.3-2.1,64.014,64.014,0,0,0,9.837-3.64,27.184,27.184,0,0,0,8.511-5.883l1.293-1.411L363.69,185a8.049,8.049,0,0,0-.656,3.149,3.273,3.273,0,0,0,1.33,2.626,4.018,4.018,0,0,0,3.026.333,18.621,18.621,0,0,0,3.145-1.068,24.188,24.188,0,0,0,10.254-8.44,23.2,23.2,0,0,1-10.043,8.913,18.979,18.979,0,0,1-3.226,1.185,4.565,4.565,0,0,1-3.526-.351,3.959,3.959,0,0,1-1.668-3.162,8.744,8.744,0,0,1,.673-3.441l.618.376a26.513,26.513,0,0,1-8.728,6.089,64.766,64.766,0,0,1-9.983,3.6,63.578,63.578,0,0,1-10.43,1.873A61.168,61.168,0,0,1,323.9,196.769Z" transform="translate(-323.905 -177.06)" fill="#55a3f3"/>
            <path id="Trazado_197445" data-name="Trazado 197445" d="M397.518,183.416a46.8,46.8,0,0,0-3.286,9.671,19.1,19.1,0,0,0,.475,9.955,13.4,13.4,0,0,0,2.422,4.34,17.229,17.229,0,0,0,3.788,3.286,20.537,20.537,0,0,0,4.567,2.189,13.037,13.037,0,0,0,5,.895,12.358,12.358,0,0,1-5.114-.521,20.792,20.792,0,0,1-4.775-2.04,14.869,14.869,0,0,1-6.641-7.889,19.139,19.139,0,0,1-.319-10.342,31.975,31.975,0,0,1,1.612-4.921A51.258,51.258,0,0,1,397.518,183.416Z" transform="translate(-337.756 -177.423)" fill="#55a3f3"/>
            <path id="Trazado_197446" data-name="Trazado 197446" d="M404.734,190.081a15.245,15.245,0,0,0-.646,2.54,13.241,13.241,0,0,0-.215,2.576,12.652,12.652,0,0,0,1.039,4.97,11.475,11.475,0,0,0,3.024,4.051,11.172,11.172,0,0,0,4.577,2.349,8.731,8.731,0,0,1-2.6-.559,10.5,10.5,0,0,1-5.729-5.518,11.441,11.441,0,0,1-.919-5.308A11.838,11.838,0,0,1,404.734,190.081Z" transform="translate(-339.79 -178.758)" fill="#55a3f3"/>
            <path id="Trazado_197447" data-name="Trazado 197447" d="M363.232,175.923q-.59.7-1.2,1.381l-1.328,1.272-1.446,1.143-1.533,1.03a24,24,0,0,1-14.166,3.453l-1.835-.21-1.81-.35-1.764-.521c-.573-.216-1.142-.441-1.705-.673.593.15,1.18.3,1.763.469l1.783.34,1.794.233,1.8.1a27.89,27.89,0,0,0,13.831-3.369A26.792,26.792,0,0,0,363.232,175.923Z" transform="translate(-326.415 -175.923)" fill="#55a3f3"/>
          </g>
        </g>
        <g id="Grupo_155463" data-name="Grupo 155463" transform="translate(41.432 153.077)">
          <g id="Grupo_155458" data-name="Grupo 155458" transform="translate(106.669 146.795)">
            <path id="Trazado_197448" data-name="Trazado 197448" d="M234.863,438.159l-17.158-60.914-14.2,56.186,2.269,8.188A51.369,51.369,0,0,0,234.863,438.159Z" transform="translate(-203.501 -377.245)" fill="#0a2a6b"/>
            <path id="Trazado_197449" data-name="Trazado 197449" d="M245.928,490.671l-10.5-37.26a51.369,51.369,0,0,1-29.094,3.46l9.368,33.8Z" transform="translate(-204.069 -392.497)" fill="#ff8775"/>
          </g>
          <path id="Trazado_197450" data-name="Trazado 197450" d="M148.531,346.85l-30.2-10.758S74.916,359.9,70.769,380s13.082,87.18,13.082,87.18h117.1S183.4,428.733,183.4,419.363s12.762-43.847,7.019-51.338-42.081-27.592-42.081-27.592Z" transform="translate(-70.124 -222.209)" fill="#0a2a6b"/>
          <path id="Trazado_197451" data-name="Trazado 197451" d="M156.95,321.8a32.661,32.661,0,0,1-30.2-10.758,78.508,78.508,0,0,0,1.636-18.124,26.736,26.736,0,0,0-1.279-8.4,32.2,32.2,0,0,0-2.611-5.18l-8.138-13.98a31.524,31.524,0,0,1-3.684-7.942c-1.427-5.631.346-11.568,2.669-16.892,4.5-10.31,11.448-19.956,21.3-25.384s22.9-5.856,31.909.885c3.532,2.644,8.253,5.168,9.212,9.473,2.272,10.2,4.55,20.44,5.509,30.849s.568,21.057-2.42,31.074c-1.348,4.52-3.362,9.08-7.072,11.994a21.593,21.593,0,0,1-8.715,3.734,16.906,16.906,0,0,1-8.179.219C156.636,309.219,156.692,315.951,156.95,321.8Z" transform="translate(-78.542 -197.163)" fill="#ff8775"/>
          <path id="Trazado_197452" data-name="Trazado 197452" d="M104.559,221.212a20.993,20.993,0,0,0-7.33,6.582c-7.411,10.278-7.394,24.795-1.691,36.111a59.317,59.317,0,0,0,28.72,26.575,76.845,76.845,0,0,0-2.151-18.646,15.41,15.41,0,0,0,7.918-4.823c-3.041-11.631-6.18-23.067-9.22-34.7,6.832,1.683,14.311.443,20.838-2.185a60.685,60.685,0,0,0,17.567-11.513,12.628,12.628,0,0,0,6.245,6.72,20.943,20.943,0,0,0,9.094,2.131c.355,1.832.672,3.655,1.028,5.487,5.489-3.433,10.358-9.566,9.623-16a17.1,17.1,0,0,0-1.4-4.857,27.545,27.545,0,0,0-12.576-13.385,40.783,40.783,0,0,0-10.554-3.431,80.5,80.5,0,0,0-36.728,1.152,33.524,33.524,0,0,0-10.728,4.585A21.862,21.862,0,0,0,104.559,221.212Z" transform="translate(-74.394 -193.695)" fill="#0a2a6b"/>
          <g id="Grupo_155459" data-name="Grupo 155459" transform="translate(34.872 64.171)">
            <path id="Trazado_197453" data-name="Trazado 197453" d="M114.144,284.916a21.509,21.509,0,0,0,8.136,11.56,9.238,9.238,0,0,0,3.841,1.743c2.975.419,5.256-2.024,5.713-5.016s-.545-6.356-1.878-9.464c-1.723-4.019-4.533-8.3-8.381-9.483C115.369,272.349,112.609,279.309,114.144,284.916Z" transform="translate(-113.727 -273.933)" fill="#ff8775"/>
            <path id="Trazado_197454" data-name="Trazado 197454" d="M129.493,295.291a9.6,9.6,0,0,1-3.68-2.564,2.126,2.126,0,0,1-.5-.781,1.514,1.514,0,0,1,.47-1.393l1.875-2.255a1.01,1.01,0,0,0,.278-.524,1.577,1.577,0,0,0-.175-.737c-1.278-3.093-2.743-6.431-5.414-8.377a4.821,4.821,0,0,0-2.32-1,3.045,3.045,0,0,0-2.775,1.495,9.7,9.7,0,0,0-1.148,3.252s.321,6.464,5.048,10.65S129.493,295.291,129.493,295.291Z" transform="translate(-114.203 -274.678)" fill="#ff8775" style="mix-blend-mode: multiply;isolation: isolate"/>
            <path id="Trazado_197455" data-name="Trazado 197455" d="M116.1,282.3a8.222,8.222,0,0,1,1.14-3.738,3.508,3.508,0,0,1,1.664-1.28,3.314,3.314,0,0,1,2.159.033c2.66,1.02,4.323,3.348,5.547,5.629.6,1.166,1.11,2.362,1.588,3.556a2.789,2.789,0,0,1,.286,1.171,1.338,1.338,0,0,1-.3.723l-.329.385c-.418.485-.844.964-1.273,1.44s-.909.933-.918,1.32c-.06.384.429.9.832,1.359a9.975,9.975,0,0,0,3,2.284,8.992,8.992,0,0,1-3.412-1.859,8.288,8.288,0,0,1-.719-.7,1.747,1.747,0,0,1-.491-1.082,1.9,1.9,0,0,1,.387-1.139c.214-.3.4-.524.6-.786.389-.509.782-1.016,1.184-1.515l.281-.358c.068-.1.069-.128.066-.148a2.517,2.517,0,0,0-.244-.657c-.505-1.172-1.009-2.333-1.6-3.434a15.828,15.828,0,0,0-2.021-3.092,8.037,8.037,0,0,0-2.78-2.217,2.561,2.561,0,0,0-1.609-.161,2.88,2.88,0,0,0-1.434.894A9.049,9.049,0,0,0,116.1,282.3Z" transform="translate(-114.203 -274.571)" fill="#0a2a6b"/>
          </g>
          <path id="Trazado_197456" data-name="Trazado 197456" d="M180.168,256.267c.611,1.959,1.124,3.937,1.608,5.92s.914,3.976,1.324,5.972l.582,2.992a7.79,7.79,0,0,0,.881,2.6,6.287,6.287,0,0,0,1.945,1.85,23.382,23.382,0,0,0,2.616,1.364l.6.286-.266.544a12.681,12.681,0,0,1-5.919,5.726,19.627,19.627,0,0,0,2.826-2.866,13.185,13.185,0,0,0,1.954-3.367l.331.829a17.867,17.867,0,0,1-2.893-1.269,6.983,6.983,0,0,1-2.508-2.255,8.23,8.23,0,0,1-1.116-3.139l-.517-3.021c-.319-2.013-.616-4.03-.865-6.056S180.287,258.316,180.168,256.267Z" transform="translate(-92.16 -206.225)" fill="#0a2a6b"/>
          <path id="Trazado_197457" data-name="Trazado 197457" d="M166.051,268.5c0,2-.979,3.621-2.187,3.621s-2.186-1.621-2.186-3.621.979-3.621,2.186-3.621S166.051,266.5,166.051,268.5Z" transform="translate(-88.457 -207.949)" fill="#0a2a6b"/>
          <path id="Trazado_197458" data-name="Trazado 197458" d="M194.765,264.981c0,2-.979,3.621-2.187,3.621s-2.187-1.621-2.187-3.621.979-3.621,2.187-3.621S194.765,262.982,194.765,264.981Z" transform="translate(-94.207 -207.245)" fill="#0a2a6b"/>
          <path id="Trazado_197459" data-name="Trazado 197459" d="M147.434,258.316a20.879,20.879,0,0,1,2.1-5.193,17.732,17.732,0,0,1,3.65-4.468,22.56,22.56,0,0,1,2.346-1.847,8.18,8.18,0,0,1,2.773-1.164,9.287,9.287,0,0,1,3.017-.16,6.766,6.766,0,0,1,2.868.931l-.031.318-2.582.987c-.8.326-1.568.642-2.316.977s-1.492.633-2.267.921a11.336,11.336,0,0,0-2.259,1.074,19.2,19.2,0,0,0-3.9,3.366,23.8,23.8,0,0,0-3.1,4.376Z" transform="translate(-85.605 -204.054)" fill="#0a2a6b"/>
          <path id="Trazado_197460" data-name="Trazado 197460" d="M195.35,252.994a15.336,15.336,0,0,0-3.377-3.11,17.511,17.511,0,0,0-3.952-2,11.949,11.949,0,0,0-2.136-.5,14.6,14.6,0,0,1-2.1-.51,33.738,33.738,0,0,1-4.394-1.705l-.022-.32a8.151,8.151,0,0,1,5-1.12,10.937,10.937,0,0,1,4.732,1.837,15.733,15.733,0,0,1,3.932,3.127,14.065,14.065,0,0,1,2.6,4.148Z" transform="translate(-91.999 -203.708)" fill="#0a2a6b"/>
          <g id="Grupo_155460" data-name="Grupo 155460" transform="translate(87.321 86.573)">
            <path id="Trazado_197461" data-name="Trazado 197461" d="M184.224,302.141c2.782-.493,5.19-.024,5.38,1.048.158.885-1.248,1.9-3.308,2.51a10.26,10.26,0,0,0-5.921-2.095A9.547,9.547,0,0,1,184.224,302.141Z" transform="translate(-179.522 -301.945)" fill="#0a2a6b"/>
            <path id="Trazado_197462" data-name="Trazado 197462" d="M180.161,304.02a10.259,10.259,0,0,1,5.921,2.095,12.918,12.918,0,0,1-1.383.325c-2.781.493-5.19.024-5.38-1.048C179.241,304.944,179.562,304.465,180.161,304.02Z" transform="translate(-179.308 -302.36)" fill="#ff4648"/>
          </g>
          <g id="Grupo_155461" data-name="Grupo 155461" transform="translate(33.622 90.002)">
            <path id="Trazado_197463" data-name="Trazado 197463" d="M124.806,400.538l12.865,13.356s10.493-77.332,10.281-83.519S143.544,309.35,146.9,308.8s9.987,14.145,9.987,14.145,42.593-7.61,45.948-6.959-1.678,4.288-6.432,5.965a79.131,79.131,0,0,1-8.922,2.557,11.008,11.008,0,0,1,1.915,3.759,14.692,14.692,0,0,1,0,3.8,14.368,14.368,0,0,1,.027,4.1,10.875,10.875,0,0,1-1.261,2.481s.368,2.843-.273,3.786a6.553,6.553,0,0,1-2.615,2.179c-4.555,4.892-10.17.6-10.17.6l-3.509-.086-10.584-.261s-1.442,53.045-2.163,69.029-5.527,41.456-5.527,41.456l-41.158-24.272a130.55,130.55,0,0,1,6.073-19.705C121.841,402.962,124.806,400.538,124.806,400.538Z" transform="translate(-112.164 -306.742)" fill="#ff8775"/>
            <path id="Trazado_197464" data-name="Trazado 197464" d="M155.116,341.58c.027-2.892.119-5.781.181-8.673.036-1.449.074-2.874.031-4.313s-.138-2.871-.262-4.3c-.264-2.866-.622-5.729-.895-8.614a85.946,85.946,0,0,1-.5-8.71v-.444l.437-.112a5.883,5.883,0,0,1,5.588,1.539,8.558,8.558,0,0,1,1.6,2.428,18.394,18.394,0,0,1,1,2.63,7.843,7.843,0,0,1,.3,2.889,7.109,7.109,0,0,0-.022,2.533,7.811,7.811,0,0,0,1.106,2.278,9.922,9.922,0,0,0,1.719,1.927l-.392-.1,9.612-1.759c3.213-.542,6.417-1.125,9.638-1.63-3.165.778-6.346,1.479-9.52,2.22l-9.545,2.092-.213.046-.179-.145a9.648,9.648,0,0,1-3.244-4.666,7.984,7.984,0,0,1-.041-2.884,6.729,6.729,0,0,0-.3-2.5,17.285,17.285,0,0,0-.968-2.446,7.416,7.416,0,0,0-1.4-2.089,4.873,4.873,0,0,0-4.47-1.245l.437-.556a84.919,84.919,0,0,0,.4,8.6l.4,4.315q.179,2.162.3,4.337a60.155,60.155,0,0,1-.092,8.708C155.6,335.817,155.389,338.7,155.116,341.58Z" transform="translate(-120.475 -306.231)" fill="#0a2a6b"/>
            <path id="Trazado_197465" data-name="Trazado 197465" d="M203.1,328.443a23.558,23.558,0,0,1-3.133,1.17c-1.056.332-2.129.6-3.2.845-1.08.228-2.163.441-3.261.587a23.356,23.356,0,0,1-3.334.258,23.234,23.234,0,0,1,3.132-1.172c1.057-.332,2.13-.6,3.205-.844,1.08-.226,2.163-.44,3.262-.585A23.6,23.6,0,0,1,203.1,328.443Z" transform="translate(-127.784 -310.679)" fill="#0a2a6b"/>
            <path id="Trazado_197466" data-name="Trazado 197466" d="M191.173,338.436a26.377,26.377,0,0,1,3.489-.622c1.166-.148,2.335-.226,3.5-.29,1.171-.042,2.342-.069,3.517-.026a26.2,26.2,0,0,1,3.533.311,26.112,26.112,0,0,1-3.489.624c-1.166.148-2.335.226-3.505.289-1.171.04-2.342.067-3.517.023A26.444,26.444,0,0,1,191.173,338.436Z" transform="translate(-127.985 -312.488)" fill="#0a2a6b"/>
            <path id="Trazado_197467" data-name="Trazado 197467" d="M191.93,345.6a13.914,13.914,0,0,1,3.049-.587,24.181,24.181,0,0,1,3.081-.076,29.152,29.152,0,0,1,3.055.292,20.3,20.3,0,0,1,3.02.657,19.532,19.532,0,0,1-3.077.277c-1.02.033-2.034,0-3.045-.029-1.01-.052-2.017-.1-3.026-.189S192.964,345.768,191.93,345.6Z" transform="translate(-128.137 -313.978)" fill="#0a2a6b"/>
            <path id="Trazado_197468" data-name="Trazado 197468" d="M198.6,353.771a13.006,13.006,0,0,1-2.428.5,22.463,22.463,0,0,1-4.869.066,13.014,13.014,0,0,1-2.441-.436,12.885,12.885,0,0,1,2.428-.5,22.522,22.522,0,0,1,4.869-.062A13.074,13.074,0,0,1,198.6,353.771Z" transform="translate(-127.523 -315.643)" fill="#0a2a6b"/>
            <path id="Trazado_197469" data-name="Trazado 197469" d="M143.48,437.425c.072,1.38.046,2.742,0,4.1s-.138,2.71-.227,4.061c-.113,1.35-.222,2.7-.383,4.049s-.332,2.7-.612,4.054a28.517,28.517,0,0,1-.323-4.1c-.029-1.367.03-2.731.122-4.094.114-1.36.261-2.718.5-4.065A28.77,28.77,0,0,1,143.48,437.425Z" transform="translate(-118.123 -332.502)" fill="#0a2a6b"/>
          </g>
          <path id="Trazado_197470" data-name="Trazado 197470" d="M120.78,415.992c-2.658-3.025-5.248-6.105-7.828-9.194s-5.106-6.22-7.662-9.328c-2.5-3.147-5.039-6.26-7.826-9.136a40.073,40.073,0,0,0-9.411-7.411,29.884,29.884,0,0,1,5.224,3.047A44.9,44.9,0,0,1,97.9,387.9a106.855,106.855,0,0,1,8.012,9.069c2.5,3.15,5.038,6.275,7.517,9.445S118.378,412.759,120.78,415.992Z" transform="translate(-73.714 -231.186)" fill="#55a3f3"/>
          <path id="Trazado_197471" data-name="Trazado 197471" d="M107.4,460.96c-.3,1.432-.583,2.862-.809,4.3s-.442,2.88-.592,4.328-.252,2.9-.346,4.348-.122,2.9-.114,4.355l0,.762-.61-.465c-1.624-1.238-3.217-2.519-4.751-3.871s-3.043-2.728-4.506-4.154a81.775,81.775,0,0,1-8.046-9.219c2.719,3.037,5.538,5.969,8.517,8.729q2.21,2.095,4.534,4.064c1.555,1.3,3.119,2.6,4.713,3.856l-.606.3q.018-2.2.176-4.4c.1-1.465.287-2.922.5-4.372s.468-2.9.8-4.321S106.96,462.355,107.4,460.96Z" transform="translate(-73.63 -247.213)" fill="#55a3f3"/>
          <path id="Trazado_197472" data-name="Trazado 197472" d="M215.689,443.54l-2.175-7.475-2.1-7.493-.012-.044,0-.056c.262-3.9.611-7.8.919-11.7s.66-7.8,1.016-11.695l.531-5.845.585-5.841q.573-5.842,1.262-11.674-.324,5.864-.751,11.718l-.421,5.855-.475,5.85c-.313,3.9-.627,7.8-1,11.7s-.685,7.8-1.093,11.688l-.009-.1,1.895,7.549Z" transform="translate(-98.413 -231.345)" fill="#55a3f3"/>
          <g id="Grupo_155462" data-name="Grupo 155462" transform="translate(17.089 0.908)" opacity="0.47">
            <path id="Trazado_197473" data-name="Trazado 197473" d="M108.289,219.227c4.959,1.466,10.165,1.5,15.287,1.552a76.31,76.31,0,0,0,15.288-1.463,47.763,47.763,0,0,0,14.31-5.3,40.421,40.421,0,0,0,6.244-4.393,34.6,34.6,0,0,0,5.174-5.6l.57-.778.073.957a17.979,17.979,0,0,0,2.468,7.585,23.922,23.922,0,0,0,5.213,6.153,21.111,21.111,0,0,0,15.122,4.877,20.782,20.782,0,0,1-15.429-4.507,24.486,24.486,0,0,1-5.45-6.2,18.082,18.082,0,0,1-2.634-7.85l.643.18a36.713,36.713,0,0,1-11.6,10.262A48.5,48.5,0,0,1,139,220a59.065,59.065,0,0,1-7.688,1.033c-2.578.191-5.162.254-7.742.206s-5.157-.174-7.724-.441A34.165,34.165,0,0,1,108.289,219.227Z" transform="translate(-94.856 -196.515)" fill="#55a3f3"/>
            <path id="Trazado_197474" data-name="Trazado 197474" d="M203.717,215.279a12.785,12.785,0,0,1-3.141-.433,15.856,15.856,0,0,1-2.973-1.172,17.1,17.1,0,0,1-5-3.972,21.031,21.031,0,0,1-3.368-5.415,28.649,28.649,0,0,1-1.088-2.985,27.548,27.548,0,0,1-.7-3.085c.338,1,.668,1.992,1.071,2.957a29.546,29.546,0,0,0,1.274,2.85,25.417,25.417,0,0,0,3.415,5.153,19.545,19.545,0,0,0,4.7,3.961A16.535,16.535,0,0,0,203.717,215.279Z" transform="translate(-110.706 -195.508)" fill="#55a3f3"/>
            <path id="Trazado_197475" data-name="Trazado 197475" d="M159.971,194.83a18.917,18.917,0,0,1-4.184,4.393,30.5,30.5,0,0,1-5.229,3.139,54.969,54.969,0,0,1-11.542,3.873,52.168,52.168,0,0,1-6.045.848,40.626,40.626,0,0,1-6.105-.02,37.423,37.423,0,0,1-6-1.088,30.762,30.762,0,0,1-5.619-2.3,34.655,34.655,0,0,0,5.717,1.925,37.468,37.468,0,0,0,5.947.854,49.623,49.623,0,0,0,6-.093,51.876,51.876,0,0,0,5.939-.9,58.53,58.53,0,0,0,11.45-3.647,30.554,30.554,0,0,0,5.255-2.9A20.25,20.25,0,0,0,159.971,194.83Z" transform="translate(-96.249 -194.83)" fill="#55a3f3"/>
            <path id="Trazado_197476" data-name="Trazado 197476" d="M114.434,242.789a24.43,24.43,0,0,1,.347,4.651,27.272,27.272,0,0,1-.543,4.656,25.564,25.564,0,0,1-9.959,15.51,27.29,27.29,0,0,1-4.008,2.431,24.4,24.4,0,0,1-4.375,1.618,28.866,28.866,0,0,0,4.193-1.965,27.958,27.958,0,0,0,13.553-17.73A29.53,29.53,0,0,0,114.434,242.789Z" transform="translate(-92.374 -204.434)" fill="#55a3f3"/>
            <path id="Trazado_197477" data-name="Trazado 197477" d="M103.268,237.476A21.129,21.129,0,0,1,91.492,252.77a31.137,31.137,0,0,0,11.776-15.294Z" transform="translate(-91.492 -203.37)" fill="#55a3f3"/>
          </g>
        </g>
      </g>
    </g>
    <path id="Trazado_198362" data-name="Trazado 198362" d="M-112.627-4.824V0h-3.428V-14.219h5.674a6.608,6.608,0,0,1,2.886.6,4.526,4.526,0,0,1,1.943,1.709,4.667,4.667,0,0,1,.688,2.515,4.114,4.114,0,0,1-1.489,3.325,6.179,6.179,0,0,1-4.087,1.245Zm0-2.646h2.246a2.118,2.118,0,0,0,1.519-.5,1.85,1.85,0,0,0,.522-1.406,2.287,2.287,0,0,0-.537-1.592,1.9,1.9,0,0,0-1.465-.605h-2.285Zm15.83-.117-1.084-.078a1.947,1.947,0,0,0-1.992.977V0h-3.291V-10.566h3.086l.107,1.357a2.548,2.548,0,0,1,2.314-1.553,3.209,3.209,0,0,1,.918.117ZM-90.684.2a5.432,5.432,0,0,1-3.936-1.45,5.008,5.008,0,0,1-1.5-3.774V-5.3a6.489,6.489,0,0,1,.6-2.861,4.395,4.395,0,0,1,1.753-1.919,5.292,5.292,0,0,1,2.734-.679A4.574,4.574,0,0,1-87.52-9.38,5.43,5.43,0,0,1-86.23-5.527v1.279h-6.543A2.372,2.372,0,0,0-92-2.852a2.3,2.3,0,0,0,1.543.508,2.958,2.958,0,0,0,2.441-1.094l1.5,1.777A4.2,4.2,0,0,1-88.257-.308,5.891,5.891,0,0,1-90.684.2Zm-.371-8.418q-1.445,0-1.719,1.914h3.32v-.254a1.63,1.63,0,0,0-.4-1.226A1.593,1.593,0,0,0-91.055-8.223Zm5.762,2.861a7.134,7.134,0,0,1,.527-2.832,4.245,4.245,0,0,1,1.514-1.9,3.99,3.99,0,0,1,2.295-.669,3.173,3.173,0,0,1,2.578,1.113l.117-.918h2.988V-.4a4.455,4.455,0,0,1-.649,2.427A4.167,4.167,0,0,1-77.8,3.608a6.91,6.91,0,0,1-2.852.552,5.961,5.961,0,0,1-2.251-.439A4.063,4.063,0,0,1-84.57,2.578L-83.193.645a3.018,3.018,0,0,0,2.422,1.084A1.96,1.96,0,0,0-78.584-.518V-.85A3.09,3.09,0,0,1-80.977.2,3.819,3.819,0,0,1-84.1-1.284a6.13,6.13,0,0,1-1.191-3.96Zm3.3.205A3.759,3.759,0,0,0-81.5-3.1a1.541,1.541,0,0,0,1.367.757,1.748,1.748,0,0,0,1.553-.713V-7.5a1.7,1.7,0,0,0-1.533-.723,1.551,1.551,0,0,0-1.377.786A4.287,4.287,0,0,0-81.992-5.156Zm14.883,4.014A3.393,3.393,0,0,1-69.932.2,3.328,3.328,0,0,1-72.563-.815a4.251,4.251,0,0,1-.894-2.905v-6.846h3.291V-3.7a1.183,1.183,0,0,0,1.318,1.357,1.72,1.72,0,0,0,1.611-.811v-7.412h3.311V0h-3.086Zm8.008-9.424.107,1.24a3.583,3.583,0,0,1,3.018-1.436,3.015,3.015,0,0,1,2.466.986,4.7,4.7,0,0,1,.845,2.969V0h-3.3V-6.67a1.783,1.783,0,0,0-.322-1.177,1.491,1.491,0,0,0-1.172-.376,1.569,1.569,0,0,0-1.436.762V0h-3.291V-10.566Zm12.09-2.627v2.627h1.738v2.285h-1.738v4.834a1.234,1.234,0,0,0,.215.83,1.152,1.152,0,0,0,.85.234,4.828,4.828,0,0,0,.82-.059V-.088A6.074,6.074,0,0,1-46.982.2a3.448,3.448,0,0,1-2.51-.8A3.282,3.282,0,0,1-50.3-3.037V-8.281H-51.65v-2.285H-50.3v-2.627ZM-38.027,0a3.716,3.716,0,0,1-.312-.947A3.06,3.06,0,0,1-40.879.2a3.749,3.749,0,0,1-2.539-.9,2.875,2.875,0,0,1-1.045-2.271,2.955,2.955,0,0,1,1.27-2.6A6.468,6.468,0,0,1-39.5-6.455h1.016v-.559q0-1.462-1.26-1.462a1.03,1.03,0,0,0-1.172,1.158h-3.291a2.95,2.95,0,0,1,1.3-2.487,5.479,5.479,0,0,1,3.325-.956,4.8,4.8,0,0,1,3.193.986,3.429,3.429,0,0,1,1.2,2.705v4.678a4.79,4.79,0,0,0,.449,2.227V0Zm-2.061-2.148a1.836,1.836,0,0,0,1.021-.264,1.653,1.653,0,0,0,.581-.6V-4.7h-.957q-1.719,0-1.719,1.543a.942.942,0,0,0,.3.728A1.1,1.1,0,0,0-40.088-2.148Zm12.256-.82a.76.76,0,0,0-.439-.674,6.685,6.685,0,0,0-1.67-.527,7.615,7.615,0,0,1-2.031-.718,3.4,3.4,0,0,1-1.221-1.079,2.577,2.577,0,0,1-.42-1.455,2.92,2.92,0,0,1,1.2-2.4,4.948,4.948,0,0,1,3.145-.942,5.482,5.482,0,0,1,3.359.947,2.962,2.962,0,0,1,1.27,2.49h-3.3q0-1.27-1.338-1.27a1.326,1.326,0,0,0-.869.288.892.892,0,0,0-.352.718.819.819,0,0,0,.43.713,4.06,4.06,0,0,0,1.372.449,11.857,11.857,0,0,1,1.655.42,3.007,3.007,0,0,1,2.383,2.939A2.767,2.767,0,0,1-25.942-.713,5.631,5.631,0,0,1-29.268.2a5.747,5.747,0,0,1-2.422-.488,4.05,4.05,0,0,1-1.66-1.328,3.007,3.007,0,0,1-.6-1.768h3.076a1.272,1.272,0,0,0,.488,1.069,2.009,2.009,0,0,0,1.2.337,1.58,1.58,0,0,0,1.011-.273A.875.875,0,0,0-27.832-2.969Zm9.277-2.393a6.455,6.455,0,0,1,1.084-3.955,3.568,3.568,0,0,1,3.027-1.445,3.035,3.035,0,0,1,2.383,1.113V-15h3.3V0h-2.959l-.166-1.133A3.116,3.116,0,0,1-14.463.2,3.562,3.562,0,0,1-17.451-1.25,6.659,6.659,0,0,1-18.555-5.361Zm3.291.205q0,2.813,1.641,2.813a1.62,1.62,0,0,0,1.563-.918V-7.285A1.576,1.576,0,0,0-13.6-8.223q-1.523,0-1.65,2.461ZM-1.777.2a5.432,5.432,0,0,1-3.936-1.45,5.008,5.008,0,0,1-1.5-3.774V-5.3a6.489,6.489,0,0,1,.6-2.861,4.395,4.395,0,0,1,1.753-1.919,5.292,5.292,0,0,1,2.734-.679A4.574,4.574,0,0,1,1.387-9.38,5.43,5.43,0,0,1,2.676-5.527v1.279H-3.867a2.372,2.372,0,0,0,.771,1.4,2.3,2.3,0,0,0,1.543.508A2.958,2.958,0,0,0,.889-3.437l1.5,1.777A4.2,4.2,0,0,1,.649-.308,5.891,5.891,0,0,1-1.777.2Zm-.371-8.418q-1.445,0-1.719,1.914h3.32v-.254a1.63,1.63,0,0,0-.4-1.226A1.593,1.593,0,0,0-2.148-8.223Zm14.961-4.971v2.627h1.738v2.285H12.813v4.834a1.234,1.234,0,0,0,.215.83,1.152,1.152,0,0,0,.85.234,4.828,4.828,0,0,0,.82-.059V-.088A6.074,6.074,0,0,1,12.842.2a3.448,3.448,0,0,1-2.51-.8,3.282,3.282,0,0,1-.811-2.432V-8.281H8.174v-2.285H9.521v-2.627ZM19.316,0h-3.3V-10.566h3.3Zm-3.5-13.3a1.482,1.482,0,0,1,.508-1.159,1.909,1.909,0,0,1,1.318-.452,1.909,1.909,0,0,1,1.318.452,1.482,1.482,0,0,1,.508,1.159,1.482,1.482,0,0,1-.508,1.159,1.909,1.909,0,0,1-1.318.452,1.909,1.909,0,0,1-1.318-.452A1.482,1.482,0,0,1,15.82-13.3Zm15.332,8.1a6.372,6.372,0,0,1-1.108,3.931A3.554,3.554,0,0,1,27.051.2,3.046,3.046,0,0,1,24.658-.869V4.063H21.367V-10.566h3.076l.1.977a3.046,3.046,0,0,1,2.49-1.172,3.582,3.582,0,0,1,3.037,1.44,6.45,6.45,0,0,1,1.084,3.96ZM27.861-5.41q0-2.812-1.641-2.812a1.549,1.549,0,0,0-1.562.84v4.16a1.6,1.6,0,0,0,1.582.879q1.572,0,1.621-2.715Zm4.326.029A6.236,6.236,0,0,1,32.8-8.2a4.4,4.4,0,0,1,1.768-1.9,5.323,5.323,0,0,1,2.705-.664,4.858,4.858,0,0,1,3.74,1.47,5.64,5.64,0,0,1,1.367,4v.117a5.472,5.472,0,0,1-1.372,3.921A4.871,4.871,0,0,1,37.295.2a4.927,4.927,0,0,1-3.623-1.353A5.29,5.29,0,0,1,32.2-4.824Zm3.291.205a3.932,3.932,0,0,0,.459,2.148,1.529,1.529,0,0,0,1.357.684q1.758,0,1.8-2.705v-.332q0-2.842-1.816-2.842-1.65,0-1.787,2.451Zm17.8,2.832a1.464,1.464,0,0,0,1.074-.376,1.379,1.379,0,0,0,.371-1.05h3.086A3.653,3.653,0,0,1,56.567-.918,4.631,4.631,0,0,1,53.359.2,4.689,4.689,0,0,1,49.727-1.25a5.7,5.7,0,0,1-1.328-4v-.137a6.436,6.436,0,0,1,.591-2.827,4.3,4.3,0,0,1,1.7-1.885,5.081,5.081,0,0,1,2.637-.659A4.573,4.573,0,0,1,56.6-9.619a4.053,4.053,0,0,1,1.211,3.1H54.727a1.807,1.807,0,0,0-.4-1.26,1.382,1.382,0,0,0-1.074-.439q-1.279,0-1.494,1.631a11.507,11.507,0,0,0-.068,1.426,4.52,4.52,0,0,0,.381,2.207A1.319,1.319,0,0,0,53.281-2.344ZM64.316.2a5.432,5.432,0,0,1-3.936-1.45,5.008,5.008,0,0,1-1.5-3.774V-5.3a6.489,6.489,0,0,1,.6-2.861,4.395,4.395,0,0,1,1.753-1.919,5.292,5.292,0,0,1,2.734-.679A4.574,4.574,0,0,1,67.48-9.38,5.43,5.43,0,0,1,68.77-5.527v1.279H62.227A2.372,2.372,0,0,0,63-2.852a2.3,2.3,0,0,0,1.543.508,2.958,2.958,0,0,0,2.441-1.094l1.5,1.777A4.2,4.2,0,0,1,66.743-.308,5.891,5.891,0,0,1,64.316.2Zm-.371-8.418q-1.445,0-1.719,1.914h3.32v-.254a1.63,1.63,0,0,0-.4-1.226A1.593,1.593,0,0,0,63.945-8.223Zm12.539.635L75.4-7.666a1.947,1.947,0,0,0-1.992.977V0H70.117V-10.566H73.2l.107,1.357a2.548,2.548,0,0,1,2.314-1.553,3.209,3.209,0,0,1,.918.117Zm7.578,0-1.084-.078a1.947,1.947,0,0,0-1.992.977V0H77.7V-10.566h3.086l.107,1.357A2.548,2.548,0,0,1,83.2-10.762a3.209,3.209,0,0,1,.918.117ZM90.908,0A3.716,3.716,0,0,1,90.6-.947,3.06,3.06,0,0,1,88.057.2a3.749,3.749,0,0,1-2.539-.9,2.875,2.875,0,0,1-1.045-2.271,2.955,2.955,0,0,1,1.27-2.6,6.468,6.468,0,0,1,3.691-.879h1.016v-.559q0-1.462-1.26-1.462a1.03,1.03,0,0,0-1.172,1.158H84.727a2.95,2.95,0,0,1,1.3-2.487,5.479,5.479,0,0,1,3.325-.956,4.8,4.8,0,0,1,3.193.986,3.429,3.429,0,0,1,1.2,2.705v4.678A4.79,4.79,0,0,0,94.2-.166V0ZM88.848-2.148a1.836,1.836,0,0,0,1.021-.264,1.653,1.653,0,0,0,.581-.6V-4.7h-.957q-1.719,0-1.719,1.543a.942.942,0,0,0,.3.728A1.1,1.1,0,0,0,88.848-2.148Zm6.309-3.213A6.455,6.455,0,0,1,96.24-9.316a3.568,3.568,0,0,1,3.027-1.445,3.035,3.035,0,0,1,2.383,1.113V-15h3.3V0h-2.959l-.166-1.133A3.116,3.116,0,0,1,99.248.2,3.562,3.562,0,0,1,96.26-1.25,6.659,6.659,0,0,1,95.156-5.361Zm3.291.205q0,2.813,1.641,2.813a1.62,1.62,0,0,0,1.563-.918V-7.285a1.576,1.576,0,0,0-1.543-.937q-1.523,0-1.65,2.461Zm7.959-.225a6.236,6.236,0,0,1,.615-2.817,4.4,4.4,0,0,1,1.768-1.9,5.323,5.323,0,0,1,2.705-.664,4.858,4.858,0,0,1,3.74,1.47,5.64,5.64,0,0,1,1.367,4v.117a5.472,5.472,0,0,1-1.372,3.921A4.871,4.871,0,0,1,111.514.2a4.927,4.927,0,0,1-3.623-1.353,5.29,5.29,0,0,1-1.475-3.667Zm3.291.205a3.932,3.932,0,0,0,.459,2.148,1.529,1.529,0,0,0,1.357.684q1.758,0,1.8-2.705v-.332q0-2.842-1.816-2.842-1.65,0-1.787,2.451Z" transform="translate(-2248 -9699)" fill="#fff"/>
  </g>
</svg>
