<svg xmlns="http://www.w3.org/2000/svg" width="43" height="43" viewBox="0 0 43 43">
  <g id="Grupo_157852" data-name="Grupo 157852" transform="translate(-180 -1931)">
    <rect id="Rectángulo_46463" data-name="Rectángulo 46463" width="43" height="43" transform="translate(180 1931)" fill="#e7f65a"/>
    <path id="Trazado_198330" data-name="Trazado 198330" d="M-4.331,0H-7.749V-14.219h3.418ZM1.7,0H-1.714V-14.219H1.7ZM5.972-3.193a1.874,1.874,0,0,1,1.3.464,1.522,1.522,0,0,1,.518,1.187A1.522,1.522,0,0,1,7.271-.356a1.874,1.874,0,0,1-1.3.464,1.858,1.858,0,0,1-1.3-.469,1.533,1.533,0,0,1-.513-1.182,1.533,1.533,0,0,1,.513-1.182A1.858,1.858,0,0,1,5.972-3.193Z" transform="translate(202 1960)" fill="#12263f"/>
  </g>
</svg>
