<svg xmlns="http://www.w3.org/2000/svg" xmlns:xlink="http://www.w3.org/1999/xlink" width="334.918" height="235.297" viewBox="0 0 334.918 235.297">
  <defs>
    <clipPath id="clip-path">
      <path id="Trazado_194907" data-name="Trazado 194907" d="M0,125.079A71.746,71.746,0,1,0,71.746,53.333,71.744,71.744,0,0,0,0,125.079" transform="translate(0 -53.333)" fill="#7f4fc7"/>
    </clipPath>
  </defs>
  <g id="Grupo_157869" data-name="Grupo 157869" transform="translate(-179.082 -2554.702)">
    <g id="Grupo_157817" data-name="Grupo 157817" transform="translate(177.593 2524.053)">
      <g id="Grupo_157774" data-name="Grupo 157774" transform="translate(-49.593 -143.277)">
        <g id="Grupo_154368" data-name="Grupo 154368">
          <g id="Grupo_154313" data-name="Grupo 154313" transform="translate(58.551 237.015)">
            <g id="Grupo_152768" data-name="Grupo 152768" transform="translate(0 0)" clip-path="url(#clip-path)">
              <path id="Trazado_194826" data-name="Trazado 194826" d="M3.777,55.22A1.888,1.888,0,1,0,1.889,57.11,1.888,1.888,0,0,0,3.777,55.22" transform="translate(0 -53.333)" fill="#7f4fc7"/>
              <path id="Trazado_194827" data-name="Trazado 194827" d="M12.049,55.22a1.888,1.888,0,1,0-1.887,1.889,1.888,1.888,0,0,0,1.887-1.889" transform="translate(9.191 -53.333)" fill="#7f4fc7"/>
              <path id="Trazado_194828" data-name="Trazado 194828" d="M20.322,55.22a1.888,1.888,0,1,0-1.887,1.889,1.888,1.888,0,0,0,1.887-1.889" transform="translate(18.383 -53.333)" fill="#7f4fc7"/>
              <path id="Trazado_194829" data-name="Trazado 194829" d="M28.595,55.22a1.888,1.888,0,1,0-1.887,1.889,1.888,1.888,0,0,0,1.887-1.889" transform="translate(27.576 -53.333)" fill="#7f4fc7"/>
              <path id="Trazado_194830" data-name="Trazado 194830" d="M36.867,55.22a1.888,1.888,0,1,0-1.887,1.889,1.888,1.888,0,0,0,1.887-1.889" transform="translate(36.767 -53.333)" fill="#7f4fc7"/>
              <path id="Trazado_194831" data-name="Trazado 194831" d="M45.14,55.22a1.888,1.888,0,1,0-1.887,1.889A1.888,1.888,0,0,0,45.14,55.22" transform="translate(45.959 -53.333)" fill="#7f4fc7"/>
              <path id="Trazado_194832" data-name="Trazado 194832" d="M53.412,55.22a1.888,1.888,0,1,0-1.887,1.889,1.888,1.888,0,0,0,1.887-1.889" transform="translate(55.15 -53.333)" fill="#7f4fc7"/>
              <path id="Trazado_194833" data-name="Trazado 194833" d="M61.685,55.22A1.888,1.888,0,1,0,59.8,57.11a1.889,1.889,0,0,0,1.887-1.889" transform="translate(64.342 -53.333)" fill="#7f4fc7"/>
              <path id="Trazado_194834" data-name="Trazado 194834" d="M69.958,55.22A1.888,1.888,0,1,0,68.07,57.11a1.888,1.888,0,0,0,1.887-1.889" transform="translate(73.534 -53.333)" fill="#7f4fc7"/>
              <path id="Trazado_194835" data-name="Trazado 194835" d="M3.777,63.493a1.888,1.888,0,1,0-1.887,1.887,1.887,1.887,0,0,0,1.887-1.887" transform="translate(0 -44.141)" fill="#7f4fc7"/>
              <path id="Trazado_194836" data-name="Trazado 194836" d="M12.049,63.493a1.888,1.888,0,1,0-1.887,1.887,1.887,1.887,0,0,0,1.887-1.887" transform="translate(9.191 -44.141)" fill="#7f4fc7"/>
              <path id="Trazado_194837" data-name="Trazado 194837" d="M20.322,63.493a1.888,1.888,0,1,0-1.887,1.887,1.887,1.887,0,0,0,1.887-1.887" transform="translate(18.383 -44.141)" fill="#7f4fc7"/>
              <path id="Trazado_194838" data-name="Trazado 194838" d="M28.595,63.493a1.888,1.888,0,1,0-1.887,1.887,1.887,1.887,0,0,0,1.887-1.887" transform="translate(27.576 -44.141)" fill="#7f4fc7"/>
              <path id="Trazado_194839" data-name="Trazado 194839" d="M36.867,63.493a1.888,1.888,0,1,0-1.887,1.887,1.887,1.887,0,0,0,1.887-1.887" transform="translate(36.767 -44.141)" fill="#7f4fc7"/>
              <path id="Trazado_194840" data-name="Trazado 194840" d="M45.14,63.493a1.888,1.888,0,1,0-1.887,1.887,1.887,1.887,0,0,0,1.887-1.887" transform="translate(45.959 -44.141)" fill="#7f4fc7"/>
              <path id="Trazado_194841" data-name="Trazado 194841" d="M53.412,63.493a1.888,1.888,0,1,0-1.887,1.887,1.887,1.887,0,0,0,1.887-1.887" transform="translate(55.15 -44.141)" fill="#7f4fc7"/>
              <path id="Trazado_194842" data-name="Trazado 194842" d="M61.685,63.493A1.888,1.888,0,1,0,59.8,65.381a1.888,1.888,0,0,0,1.887-1.887" transform="translate(64.342 -44.141)" fill="#7f4fc7"/>
              <path id="Trazado_194843" data-name="Trazado 194843" d="M69.958,63.493a1.888,1.888,0,1,0-1.887,1.887,1.887,1.887,0,0,0,1.887-1.887" transform="translate(73.534 -44.141)" fill="#7f4fc7"/>
              <path id="Trazado_194844" data-name="Trazado 194844" d="M3.777,71.766a1.888,1.888,0,1,0-1.887,1.887,1.887,1.887,0,0,0,1.887-1.887" transform="translate(0 -34.949)" fill="#7f4fc7"/>
              <path id="Trazado_194845" data-name="Trazado 194845" d="M12.049,71.766a1.888,1.888,0,1,0-1.887,1.887,1.887,1.887,0,0,0,1.887-1.887" transform="translate(9.191 -34.949)" fill="#7f4fc7"/>
              <path id="Trazado_194846" data-name="Trazado 194846" d="M20.322,71.766a1.888,1.888,0,1,0-1.887,1.887,1.887,1.887,0,0,0,1.887-1.887" transform="translate(18.383 -34.949)" fill="#7f4fc7"/>
              <path id="Trazado_194847" data-name="Trazado 194847" d="M28.595,71.766a1.888,1.888,0,1,0-1.887,1.887,1.887,1.887,0,0,0,1.887-1.887" transform="translate(27.576 -34.949)" fill="#7f4fc7"/>
              <path id="Trazado_194848" data-name="Trazado 194848" d="M36.867,71.766a1.888,1.888,0,1,0-1.887,1.887,1.887,1.887,0,0,0,1.887-1.887" transform="translate(36.767 -34.949)" fill="#7f4fc7"/>
              <path id="Trazado_194849" data-name="Trazado 194849" d="M45.14,71.766a1.888,1.888,0,1,0-1.887,1.887,1.887,1.887,0,0,0,1.887-1.887" transform="translate(45.959 -34.949)" fill="#7f4fc7"/>
              <path id="Trazado_194850" data-name="Trazado 194850" d="M53.412,71.766a1.888,1.888,0,1,0-1.887,1.887,1.887,1.887,0,0,0,1.887-1.887" transform="translate(55.15 -34.949)" fill="#7f4fc7"/>
              <path id="Trazado_194851" data-name="Trazado 194851" d="M61.685,71.766A1.888,1.888,0,1,0,59.8,73.654a1.888,1.888,0,0,0,1.887-1.887" transform="translate(64.342 -34.949)" fill="#7f4fc7"/>
              <path id="Trazado_194852" data-name="Trazado 194852" d="M69.958,71.766a1.888,1.888,0,1,0-1.887,1.887,1.887,1.887,0,0,0,1.887-1.887" transform="translate(73.534 -34.949)" fill="#7f4fc7"/>
              <path id="Trazado_194853" data-name="Trazado 194853" d="M3.777,80.038a1.888,1.888,0,1,0-1.887,1.887,1.887,1.887,0,0,0,1.887-1.887" transform="translate(0 -25.757)" fill="#7f4fc7"/>
              <path id="Trazado_194854" data-name="Trazado 194854" d="M12.049,80.038a1.888,1.888,0,1,0-1.887,1.887,1.887,1.887,0,0,0,1.887-1.887" transform="translate(9.191 -25.757)" fill="#7f4fc7"/>
              <path id="Trazado_194855" data-name="Trazado 194855" d="M20.322,80.038a1.888,1.888,0,1,0-1.887,1.887,1.887,1.887,0,0,0,1.887-1.887" transform="translate(18.383 -25.757)" fill="#7f4fc7"/>
              <path id="Trazado_194856" data-name="Trazado 194856" d="M28.595,80.038a1.888,1.888,0,1,0-1.887,1.887,1.887,1.887,0,0,0,1.887-1.887" transform="translate(27.576 -25.757)" fill="#7f4fc7"/>
              <path id="Trazado_194857" data-name="Trazado 194857" d="M36.867,80.038a1.888,1.888,0,1,0-1.887,1.887,1.887,1.887,0,0,0,1.887-1.887" transform="translate(36.767 -25.757)" fill="#7f4fc7"/>
              <path id="Trazado_194858" data-name="Trazado 194858" d="M45.14,80.038a1.888,1.888,0,1,0-1.887,1.887,1.887,1.887,0,0,0,1.887-1.887" transform="translate(45.959 -25.757)" fill="#7f4fc7"/>
              <path id="Trazado_194859" data-name="Trazado 194859" d="M53.412,80.038a1.888,1.888,0,1,0-1.887,1.887,1.887,1.887,0,0,0,1.887-1.887" transform="translate(55.15 -25.757)" fill="#7f4fc7"/>
              <path id="Trazado_194860" data-name="Trazado 194860" d="M61.685,80.038A1.888,1.888,0,1,0,59.8,81.926a1.888,1.888,0,0,0,1.887-1.887" transform="translate(64.342 -25.757)" fill="#7f4fc7"/>
              <path id="Trazado_194861" data-name="Trazado 194861" d="M69.958,80.038a1.888,1.888,0,1,0-1.887,1.887,1.887,1.887,0,0,0,1.887-1.887" transform="translate(73.534 -25.757)" fill="#7f4fc7"/>
              <path id="Trazado_194862" data-name="Trazado 194862" d="M3.777,88.311A1.888,1.888,0,1,0,1.889,90.2a1.887,1.887,0,0,0,1.887-1.889" transform="translate(0 -16.565)" fill="#7f4fc7"/>
              <path id="Trazado_194863" data-name="Trazado 194863" d="M12.049,88.311A1.888,1.888,0,1,0,10.161,90.2a1.887,1.887,0,0,0,1.887-1.889" transform="translate(9.191 -16.565)" fill="#7f4fc7"/>
              <path id="Trazado_194864" data-name="Trazado 194864" d="M20.322,88.311A1.888,1.888,0,1,0,18.434,90.2a1.887,1.887,0,0,0,1.887-1.889" transform="translate(18.383 -16.565)" fill="#7f4fc7"/>
              <path id="Trazado_194865" data-name="Trazado 194865" d="M28.595,88.311A1.888,1.888,0,1,0,26.707,90.2a1.887,1.887,0,0,0,1.887-1.889" transform="translate(27.576 -16.565)" fill="#7f4fc7"/>
              <path id="Trazado_194866" data-name="Trazado 194866" d="M36.867,88.311A1.888,1.888,0,1,0,34.979,90.2a1.887,1.887,0,0,0,1.887-1.889" transform="translate(36.767 -16.565)" fill="#7f4fc7"/>
              <path id="Trazado_194867" data-name="Trazado 194867" d="M45.14,88.311A1.888,1.888,0,1,0,43.252,90.2a1.887,1.887,0,0,0,1.887-1.889" transform="translate(45.959 -16.565)" fill="#7f4fc7"/>
              <path id="Trazado_194868" data-name="Trazado 194868" d="M53.412,88.311A1.888,1.888,0,1,0,51.524,90.2a1.887,1.887,0,0,0,1.887-1.889" transform="translate(55.15 -16.565)" fill="#7f4fc7"/>
              <path id="Trazado_194869" data-name="Trazado 194869" d="M61.685,88.311A1.888,1.888,0,1,0,59.8,90.2a1.888,1.888,0,0,0,1.887-1.889" transform="translate(64.342 -16.565)" fill="#7f4fc7"/>
              <path id="Trazado_194870" data-name="Trazado 194870" d="M69.958,88.311A1.888,1.888,0,1,0,68.07,90.2a1.887,1.887,0,0,0,1.887-1.889" transform="translate(73.534 -16.565)" fill="#7f4fc7"/>
              <path id="Trazado_194871" data-name="Trazado 194871" d="M3.777,96.584a1.888,1.888,0,1,0-1.887,1.887,1.887,1.887,0,0,0,1.887-1.887" transform="translate(0 -7.373)" fill="#7f4fc7"/>
              <path id="Trazado_194872" data-name="Trazado 194872" d="M12.049,96.584a1.888,1.888,0,1,0-1.887,1.887,1.887,1.887,0,0,0,1.887-1.887" transform="translate(9.191 -7.373)" fill="#7f4fc7"/>
              <path id="Trazado_194873" data-name="Trazado 194873" d="M20.322,96.584a1.888,1.888,0,1,0-1.887,1.887,1.887,1.887,0,0,0,1.887-1.887" transform="translate(18.383 -7.373)" fill="#7f4fc7"/>
              <path id="Trazado_194874" data-name="Trazado 194874" d="M28.595,96.584a1.888,1.888,0,1,0-1.887,1.887,1.887,1.887,0,0,0,1.887-1.887" transform="translate(27.576 -7.373)" fill="#7f4fc7"/>
              <path id="Trazado_194875" data-name="Trazado 194875" d="M36.867,96.584a1.888,1.888,0,1,0-1.887,1.887,1.887,1.887,0,0,0,1.887-1.887" transform="translate(36.767 -7.373)" fill="#7f4fc7"/>
              <path id="Trazado_194876" data-name="Trazado 194876" d="M45.14,96.584a1.888,1.888,0,1,0-1.887,1.887,1.887,1.887,0,0,0,1.887-1.887" transform="translate(45.959 -7.373)" fill="#7f4fc7"/>
              <path id="Trazado_194877" data-name="Trazado 194877" d="M53.412,96.584a1.888,1.888,0,1,0-1.887,1.887,1.887,1.887,0,0,0,1.887-1.887" transform="translate(55.15 -7.373)" fill="#7f4fc7"/>
              <path id="Trazado_194878" data-name="Trazado 194878" d="M61.685,96.584A1.888,1.888,0,1,0,59.8,98.472a1.888,1.888,0,0,0,1.887-1.887" transform="translate(64.342 -7.373)" fill="#7f4fc7"/>
              <path id="Trazado_194879" data-name="Trazado 194879" d="M69.958,96.584a1.888,1.888,0,1,0-1.887,1.887,1.887,1.887,0,0,0,1.887-1.887" transform="translate(73.534 -7.373)" fill="#7f4fc7"/>
              <path id="Trazado_194880" data-name="Trazado 194880" d="M3.777,104.856a1.888,1.888,0,1,0-1.887,1.887,1.887,1.887,0,0,0,1.887-1.887" transform="translate(0 1.818)" fill="#7f4fc7"/>
              <path id="Trazado_194881" data-name="Trazado 194881" d="M12.049,104.856a1.888,1.888,0,1,0-1.887,1.887,1.887,1.887,0,0,0,1.887-1.887" transform="translate(9.191 1.818)" fill="#7f4fc7"/>
              <path id="Trazado_194882" data-name="Trazado 194882" d="M20.322,104.856a1.888,1.888,0,1,0-1.887,1.887,1.887,1.887,0,0,0,1.887-1.887" transform="translate(18.383 1.818)" fill="#7f4fc7"/>
              <path id="Trazado_194883" data-name="Trazado 194883" d="M28.595,104.856a1.888,1.888,0,1,0-1.887,1.887,1.887,1.887,0,0,0,1.887-1.887" transform="translate(27.576 1.818)" fill="#7f4fc7"/>
              <path id="Trazado_194884" data-name="Trazado 194884" d="M36.867,104.856a1.888,1.888,0,1,0-1.887,1.887,1.887,1.887,0,0,0,1.887-1.887" transform="translate(36.767 1.818)" fill="#7f4fc7"/>
              <path id="Trazado_194885" data-name="Trazado 194885" d="M45.14,104.856a1.888,1.888,0,1,0-1.887,1.887,1.887,1.887,0,0,0,1.887-1.887" transform="translate(45.959 1.818)" fill="#7f4fc7"/>
              <path id="Trazado_194886" data-name="Trazado 194886" d="M53.412,104.856a1.888,1.888,0,1,0-1.887,1.887,1.887,1.887,0,0,0,1.887-1.887" transform="translate(55.15 1.818)" fill="#7f4fc7"/>
              <path id="Trazado_194887" data-name="Trazado 194887" d="M61.685,104.856a1.888,1.888,0,1,0-1.887,1.887,1.888,1.888,0,0,0,1.887-1.887" transform="translate(64.342 1.818)" fill="#7f4fc7"/>
              <path id="Trazado_194888" data-name="Trazado 194888" d="M69.958,104.856a1.888,1.888,0,1,0-1.887,1.887,1.887,1.887,0,0,0,1.887-1.887" transform="translate(73.534 1.818)" fill="#7f4fc7"/>
              <path id="Trazado_194889" data-name="Trazado 194889" d="M3.777,113.129a1.888,1.888,0,1,0-1.887,1.887,1.887,1.887,0,0,0,1.887-1.887" transform="translate(0 11.01)" fill="#7f4fc7"/>
              <path id="Trazado_194890" data-name="Trazado 194890" d="M12.049,113.129a1.888,1.888,0,1,0-1.887,1.887,1.887,1.887,0,0,0,1.887-1.887" transform="translate(9.191 11.01)" fill="#7f4fc7"/>
              <path id="Trazado_194891" data-name="Trazado 194891" d="M20.322,113.129a1.888,1.888,0,1,0-1.887,1.887,1.887,1.887,0,0,0,1.887-1.887" transform="translate(18.383 11.01)" fill="#7f4fc7"/>
              <path id="Trazado_194892" data-name="Trazado 194892" d="M28.595,113.129a1.888,1.888,0,1,0-1.887,1.887,1.887,1.887,0,0,0,1.887-1.887" transform="translate(27.576 11.01)" fill="#7f4fc7"/>
              <path id="Trazado_194893" data-name="Trazado 194893" d="M36.867,113.129a1.888,1.888,0,1,0-1.887,1.887,1.887,1.887,0,0,0,1.887-1.887" transform="translate(36.767 11.01)" fill="#7f4fc7"/>
              <path id="Trazado_194894" data-name="Trazado 194894" d="M45.14,113.129a1.888,1.888,0,1,0-1.887,1.887,1.887,1.887,0,0,0,1.887-1.887" transform="translate(45.959 11.01)" fill="#7f4fc7"/>
              <path id="Trazado_194895" data-name="Trazado 194895" d="M53.412,113.129a1.888,1.888,0,1,0-1.887,1.887,1.887,1.887,0,0,0,1.887-1.887" transform="translate(55.15 11.01)" fill="#7f4fc7"/>
              <path id="Trazado_194896" data-name="Trazado 194896" d="M61.685,113.129a1.888,1.888,0,1,0-1.887,1.887,1.888,1.888,0,0,0,1.887-1.887" transform="translate(64.342 11.01)" fill="#7f4fc7"/>
              <path id="Trazado_194897" data-name="Trazado 194897" d="M69.958,113.129a1.888,1.888,0,1,0-1.887,1.887,1.887,1.887,0,0,0,1.887-1.887" transform="translate(73.534 11.01)" fill="#7f4fc7"/>
              <path id="Trazado_194898" data-name="Trazado 194898" d="M3.777,121.4a1.888,1.888,0,1,0-1.887,1.887A1.887,1.887,0,0,0,3.777,121.4" transform="translate(0 20.201)" fill="#7f4fc7"/>
              <path id="Trazado_194899" data-name="Trazado 194899" d="M12.049,121.4a1.888,1.888,0,1,0-1.887,1.887,1.887,1.887,0,0,0,1.887-1.887" transform="translate(9.191 20.201)" fill="#7f4fc7"/>
              <path id="Trazado_194900" data-name="Trazado 194900" d="M20.322,121.4a1.888,1.888,0,1,0-1.887,1.887,1.887,1.887,0,0,0,1.887-1.887" transform="translate(18.383 20.201)" fill="#7f4fc7"/>
              <path id="Trazado_194901" data-name="Trazado 194901" d="M28.595,121.4a1.888,1.888,0,1,0-1.887,1.887,1.887,1.887,0,0,0,1.887-1.887" transform="translate(27.576 20.201)" fill="#7f4fc7"/>
              <path id="Trazado_194902" data-name="Trazado 194902" d="M36.867,121.4a1.888,1.888,0,1,0-1.887,1.887,1.887,1.887,0,0,0,1.887-1.887" transform="translate(36.767 20.201)" fill="#7f4fc7"/>
              <path id="Trazado_194903" data-name="Trazado 194903" d="M45.14,121.4a1.888,1.888,0,1,0-1.887,1.887A1.887,1.887,0,0,0,45.14,121.4" transform="translate(45.959 20.201)" fill="#7f4fc7"/>
              <path id="Trazado_194904" data-name="Trazado 194904" d="M53.412,121.4a1.888,1.888,0,1,0-1.887,1.887,1.887,1.887,0,0,0,1.887-1.887" transform="translate(55.15 20.201)" fill="#7f4fc7"/>
              <path id="Trazado_194905" data-name="Trazado 194905" d="M61.685,121.4a1.888,1.888,0,1,0-1.887,1.887,1.888,1.888,0,0,0,1.887-1.887" transform="translate(64.342 20.201)" fill="#7f4fc7"/>
              <path id="Trazado_194906" data-name="Trazado 194906" d="M69.958,121.4a1.888,1.888,0,1,0-1.887,1.887,1.887,1.887,0,0,0,1.887-1.887" transform="translate(73.534 20.201)" fill="#7f4fc7"/>
            </g>
          </g>
          <g id="Grupo_154317" data-name="Grupo 154317" transform="translate(0 350.45)">
            <g id="Grupo_154315" data-name="Grupo 154315" transform="translate(53.793 15.646)">
              <path id="Trazado_195058" data-name="Trazado 195058" d="M14.988,227.726H81.36a2.488,2.488,0,1,0,0-4.975H14.988a2.488,2.488,0,1,0,0,4.975" transform="translate(-12.5 -222.751)" fill="#3cafff"/>
              <path id="Trazado_195059" data-name="Trazado 195059" d="M84.949,227.726H101.7a2.488,2.488,0,1,0,0-4.975H84.949a2.488,2.488,0,1,0,0,4.975" transform="translate(-5.009 -222.751)" fill="#3cafff"/>
              <path id="Trazado_195064" data-name="Trazado 195064" d="M131.644,232.612H85.022a1.748,1.748,0,0,0,0,3.5h46.622a1.748,1.748,0,0,0,0-3.5" transform="translate(-4.922 -221.695)" fill="#3cafff"/>
              <path id="Trazado_195065" data-name="Trazado 195065" d="M79.13,232.612H67.361a1.748,1.748,0,0,0,0,3.5H79.13a1.748,1.748,0,1,0,0-3.5" transform="translate(-6.813 -221.695)" fill="#3cafff"/>
            </g>
            <g id="Grupo_154316" data-name="Grupo 154316">
              <path id="Trazado_195062" data-name="Trazado 195062" d="M193.258,1.333H114.9c-1.622,0-2.936.783-2.936,1.747s1.314,1.748,2.936,1.748h78.353c1.622,0,2.938-.783,2.938-1.748s-1.315-1.747-2.938-1.747" transform="translate(-60.887 -1.333)" fill="#7f4fc7"/>
              <path id="Trazado_195063" data-name="Trazado 195063" d="M129.623,1.333H98.873c-2.522,0-4.564.783-4.564,1.747s2.042,1.748,4.564,1.748h30.75c2.522,0,4.564-.783,4.564-1.748s-2.042-1.747-4.564-1.747" transform="translate(-42.309 -18.333)" fill="#7f4fc7"/>
            </g>
          </g>
        </g>
      </g>
      <path id="Trazado_198198" data-name="Trazado 198198" d="M253.057,221.518a104.74,104.74,0,1,0-158.892,0Z" transform="translate(-12.566 -7.539)" fill="#ffeedb"/>
      <g id="Grupo_157776" data-name="Grupo 157776" transform="translate(77.525 238.62)">
        <g id="Grupo_157775" data-name="Grupo 157775">
          <ellipse id="Elipse_5906" data-name="Elipse 5906" cx="21.462" cy="4.872" rx="21.462" ry="4.872" transform="translate(0 1.528)" fill="#b7aadb"/>
          <path id="Trazado_198199" data-name="Trazado 198199" d="M321.263,404.128c-4.471,0-8.732.132-12.615.371,2.71-.755,4.25-1.621,4.25-2.541,0-2.939-15.7-5.321-35.06-5.321s-35.061,2.382-35.061,5.321,15.7,5.321,35.061,5.321c4.97,0,9.694-.158,13.977-.441-2.125.64-3.322,1.359-3.322,2.12,0,2.668,14.672,4.831,32.77,4.831s32.77-2.163,32.77-4.831S339.362,404.128,321.263,404.128Z" transform="translate(-163.434 -392.971)" fill="#b7aadb"/>
          <path id="Trazado_198200" data-name="Trazado 198200" d="M171.752,409.189q-.972,0-1.931.012c1.244-.572,1.931-1.192,1.931-1.84,0-2.862-13.277-5.182-29.654-5.182s-29.654,2.32-29.654,5.182,13.172,5.162,29.459,5.181c-2.954.991-4.654,2.142-4.654,3.37,0,3.713,15.448,6.722,34.5,6.722s34.5-3.009,34.5-6.722S190.808,409.189,171.752,409.189Z" transform="translate(-108.467 -395.308)" fill="#b7aadb"/>
          <ellipse id="Elipse_5907" data-name="Elipse 5907" cx="7.084" cy="1.978" rx="7.084" ry="1.978" transform="translate(175.609 4.34)" fill="#b7aadb"/>
          <path id="Trazado_198201" data-name="Trazado 198201" d="M396.444,394.66c0,.444-1.424.8-3.18.8s-3.18-.36-3.18-.8,1.424-.8,3.18-.8S396.444,394.216,396.444,394.66Z" transform="translate(-225.558 -391.798)" fill="#b7aadb"/>
          <ellipse id="Elipse_5908" data-name="Elipse 5908" cx="3.501" cy="1.012" rx="3.501" ry="1.012" transform="translate(66.76 3.19)" fill="#b7aadb"/>
          <path id="Trazado_198202" data-name="Trazado 198202" d="M251.534,391.061c0,.422-.987.764-2.2.764s-2.2-.342-2.2-.764.987-.764,2.2-.764S251.534,390.639,251.534,391.061Z" transform="translate(-165.267 -390.297)" fill="#b7aadb"/>
        </g>
      </g>
      <g id="Grupo_157777" data-name="Grupo 157777" transform="translate(42.952 190.864)">
        <path id="Trazado_198203" data-name="Trazado 198203" d="M80.352,356.481c-3.389-9.715-6.818-19.512-12.176-28.3s-12.869-16.591-22.4-20.473c3.25,12.351,6.449,25.372,14.817,35.02C65.963,348.919,73.041,352.789,80.352,356.481Z" transform="translate(-45.779 -307.712)" fill="#8dc63f"/>
        <path id="Trazado_198204" data-name="Trazado 198204" d="M83.628,356.393c-2.153-4.022-4.367-8.014-6.724-11.92q-1.96-3.248-4.065-6.407c-3.019-4.509-6.455-8.984-11.243-11.539,1.9,5.014,3.8,10.029,5.9,14.959a55.251,55.251,0,0,0,5.935,11.1,42.774,42.774,0,0,0,7.162,7.428c1.332,1.113,2.709,2.17,4.105,3.2l.058.046q1.127.583,2.263,1.157-.834-2.39-1.68-4.781Q84.489,358.012,83.628,356.393Z" transform="translate(-52.45 -315.647)" fill="#7cb332"/>
      </g>
      <g id="Grupo_157778" data-name="Grupo 157778" transform="translate(39.075 220.059)">
        <path id="Trazado_198205" data-name="Trazado 198205" d="M73.9,375.293c-4.951-4.463-9.949-8.961-15.728-12.282s-12.477-5.418-19.1-4.656c5.692,6,11.564,12.406,19.322,15.28C63.372,375.479,68.6,375.473,73.9,375.293Z" transform="translate(-39.075 -358.199)" fill="#8dc63f"/>
        <path id="Trazado_198206" data-name="Trazado 198206" d="M75.734,374.337c-2.476-1.615-4.976-3.193-7.531-4.678q-2.125-1.235-4.3-2.374c-3.119-1.622-6.465-3.094-9.98-3.054,2.64,2.257,5.28,4.515,8.012,6.66a35.784,35.784,0,0,0,6.828,4.457,27.685,27.685,0,0,0,6.382,1.99c1.1.217,2.214.389,3.328.539l.047.008q.822-.02,1.646-.047-1.218-1.1-2.443-2.193Q76.728,374.988,75.734,374.337Z" transform="translate(-45.335 -360.743)" fill="#7cb332"/>
      </g>
      <g id="Grupo_157779" data-name="Grupo 157779" transform="translate(58.644 178.53)">
        <path id="Trazado_198207" data-name="Trazado 198207" d="M85.251,323.175c-.242-6.661-.492-13.381-2.13-19.842s-4.8-12.729-9.951-16.952c-.349,8.266-.857,16.937,2.48,24.509C77.789,315.745,81.431,319.493,85.251,323.175Z" transform="translate(-72.915 -286.381)" fill="#8dc63f"/>
        <path id="Trazado_198208" data-name="Trazado 198208" d="M87.48,323.746c-.564-2.9-1.172-5.795-1.885-8.664Q85,312.7,84.3,310.341c-1.007-3.368-2.279-6.8-4.754-9.292.217,3.466.434,6.934.8,10.388a35.753,35.753,0,0,0,1.553,8,27.7,27.7,0,0,0,3.014,5.967c.611.944,1.262,1.861,1.93,2.765.009.012.018.027.027.039q.586.577,1.18,1.149c-.04-1.092-.08-2.186-.126-3.28C87.777,325.3,87.631,324.524,87.48,323.746Z" transform="translate(-75.713 -292.567)" fill="#7cb332"/>
      </g>
      <g id="Grupo_157780" data-name="Grupo 157780" transform="translate(187.243 190.151)">
        <path id="Trazado_198209" data-name="Trazado 198209" d="M295.975,342.737c3.98-5.347,7.991-10.744,10.756-16.809s4.226-12.929,2.848-19.45c-5.445,6.23-11.269,12.675-13.4,20.668C294.805,332.273,295.3,337.475,295.975,342.737Z" transform="translate(-295.304 -306.478)" fill="#8dc63f"/>
        <path id="Trazado_198210" data-name="Trazado 198210" d="M299.388,344.463c1.376-2.616,2.713-5.254,3.952-7.937q1.03-2.232,1.961-4.508c1.322-3.257,2.475-6.726,2.106-10.223-2,2.839-4,5.68-5.881,8.6a35.779,35.779,0,0,0-3.8,7.216,27.7,27.7,0,0,0-1.383,6.54c-.113,1.118-.181,2.241-.225,3.364,0,.014,0,.032,0,.047q.1.816.2,1.634.979-1.315,1.955-2.637Q298.833,345.513,299.388,344.463Z" transform="translate(-295.647 -312.938)" fill="#7cb332"/>
      </g>
      <g id="Grupo_157781" data-name="Grupo 157781" transform="translate(187.273 179.67)">
        <path id="Trazado_198211" data-name="Trazado 198211" d="M298.908,321.587c2.019-5.371,4.051-10.791,4.894-16.466s.416-11.7-2.277-16.768c-3.02,6.45-6.3,13.168-6.165,20.289C295.448,313.208,297.1,317.394,298.908,321.587Z" transform="translate(-295.356 -288.353)" fill="#8dc63f"/>
        <path id="Trazado_198212" data-name="Trazado 198212" d="M301.723,322.72c.515-2.492.992-4.992,1.379-7.506.215-1.394.4-2.793.549-4.2.318-3.009.445-6.153-.693-8.957-.978,2.825-1.957,5.651-2.816,8.514a30.8,30.8,0,0,0-1.423,6.874,23.828,23.828,0,0,0,.413,5.739c.172.952.384,1.9.615,2.836l.009.04q.274.652.556,1.3.5-1.321.988-2.647Q301.514,323.72,301.723,322.72Z" transform="translate(-296.759 -294.134)" fill="#7cb332"/>
      </g>
      <path id="Trazado_198213" data-name="Trazado 198213" d="M287.924,140.139a44.842,44.842,0,0,0-16.2-13.291c-1.226,16.313-1.841,32.727-1.484,49.082a57.425,57.425,0,0,0,12.36-8.16,25.667,25.667,0,0,0,7.913-12.327C291.9,149.959,290.908,144.09,287.924,140.139Z" transform="translate(-97.448 -40.571)" fill="#7f4fc7"/>
      <path id="Trazado_198214" data-name="Trazado 198214" d="M273.208,127.568a5.1,5.1,0,0,0-.983,1.848c0,.013-.006.027-.009.04q-.2,2.77-.372,5.544-.074,9.7-.147,19.4c-.025,3.291-.033,6.678,1.181,9.737a17.114,17.114,0,0,0,2.443,4.122c.551.712,1.972,3.023,3.127,2.728,1.01-.257,1.353-3.469,1.634-4.392q.813-2.677,1.8-5.3a8.658,8.658,0,0,0,.726-2.811,8.288,8.288,0,0,0-.583-2.765c-1.732-5.2-3.409-10.469-3.915-15.925a62.739,62.739,0,0,1-.016-9.342A44.553,44.553,0,0,0,273.208,127.568Z" transform="translate(-98.102 -40.874)" fill="#5c309e"/>
      <g id="Grupo_157802" data-name="Grupo 157802" transform="translate(53.966 30.649)">
        <path id="Trazado_198215" data-name="Trazado 198215" d="M122.746,72.695s-5.455-.442-10.442,7.22c13.011-2.964,20.022-.506,20.022-.506S128.635,72.342,122.746,72.695Z" transform="translate(-84.849 -48.376)" fill="#808285"/>
        <path id="Trazado_198216" data-name="Trazado 198216" d="M165.65,55.846a42.851,42.851,0,0,1-5.73-8.7c2.334-2.056,2.573-6.141,1.644-9.11a10.631,10.631,0,0,0-6.289-6.475A14.914,14.914,0,0,0,146.1,31.2c-3.653.951-7.164,3.234-8.618,6.718s-.193,8.16,3.257,9.7a42.78,42.78,0,0,1-7.153,12.95c9.1.076,18.205.153,27.3-.109a7.965,7.965,0,0,0,4.286-.951A2.463,2.463,0,0,0,165.65,55.846ZM154.975,43.308a6.188,6.188,0,0,1-5.769.592,4.329,4.329,0,0,1-2.752-5.625,5.8,5.8,0,0,1,1.967-2.835c1.241-.981,7.508-2.647,8.941,2.464C157.926,39.916,156.643,42.143,154.975,43.308Z" transform="translate(-93.826 -30.649)" fill="#bcbec0"/>
        <path id="Trazado_198217" data-name="Trazado 198217" d="M141.16,61.712a74.853,74.853,0,0,1,4.8-12.942,8.748,8.748,0,0,1-2.514-15.526,11.465,11.465,0,0,0-5.957,5.768c-1.454,3.485-.193,8.16,3.257,9.7a42.779,42.779,0,0,1-7.153,12.95Q137.374,61.69,141.16,61.712Z" transform="translate(-93.826 -31.744)" fill="#d1d3d4"/>
        <g id="Grupo_157782" data-name="Grupo 157782" transform="translate(0 27.215)">
          <path id="Trazado_198218" data-name="Trazado 198218" d="M72.448,77.713h117.4l15,171.13L88.876,262.826Z" transform="translate(-68.041 -77.713)" fill="#2194e5"/>
          <path id="Trazado_198219" data-name="Trazado 198219" d="M217.87,95.588s10.594-3.925,7.16-17.875H210.347Z" transform="translate(-126.198 -77.713)" fill="#155f99"/>
          <path id="Trazado_198220" data-name="Trazado 198220" d="M69.234,77.713l-4.407,3.211,16.528,180.2,4.307,1.7Z" transform="translate(-64.826 -77.713)" fill="#1c85cf"/>
          <path id="Trazado_198221" data-name="Trazado 198221" d="M212.112,252.609,201.771,134.641,193.5,88.691,89.681,86.642s-1.125,135.144,20.047,178.312Z" transform="translate(-75.304 -81.479)" fill="#155f99"/>
        </g>
        <path id="Trazado_198222" data-name="Trazado 198222" d="M93.226,90.994l104.7-1.878c3.492,51.567,9.543,102.956,19.55,153.663-34.843,1.066-69.861,5.935-104.1,12.481C103.823,220.544,93.226,121.786,93.226,90.994Z" transform="translate(-76.803 -55.307)" fill="#fff"/>
        <path id="Trazado_198223" data-name="Trazado 198223" d="M215.59,90.008l4.491,10.672a13.06,13.06,0,0,0,7.768-10.893Z" transform="translate(-128.409 -55.59)" fill="#e6e7e8"/>
        <path id="Trazado_198224" data-name="Trazado 198224" d="M149.832,70.115l22.184-1.01a42.969,42.969,0,0,1-3.9-5.624,31.9,31.9,0,0,0-7.432,1.53A57.682,57.682,0,0,0,149.832,70.115Z" transform="translate(-100.676 -44.496)" fill="#808285"/>
        <g id="Grupo_157783" data-name="Grupo 157783" transform="translate(37.897 22.528)">
          <path id="Trazado_198225" data-name="Trazado 198225" d="M136.084,92.137l48.053.033c2.53-5.479,1.427-12.061-.591-18.01a5.187,5.187,0,0,0-4.434-3.516,213.767,213.767,0,0,0-48.751.755C135.713,74.215,136.559,84.423,136.084,92.137Z" transform="translate(-130.362 -69.607)" fill="#bcbec0"/>
          <path id="Trazado_198226" data-name="Trazado 198226" d="M188.332,85.322l-49.694.139a39.36,39.36,0,0,1,1.049,9.392l49.184-.26A25.053,25.053,0,0,0,188.332,85.322Z" transform="translate(-133.852 -76.234)" fill="#d1d3d4"/>
          <path id="Trazado_198227" data-name="Trazado 198227" d="M171.162,71.512a22.632,22.632,0,0,0-8.644,1.437c-.482.21-1.03.6-.933,1.117.084.449.6.651,1.041.767,6.769,1.778,13.844,1.7,20.772,1.185,1.361-.1,8.344.1,8.049-1.757-.394-2.479-6.465-2.181-8.174-2.334A109.816,109.816,0,0,0,171.162,71.512Z" transform="translate(-143.525 -70.4)" fill="#d1d3d4"/>
          <ellipse id="Elipse_5909" data-name="Elipse 5909" cx="3.361" cy="1.301" rx="3.361" ry="1.301" transform="translate(9.291 2.397)" fill="#d1d3d4"/>
        </g>
        <g id="Grupo_157784" data-name="Grupo 157784" transform="translate(94.123 60.274)">
          <path id="Trazado_198228" data-name="Trazado 198228" d="M250.246,157.941l-19.016.963-3.636-23.059,19.016-.963Zm-17.056-1.452,14.37-.728L244.649,137.3l-14.37.728Z" transform="translate(-227.594 -134.882)" fill="#bcbec0"/>
        </g>
        <g id="Grupo_157785" data-name="Grupo 157785" transform="translate(100.028 100.478)">
          <path id="Trazado_198229" data-name="Trazado 198229" d="M260.357,227.483l-19.021.877-3.53-23.076,19.021-.876Zm-17.049-1.53,14.373-.662-2.826-18.477-14.374.662Z" transform="translate(-237.806 -204.408)" fill="#bcbec0"/>
        </g>
        <g id="Grupo_157786" data-name="Grupo 157786" transform="translate(107.094 140.611)">
          <path id="Trazado_198230" data-name="Trazado 198230" d="M253.962,298.033l-3.936-23.01,19-1.212,3.937,23.01Zm-1.222-20.865,3.152,18.424,14.359-.916L267.1,276.252Z" transform="translate(-250.026 -273.811)" fill="#bcbec0"/>
        </g>
        <g id="Grupo_157791" data-name="Grupo 157791" transform="translate(24.692 64.351)">
          <g id="Grupo_157787" data-name="Grupo 157787" transform="translate(1.332 5.074)">
            <path id="Trazado_198231" data-name="Trazado 198231" d="M111.275,155.514a1.445,1.445,0,0,1-.046-2.89l59.916-1.916a1.446,1.446,0,1,1,.093,2.89l-59.916,1.916Z" transform="translate(-109.831 -150.707)" fill="#808285"/>
          </g>
          <g id="Grupo_157788" data-name="Grupo 157788" transform="translate(2.491 11.139)">
            <path id="Trazado_198232" data-name="Trazado 198232" d="M113.278,166a1.445,1.445,0,0,1-.046-2.89l59.916-1.916a1.446,1.446,0,0,1,.093,2.89L113.326,166Z" transform="translate(-111.834 -161.195)" fill="#808285"/>
          </g>
          <g id="Grupo_157789" data-name="Grupo 157789" transform="translate(3.649 18.162)">
            <path id="Trazado_198233" data-name="Trazado 198233" d="M115.281,177.19a1.446,1.446,0,0,1-.045-2.891l29.958-.958a1.446,1.446,0,1,1,.093,2.89l-29.958.958Z" transform="translate(-113.837 -173.341)" fill="#808285"/>
          </g>
          <g id="Grupo_157790" data-name="Grupo 157790">
            <path id="Trazado_198234" data-name="Trazado 198234" d="M108.971,145.783a1.446,1.446,0,0,1-.045-2.891l29.958-.958a1.446,1.446,0,1,1,.093,2.89l-29.958.958Z" transform="translate(-107.527 -141.933)" fill="#7f4fc7"/>
          </g>
        </g>
        <g id="Grupo_157796" data-name="Grupo 157796" transform="translate(32.424 105.976)">
          <g id="Grupo_157792" data-name="Grupo 157792" transform="translate(1.705 3.12)">
            <path id="Trazado_198235" data-name="Trazado 198235" d="M125.289,227.837a1.445,1.445,0,0,1-.134-2.884l59.681-5.635a1.446,1.446,0,1,1,.272,2.879l-59.681,5.635A1.375,1.375,0,0,1,125.289,227.837Z" transform="translate(-123.846 -219.31)" fill="#808285"/>
          </g>
          <g id="Grupo_157793" data-name="Grupo 157793" transform="translate(3.237 9.102)">
            <path id="Trazado_198236" data-name="Trazado 198236" d="M127.94,238.181a1.446,1.446,0,0,1-.134-2.885l59.681-5.635a1.445,1.445,0,1,1,.272,2.878l-59.681,5.635C128.031,238.179,127.985,238.181,127.94,238.181Z" transform="translate(-126.496 -229.655)" fill="#808285"/>
          </g>
          <g id="Grupo_157794" data-name="Grupo 157794" transform="translate(4.77 17.901)">
            <path id="Trazado_198237" data-name="Trazado 198237" d="M130.591,250.581a1.446,1.446,0,0,1-.134-2.885l29.841-2.818a1.446,1.446,0,0,1,.271,2.879l-29.841,2.818C130.682,250.579,130.636,250.581,130.591,250.581Z" transform="translate(-129.147 -244.873)" fill="#808285"/>
          </g>
          <g id="Grupo_157795" data-name="Grupo 157795">
            <path id="Trazado_198238" data-name="Trazado 198238" d="M122.342,219.625a1.446,1.446,0,0,1-.134-2.885l29.841-2.818a1.446,1.446,0,1,1,.272,2.879l-29.841,2.818C122.433,219.623,122.387,219.625,122.342,219.625Z" transform="translate(-120.898 -213.915)" fill="#7f4fc7"/>
          </g>
        </g>
        <g id="Grupo_157801" data-name="Grupo 157801" transform="translate(39.409 147.817)">
          <g id="Grupo_157797" data-name="Grupo 157797" transform="translate(1.801 2.605)">
            <path id="Trazado_198239" data-name="Trazado 198239" d="M137.536,300.277a1.446,1.446,0,0,1-.158-2.883l59.581-6.608a1.445,1.445,0,1,1,.318,2.873L137.7,300.268A1.38,1.38,0,0,1,137.536,300.277Z" transform="translate(-136.091 -290.776)" fill="#808285"/>
          </g>
          <g id="Grupo_157798" data-name="Grupo 157798" transform="translate(3.431 8.56)">
            <path id="Trazado_198240" data-name="Trazado 198240" d="M140.355,310.576a1.446,1.446,0,0,1-.158-2.883l59.581-6.608a1.445,1.445,0,1,1,.319,2.873l-59.581,6.609A1.372,1.372,0,0,1,140.355,310.576Z" transform="translate(-138.911 -301.075)" fill="#808285"/>
          </g>
          <g id="Grupo_157799" data-name="Grupo 157799" transform="translate(5.062 17.82)">
            <path id="Trazado_198241" data-name="Trazado 198241" d="M143.174,323.284a1.445,1.445,0,0,1-.157-2.882l29.79-3.3a1.445,1.445,0,0,1,.319,2.873l-29.79,3.3A1.381,1.381,0,0,1,143.174,323.284Z" transform="translate(-141.73 -317.089)" fill="#808285"/>
          </g>
          <g id="Grupo_157800" data-name="Grupo 157800">
            <path id="Trazado_198242" data-name="Trazado 198242" d="M134.421,292.469a1.445,1.445,0,0,1-.158-2.882l29.79-3.3a1.445,1.445,0,1,1,.319,2.873l-29.79,3.3A1.383,1.383,0,0,1,134.421,292.469Z" transform="translate(-132.977 -286.272)" fill="#7f4fc7"/>
          </g>
        </g>
        <path id="Trazado_198243" data-name="Trazado 198243" d="M225.956,135.07a25.634,25.634,0,0,1,11.1,6.492c4.061-5.227,7.722-9.961,13.451-14.034a74.3,74.3,0,0,0-12.474,21.467A41.125,41.125,0,0,0,225.956,135.07Z" transform="translate(-132.781 -71.507)" fill="#2194e5"/>
        <path id="Trazado_198244" data-name="Trazado 198244" d="M236.08,207.833a25.631,25.631,0,0,1,11.1,6.492c4.061-5.227,7.722-9.961,13.451-14.033a74.276,74.276,0,0,0-12.474,21.466A41.139,41.139,0,0,0,236.08,207.833Z" transform="translate(-137.05 -102.194)" fill="#2194e5"/>
        <path id="Trazado_198245" data-name="Trazado 198245" d="M248.637,275.835a25.631,25.631,0,0,1,11.1,6.492c4.061-5.227,7.722-9.96,13.451-14.033a74.286,74.286,0,0,0-12.474,21.466A41.136,41.136,0,0,0,248.637,275.835Z" transform="translate(-142.346 -130.872)" fill="#2194e5"/>
      </g>
      <g id="Grupo_157809" data-name="Grupo 157809" transform="translate(174.673 95.347)">
        <path id="Trazado_198246" data-name="Trazado 198246" d="M300.52,387.785,288.957,393.4c-.452.22-.978.558-.937,1.06.049.608.841.793,1.451.815l16.347.584v-6.633A26.982,26.982,0,0,1,300.52,387.785Z" transform="translate(-279.661 -245.965)" fill="#fff"/>
        <path id="Trazado_198247" data-name="Trazado 198247" d="M369.182,404.922c-1.109,2.168-6.2,4.264-9.526,5.878-.39.189-.844.482-.809.914.042.525.726.685,1.253.7,3.4.121,8.813.243,13.331.364a2.807,2.807,0,0,0,2.592-4.046l-2.6-5.648C371.967,402.834,370.547,405.485,369.182,404.922Z" transform="translate(-309.531 -252.411)" fill="#fff"/>
        <path id="Trazado_198248" data-name="Trazado 198248" d="M357.279,231.461c-6.135,2.108-12.063,2.011-17.7,2.783-.992,1.385-4.8,7-5.794,8.382l15.909,2a7.474,7.474,0,0,0,2.586.023,5.746,5.746,0,0,0,3.076-2.212A12.5,12.5,0,0,0,357.279,231.461Z" transform="translate(-298.963 -180.037)" fill="#1986d2"/>
        <path id="Trazado_198249" data-name="Trazado 198249" d="M322.217,213.536c2.063-3.157,4.907-5.344,7.786-4.914-.234-.035-2.458,5.144-2.8,5.735a38.3,38.3,0,0,1-3.5,5.083,30.239,30.239,0,0,1-3.94,4.011c-.409.342-1.518,1.634-1.87.6-.223-.655.719-2.656.934-3.259A34.628,34.628,0,0,1,322.217,213.536Z" transform="translate(-292.244 -170.383)" fill="#1986d2"/>
        <g id="Grupo_157804" data-name="Grupo 157804">
          <g id="Grupo_157803" data-name="Grupo 157803" transform="translate(0)">
            <path id="Trazado_198250" data-name="Trazado 198250" d="M376.082,156.052l-64.595,57.178-10.249-11.576,64.595-57.178a7.731,7.731,0,0,1,10.912.664h0A7.731,7.731,0,0,1,376.082,156.052Z" transform="translate(-285.237 -142.533)" fill="#fbb040"/>
            <path id="Trazado_198251" data-name="Trazado 198251" d="M289.568,244.77l-16,24.492,26.251-12.916Z" transform="translate(-273.566 -185.65)" fill="#f98c6e"/>
            <rect id="Rect치ngulo_46678" data-name="Rect치ngulo 46678" width="78.936" height="6.216" transform="matrix(0.749, -0.663, 0.663, 0.749, 19.066, 62.581)" fill="#9c681c"/>
            <path id="Trazado_198252" data-name="Trazado 198252" d="M279.305,271.934l-5.739,8.784,9.415-4.632Z" transform="translate(-273.566 -197.106)" fill="#2194e5"/>
            <path id="Trazado_198253" data-name="Trazado 198253" d="M408.152,144.475l-6.571,5.817,10.249,11.576,6.571-5.817a7.731,7.731,0,1,0-10.249-11.576Z" transform="translate(-327.555 -142.533)" fill="#f98c6e"/>
            <rect id="Rect치ngulo_46679" data-name="Rect치ngulo 46679" width="6.216" height="15.461" transform="translate(70.454 10.922) rotate(-41.519)" fill="#fff"/>
          </g>
          <path id="Trazado_198254" data-name="Trazado 198254" d="M364.412,157.952a7.723,7.723,0,0,0,.664-10.912l-91.51,81.005,26.251-12.916Z" transform="translate(-273.566 -144.434)" fill="#231f20" opacity="0.25"/>
        </g>
        <path id="Trazado_198255" data-name="Trazado 198255" d="M367.924,222c1.489,2.659,1.608,9.944.922,12.914,2.279.383,4.85-3.231,7.129-2.849a19.119,19.119,0,0,1-.716-8.409,3.65,3.65,0,0,0-.264-2.721c-.714-.947-2.175-.849-3.279-.418S369.106,222.094,367.924,222Z" transform="translate(-313.36 -175.291)" fill="#e67a5c"/>
        <path id="Trazado_198256" data-name="Trazado 198256" d="M332.9,295.376s-14.274,13.295-17.358,23.9S308.1,347.8,308.1,347.8l7.956,1.56,8.159-25.269L337.132,310.6S337.731,297.309,332.9,295.376Z" transform="translate(-288.131 -206.992)" fill="#092942"/>
        <path id="Trazado_198257" data-name="Trazado 198257" d="M343.44,295.376a104.959,104.959,0,0,0-10.352,11.47c.777,4.069,1.706,8.116,2.62,12.082q.386,1.671.794,3.338L347.669,310.6S348.269,297.309,343.44,295.376Z" transform="translate(-298.669 -206.992)" fill="#051d2e"/>
        <path id="Trazado_198258" data-name="Trazado 198258" d="M365.4,271.276c-.725,1.929-6.133,4.368-8.2,4.767a5.619,5.619,0,0,1-4.885-1.724c-1.253-1.262-2.493-2.843-2.518-4.6-.356-26.085,4.483-31.576,8.882-35.921,3.845-3.8,9.032-3.11,11.961,1.349,3.24,4.931,1.526,11.587.228,16.874C369.109,259.177,368.322,263.493,365.4,271.276Z" transform="translate(-305.707 -179.982)" fill="#2194e5"/>
        <path id="Trazado_198259" data-name="Trazado 198259" d="M360.12,266.14A42.1,42.1,0,0,0,368,241.982a34.285,34.285,0,0,1-7.763,11.831,8.343,8.343,0,0,1-1.695,1.458c-1.826,1.1-4.146.836-6.216.334-.457-.11-.917-.231-1.376-.349-.371,2.411-.654,5.2-.828,8.422A62.054,62.054,0,0,0,360.12,266.14Z" transform="translate(-305.852 -184.474)" fill="#0662a2"/>
        <path id="Trazado_198260" data-name="Trazado 198260" d="M361.664,312.953c1.915-5.879,3.3-9.1,3.091-15.488-9.892,3.011-15.92-2.089-15.92-2.089-1.55,14.127-1.913,21.7-.005,35.792,1.121,8.273,9.475,20.283,14.183,27.394,2.029-.509,2.958-.921,4.987-1.43-1.748-6.567-4.95-18.422-8.428-24.372C360.392,325.376,359.324,320.139,361.664,312.953Z" transform="translate(-304.76 -206.992)" fill="#092942"/>
        <path id="Trazado_198261" data-name="Trazado 198261" d="M335.63,208.965c1.6-1.325,4.64-2.035,6.552-1.213.492.212,1,.594,1.018,1.129.027.685-.723,1.112-1.372,1.335a17.2,17.2,0,0,1-6.293.918C334.859,210.941,334.025,210.29,335.63,208.965Z" transform="translate(-299.351 -169.89)" fill="#f98c6e"/>
        <path id="Trazado_198262" data-name="Trazado 198262" d="M356.967,253.316a4.412,4.412,0,0,0,1.87-.146,4.137,4.137,0,0,0,1.932-2.089A29.081,29.081,0,0,0,363.85,242a5.951,5.951,0,0,0-1.625-5.4,18.284,18.284,0,0,0-6.706,12.054c-1-.028-2.055-.046-3.1-.066-.321,1.309-.611,2.752-.861,4.369Z" transform="translate(-306.458 -182.207)" fill="#0662a2"/>
        <g id="Grupo_157805" data-name="Grupo 157805" transform="translate(25.369 51.611)">
          <path id="Trazado_198263" data-name="Trazado 198263" d="M321.586,253.7a4.259,4.259,0,0,0-1.986-1.682,1.665,1.665,0,0,0-2.133,1c-.268,1.233,1.378,2.4.883,3.56-.142.333-.441.576-.607.9a1.735,1.735,0,0,0,.4,1.911,4.76,4.76,0,0,0,1.784,1.041,7.084,7.084,0,0,0,2.825.651,2.228,2.228,0,0,0,1.61-.659c.771-.883-.108-2.205-.529-3.053A23.792,23.792,0,0,0,321.586,253.7Z" transform="translate(-317.438 -240.285)" fill="#f98c6e"/>
          <path id="Trazado_198264" data-name="Trazado 198264" d="M345.354,249.065c1.765-7.136,1.546-8.868,4.07-13.559a7.843,7.843,0,0,1,4.048-3.3,5,5,0,0,1,5,.528,5.065,5.065,0,0,1,1.647,3.647,12.191,12.191,0,0,1-.64,4.048c-2.692,9.17-4.1,10.482-9.7,18.225-7.64-.715-17.73-2.3-23.148-5.156-1.1-.581-1.171-2.45-.512-3.5.714-1.142,2.356-1.164,3.68-.917C334.046,249.871,338.859,249.187,345.354,249.065Z" transform="translate(-320.919 -231.785)" fill="#2194e5"/>
        </g>
        <path id="Trazado_198265" data-name="Trazado 198265" d="M306.864,383.064l9.373,2.53-1.011,3.18-9.171-2.433Z" transform="translate(-287.268 -243.974)" fill="#0e4066"/>
        <path id="Trazado_198266" data-name="Trazado 198266" d="M378.646,397.8l-6.771,3.091,1.477,3.035,6.554-3.036Z" transform="translate(-315.026 -250.19)" fill="#0e4066"/>
        <path id="Trazado_198267" data-name="Trazado 198267" d="M305.818,400.269v-1.79l-17.528-.23a.779.779,0,0,0-.271.621c.049.608.841.793,1.451.815Z" transform="translate(-279.661 -250.378)" fill="#808285"/>
        <path id="Trazado_198268" data-name="Trazado 198268" d="M359.39,416.379c-.3.184-.57.435-.544.77.042.525.726.685,1.253.7,3.4.121,8.813.243,13.331.364a2.8,2.8,0,0,0,2.828-2.258Q367.827,416.264,359.39,416.379Z" transform="translate(-309.531 -257.847)" fill="#808285"/>
        <g id="Grupo_157808" data-name="Grupo 157808" transform="translate(45.1 23.719)">
          <g id="Grupo_157806" data-name="Grupo 157806">
            <path id="Trazado_198269" data-name="Trazado 198269" d="M357.369,209.737c-.234,1.857.006,4.734,1.251,6.133a4.588,4.588,0,0,0,4.206,1.242,10.06,10.06,0,0,0,4.088-1.978,25.812,25.812,0,0,0,5.54-5.543c1.448-1.976,2.65-4.471,1.924-6.81A6.753,6.753,0,0,0,370.753,199a9.253,9.253,0,0,0-6.363-.834C359.048,199.555,357.944,205.156,357.369,209.737Z" transform="translate(-353.975 -189.611)" fill="#f98c6e"/>
            <path id="Trazado_198270" data-name="Trazado 198270" d="M368.693,202.85a6.113,6.113,0,0,0-5-7.382,15.119,15.119,0,0,0-4.467.285,7.863,7.863,0,0,1-4.417-.332,5.441,5.441,0,0,1-2.611-2.855,9.433,9.433,0,0,1-.636-3.877,7.737,7.737,0,0,1,.476-2.727,3.959,3.959,0,0,1,1.771-2.071,3.148,3.148,0,0,1,4.434,3.8,9.306,9.306,0,0,1,4.221-3.294c1.022-.418,2.332-.6,3.117.182a2.233,2.233,0,0,1,.524,1.955,5.729,5.729,0,0,1-.818,1.925A7.066,7.066,0,0,1,371.4,186.5a1.2,1.2,0,0,1,.68.286,1.182,1.182,0,0,1,.075,1.22,5.091,5.091,0,0,1-2.359,2.709c1.645.642,3.386,1.357,4.4,2.8a6.023,6.023,0,0,1,.915,3.945,8.364,8.364,0,0,1-3.8,6.361,2.488,2.488,0,0,1-1.653.474A1.342,1.342,0,0,1,368.693,202.85Z" transform="translate(-351.558 -183.551)" fill="#092942"/>
            <path id="Trazado_198271" data-name="Trazado 198271" d="M381.051,214.8a1.6,1.6,0,0,1,1.147-.179,1.21,1.21,0,0,1,.761,1.009,2.551,2.551,0,0,1-.235,1.3,6.023,6.023,0,0,1-3.036,3.149.95.95,0,0,1-.878.066c-.722-.455-.481-2.392-.186-3.085A5.124,5.124,0,0,1,381.051,214.8Z" transform="translate(-362.852 -196.633)" fill="#f98c6e"/>
          </g>
          <path id="Trazado_198272" data-name="Trazado 198272" d="M369.3,211.354c-.335.843-.977,1.379-1.434,1.2s-.555-1.012-.219-1.854.977-1.379,1.434-1.2S369.637,210.511,369.3,211.354Z" transform="translate(-358.26 -194.48)" fill="#092942"/>
          <path id="Trazado_198273" data-name="Trazado 198273" d="M361.019,211.354c-.335.843-.977,1.379-1.434,1.2s-.555-1.012-.219-1.854.977-1.379,1.434-1.2S361.355,210.511,361.019,211.354Z" transform="translate(-354.767 -194.48)" fill="#092942"/>
          <path id="Trazado_198274" data-name="Trazado 198274" d="M360.616,216.614a2.56,2.56,0,0,0-.563.22.533.533,0,0,0-.273.5.611.611,0,0,0,.416.416,1.737,1.737,0,0,0,1.835-.43,2.122,2.122,0,0,0,.516-1.852c-.036-.189-.178-.579-.433-.434-.173.1-.23.5-.331.666A2.209,2.209,0,0,1,360.616,216.614Z" transform="translate(-355.023 -196.817)" fill="#d1684b"/>
          <g id="Grupo_157807" data-name="Grupo 157807" transform="translate(8.019 20.954)">
            <path id="Trazado_198275" data-name="Trazado 198275" d="M366.181,222.146a2.374,2.374,0,0,1-.531-.06.289.289,0,1,1,.128-.563,1.867,1.867,0,0,0,2.256-1.5.289.289,0,0,1,.569.1,2.44,2.44,0,0,1-2.422,2.019Z" transform="translate(-365.425 -219.787)" fill="#d1684b"/>
          </g>
        </g>
      </g>
      <path id="Trazado_198276" data-name="Trazado 198276" d="M301.71,143.436a17.012,17.012,0,0,1-6,3.9c-4.641,7.289-1.026,8.206,2.747,6.133q2.246-1.234,4.49-2.471a1.521,1.521,0,0,0,.649-.537,1.537,1.537,0,0,0-.071-1.224C302.9,147.429,303.14,144.714,301.71,143.436Z" transform="translate(-107.311 -47.566)" fill="#e67a5c"/>
      <path id="Trazado_198277" data-name="Trazado 198277" d="M275.229,246.826a31.924,31.924,0,0,0-2.5,4.146,1.35,1.35,0,0,0-.2.976.926.926,0,0,0,.715.574,2.725,2.725,0,0,0,.955-.029,27.565,27.565,0,0,0-.96,4.565.887.887,0,0,0,.729.771c.46.034,1.707-1.728,2.719-3.485a11.065,11.065,0,0,0,2.126-1.063,3.63,3.63,0,0,0,1.452-1.8,3.941,3.941,0,0,0-.714-3.349,4.815,4.815,0,0,0-1.562-1.5C277.346,246.271,275.94,246.669,275.229,246.826Z" transform="translate(-98.439 -91.025)" fill="#f98c6e"/>
      <path id="Trazado_198278" data-name="Trazado 198278" d="M293.436,165.346c1.02,16.7-4.509,34.968-12.077,50.005a12.384,12.384,0,0,1-5.614-.58,207.921,207.921,0,0,1,6.933-38.756,15.384,15.384,0,0,1,2.648-6.086C286.761,168.222,291.379,164.482,293.436,165.346Z" transform="translate(-99.812 -56.753)" fill="#7f4fc7"/>
      <g id="Grupo_157812" data-name="Grupo 157812" transform="translate(190.675 83.948)">
        <g id="Grupo_157810" data-name="Grupo 157810">
          <path id="Trazado_198279" data-name="Trazado 198279" d="M312.708,150.448c-1.586,1.184-4.4,2.506-6.44,2.193a5.02,5.02,0,0,1-3.662-2.909,9.215,9.215,0,0,1-.6-4.516,23.6,23.6,0,0,1,1.839-7.64c.97-2.276,2.569-4.62,5.174-5.245a8.135,8.135,0,0,1,5.672,1.068,9.715,9.715,0,0,1,4.571,4.955C321.156,143.622,316.616,147.531,312.708,150.448Z" transform="translate(-301.544 -126.764)" fill="#f98c6e"/>
          <path id="Trazado_198280" data-name="Trazado 198280" d="M304.122,133.784c3.146.906,5.584.432,7.159-2.609.78,3.586,7.569,15.792,14.134,9.947-3.221-1.663-3.035-5.042-4.113-8.329a8.3,8.3,0,0,0-2.138-3.589,5.2,5.2,0,0,0-4.084-1.415,15.624,15.624,0,0,0,2.491-1.159c.265-.153.552-.354.57-.641.027-.414-.508-.665-.962-.731a4.343,4.343,0,0,0-3.25.832,4.96,4.96,0,0,0-2.277-2.929,2.183,2.183,0,0,0-.917-.339.956.956,0,0,0-.864.34,1.052,1.052,0,0,0-.1.767,5.012,5.012,0,0,0,1.357,2.676,6.432,6.432,0,0,0-5.677,2.363,15.713,15.713,0,0,0-2.622,5.419C303.139,134.292,303.815,133.881,304.122,133.784Z" transform="translate(-301.911 -122.819)" fill="#092942"/>
          <path id="Trazado_198281" data-name="Trazado 198281" d="M305.39,139.31a1.56,1.56,0,0,0-.519-1.068,1.456,1.456,0,0,0-1.391-.11,2.686,2.686,0,0,0-1.064.888,5.552,5.552,0,0,0-1.112,4.246.944.944,0,0,0,.463.779c.853.371,2.507-.861,2.974-1.479A4.692,4.692,0,0,0,305.39,139.31Z" transform="translate(-301.239 -129.225)" fill="#f98c6e"/>
        </g>
        <path id="Trazado_198282" data-name="Trazado 198282" d="M317.491,148.921c-.582.732-.7,1.56-.256,1.85s1.27-.066,1.852-.8.7-1.56.255-1.851S318.073,148.189,317.491,148.921Z" transform="translate(-307.872 -133.448)" fill="#092942"/>
        <path id="Trazado_198283" data-name="Trazado 198283" d="M322.432,155.945c-.582.732-.7,1.56-.255,1.85s1.27-.066,1.852-.8.7-1.56.255-1.85S323.015,155.214,322.432,155.945Z" transform="translate(-309.956 -136.41)" fill="#092942"/>
        <path id="Trazado_198284" data-name="Trazado 198284" d="M317.673,158.564a2.364,2.364,0,0,1,.132.594.517.517,0,0,1-.3.5.733.733,0,0,1-.634-.132,1.67,1.67,0,0,1-.7-1.784,2.172,2.172,0,0,1,1.411-1.42c.2-.069.644-.156.661.138.012.2-.326.459-.42.634A2.009,2.009,0,0,0,317.673,158.564Z" transform="translate(-307.516 -136.919)" fill="#d1684b"/>
        <g id="Grupo_157811" data-name="Grupo 157811" transform="translate(4.557 17.611)">
          <path id="Trazado_198285" data-name="Trazado 198285" d="M309.557,156.473a2.509,2.509,0,0,0,.372.42.342.342,0,0,0,.451,0,.269.269,0,0,0,0-.409,1.839,1.839,0,0,1-.619-1.369,1.807,1.807,0,0,1,.662-1.338.268.268,0,0,0,.018-.408.342.342,0,0,0-.45-.021,2.268,2.268,0,0,0-.429,3.125Z" transform="translate(-309.118 -153.274)" fill="#d1684b"/>
        </g>
      </g>
      <g id="Grupo_157816" data-name="Grupo 157816" transform="translate(70.743 163.485)">
        <path id="Trazado_198286" data-name="Trazado 198286" d="M192.149,358.46a13.655,13.655,0,0,1,3.933-.153,4.619,4.619,0,0,1,3.283,1.965c.838,1.371.612,3.131.183,4.68a40.618,40.618,0,0,1-3.744,8.431c-3.448,6.342-7.077,12.583-10.7,18.822a11.2,11.2,0,0,1-3.439-.214,3.426,3.426,0,0,1-2.3-2.175,5.072,5.072,0,0,1,.091-2.3q1.984-10.157,3.968-20.314c.427-2.184.893-4.457,2.26-6.213S190.192,357.4,192.149,358.46Z" transform="translate(-129.865 -301.602)" fill="#092942"/>
        <path id="Trazado_198287" data-name="Trazado 198287" d="M200.051,371.69a6.571,6.571,0,0,1-.369-.615,22.321,22.321,0,0,1-2.4-8.548,21.543,21.543,0,0,1,.114-4.26c-.64.043-1.28.128-1.914.215a2.587,2.587,0,0,0-.928-.283q-1.63.427-3.255.873a8.239,8.239,0,0,0-2.284,1.94,11.032,11.032,0,0,0-1.854,4.3c.808,1.1,1.566,2.247,2.352,3.354a53.834,53.834,0,0,0,7.53,8.526c.7-1.261,1.4-2.523,2.093-3.791Q199.6,372.551,200.051,371.69Z" transform="translate(-133.195 -301.625)" fill="#051d2e"/>
        <path id="Trazado_198288" data-name="Trazado 198288" d="M193.907,382.522a40.587,40.587,0,0,0-3.845-5.488c-1.277-1.452-3.152-2.814-5-2.233-.086.027-.165.068-.247.1l-1.9,9.751a5.209,5.209,0,0,1,.932.31A9.652,9.652,0,0,1,188.251,390a18.073,18.073,0,0,1,1.125,4.456q2.879-4.973,5.69-9.984C194.7,383.809,194.3,383.159,193.907,382.522Z" transform="translate(-131.405 -308.568)" fill="#051d2e"/>
        <path id="Trazado_198289" data-name="Trazado 198289" d="M132.776,318.2a146.94,146.94,0,0,0,27.891,24.845c-.97,1.241-2.077,2.591-3.64,2.787a6.105,6.105,0,0,1-3.631-1.135c-5.13-2.911-10.332-5.877-14.463-10.087A22.274,22.274,0,0,1,132.776,318.2Z" transform="translate(-110.245 -284.753)" fill="#7f4fc7"/>
        <path id="Trazado_198290" data-name="Trazado 198290" d="M132.776,318.2a22.276,22.276,0,0,0,6.158,16.41,37.5,37.5,0,0,0,4.25,3.677c.03-1.116.042-2.233.024-3.349-.034-2.079-.149-4.167-.346-6.246Q137.566,323.693,132.776,318.2Z" transform="translate(-110.245 -284.753)" fill="#5c309e"/>
        <path id="Trazado_198291" data-name="Trazado 198291" d="M107.834,312.948q-4.274,1.608-8.414,3.44a5.8,5.8,0,0,0-2.652,1.825c-.733,1.15-.328,2.588.1,3.878q5.326,16.13,11.934,31.976c.277.664,4,9.9,4.708,10.011,3.843.583,4.642-8.029,8.493-8.311a6.376,6.376,0,0,0,2.973-.737,4.531,4.531,0,0,0,1.683-2.946c1.237-4.963-3.4-30.009-6.548-34.749S113.551,310.8,107.834,312.948Z" transform="translate(-94.903 -282.161)" fill="#7f4fc7"/>
        <path id="Trazado_198292" data-name="Trazado 198292" d="M128.528,353.449a4.989,4.989,0,0,0,1.52.3c-.234-2.215-.585-4.71-1.018-7.284a33.3,33.3,0,0,1-7.447-1.982,40.53,40.53,0,0,1-4.184-1.927,70.214,70.214,0,0,1-12.726-9.072,40.572,40.572,0,0,0,5.233,8.074,35.907,35.907,0,0,0,6.673,5.454A51.943,51.943,0,0,0,128.528,353.449Z" transform="translate(-98.407 -291.203)" fill="#5c309e"/>
        <path id="Trazado_198293" data-name="Trazado 198293" d="M115.151,302.889a17.609,17.609,0,0,0-.236,6.709,1.733,1.733,0,0,1-1.84,2.013,17.092,17.092,0,0,1-2.648-.4,2.066,2.066,0,0,1-.949-.412,2.194,2.194,0,0,1-.534-1.31q-.54-3.235-1.081-6.471a2.727,2.727,0,0,1,.117-1.82,2.559,2.559,0,0,1,2.232-.92,6,6,0,0,1,2.69.4C113.734,301.06,115.358,302,115.151,302.889Z" transform="translate(-99.712 -277.196)" fill="#e67a5c"/>
        <g id="Grupo_157814" data-name="Grupo 157814" transform="translate(0)">
          <path id="Trazado_198294" data-name="Trazado 198294" d="M117.953,287.636c.539,1.9.769,5-.253,6.8a5.02,5.02,0,0,1-4.025,2.381,9.221,9.221,0,0,1-4.434-1.051,23.6,23.6,0,0,1-6.478-4.448c-1.779-1.72-3.4-4.05-3.049-6.706a8.133,8.133,0,0,1,3.025-4.916,9.7,9.7,0,0,1,6.26-2.5C114.6,277.3,116.625,282.942,117.953,287.636Z" transform="translate(-96.296 -267.462)" fill="#f98c6e"/>
          <path id="Trazado_198295" data-name="Trazado 198295" d="M116.794,291.126c.475.8,1.208,1.207,1.637.9s.391-1.21-.083-2.015-1.209-1.208-1.638-.9S116.319,290.321,116.794,291.126Z" transform="translate(-103.358 -272.444)" fill="#092942"/>
          <path id="Trazado_198296" data-name="Trazado 198296" d="M125.12,289.021c.475.8,1.208,1.208,1.637.9s.392-1.21-.083-2.015-1.208-1.208-1.637-.9S124.645,288.216,125.12,289.021Z" transform="translate(-106.87 -271.556)" fill="#092942"/>
          <path id="Trazado_198297" data-name="Trazado 198297" d="M125.821,294.67a2.366,2.366,0,0,1,.6.089.517.517,0,0,1,.357.461.735.735,0,0,1-.35.545,1.669,1.669,0,0,1-1.915.012,2.172,2.172,0,0,1-.822-1.826c.005-.208.084-.656.365-.568.19.06.312.468.441.619A2.013,2.013,0,0,0,125.821,294.67Z" transform="translate(-106.429 -274.285)" fill="#d1684b"/>
          <g id="Grupo_157813" data-name="Grupo 157813" transform="translate(13.986 22.95)">
            <path id="Trazado_198298" data-name="Trazado 198298" d="M120.807,302.009a2.419,2.419,0,0,0,.524-.2.342.342,0,0,0,.162-.421.269.269,0,0,0-.383-.142,1.839,1.839,0,0,1-1.5.089,1.8,1.8,0,0,1-1.013-1.1.269.269,0,0,0-.375-.162.342.342,0,0,0-.181.413,2.268,2.268,0,0,0,2.766,1.517Z" transform="translate(-118.024 -300.052)" fill="#d1684b"/>
          </g>
          <path id="Trazado_198299" data-name="Trazado 198299" d="M100.8,284.631a7.061,7.061,0,0,0,.354-8.45,46.13,46.13,0,0,0,9.689-2.478,5.948,5.948,0,0,0,3.472-2.466,4.671,4.671,0,0,0,.209-3.158c-.734-3.173-3.141-5.685-5.688-7.715l1.344,4.019a15.157,15.157,0,0,0-4.405-3.258,32.666,32.666,0,0,1,2.163,5.658,16.2,16.2,0,0,0-9.163,1.546,9.089,9.089,0,0,0-4.931,7.491,8.66,8.66,0,0,0,1.956,5.4C97.007,282.756,99.048,283.761,100.8,284.631Z" transform="translate(-93.839 -260.364)" fill="#092942"/>
          <path id="Trazado_198300" data-name="Trazado 198300" d="M103.691,298.123a1.558,1.558,0,0,0-1.183.1,1.456,1.456,0,0,0-.6,1.259,2.693,2.693,0,0,0,.449,1.311,5.552,5.552,0,0,0,3.568,2.556.945.945,0,0,0,.893-.154c.652-.664.091-2.65-.319-3.307A4.69,4.69,0,0,0,103.691,298.123Z" transform="translate(-97.241 -276.26)" fill="#f98c6e"/>
        </g>
        <path id="Trazado_198301" data-name="Trazado 198301" d="M103.134,346.459A71.185,71.185,0,0,0,116.34,355.2a44.7,44.7,0,0,0,12.056,4.033c-.068-1.579-.245-3.477-.507-5.552-1.858-.663-3.7-1.377-5.507-2.163a93.145,93.145,0,0,1-22.309-13.692Q101.556,342.155,103.134,346.459Z" transform="translate(-96.468 -293.034)" fill="#5c309e"/>
        <path id="Trazado_198302" data-name="Trazado 198302" d="M105.165,327.192c1.227,5.1,5.59,9.344,10.783,12.067s11.184,4.107,17.14,5.208a4.009,4.009,0,0,1,.7,1.563,1.509,1.509,0,0,1-.594,1.607,3.125,3.125,0,0,1-1.64.34,40.559,40.559,0,0,1-21.37-5.6,32.179,32.179,0,0,1-13.395-15.291,7.086,7.086,0,0,1-.652-2.834,3.133,3.133,0,0,1,1.377-2.551c1.5-.966,3.77-.463,5.089.676A9.775,9.775,0,0,1,105.165,327.192Z" transform="translate(-94.808 -286.017)" fill="#7f4fc7"/>
        <path id="Trazado_198303" data-name="Trazado 198303" d="M180.6,348.716c.249,1.083.215,4.162.428,5.544-10.545,3.818-21.5,5.309-32.77,8.463l-5.344,1.5a2.7,2.7,0,0,1-1.957.043c-.593-.312-.764-1.343-.145-1.6,11.446-4.669,22.435-10.535,34.181-14.385a9.456,9.456,0,0,1,2.72-.6C178.641,347.668,180.389,347.808,180.6,348.716Z" transform="translate(-113.483 -297.191)" fill="#92c6f0"/>
        <g id="Grupo_157815" data-name="Grupo 157815" transform="translate(37.453 35.174)">
          <path id="Trazado_198304" data-name="Trazado 198304" d="M161.6,325.235l27.3-4.021a2.015,2.015,0,0,1,2.279,2.353,174.492,174.492,0,0,0-2.491,19.52c-9.664,1.288-18.916,2.445-30.089,4.142.742-7.54,1.1-13.53,1.274-20.047A2.021,2.021,0,0,1,161.6,325.235Z" transform="translate(-158.606 -321.192)" fill="#92c6f0"/>
          <path id="Trazado_198305" data-name="Trazado 198305" d="M190.154,341.777a2.936,2.936,0,1,1-2.257-3.891A3.205,3.205,0,0,1,190.154,341.777Z" transform="translate(-169.483 -328.217)" fill="#a6d7ff"/>
        </g>
        <path id="Trazado_198306" data-name="Trazado 198306" d="M126.688,388.24a17.086,17.086,0,0,0,10.7-.219c7.757-2.531,13.933-8.336,19.833-13.973,4.083,5.9,9.048,11.562,13.131,17.46a7.765,7.765,0,0,0,3.267,3.145c1.434.551,5.147-3.9,4.968-5.074a10.546,10.546,0,0,0-1.3-3.313,187.912,187.912,0,0,0-11.4-18.382c-1.553-2.241-3.32-4.6-5.924-5.41-2.714-.844-5.612.212-8.272,1.212-8.563,3.221-15.488,4.256-25,7.227C115.8,374.313,121.31,386.3,126.688,388.24Z" transform="translate(-105.049 -303.298)" fill="#092942"/>
        <path id="Trazado_198307" data-name="Trazado 198307" d="M228.4,412.9c.375.073.822.212.91.585.1.448-.394.783-.819.961-4.267,1.782-8.91,2.418-13.493,3.036a3.08,3.08,0,0,1-1.707-.093,2.791,2.791,0,0,1-1.228-1.546,3.693,3.693,0,0,1-.386-2.014,3.289,3.289,0,0,1,1.8-2.157,7.134,7.134,0,0,1,2.5-1.087,14.105,14.105,0,0,1,2.673.5q3.148.56,6.29,1.154Q226.672,412.561,228.4,412.9Z" transform="translate(-143.524 -323.716)" fill="#fff"/>
        <path id="Trazado_198308" data-name="Trazado 198308" d="M176.686,415.5a2.871,2.871,0,0,0-.068,1.918A2.092,2.092,0,0,0,177.9,418.5a5.99,5.99,0,0,0,1.708.233c3.087.113,6.178.1,9.267.094a16.068,16.068,0,0,0,2.59-.147c.479-.079,1.067-.357,1.008-.839-.042-.342-.4-.54-.712-.681q-3.485-1.573-7.052-2.955-1.809-.7-3.638-1.352c-.686-.245-2-.995-2.75-.686C177.389,412.545,176.94,414.631,176.686,415.5Z" transform="translate(-128.69 -324.353)" fill="#fff"/>
      </g>
    </g>
    <g id="Grupo_157818" data-name="Grupo 157818" transform="translate(384.278 2596.398)">
      <g id="Grupo_154315-2" data-name="Grupo 154315" transform="translate(38.286 11.135)">
        <path id="Trazado_195058-2" data-name="Trazado 195058" d="M14.271,226.292H61.51a1.771,1.771,0,1,0,0-3.541H14.271a1.771,1.771,0,1,0,0,3.541" transform="translate(-12.5 -222.751)" fill="#b7aadb"/>
        <path id="Trazado_195059-2" data-name="Trazado 195059" d="M84.232,226.292H96.157a1.771,1.771,0,1,0,0-3.541H84.232a1.771,1.771,0,1,0,0,3.541" transform="translate(-27.336 -222.751)" fill="#b7aadb"/>
        <path id="Trazado_195064-2" data-name="Trazado 195064" d="M117.7,232.612H84.518a1.244,1.244,0,0,0,0,2.488H117.7a1.244,1.244,0,0,0,0-2.488" transform="translate(-27.508 -224.842)" fill="#b7aadb"/>
        <path id="Trazado_195065-2" data-name="Trazado 195065" d="M75.234,232.612H66.857a1.244,1.244,0,0,0,0,2.488h8.377a1.244,1.244,0,1,0,0-2.488" transform="translate(-23.763 -224.842)" fill="#b7aadb"/>
      </g>
      <g id="Grupo_154316-2" data-name="Grupo 154316">
        <path id="Trazado_195062-2" data-name="Trazado 195062" d="M169.825,1.333H114.059c-1.155,0-2.09.557-2.09,1.243s.935,1.244,2.09,1.244h55.766c1.155,0,2.091-.557,2.091-1.244s-.936-1.243-2.091-1.243" transform="translate(-75.613 -1.333)" fill="#b7aadb"/>
        <path id="Trazado_195063-2" data-name="Trazado 195063" d="M119.443,1.333H97.558c-1.8,0-3.249.557-3.249,1.243s1.453,1.244,3.249,1.244h21.886c1.8,0,3.249-.557,3.249-1.244s-1.453-1.243-3.249-1.243" transform="translate(-94.309 -1.333)" fill="#b7aadb"/>
      </g>
    </g>
  </g>
</svg>
